solid OpenSCAD_Model
  facet normal 0 0 -1
    outer loop
      vertex -15.557 105.446 10
      vertex -14.6549 104.81 10
      vertex -13.8027 104.083 10
    endloop
  endfacet
  facet normal 0 0 -1
    outer loop
      vertex -16.5106 105.997 10
      vertex -13.8027 104.083 10
      vertex -12.9988 103.259 10
    endloop
  endfacet
  facet normal -0 -0 -1
    outer loop
      vertex -15.557 105.446 10
      vertex -13.8027 104.083 10
      vertex -16.5106 105.997 10
    endloop
  endfacet
  facet normal 0 0 -1
    outer loop
      vertex -17.5173 106.47 10
      vertex -16.5106 105.997 10
      vertex -12.9988 103.259 10
    endloop
  endfacet
  facet normal 0 0 -1
    outer loop
      vertex -12.2416 102.332 10
      vertex -17.5173 106.47 10
      vertex -12.9988 103.259 10
    endloop
  endfacet
  facet normal 0 0 -1
    outer loop
      vertex -12.2416 102.332 10
      vertex -18.5786 106.87 10
      vertex -17.5173 106.47 10
    endloop
  endfacet
  facet normal -0 -0 -1
    outer loop
      vertex -12.2416 102.332 10
      vertex -11.5297 101.297 10
      vertex -18.5786 106.87 10
    endloop
  endfacet
  facet normal -0 -0 -1
    outer loop
      vertex -18.5786 106.87 10
      vertex -11.5297 101.297 10
      vertex -19.6961 107.204 10
    endloop
  endfacet
  facet normal 0 0 -1
    outer loop
      vertex -19.6961 107.204 10
      vertex -11.5297 101.297 10
      vertex -10.8613 100.147 10
    endloop
  endfacet
  facet normal 0 0 -1
    outer loop
      vertex -20.8715 107.477 10
      vertex -19.6961 107.204 10
      vertex -10.8613 100.147 10
    endloop
  endfacet
  facet normal 0 0 -1
    outer loop
      vertex -10.2349 98.8752 10
      vertex -20.8715 107.477 10
      vertex -10.8613 100.147 10
    endloop
  endfacet
  facet normal 0 0 -1
    outer loop
      vertex -10.2349 98.8752 10
      vertex -22.1062 107.696 10
      vertex -20.8715 107.477 10
    endloop
  endfacet
  facet normal -0 -0 -1
    outer loop
      vertex -10.2349 98.8752 10
      vertex -9.64896 97.4768 10
      vertex -22.1062 107.696 10
    endloop
  endfacet
  facet normal -0 -0 -1
    outer loop
      vertex -22.1062 107.696 10
      vertex -9.64896 97.4768 10
      vertex -23.4019 107.866 10
    endloop
  endfacet
  facet normal 0 0 -1
    outer loop
      vertex -23.4019 107.866 10
      vertex -9.64896 97.4768 10
      vertex -9.10187 95.9454 10
    endloop
  endfacet
  facet normal 0 0 -1
    outer loop
      vertex -24.7601 107.995 10
      vertex -23.4019 107.866 10
      vertex -9.10187 95.9454 10
    endloop
  endfacet
  facet normal 0 0 -1
    outer loop
      vertex -8.59204 94.2747 10
      vertex -24.7601 107.995 10
      vertex -9.10187 95.9454 10
    endloop
  endfacet
  facet normal 0 0 -1
    outer loop
      vertex -8.59204 94.2747 10
      vertex -26.1825 108.086 10
      vertex -24.7601 107.995 10
    endloop
  endfacet
  facet normal -0 -0 -1
    outer loop
      vertex -8.59204 94.2747 10
      vertex -8.1179 92.459 10
      vertex -26.1825 108.086 10
    endloop
  endfacet
  facet normal -0 -0 -1
    outer loop
      vertex -26.1825 108.086 10
      vertex -8.1179 92.459 10
      vertex -27.6706 108.148 10
    endloop
  endfacet
  facet normal 0 0 -1
    outer loop
      vertex -27.6706 108.148 10
      vertex -8.1179 92.459 10
      vertex -7.67787 90.4919 10
    endloop
  endfacet
  facet normal 0 0 -1
    outer loop
      vertex -29.2259 108.185 10
      vertex -27.6706 108.148 10
      vertex -7.67787 90.4919 10
    endloop
  endfacet
  facet normal 0 0 -1
    outer loop
      vertex -7.27037 88.3676 10
      vertex -29.2259 108.185 10
      vertex -7.67787 90.4919 10
    endloop
  endfacet
  facet normal 0 0 -1
    outer loop
      vertex -7.27037 88.3676 10
      vertex -30.8501 108.204 10
      vertex -29.2259 108.185 10
    endloop
  endfacet
  facet normal -0 -0 -1
    outer loop
      vertex -7.27037 88.3676 10
      vertex -6.89383 86.08 10
      vertex -30.8501 108.204 10
    endloop
  endfacet
  facet normal -0 -0 -1
    outer loop
      vertex -30.8501 108.204 10
      vertex -6.89383 86.08 10
      vertex -32.5448 108.211 10
    endloop
  endfacet
  facet normal -0 -0 -1
    outer loop
      vertex -32.5448 108.211 10
      vertex -6.89383 86.08 10
      vertex -34.3114 108.212 10
    endloop
  endfacet
  facet normal 0 0 -1
    outer loop
      vertex -34.3114 108.212 10
      vertex -6.89383 86.08 10
      vertex -6.54666 83.623 10
    endloop
  endfacet
  facet normal 0 0 -1
    outer loop
      vertex -6.22728 80.9905 10
      vertex -34.3114 108.212 10
      vertex -6.54666 83.623 10
    endloop
  endfacet
  facet normal 0 0 -1
    outer loop
      vertex -6.22728 80.9905 10
      vertex -39.5513 108.211 10
      vertex -34.3114 108.212 10
    endloop
  endfacet
  facet normal -0 -0 -1
    outer loop
      vertex -6.22728 80.9905 10
      vertex -5.93411 78.1766 10
      vertex -39.5513 108.211 10
    endloop
  endfacet
  facet normal 0 0 -1
    outer loop
      vertex -39.5513 108.211 10
      vertex -5.93411 78.1766 10
      vertex -5.66559 75.1751 10
    endloop
  endfacet
  facet normal 0 0 -1
    outer loop
      vertex -44.4598 108.206 10
      vertex -39.5513 108.211 10
      vertex -5.66559 75.1751 10
    endloop
  endfacet
  facet normal 0 0 -1
    outer loop
      vertex -5.4201 71.9801 10
      vertex -44.4598 108.206 10
      vertex -5.66559 75.1751 10
    endloop
  endfacet
  facet normal -0 -0 -1
    outer loop
      vertex -5.4201 71.9801 10
      vertex -5.19609 68.5855 10
      vertex -44.4598 108.206 10
    endloop
  endfacet
  facet normal 0 -0 -1
    outer loop
      vertex -44.4598 108.206 10
      vertex -5.19609 68.5855 10
      vertex -49.0488 108.19 10
    endloop
  endfacet
  facet normal 0 0 -1
    outer loop
      vertex -49.0488 108.19 10
      vertex -5.19609 68.5855 10
      vertex -4.99199 64.9851 10
    endloop
  endfacet
  facet normal 0 0 -1
    outer loop
      vertex -53.3305 108.16 10
      vertex -49.0488 108.19 10
      vertex -4.99199 64.9851 10
    endloop
  endfacet
  facet normal 0 0 -1
    outer loop
      vertex -4.80618 61.1731 10
      vertex -53.3305 108.16 10
      vertex -4.99199 64.9851 10
    endloop
  endfacet
  facet normal 0 0 -1
    outer loop
      vertex -61.0197 108.036 10
      vertex -97.8553 78.9643 10
      vertex -64.4514 107.933 10
    endloop
  endfacet
  facet normal 0 0 -1
    outer loop
      vertex -64.4514 107.933 10
      vertex -97.2553 81.5435 10
      vertex -67.6238 107.796 10
    endloop
  endfacet
  facet normal 0 0 -1
    outer loop
      vertex -96.1677 86.2379 10
      vertex -73.2389 107.398 10
      vertex -70.549 107.619 10
    endloop
  endfacet
  facet normal 0 0 -1
    outer loop
      vertex -96.1677 86.2379 10
      vertex -95.656 88.3629 10
      vertex -73.2389 107.398 10
    endloop
  endfacet
  facet normal 0 0 -1
    outer loop
      vertex -95.1496 90.3463 10
      vertex -77.9613 106.806 10
      vertex -75.7057 107.129 10
    endloop
  endfacet
  facet normal 0 -0 -1
    outer loop
      vertex -81.8872 105.979 10
      vertex -80.0178 106.424 10
      vertex -94.1048 93.9077 10
    endloop
  endfacet
  facet normal 0 -0 -1
    outer loop
      vertex -94.1048 93.9077 10
      vertex -80.0178 106.424 10
      vertex -94.6366 92.1929 10
    endloop
  endfacet
  facet normal 0 -0 -1
    outer loop
      vertex -92.9372 96.9614 10
      vertex -83.5816 105.465 10
      vertex -93.5424 95.4956 10
    endloop
  endfacet
  facet normal 0 -0 -1
    outer loop
      vertex -86.4931 104.214 10
      vertex -85.1129 104.879 10
      vertex -92.2772 98.31 10
    endloop
  endfacet
  facet normal 0 -0 -1
    outer loop
      vertex -87.7344 103.466 10
      vertex -86.4931 104.214 10
      vertex -91.5504 99.5462 10
    endloop
  endfacet
  facet normal 0 -0 -1
    outer loop
      vertex -90.7447 100.675 10
      vertex -87.7344 103.466 10
      vertex -91.5504 99.5462 10
    endloop
  endfacet
  facet normal 0 -0 -1
    outer loop
      vertex -89.8482 101.701 10
      vertex -88.8488 102.63 10
      vertex -90.7447 100.675 10
    endloop
  endfacet
  facet normal 0 0 -1
    outer loop
      vertex -90.7447 100.675 10
      vertex -88.8488 102.63 10
      vertex -87.7344 103.466 10
    endloop
  endfacet
  facet normal 0 -0 -1
    outer loop
      vertex -91.5504 99.5462 10
      vertex -86.4931 104.214 10
      vertex -92.2772 98.31 10
    endloop
  endfacet
  facet normal 0 -0 -1
    outer loop
      vertex -92.2772 98.31 10
      vertex -85.1129 104.879 10
      vertex -92.9372 96.9614 10
    endloop
  endfacet
  facet normal 0 0 -1
    outer loop
      vertex -92.9372 96.9614 10
      vertex -85.1129 104.879 10
      vertex -83.5816 105.465 10
    endloop
  endfacet
  facet normal 0 0 -1
    outer loop
      vertex -93.5424 95.4956 10
      vertex -83.5816 105.465 10
      vertex -81.8872 105.979 10
    endloop
  endfacet
  facet normal 0 0 -1
    outer loop
      vertex -94.1048 93.9077 10
      vertex -93.5424 95.4956 10
      vertex -81.8872 105.979 10
    endloop
  endfacet
  facet normal 0 0 -1
    outer loop
      vertex -94.6366 92.1929 10
      vertex -80.0178 106.424 10
      vertex -77.9613 106.806 10
    endloop
  endfacet
  facet normal 0 0 -1
    outer loop
      vertex -95.1496 90.3463 10
      vertex -94.6366 92.1929 10
      vertex -77.9613 106.806 10
    endloop
  endfacet
  facet normal 0 0 -1
    outer loop
      vertex -95.656 88.3629 10
      vertex -95.1496 90.3463 10
      vertex -75.7057 107.129 10
    endloop
  endfacet
  facet normal 0 0 -1
    outer loop
      vertex -73.2389 107.398 10
      vertex -95.656 88.3629 10
      vertex -75.7057 107.129 10
    endloop
  endfacet
  facet normal 0 0 -1
    outer loop
      vertex -96.6968 83.9664 10
      vertex -96.1677 86.2379 10
      vertex -70.549 107.619 10
    endloop
  endfacet
  facet normal 0 0 -1
    outer loop
      vertex -67.6238 107.796 10
      vertex -96.6968 83.9664 10
      vertex -70.549 107.619 10
    endloop
  endfacet
  facet normal 0 0 -1
    outer loop
      vertex -67.6238 107.796 10
      vertex -97.2553 81.5435 10
      vertex -96.6968 83.9664 10
    endloop
  endfacet
  facet normal 0 0 -1
    outer loop
      vertex -64.4514 107.933 10
      vertex -97.8553 78.9643 10
      vertex -97.2553 81.5435 10
    endloop
  endfacet
  facet normal 0 0 -1
    outer loop
      vertex -61.0197 108.036 10
      vertex -98.5088 76.224 10
      vertex -97.8553 78.9643 10
    endloop
  endfacet
  facet normal 0 -0 -1
    outer loop
      vertex -61.0197 108.036 10
      vertex -57.3168 108.111 10
      vertex -98.5088 76.224 10
    endloop
  endfacet
  facet normal 0 -0 -1
    outer loop
      vertex -98.5088 76.224 10
      vertex -57.3168 108.111 10
      vertex -99.2277 73.3177 10
    endloop
  endfacet
  facet normal 0 0 -1
    outer loop
      vertex -99.2277 73.3177 10
      vertex -57.3168 108.111 10
      vertex -53.3305 108.16 10
    endloop
  endfacet
  facet normal 0 0 -1
    outer loop
      vertex -4.80618 61.1731 10
      vertex -99.2277 73.3177 10
      vertex -53.3305 108.16 10
    endloop
  endfacet
  facet normal 0 0 -1
    outer loop
      vertex -4.80618 61.1731 10
      vertex -100.024 70.2405 10
      vertex -99.2277 73.3177 10
    endloop
  endfacet
  facet normal -0 -0 -1
    outer loop
      vertex -4.80618 61.1731 10
      vertex -4.63713 57.1432 10
      vertex -100.024 70.2405 10
    endloop
  endfacet
  facet normal 0 -0 -1
    outer loop
      vertex -100.024 70.2405 10
      vertex -4.63713 57.1432 10
      vertex -100.91 66.9874 10
    endloop
  endfacet
  facet normal 0 0 -1
    outer loop
      vertex -100.91 66.9874 10
      vertex -4.63713 57.1432 10
      vertex -51.204 6.22711 10
    endloop
  endfacet
  facet normal 0 0 -1
    outer loop
      vertex -101.898 63.5537 10
      vertex -100.91 66.9874 10
      vertex -51.204 6.22711 10
    endloop
  endfacet
  facet normal 0 0 -1
    outer loop
      vertex -51.204 6.22711 10
      vertex -4.63713 57.1432 10
      vertex -4.48322 52.8896 10
    endloop
  endfacet
  facet normal 0 0 -1
    outer loop
      vertex -51.204 6.22711 10
      vertex -102.999 59.9345 10
      vertex -101.898 63.5537 10
    endloop
  endfacet
  facet normal -0 0 -1
    outer loop
      vertex -4.3429 48.4061 10
      vertex -51.204 6.22711 10
      vertex -4.48322 52.8896 10
    endloop
  endfacet
  facet normal 0 -0 -1
    outer loop
      vertex -102.999 59.9345 10
      vertex -51.204 6.22711 10
      vertex -104.226 56.1248 10
    endloop
  endfacet
  facet normal 0 0 -1
    outer loop
      vertex -4.3429 48.4061 10
      vertex -50.9442 6.20482 10
      vertex -51.204 6.22711 10
    endloop
  endfacet
  facet normal 0 0 -1
    outer loop
      vertex -105.591 52.1197 10
      vertex -104.226 56.1248 10
      vertex -51.204 6.22711 10
    endloop
  endfacet
  facet normal 0 0 -1
    outer loop
      vertex -107.105 47.9145 10
      vertex -105.591 52.1197 10
      vertex -51.204 6.22711 10
    endloop
  endfacet
  facet normal 0 0 -1
    outer loop
      vertex -108.781 43.5041 10
      vertex -107.105 47.9145 10
      vertex -51.204 6.22711 10
    endloop
  endfacet
  facet normal 0 -0 -1
    outer loop
      vertex -4.3429 48.4061 10
      vertex -4.21455 43.6866 10
      vertex -50.9442 6.20482 10
    endloop
  endfacet
  facet normal 0 0 -1
    outer loop
      vertex -51.204 6.22711 10
      vertex -98.5823 6.27072 10
      vertex -108.781 43.5041 10
    endloop
  endfacet
  facet normal 0 -0 -1
    outer loop
      vertex -108.781 43.5041 10
      vertex -98.5823 6.27072 10
      vertex -110.63 38.8838 10
    endloop
  endfacet
  facet normal 0 -0 -1
    outer loop
      vertex -110.63 38.8838 10
      vertex -98.5823 6.27072 10
      vertex -112.666 34.0486 10
    endloop
  endfacet
  facet normal 0 0 -1
    outer loop
      vertex -50.9442 6.20482 10
      vertex -4.21455 43.6866 10
      vertex -50.6997 6.1409 10
    endloop
  endfacet
  facet normal 0 0 -1
    outer loop
      vertex -114.899 28.9937 10
      vertex -112.666 34.0486 10
      vertex -98.5823 6.27072 10
    endloop
  endfacet
  facet normal 0 0 -1
    outer loop
      vertex -50.6997 6.1409 10
      vertex -4.21455 43.6866 10
      vertex -4.09665 38.7252 10
    endloop
  endfacet
  facet normal 0 0 -1
    outer loop
      vertex -98.5823 6.27072 10
      vertex -117.343 23.7141 10
      vertex -114.899 28.9937 10
    endloop
  endfacet
  facet normal 0 0 -1
    outer loop
      vertex -50.4747 6.03941 10
      vertex -50.6997 6.1409 10
      vertex -4.09665 38.7252 10
    endloop
  endfacet
  facet normal 0 0 -1
    outer loop
      vertex -117.343 23.7141 10
      vertex -98.5823 6.27072 10
      vertex -108.098 6.27072 10
    endloop
  endfacet
  facet normal -0 0 -1
    outer loop
      vertex -3.98756 33.5158 10
      vertex -50.4747 6.03941 10
      vertex -4.09665 38.7252 10
    endloop
  endfacet
  facet normal 0 0 -1
    outer loop
      vertex -121.004 13.403 10
      vertex -120.008 18.205 10
      vertex -108.098 6.27072 10
    endloop
  endfacet
  facet normal 0 0 -1
    outer loop
      vertex -108.098 6.27072 10
      vertex -120.008 18.205 10
      vertex -117.343 23.7141 10
    endloop
  endfacet
  facet normal -0 0 -1
    outer loop
      vertex -3.69756 16.3388 10
      vertex -49.9568 5.55016 10
      vertex -3.7896 22.3286 10
    endloop
  endfacet
  facet normal 0 0 -1
    outer loop
      vertex -120.008 18.205 10
      vertex -121.004 13.403 10
      vertex -122.907 12.4616 10
    endloop
  endfacet
  facet normal 0 0 -1
    outer loop
      vertex -49.55 -5.2088 10
      vertex -49.7061 -4.66483 10
      vertex -49.76 -4.08694 10
    endloop
  endfacet
  facet normal 0 0 -1
    outer loop
      vertex -3.98756 33.5158 10
      vertex -50.2731 5.90442 10
      vertex -50.4747 6.03941 10
    endloop
  endfacet
  facet normal 0 -0 -1
    outer loop
      vertex -3.98756 33.5158 10
      vertex -3.88574 28.0522 10
      vertex -50.2731 5.90442 10
    endloop
  endfacet
  facet normal 0 0 -1
    outer loop
      vertex -50.0992 5.73997 10
      vertex -3.88574 28.0522 10
      vertex -3.7896 22.3286 10
    endloop
  endfacet
  facet normal 0 0 -1
    outer loop
      vertex -50.2731 5.90442 10
      vertex -3.88574 28.0522 10
      vertex -50.0992 5.73997 10
    endloop
  endfacet
  facet normal 0 0 -1
    outer loop
      vertex -49.9568 5.55016 10
      vertex -50.0992 5.73997 10
      vertex -3.7896 22.3286 10
    endloop
  endfacet
  facet normal 0 0 -1
    outer loop
      vertex -49.9568 5.55016 10
      vertex -3.69756 16.3388 10
      vertex -49.8501 5.33902 10
    endloop
  endfacet
  facet normal 0 0 -1
    outer loop
      vertex -49.8501 5.33902 10
      vertex -3.69756 16.3388 10
      vertex -16.078 -7.30428 10
    endloop
  endfacet
  facet normal 0 0 -1
    outer loop
      vertex -49.7831 5.11063 10
      vertex -49.8501 5.33902 10
      vertex -16.078 -7.30428 10
    endloop
  endfacet
  facet normal 0 0 -1
    outer loop
      vertex -49.76 4.86903 10
      vertex -49.7831 5.11063 10
      vertex -16.078 -7.30428 10
    endloop
  endfacet
  facet normal 0 0 -1
    outer loop
      vertex -16.078 -7.30428 10
      vertex -3.69756 16.3388 10
      vertex -3.60803 10.0768 10
    endloop
  endfacet
  facet normal 0 0 -1
    outer loop
      vertex -49.3011 -5.70978 10
      vertex -49.76 -4.08694 10
      vertex -48.969 -6.15868 10
    endloop
  endfacet
  facet normal 0 0 -1
    outer loop
      vertex -48.969 -6.15868 10
      vertex -49.76 -4.08694 10
      vertex -48.563 -6.54643 10
    endloop
  endfacet
  facet normal 0 0 -1
    outer loop
      vertex -49.3011 -5.70978 10
      vertex -49.55 -5.2088 10
      vertex -49.76 -4.08694 10
    endloop
  endfacet
  facet normal 0 0 -1
    outer loop
      vertex -49.76 -4.08694 10
      vertex -48.0928 -6.86394 10
      vertex -48.563 -6.54643 10
    endloop
  endfacet
  facet normal 0 0 -1
    outer loop
      vertex -49.76 -4.08694 10
      vertex -47.5677 -7.10214 10
      vertex -48.0928 -6.86394 10
    endloop
  endfacet
  facet normal 0 0 -1
    outer loop
      vertex -49.76 -4.08694 10
      vertex -46.9973 -7.25195 10
      vertex -47.5677 -7.10214 10
    endloop
  endfacet
  facet normal 0 0 -1
    outer loop
      vertex -49.76 -4.08694 10
      vertex -46.391 -7.30428 10
      vertex -46.9973 -7.25195 10
    endloop
  endfacet
  facet normal 0 0 -1
    outer loop
      vertex -49.76 -4.08694 10
      vertex -49.76 4.86903 10
      vertex -46.391 -7.30428 10
    endloop
  endfacet
  facet normal 0 0 -1
    outer loop
      vertex -46.391 -7.30428 10
      vertex -49.76 4.86903 10
      vertex -16.078 -7.30428 10
    endloop
  endfacet
  facet normal 0 0 -1
    outer loop
      vertex -16.078 -7.30428 10
      vertex -3.60803 10.0768 10
      vertex -3.51945 3.53653 10
    endloop
  endfacet
  facet normal 0 0 -1
    outer loop
      vertex -3.43022 -3.28806 10
      vertex -4.5598 -8.22083 10
      vertex -4.66788 -7.99756 10
    endloop
  endfacet
  facet normal -0 0 -1
    outer loop
      vertex -3.43022 -3.28806 10
      vertex -16.078 -7.30428 10
      vertex -3.51945 3.53653 10
    endloop
  endfacet
  facet normal 0 0 -1
    outer loop
      vertex -3.43022 -3.28806 10
      vertex -5.95955 -7.30345 10
      vertex -16.078 -7.30428 10
    endloop
  endfacet
  facet normal 0 0 -1
    outer loop
      vertex -3.43022 -3.28806 10
      vertex -5.68617 -7.32478 10
      vertex -5.95955 -7.30345 10
    endloop
  endfacet
  facet normal 0 -0 -1
    outer loop
      vertex -3.43022 -3.28806 10
      vertex -3.33878 -10.403 10
      vertex -4.5598 -8.22083 10
    endloop
  endfacet
  facet normal 0 0 -1
    outer loop
      vertex -3.43022 -3.28806 10
      vertex -5.43111 -7.38853 10
      vertex -5.68617 -7.32478 10
    endloop
  endfacet
  facet normal 0 0 -1
    outer loop
      vertex -3.43022 -3.28806 10
      vertex -5.19806 -7.49118 10
      vertex -5.43111 -7.38853 10
    endloop
  endfacet
  facet normal 0 0 -1
    outer loop
      vertex -3.43022 -3.28806 10
      vertex -4.99071 -7.62924 10
      vertex -5.19806 -7.49118 10
    endloop
  endfacet
  facet normal 0 0 -1
    outer loop
      vertex -3.43022 -3.28806 10
      vertex -4.81274 -7.79919 10
      vertex -4.99071 -7.62924 10
    endloop
  endfacet
  facet normal 0 0 -1
    outer loop
      vertex -3.43022 -3.28806 10
      vertex -4.66788 -7.99756 10
      vertex -4.81274 -7.79919 10
    endloop
  endfacet
  facet normal 0 0 -1
    outer loop
      vertex -4.5598 -8.22083 10
      vertex -3.33878 -10.403 10
      vertex -4.49219 -8.4655 10
    endloop
  endfacet
  facet normal 0 0 -1
    outer loop
      vertex -4.49219 -8.4655 10
      vertex -3.33878 -10.403 10
      vertex -4.46875 -8.72806 10
    endloop
  endfacet
  facet normal 0 0 1
    outer loop
      vertex -13.8027 104.083 11
      vertex -14.6549 104.81 11
      vertex -15.557 105.446 11
    endloop
  endfacet
  facet normal 0 0 1
    outer loop
      vertex -12.9988 103.259 11
      vertex -13.8027 104.083 11
      vertex -16.5106 105.997 11
    endloop
  endfacet
  facet normal 0 0 1
    outer loop
      vertex -16.5106 105.997 11
      vertex -13.8027 104.083 11
      vertex -15.557 105.446 11
    endloop
  endfacet
  facet normal 0 0 1
    outer loop
      vertex -12.9988 103.259 11
      vertex -16.5106 105.997 11
      vertex -17.5173 106.47 11
    endloop
  endfacet
  facet normal 0 0 1
    outer loop
      vertex -12.9988 103.259 11
      vertex -17.5173 106.47 11
      vertex -12.2416 102.332 11
    endloop
  endfacet
  facet normal 0 0 1
    outer loop
      vertex -17.5173 106.47 11
      vertex -18.5786 106.87 11
      vertex -12.2416 102.332 11
    endloop
  endfacet
  facet normal 0 0 1
    outer loop
      vertex -18.5786 106.87 11
      vertex -11.5297 101.297 11
      vertex -12.2416 102.332 11
    endloop
  endfacet
  facet normal 0 0 1
    outer loop
      vertex -19.6961 107.204 11
      vertex -11.5297 101.297 11
      vertex -18.5786 106.87 11
    endloop
  endfacet
  facet normal 0 0 1
    outer loop
      vertex -10.8613 100.147 11
      vertex -11.5297 101.297 11
      vertex -19.6961 107.204 11
    endloop
  endfacet
  facet normal 0 0 1
    outer loop
      vertex -10.8613 100.147 11
      vertex -19.6961 107.204 11
      vertex -20.8715 107.477 11
    endloop
  endfacet
  facet normal 0 0 1
    outer loop
      vertex -10.8613 100.147 11
      vertex -20.8715 107.477 11
      vertex -10.2349 98.8752 11
    endloop
  endfacet
  facet normal 0 0 1
    outer loop
      vertex -20.8715 107.477 11
      vertex -22.1062 107.696 11
      vertex -10.2349 98.8752 11
    endloop
  endfacet
  facet normal 0 0 1
    outer loop
      vertex -22.1062 107.696 11
      vertex -9.64896 97.4768 11
      vertex -10.2349 98.8752 11
    endloop
  endfacet
  facet normal 0 0 1
    outer loop
      vertex -23.4019 107.866 11
      vertex -9.64896 97.4768 11
      vertex -22.1062 107.696 11
    endloop
  endfacet
  facet normal 0 0 1
    outer loop
      vertex -9.10187 95.9454 11
      vertex -9.64896 97.4768 11
      vertex -23.4019 107.866 11
    endloop
  endfacet
  facet normal 0 0 1
    outer loop
      vertex -9.10187 95.9454 11
      vertex -23.4019 107.866 11
      vertex -24.7601 107.995 11
    endloop
  endfacet
  facet normal 0 0 1
    outer loop
      vertex -9.10187 95.9454 11
      vertex -24.7601 107.995 11
      vertex -8.59204 94.2747 11
    endloop
  endfacet
  facet normal 0 0 1
    outer loop
      vertex -24.7601 107.995 11
      vertex -26.1825 108.086 11
      vertex -8.59204 94.2747 11
    endloop
  endfacet
  facet normal 0 0 1
    outer loop
      vertex -26.1825 108.086 11
      vertex -8.1179 92.459 11
      vertex -8.59204 94.2747 11
    endloop
  endfacet
  facet normal 0 0 1
    outer loop
      vertex -27.6706 108.148 11
      vertex -8.1179 92.459 11
      vertex -26.1825 108.086 11
    endloop
  endfacet
  facet normal 0 0 1
    outer loop
      vertex -7.67787 90.4919 11
      vertex -8.1179 92.459 11
      vertex -27.6706 108.148 11
    endloop
  endfacet
  facet normal 0 0 1
    outer loop
      vertex -7.67787 90.4919 11
      vertex -27.6706 108.148 11
      vertex -29.2259 108.185 11
    endloop
  endfacet
  facet normal 0 0 1
    outer loop
      vertex -7.67787 90.4919 11
      vertex -29.2259 108.185 11
      vertex -7.27037 88.3676 11
    endloop
  endfacet
  facet normal 0 0 1
    outer loop
      vertex -29.2259 108.185 11
      vertex -30.8501 108.204 11
      vertex -7.27037 88.3676 11
    endloop
  endfacet
  facet normal 0 0 1
    outer loop
      vertex -30.8501 108.204 11
      vertex -6.89383 86.08 11
      vertex -7.27037 88.3676 11
    endloop
  endfacet
  facet normal 0 0 1
    outer loop
      vertex -32.5448 108.211 11
      vertex -6.89383 86.08 11
      vertex -30.8501 108.204 11
    endloop
  endfacet
  facet normal 0 0 1
    outer loop
      vertex -34.3114 108.212 11
      vertex -6.89383 86.08 11
      vertex -32.5448 108.211 11
    endloop
  endfacet
  facet normal 0 0 1
    outer loop
      vertex -6.54666 83.623 11
      vertex -6.89383 86.08 11
      vertex -34.3114 108.212 11
    endloop
  endfacet
  facet normal 0 0 1
    outer loop
      vertex -6.54666 83.623 11
      vertex -34.3114 108.212 11
      vertex -6.22728 80.9905 11
    endloop
  endfacet
  facet normal 0 0 1
    outer loop
      vertex -34.3114 108.212 11
      vertex -39.5513 108.211 11
      vertex -6.22728 80.9905 11
    endloop
  endfacet
  facet normal 0 0 1
    outer loop
      vertex -39.5513 108.211 11
      vertex -5.93411 78.1766 11
      vertex -6.22728 80.9905 11
    endloop
  endfacet
  facet normal 0 0 1
    outer loop
      vertex -5.66559 75.1751 11
      vertex -5.93411 78.1766 11
      vertex -39.5513 108.211 11
    endloop
  endfacet
  facet normal 0 0 1
    outer loop
      vertex -5.66559 75.1751 11
      vertex -39.5513 108.211 11
      vertex -44.4598 108.206 11
    endloop
  endfacet
  facet normal 0 0 1
    outer loop
      vertex -5.66559 75.1751 11
      vertex -44.4598 108.206 11
      vertex -5.4201 71.9801 11
    endloop
  endfacet
  facet normal 0 0 1
    outer loop
      vertex -44.4598 108.206 11
      vertex -5.19609 68.5855 11
      vertex -5.4201 71.9801 11
    endloop
  endfacet
  facet normal -0 0 1
    outer loop
      vertex -49.0488 108.19 11
      vertex -5.19609 68.5855 11
      vertex -44.4598 108.206 11
    endloop
  endfacet
  facet normal 0 0 1
    outer loop
      vertex -4.99199 64.9851 11
      vertex -5.19609 68.5855 11
      vertex -49.0488 108.19 11
    endloop
  endfacet
  facet normal 0 0 1
    outer loop
      vertex -4.99199 64.9851 11
      vertex -49.0488 108.19 11
      vertex -53.3305 108.16 11
    endloop
  endfacet
  facet normal 0 0 1
    outer loop
      vertex -4.99199 64.9851 11
      vertex -53.3305 108.16 11
      vertex -4.80618 61.1731 11
    endloop
  endfacet
  facet normal -0 0 1
    outer loop
      vertex -64.4514 107.933 11
      vertex -97.8553 78.9643 11
      vertex -61.0197 108.036 11
    endloop
  endfacet
  facet normal -0 0 1
    outer loop
      vertex -67.6238 107.796 11
      vertex -97.2553 81.5435 11
      vertex -64.4514 107.933 11
    endloop
  endfacet
  facet normal 0 0 1
    outer loop
      vertex -70.549 107.619 11
      vertex -73.2389 107.398 11
      vertex -96.1677 86.2379 11
    endloop
  endfacet
  facet normal 0 0 1
    outer loop
      vertex -73.2389 107.398 11
      vertex -95.656 88.3629 11
      vertex -96.1677 86.2379 11
    endloop
  endfacet
  facet normal 0 0 1
    outer loop
      vertex -75.7057 107.129 11
      vertex -77.9613 106.806 11
      vertex -95.1496 90.3463 11
    endloop
  endfacet
  facet normal 0 0 1
    outer loop
      vertex -94.1048 93.9077 11
      vertex -80.0178 106.424 11
      vertex -81.8872 105.979 11
    endloop
  endfacet
  facet normal 0 0 1
    outer loop
      vertex -94.6366 92.1929 11
      vertex -80.0178 106.424 11
      vertex -94.1048 93.9077 11
    endloop
  endfacet
  facet normal 0 0 1
    outer loop
      vertex -93.5424 95.4956 11
      vertex -83.5816 105.465 11
      vertex -92.9372 96.9614 11
    endloop
  endfacet
  facet normal 0 0 1
    outer loop
      vertex -92.2772 98.31 11
      vertex -85.1129 104.879 11
      vertex -86.4931 104.214 11
    endloop
  endfacet
  facet normal 0 0 1
    outer loop
      vertex -91.5504 99.5462 11
      vertex -86.4931 104.214 11
      vertex -87.7344 103.466 11
    endloop
  endfacet
  facet normal 0 0 1
    outer loop
      vertex -91.5504 99.5462 11
      vertex -87.7344 103.466 11
      vertex -90.7447 100.675 11
    endloop
  endfacet
  facet normal 0 0 1
    outer loop
      vertex -90.7447 100.675 11
      vertex -88.8488 102.63 11
      vertex -89.8482 101.701 11
    endloop
  endfacet
  facet normal 0 0 1
    outer loop
      vertex -87.7344 103.466 11
      vertex -88.8488 102.63 11
      vertex -90.7447 100.675 11
    endloop
  endfacet
  facet normal 0 0 1
    outer loop
      vertex -92.2772 98.31 11
      vertex -86.4931 104.214 11
      vertex -91.5504 99.5462 11
    endloop
  endfacet
  facet normal 0 0 1
    outer loop
      vertex -92.9372 96.9614 11
      vertex -85.1129 104.879 11
      vertex -92.2772 98.31 11
    endloop
  endfacet
  facet normal 0 0 1
    outer loop
      vertex -83.5816 105.465 11
      vertex -85.1129 104.879 11
      vertex -92.9372 96.9614 11
    endloop
  endfacet
  facet normal 0 0 1
    outer loop
      vertex -81.8872 105.979 11
      vertex -83.5816 105.465 11
      vertex -93.5424 95.4956 11
    endloop
  endfacet
  facet normal 0 0 1
    outer loop
      vertex -81.8872 105.979 11
      vertex -93.5424 95.4956 11
      vertex -94.1048 93.9077 11
    endloop
  endfacet
  facet normal 0 0 1
    outer loop
      vertex -77.9613 106.806 11
      vertex -80.0178 106.424 11
      vertex -94.6366 92.1929 11
    endloop
  endfacet
  facet normal 0 0 1
    outer loop
      vertex -77.9613 106.806 11
      vertex -94.6366 92.1929 11
      vertex -95.1496 90.3463 11
    endloop
  endfacet
  facet normal 0 0 1
    outer loop
      vertex -75.7057 107.129 11
      vertex -95.1496 90.3463 11
      vertex -95.656 88.3629 11
    endloop
  endfacet
  facet normal -0 0 1
    outer loop
      vertex -75.7057 107.129 11
      vertex -95.656 88.3629 11
      vertex -73.2389 107.398 11
    endloop
  endfacet
  facet normal 0 0 1
    outer loop
      vertex -70.549 107.619 11
      vertex -96.1677 86.2379 11
      vertex -96.6968 83.9664 11
    endloop
  endfacet
  facet normal -0 0 1
    outer loop
      vertex -70.549 107.619 11
      vertex -96.6968 83.9664 11
      vertex -67.6238 107.796 11
    endloop
  endfacet
  facet normal -0 0 1
    outer loop
      vertex -96.6968 83.9664 11
      vertex -97.2553 81.5435 11
      vertex -67.6238 107.796 11
    endloop
  endfacet
  facet normal -0 0 1
    outer loop
      vertex -97.2553 81.5435 11
      vertex -97.8553 78.9643 11
      vertex -64.4514 107.933 11
    endloop
  endfacet
  facet normal -0 0 1
    outer loop
      vertex -97.8553 78.9643 11
      vertex -98.5088 76.224 11
      vertex -61.0197 108.036 11
    endloop
  endfacet
  facet normal 0 0 1
    outer loop
      vertex -98.5088 76.224 11
      vertex -57.3168 108.111 11
      vertex -61.0197 108.036 11
    endloop
  endfacet
  facet normal 0 0 1
    outer loop
      vertex -99.2277 73.3177 11
      vertex -57.3168 108.111 11
      vertex -98.5088 76.224 11
    endloop
  endfacet
  facet normal 0 0 1
    outer loop
      vertex -53.3305 108.16 11
      vertex -57.3168 108.111 11
      vertex -99.2277 73.3177 11
    endloop
  endfacet
  facet normal 0 0 1
    outer loop
      vertex -53.3305 108.16 11
      vertex -99.2277 73.3177 11
      vertex -4.80618 61.1731 11
    endloop
  endfacet
  facet normal 0 0 1
    outer loop
      vertex -99.2277 73.3177 11
      vertex -100.024 70.2405 11
      vertex -4.80618 61.1731 11
    endloop
  endfacet
  facet normal 0 0 1
    outer loop
      vertex -100.024 70.2405 11
      vertex -4.63713 57.1432 11
      vertex -4.80618 61.1731 11
    endloop
  endfacet
  facet normal -0 0 1
    outer loop
      vertex -100.91 66.9874 11
      vertex -4.63713 57.1432 11
      vertex -100.024 70.2405 11
    endloop
  endfacet
  facet normal 0 -0 1
    outer loop
      vertex -51.204 6.22711 11
      vertex -4.63713 57.1432 11
      vertex -100.91 66.9874 11
    endloop
  endfacet
  facet normal 0 0 1
    outer loop
      vertex -51.204 6.22711 11
      vertex -100.91 66.9874 11
      vertex -101.898 63.5537 11
    endloop
  endfacet
  facet normal 0 0 1
    outer loop
      vertex -4.48322 52.8896 11
      vertex -4.63713 57.1432 11
      vertex -51.204 6.22711 11
    endloop
  endfacet
  facet normal 0 0 1
    outer loop
      vertex -101.898 63.5537 11
      vertex -102.999 59.9345 11
      vertex -51.204 6.22711 11
    endloop
  endfacet
  facet normal 0 0 1
    outer loop
      vertex -4.48322 52.8896 11
      vertex -51.204 6.22711 11
      vertex -4.3429 48.4061 11
    endloop
  endfacet
  facet normal -0 0 1
    outer loop
      vertex -104.226 56.1248 11
      vertex -51.204 6.22711 11
      vertex -102.999 59.9345 11
    endloop
  endfacet
  facet normal -0 0 1
    outer loop
      vertex -51.204 6.22711 11
      vertex -50.9442 6.20482 11
      vertex -4.3429 48.4061 11
    endloop
  endfacet
  facet normal 0 0 1
    outer loop
      vertex -51.204 6.22711 11
      vertex -104.226 56.1248 11
      vertex -105.591 52.1197 11
    endloop
  endfacet
  facet normal 0 0 1
    outer loop
      vertex -51.204 6.22711 11
      vertex -105.591 52.1197 11
      vertex -107.105 47.9145 11
    endloop
  endfacet
  facet normal 0 0 1
    outer loop
      vertex -51.204 6.22711 11
      vertex -107.105 47.9145 11
      vertex -108.781 43.5041 11
    endloop
  endfacet
  facet normal 0 0 1
    outer loop
      vertex -50.9442 6.20482 11
      vertex -4.21455 43.6866 11
      vertex -4.3429 48.4061 11
    endloop
  endfacet
  facet normal 0 0 1
    outer loop
      vertex -108.781 43.5041 11
      vertex -98.5823 6.27072 11
      vertex -51.204 6.22711 11
    endloop
  endfacet
  facet normal -0 0 1
    outer loop
      vertex -110.63 38.8838 11
      vertex -98.5823 6.27072 11
      vertex -108.781 43.5041 11
    endloop
  endfacet
  facet normal -0 0 1
    outer loop
      vertex -112.666 34.0486 11
      vertex -98.5823 6.27072 11
      vertex -110.63 38.8838 11
    endloop
  endfacet
  facet normal 0 -0 1
    outer loop
      vertex -50.6997 6.1409 11
      vertex -4.21455 43.6866 11
      vertex -50.9442 6.20482 11
    endloop
  endfacet
  facet normal 0 0 1
    outer loop
      vertex -98.5823 6.27072 11
      vertex -112.666 34.0486 11
      vertex -114.899 28.9937 11
    endloop
  endfacet
  facet normal 0 0 1
    outer loop
      vertex -4.09665 38.7252 11
      vertex -4.21455 43.6866 11
      vertex -50.6997 6.1409 11
    endloop
  endfacet
  facet normal 0 0 1
    outer loop
      vertex -114.899 28.9937 11
      vertex -117.343 23.7141 11
      vertex -98.5823 6.27072 11
    endloop
  endfacet
  facet normal 0 0 1
    outer loop
      vertex -4.09665 38.7252 11
      vertex -50.6997 6.1409 11
      vertex -50.4747 6.03941 11
    endloop
  endfacet
  facet normal 0 -0 1
    outer loop
      vertex -108.098 6.27072 11
      vertex -98.5823 6.27072 11
      vertex -117.343 23.7141 11
    endloop
  endfacet
  facet normal 0 0 1
    outer loop
      vertex -4.09665 38.7252 11
      vertex -50.4747 6.03941 11
      vertex -3.98756 33.5158 11
    endloop
  endfacet
  facet normal 0 0 1
    outer loop
      vertex -108.098 6.27072 11
      vertex -120.008 18.205 11
      vertex -121.004 13.403 11
    endloop
  endfacet
  facet normal 0 0 1
    outer loop
      vertex -117.343 23.7141 11
      vertex -120.008 18.205 11
      vertex -108.098 6.27072 11
    endloop
  endfacet
  facet normal 0 0 1
    outer loop
      vertex -3.7896 22.3286 11
      vertex -49.9568 5.55016 11
      vertex -3.69756 16.3388 11
    endloop
  endfacet
  facet normal 0 0 1
    outer loop
      vertex -122.907 12.4616 11
      vertex -121.004 13.403 11
      vertex -120.008 18.205 11
    endloop
  endfacet
  facet normal 0 0 1
    outer loop
      vertex -49.76 -4.08694 11
      vertex -49.7061 -4.66483 11
      vertex -49.55 -5.2088 11
    endloop
  endfacet
  facet normal -0 0 1
    outer loop
      vertex -50.4747 6.03941 11
      vertex -50.2731 5.90442 11
      vertex -3.98756 33.5158 11
    endloop
  endfacet
  facet normal 0 0 1
    outer loop
      vertex -50.2731 5.90442 11
      vertex -3.88574 28.0522 11
      vertex -3.98756 33.5158 11
    endloop
  endfacet
  facet normal 0 0 1
    outer loop
      vertex -3.7896 22.3286 11
      vertex -3.88574 28.0522 11
      vertex -50.0992 5.73997 11
    endloop
  endfacet
  facet normal 0 -0 1
    outer loop
      vertex -50.0992 5.73997 11
      vertex -3.88574 28.0522 11
      vertex -50.2731 5.90442 11
    endloop
  endfacet
  facet normal 0 0 1
    outer loop
      vertex -3.7896 22.3286 11
      vertex -50.0992 5.73997 11
      vertex -49.9568 5.55016 11
    endloop
  endfacet
  facet normal 0 -0 1
    outer loop
      vertex -49.8501 5.33902 11
      vertex -3.69756 16.3388 11
      vertex -49.9568 5.55016 11
    endloop
  endfacet
  facet normal 0 -0 1
    outer loop
      vertex -16.078 -7.30428 11
      vertex -3.69756 16.3388 11
      vertex -49.8501 5.33902 11
    endloop
  endfacet
  facet normal 0 0 1
    outer loop
      vertex -16.078 -7.30428 11
      vertex -49.8501 5.33902 11
      vertex -49.7831 5.11063 11
    endloop
  endfacet
  facet normal 0 0 1
    outer loop
      vertex -16.078 -7.30428 11
      vertex -49.7831 5.11063 11
      vertex -49.76 4.86903 11
    endloop
  endfacet
  facet normal 0 0 1
    outer loop
      vertex -3.60803 10.0768 11
      vertex -3.69756 16.3388 11
      vertex -16.078 -7.30428 11
    endloop
  endfacet
  facet normal 0 0 1
    outer loop
      vertex -48.969 -6.15868 11
      vertex -49.76 -4.08694 11
      vertex -49.3011 -5.70978 11
    endloop
  endfacet
  facet normal 0 0 1
    outer loop
      vertex -48.563 -6.54643 11
      vertex -49.76 -4.08694 11
      vertex -48.969 -6.15868 11
    endloop
  endfacet
  facet normal 0 0 1
    outer loop
      vertex -49.76 -4.08694 11
      vertex -49.55 -5.2088 11
      vertex -49.3011 -5.70978 11
    endloop
  endfacet
  facet normal -0 -0 1
    outer loop
      vertex -48.563 -6.54643 11
      vertex -48.0928 -6.86394 11
      vertex -49.76 -4.08694 11
    endloop
  endfacet
  facet normal -0 -0 1
    outer loop
      vertex -48.0928 -6.86394 11
      vertex -47.5677 -7.10214 11
      vertex -49.76 -4.08694 11
    endloop
  endfacet
  facet normal -0 -0 1
    outer loop
      vertex -47.5677 -7.10214 11
      vertex -46.9973 -7.25195 11
      vertex -49.76 -4.08694 11
    endloop
  endfacet
  facet normal -0 -0 1
    outer loop
      vertex -46.9973 -7.25195 11
      vertex -46.391 -7.30428 11
      vertex -49.76 -4.08694 11
    endloop
  endfacet
  facet normal 0 0 1
    outer loop
      vertex -46.391 -7.30428 11
      vertex -49.76 4.86903 11
      vertex -49.76 -4.08694 11
    endloop
  endfacet
  facet normal 0 0 1
    outer loop
      vertex -16.078 -7.30428 11
      vertex -49.76 4.86903 11
      vertex -46.391 -7.30428 11
    endloop
  endfacet
  facet normal 0 0 1
    outer loop
      vertex -3.51945 3.53653 11
      vertex -3.60803 10.0768 11
      vertex -16.078 -7.30428 11
    endloop
  endfacet
  facet normal -0 0 1
    outer loop
      vertex -4.66788 -7.99756 11
      vertex -4.5598 -8.22083 11
      vertex -3.43022 -3.28806 11
    endloop
  endfacet
  facet normal 0 0 1
    outer loop
      vertex -3.51945 3.53653 11
      vertex -16.078 -7.30428 11
      vertex -3.43022 -3.28806 11
    endloop
  endfacet
  facet normal 0 0 1
    outer loop
      vertex -16.078 -7.30428 11
      vertex -5.95955 -7.30345 11
      vertex -3.43022 -3.28806 11
    endloop
  endfacet
  facet normal -0 0 1
    outer loop
      vertex -5.95955 -7.30345 11
      vertex -5.68617 -7.32478 11
      vertex -3.43022 -3.28806 11
    endloop
  endfacet
  facet normal -0 0 1
    outer loop
      vertex -4.5598 -8.22083 11
      vertex -3.33878 -10.403 11
      vertex -3.43022 -3.28806 11
    endloop
  endfacet
  facet normal -0 0 1
    outer loop
      vertex -5.68617 -7.32478 11
      vertex -5.43111 -7.38853 11
      vertex -3.43022 -3.28806 11
    endloop
  endfacet
  facet normal -0 0 1
    outer loop
      vertex -5.43111 -7.38853 11
      vertex -5.19806 -7.49118 11
      vertex -3.43022 -3.28806 11
    endloop
  endfacet
  facet normal -0 0 1
    outer loop
      vertex -5.19806 -7.49118 11
      vertex -4.99071 -7.62924 11
      vertex -3.43022 -3.28806 11
    endloop
  endfacet
  facet normal -0 0 1
    outer loop
      vertex -4.99071 -7.62924 11
      vertex -4.81274 -7.79919 11
      vertex -3.43022 -3.28806 11
    endloop
  endfacet
  facet normal -0 0 1
    outer loop
      vertex -4.81274 -7.79919 11
      vertex -4.66788 -7.99756 11
      vertex -3.43022 -3.28806 11
    endloop
  endfacet
  facet normal -0 -0 1
    outer loop
      vertex -4.49219 -8.4655 11
      vertex -3.33878 -10.403 11
      vertex -4.5598 -8.22083 11
    endloop
  endfacet
  facet normal -0 -0 1
    outer loop
      vertex -4.46875 -8.72806 11
      vertex -3.33878 -10.403 11
      vertex -4.49219 -8.4655 11
    endloop
  endfacet
  facet normal 0.999915 0.0130737 0
    outer loop
      vertex -3.51945 3.53653 10
      vertex -3.43022 -3.28806 11
      vertex -3.43022 -3.28806 10
    endloop
  endfacet
  facet normal 0.999915 0.0130737 -0
    outer loop
      vertex -3.51945 3.53653 10
      vertex -3.51945 3.53653 11
      vertex -3.43022 -3.28806 11
    endloop
  endfacet
  facet normal 0.999908 0.0135425 0
    outer loop
      vertex -3.60803 10.0768 10
      vertex -3.51945 3.53653 11
      vertex -3.51945 3.53653 10
    endloop
  endfacet
  facet normal 0.999908 0.0135425 -0
    outer loop
      vertex -3.60803 10.0768 10
      vertex -3.60803 10.0768 11
      vertex -3.51945 3.53653 11
    endloop
  endfacet
  facet normal 0.999898 0.0142959 0
    outer loop
      vertex -3.69756 16.3388 10
      vertex -3.60803 10.0768 11
      vertex -3.60803 10.0768 10
    endloop
  endfacet
  facet normal 0.999898 0.0142959 -0
    outer loop
      vertex -3.69756 16.3388 10
      vertex -3.69756 16.3388 11
      vertex -3.60803 10.0768 11
    endloop
  endfacet
  facet normal 0.999882 0.0153643 0
    outer loop
      vertex -3.7896 22.3286 10
      vertex -3.69756 16.3388 11
      vertex -3.69756 16.3388 10
    endloop
  endfacet
  facet normal 0.999882 0.0153643 -0
    outer loop
      vertex -3.7896 22.3286 10
      vertex -3.7896 22.3286 11
      vertex -3.69756 16.3388 11
    endloop
  endfacet
  facet normal 0.999859 0.0167948 0
    outer loop
      vertex -3.88574 28.0522 10
      vertex -3.7896 22.3286 11
      vertex -3.7896 22.3286 10
    endloop
  endfacet
  facet normal 0.999859 0.0167948 -0
    outer loop
      vertex -3.88574 28.0522 10
      vertex -3.88574 28.0522 11
      vertex -3.7896 22.3286 11
    endloop
  endfacet
  facet normal 0.999826 0.0186328 0
    outer loop
      vertex -3.98756 33.5158 10
      vertex -3.88574 28.0522 11
      vertex -3.88574 28.0522 10
    endloop
  endfacet
  facet normal 0.999826 0.0186328 -0
    outer loop
      vertex -3.98756 33.5158 10
      vertex -3.98756 33.5158 11
      vertex -3.88574 28.0522 11
    endloop
  endfacet
  facet normal 0.999781 0.0209364 0
    outer loop
      vertex -4.09665 38.7252 10
      vertex -3.98756 33.5158 11
      vertex -3.98756 33.5158 10
    endloop
  endfacet
  facet normal 0.999781 0.0209364 -0
    outer loop
      vertex -4.09665 38.7252 10
      vertex -4.09665 38.7252 11
      vertex -3.98756 33.5158 11
    endloop
  endfacet
  facet normal 0.999718 0.0237567 0
    outer loop
      vertex -4.21455 43.6866 10
      vertex -4.09665 38.7252 11
      vertex -4.09665 38.7252 10
    endloop
  endfacet
  facet normal 0.999718 0.0237567 -0
    outer loop
      vertex -4.21455 43.6866 10
      vertex -4.21455 43.6866 11
      vertex -4.09665 38.7252 11
    endloop
  endfacet
  facet normal 0.99963 0.0271856 0
    outer loop
      vertex -4.3429 48.4061 10
      vertex -4.21455 43.6866 11
      vertex -4.21455 43.6866 10
    endloop
  endfacet
  facet normal 0.99963 0.0271856 -0
    outer loop
      vertex -4.3429 48.4061 10
      vertex -4.3429 48.4061 11
      vertex -4.21455 43.6866 11
    endloop
  endfacet
  facet normal 0.999511 0.0312817 0
    outer loop
      vertex -4.48322 52.8896 10
      vertex -4.3429 48.4061 11
      vertex -4.3429 48.4061 10
    endloop
  endfacet
  facet normal 0.999511 0.0312817 -0
    outer loop
      vertex -4.48322 52.8896 10
      vertex -4.48322 52.8896 11
      vertex -4.3429 48.4061 11
    endloop
  endfacet
  facet normal 0.999346 0.0361598 0
    outer loop
      vertex -4.63713 57.1432 10
      vertex -4.48322 52.8896 11
      vertex -4.48322 52.8896 10
    endloop
  endfacet
  facet normal 0.999346 0.0361598 -0
    outer loop
      vertex -4.63713 57.1432 10
      vertex -4.63713 57.1432 11
      vertex -4.48322 52.8896 11
    endloop
  endfacet
  facet normal 0.999121 0.0419121 0
    outer loop
      vertex -4.80618 61.1731 10
      vertex -4.63713 57.1432 11
      vertex -4.63713 57.1432 10
    endloop
  endfacet
  facet normal 0.999121 0.0419121 -0
    outer loop
      vertex -4.80618 61.1731 10
      vertex -4.80618 61.1731 11
      vertex -4.63713 57.1432 11
    endloop
  endfacet
  facet normal 0.998814 0.0486856 0
    outer loop
      vertex -4.99199 64.9851 10
      vertex -4.80618 61.1731 11
      vertex -4.80618 61.1731 10
    endloop
  endfacet
  facet normal 0.998814 0.0486856 -0
    outer loop
      vertex -4.99199 64.9851 10
      vertex -4.99199 64.9851 11
      vertex -4.80618 61.1731 11
    endloop
  endfacet
  facet normal 0.998397 0.0565973 0
    outer loop
      vertex -5.19609 68.5855 10
      vertex -4.99199 64.9851 11
      vertex -4.99199 64.9851 10
    endloop
  endfacet
  facet normal 0.998397 0.0565973 -0
    outer loop
      vertex -5.19609 68.5855 10
      vertex -5.19609 68.5855 11
      vertex -4.99199 64.9851 11
    endloop
  endfacet
  facet normal 0.99783 0.0658469 0
    outer loop
      vertex -5.4201 71.9801 10
      vertex -5.19609 68.5855 11
      vertex -5.19609 68.5855 10
    endloop
  endfacet
  facet normal 0.99783 0.0658469 -0
    outer loop
      vertex -5.4201 71.9801 10
      vertex -5.4201 71.9801 11
      vertex -5.19609 68.5855 11
    endloop
  endfacet
  facet normal 0.997061 0.0766099 0
    outer loop
      vertex -5.66559 75.1751 10
      vertex -5.4201 71.9801 11
      vertex -5.4201 71.9801 10
    endloop
  endfacet
  facet normal 0.997061 0.0766099 -0
    outer loop
      vertex -5.66559 75.1751 10
      vertex -5.66559 75.1751 11
      vertex -5.4201 71.9801 11
    endloop
  endfacet
  facet normal 0.996022 0.0891061 0
    outer loop
      vertex -5.93411 78.1766 10
      vertex -5.66559 75.1751 11
      vertex -5.66559 75.1751 10
    endloop
  endfacet
  facet normal 0.996022 0.0891061 -0
    outer loop
      vertex -5.93411 78.1766 10
      vertex -5.93411 78.1766 11
      vertex -5.66559 75.1751 11
    endloop
  endfacet
  facet normal 0.994616 0.103625 0
    outer loop
      vertex -6.22728 80.9905 10
      vertex -5.93411 78.1766 11
      vertex -5.93411 78.1766 10
    endloop
  endfacet
  facet normal 0.994616 0.103625 -0
    outer loop
      vertex -6.22728 80.9905 10
      vertex -6.22728 80.9905 11
      vertex -5.93411 78.1766 11
    endloop
  endfacet
  facet normal 0.992721 0.120439 0
    outer loop
      vertex -6.54666 83.623 10
      vertex -6.22728 80.9905 11
      vertex -6.22728 80.9905 10
    endloop
  endfacet
  facet normal 0.992721 0.120439 -0
    outer loop
      vertex -6.54666 83.623 10
      vertex -6.54666 83.623 11
      vertex -6.22728 80.9905 11
    endloop
  endfacet
  facet normal 0.990164 0.139909 0
    outer loop
      vertex -6.89383 86.08 10
      vertex -6.54666 83.623 11
      vertex -6.54666 83.623 10
    endloop
  endfacet
  facet normal 0.990164 0.139909 -0
    outer loop
      vertex -6.89383 86.08 10
      vertex -6.89383 86.08 11
      vertex -6.54666 83.623 11
    endloop
  endfacet
  facet normal 0.986723 0.162415 0
    outer loop
      vertex -7.27037 88.3676 10
      vertex -6.89383 86.08 11
      vertex -6.89383 86.08 10
    endloop
  endfacet
  facet normal 0.986723 0.162415 -0
    outer loop
      vertex -7.27037 88.3676 10
      vertex -7.27037 88.3676 11
      vertex -6.89383 86.08 11
    endloop
  endfacet
  facet normal 0.982094 0.188393 0
    outer loop
      vertex -7.67787 90.4919 10
      vertex -7.27037 88.3676 11
      vertex -7.27037 88.3676 10
    endloop
  endfacet
  facet normal 0.982094 0.188393 -0
    outer loop
      vertex -7.67787 90.4919 10
      vertex -7.67787 90.4919 11
      vertex -7.27037 88.3676 11
    endloop
  endfacet
  facet normal 0.975882 0.2183 0
    outer loop
      vertex -8.1179 92.459 10
      vertex -7.67787 90.4919 11
      vertex -7.67787 90.4919 10
    endloop
  endfacet
  facet normal 0.975882 0.2183 -0
    outer loop
      vertex -8.1179 92.459 10
      vertex -8.1179 92.459 11
      vertex -7.67787 90.4919 11
    endloop
  endfacet
  facet normal 0.967555 0.252661 0
    outer loop
      vertex -8.59204 94.2747 10
      vertex -8.1179 92.459 11
      vertex -8.1179 92.459 10
    endloop
  endfacet
  facet normal 0.967555 0.252661 -0
    outer loop
      vertex -8.59204 94.2747 10
      vertex -8.59204 94.2747 11
      vertex -8.1179 92.459 11
    endloop
  endfacet
  facet normal 0.956457 0.291872 0
    outer loop
      vertex -9.10187 95.9454 10
      vertex -8.59204 94.2747 11
      vertex -8.59204 94.2747 10
    endloop
  endfacet
  facet normal 0.956457 0.291872 -0
    outer loop
      vertex -9.10187 95.9454 10
      vertex -9.10187 95.9454 11
      vertex -8.59204 94.2747 11
    endloop
  endfacet
  facet normal 0.94171 0.336424 0
    outer loop
      vertex -9.64896 97.4768 10
      vertex -9.10187 95.9454 11
      vertex -9.10187 95.9454 10
    endloop
  endfacet
  facet normal 0.94171 0.336424 -0
    outer loop
      vertex -9.64896 97.4768 10
      vertex -9.64896 97.4768 11
      vertex -9.10187 95.9454 11
    endloop
  endfacet
  facet normal 0.922309 0.386454 0
    outer loop
      vertex -10.2349 98.8752 10
      vertex -9.64896 97.4768 11
      vertex -9.64896 97.4768 10
    endloop
  endfacet
  facet normal 0.922309 0.386454 -0
    outer loop
      vertex -10.2349 98.8752 10
      vertex -10.2349 98.8752 11
      vertex -9.64896 97.4768 11
    endloop
  endfacet
  facet normal 0.897092 0.441845 0
    outer loop
      vertex -10.8613 100.147 10
      vertex -10.2349 98.8752 11
      vertex -10.2349 98.8752 10
    endloop
  endfacet
  facet normal 0.897092 0.441845 -0
    outer loop
      vertex -10.8613 100.147 10
      vertex -10.8613 100.147 11
      vertex -10.2349 98.8752 11
    endloop
  endfacet
  facet normal 0.864574 0.502505 0
    outer loop
      vertex -11.5297 101.297 10
      vertex -10.8613 100.147 11
      vertex -10.8613 100.147 10
    endloop
  endfacet
  facet normal 0.864574 0.502505 -0
    outer loop
      vertex -11.5297 101.297 10
      vertex -11.5297 101.297 11
      vertex -10.8613 100.147 11
    endloop
  endfacet
  facet normal 0.823916 0.566711 0
    outer loop
      vertex -12.2416 102.332 10
      vertex -11.5297 101.297 11
      vertex -11.5297 101.297 10
    endloop
  endfacet
  facet normal 0.823916 0.566711 -0
    outer loop
      vertex -12.2416 102.332 10
      vertex -12.2416 102.332 11
      vertex -11.5297 101.297 11
    endloop
  endfacet
  facet normal 0.774471 0.63261 0
    outer loop
      vertex -12.9988 103.259 10
      vertex -12.2416 102.332 11
      vertex -12.2416 102.332 10
    endloop
  endfacet
  facet normal 0.774471 0.63261 -0
    outer loop
      vertex -12.9988 103.259 10
      vertex -12.9988 103.259 11
      vertex -12.2416 102.332 11
    endloop
  endfacet
  facet normal 0.715783 0.698323 0
    outer loop
      vertex -13.8027 104.083 10
      vertex -12.9988 103.259 11
      vertex -12.9988 103.259 10
    endloop
  endfacet
  facet normal 0.715783 0.698323 -0
    outer loop
      vertex -13.8027 104.083 10
      vertex -13.8027 104.083 11
      vertex -12.9988 103.259 11
    endloop
  endfacet
  facet normal 0.64901 0.76078 0
    outer loop
      vertex -14.6549 104.81 10
      vertex -13.8027 104.083 11
      vertex -13.8027 104.083 10
    endloop
  endfacet
  facet normal 0.64901 0.76078 -0
    outer loop
      vertex -14.6549 104.81 10
      vertex -14.6549 104.81 11
      vertex -13.8027 104.083 11
    endloop
  endfacet
  facet normal 0.576214 0.817299 0
    outer loop
      vertex -15.557 105.446 10
      vertex -14.6549 104.81 11
      vertex -14.6549 104.81 10
    endloop
  endfacet
  facet normal 0.576214 0.817299 -0
    outer loop
      vertex -15.557 105.446 10
      vertex -15.557 105.446 11
      vertex -14.6549 104.81 11
    endloop
  endfacet
  facet normal 0.500299 0.865853 0
    outer loop
      vertex -16.5106 105.997 10
      vertex -15.557 105.446 11
      vertex -15.557 105.446 10
    endloop
  endfacet
  facet normal 0.500299 0.865853 -0
    outer loop
      vertex -16.5106 105.997 10
      vertex -16.5106 105.997 11
      vertex -15.557 105.446 11
    endloop
  endfacet
  facet normal 0.425251 0.905075 0
    outer loop
      vertex -17.5173 106.47 10
      vertex -16.5106 105.997 11
      vertex -16.5106 105.997 10
    endloop
  endfacet
  facet normal 0.425251 0.905075 -0
    outer loop
      vertex -17.5173 106.47 10
      vertex -17.5173 106.47 11
      vertex -16.5106 105.997 11
    endloop
  endfacet
  facet normal 0.352679 0.935745 0
    outer loop
      vertex -18.5786 106.87 10
      vertex -17.5173 106.47 11
      vertex -17.5173 106.47 10
    endloop
  endfacet
  facet normal 0.352679 0.935745 -0
    outer loop
      vertex -18.5786 106.87 10
      vertex -18.5786 106.87 11
      vertex -17.5173 106.47 11
    endloop
  endfacet
  facet normal 0.286365 0.958121 0
    outer loop
      vertex -19.6961 107.204 10
      vertex -18.5786 106.87 11
      vertex -18.5786 106.87 10
    endloop
  endfacet
  facet normal 0.286365 0.958121 -0
    outer loop
      vertex -19.6961 107.204 10
      vertex -19.6961 107.204 11
      vertex -18.5786 106.87 11
    endloop
  endfacet
  facet normal 0.226239 0.974072 0
    outer loop
      vertex -20.8715 107.477 10
      vertex -19.6961 107.204 11
      vertex -19.6961 107.204 10
    endloop
  endfacet
  facet normal 0.226239 0.974072 -0
    outer loop
      vertex -20.8715 107.477 10
      vertex -20.8715 107.477 11
      vertex -19.6961 107.204 11
    endloop
  endfacet
  facet normal 0.174645 0.984631 0
    outer loop
      vertex -22.1062 107.696 10
      vertex -20.8715 107.477 11
      vertex -20.8715 107.477 10
    endloop
  endfacet
  facet normal 0.174645 0.984631 -0
    outer loop
      vertex -22.1062 107.696 10
      vertex -22.1062 107.696 11
      vertex -20.8715 107.477 11
    endloop
  endfacet
  facet normal 0.130088 0.991502 0
    outer loop
      vertex -23.4019 107.866 10
      vertex -22.1062 107.696 11
      vertex -22.1062 107.696 10
    endloop
  endfacet
  facet normal 0.130088 0.991502 -0
    outer loop
      vertex -23.4019 107.866 10
      vertex -23.4019 107.866 11
      vertex -22.1062 107.696 11
    endloop
  endfacet
  facet normal 0.0945531 0.99552 0
    outer loop
      vertex -24.7601 107.995 10
      vertex -23.4019 107.866 11
      vertex -23.4019 107.866 10
    endloop
  endfacet
  facet normal 0.0945531 0.99552 -0
    outer loop
      vertex -24.7601 107.995 10
      vertex -24.7601 107.995 11
      vertex -23.4019 107.866 11
    endloop
  endfacet
  facet normal 0.0638459 0.99796 0
    outer loop
      vertex -26.1825 108.086 10
      vertex -24.7601 107.995 11
      vertex -24.7601 107.995 10
    endloop
  endfacet
  facet normal 0.0638459 0.99796 -0
    outer loop
      vertex -26.1825 108.086 10
      vertex -26.1825 108.086 11
      vertex -24.7601 107.995 11
    endloop
  endfacet
  facet normal 0.0416278 0.999133 0
    outer loop
      vertex -27.6706 108.148 10
      vertex -26.1825 108.086 11
      vertex -26.1825 108.086 10
    endloop
  endfacet
  facet normal 0.0416278 0.999133 -0
    outer loop
      vertex -27.6706 108.148 10
      vertex -27.6706 108.148 11
      vertex -26.1825 108.086 11
    endloop
  endfacet
  facet normal 0.0237829 0.999717 0
    outer loop
      vertex -29.2259 108.185 10
      vertex -27.6706 108.148 11
      vertex -27.6706 108.148 10
    endloop
  endfacet
  facet normal 0.0237829 0.999717 -0
    outer loop
      vertex -29.2259 108.185 10
      vertex -29.2259 108.185 11
      vertex -27.6706 108.148 11
    endloop
  endfacet
  facet normal 0.0116973 0.999932 0
    outer loop
      vertex -30.8501 108.204 10
      vertex -29.2259 108.185 11
      vertex -29.2259 108.185 10
    endloop
  endfacet
  facet normal 0.0116973 0.999932 -0
    outer loop
      vertex -30.8501 108.204 10
      vertex -30.8501 108.204 11
      vertex -29.2259 108.185 11
    endloop
  endfacet
  facet normal 0.00413049 0.999991 0
    outer loop
      vertex -32.5448 108.211 10
      vertex -30.8501 108.204 11
      vertex -30.8501 108.204 10
    endloop
  endfacet
  facet normal 0.00413049 0.999991 -0
    outer loop
      vertex -32.5448 108.211 10
      vertex -32.5448 108.211 11
      vertex -30.8501 108.204 11
    endloop
  endfacet
  facet normal 0.000566059 1 0
    outer loop
      vertex -34.3114 108.212 10
      vertex -32.5448 108.211 11
      vertex -32.5448 108.211 10
    endloop
  endfacet
  facet normal 0.000566059 1 -0
    outer loop
      vertex -34.3114 108.212 10
      vertex -34.3114 108.212 11
      vertex -32.5448 108.211 11
    endloop
  endfacet
  facet normal -0.000190843 1 0
    outer loop
      vertex -39.5513 108.211 10
      vertex -34.3114 108.212 11
      vertex -34.3114 108.212 10
    endloop
  endfacet
  facet normal -0.000190843 1 0
    outer loop
      vertex -39.5513 108.211 10
      vertex -39.5513 108.211 11
      vertex -34.3114 108.212 11
    endloop
  endfacet
  facet normal -0.00101864 0.999999 0
    outer loop
      vertex -44.4598 108.206 10
      vertex -39.5513 108.211 11
      vertex -39.5513 108.211 10
    endloop
  endfacet
  facet normal -0.00101864 0.999999 0
    outer loop
      vertex -44.4598 108.206 10
      vertex -44.4598 108.206 11
      vertex -39.5513 108.211 11
    endloop
  endfacet
  facet normal -0.00348658 0.999994 0
    outer loop
      vertex -49.0488 108.19 10
      vertex -44.4598 108.206 11
      vertex -44.4598 108.206 10
    endloop
  endfacet
  facet normal -0.00348658 0.999994 0
    outer loop
      vertex -49.0488 108.19 10
      vertex -49.0488 108.19 11
      vertex -44.4598 108.206 11
    endloop
  endfacet
  facet normal -0.00700639 0.999975 0
    outer loop
      vertex -53.3305 108.16 10
      vertex -49.0488 108.19 11
      vertex -49.0488 108.19 10
    endloop
  endfacet
  facet normal -0.00700639 0.999975 0
    outer loop
      vertex -53.3305 108.16 10
      vertex -53.3305 108.16 11
      vertex -49.0488 108.19 11
    endloop
  endfacet
  facet normal -0.0122912 0.999924 0
    outer loop
      vertex -57.3168 108.111 10
      vertex -53.3305 108.16 11
      vertex -53.3305 108.16 10
    endloop
  endfacet
  facet normal -0.0122912 0.999924 0
    outer loop
      vertex -57.3168 108.111 10
      vertex -57.3168 108.111 11
      vertex -53.3305 108.16 11
    endloop
  endfacet
  facet normal -0.0202502 0.999795 0
    outer loop
      vertex -61.0197 108.036 10
      vertex -57.3168 108.111 11
      vertex -57.3168 108.111 10
    endloop
  endfacet
  facet normal -0.0202502 0.999795 0
    outer loop
      vertex -61.0197 108.036 10
      vertex -61.0197 108.036 11
      vertex -57.3168 108.111 11
    endloop
  endfacet
  facet normal -0.0300008 0.99955 0
    outer loop
      vertex -64.4514 107.933 10
      vertex -61.0197 108.036 11
      vertex -61.0197 108.036 10
    endloop
  endfacet
  facet normal -0.0300008 0.99955 0
    outer loop
      vertex -64.4514 107.933 10
      vertex -64.4514 107.933 11
      vertex -61.0197 108.036 11
    endloop
  endfacet
  facet normal -0.0431448 0.999069 0
    outer loop
      vertex -67.6238 107.796 10
      vertex -64.4514 107.933 11
      vertex -64.4514 107.933 10
    endloop
  endfacet
  facet normal -0.0431448 0.999069 0
    outer loop
      vertex -67.6238 107.796 10
      vertex -67.6238 107.796 11
      vertex -64.4514 107.933 11
    endloop
  endfacet
  facet normal -0.0603982 0.998174 0
    outer loop
      vertex -70.549 107.619 10
      vertex -67.6238 107.796 11
      vertex -67.6238 107.796 10
    endloop
  endfacet
  facet normal -0.0603982 0.998174 0
    outer loop
      vertex -70.549 107.619 10
      vertex -70.549 107.619 11
      vertex -67.6238 107.796 11
    endloop
  endfacet
  facet normal -0.0818833 0.996642 0
    outer loop
      vertex -73.2389 107.398 10
      vertex -70.549 107.619 11
      vertex -70.549 107.619 10
    endloop
  endfacet
  facet normal -0.0818833 0.996642 0
    outer loop
      vertex -73.2389 107.398 10
      vertex -73.2389 107.398 11
      vertex -70.549 107.619 11
    endloop
  endfacet
  facet normal -0.108406 0.994107 0
    outer loop
      vertex -75.7057 107.129 10
      vertex -73.2389 107.398 11
      vertex -73.2389 107.398 10
    endloop
  endfacet
  facet normal -0.108406 0.994107 0
    outer loop
      vertex -75.7057 107.129 10
      vertex -75.7057 107.129 11
      vertex -73.2389 107.398 11
    endloop
  endfacet
  facet normal -0.141753 0.989902 0
    outer loop
      vertex -77.9613 106.806 10
      vertex -75.7057 107.129 11
      vertex -75.7057 107.129 10
    endloop
  endfacet
  facet normal -0.141753 0.989902 0
    outer loop
      vertex -77.9613 106.806 10
      vertex -77.9613 106.806 11
      vertex -75.7057 107.129 11
    endloop
  endfacet
  facet normal -0.182629 0.983182 0
    outer loop
      vertex -80.0178 106.424 10
      vertex -77.9613 106.806 11
      vertex -77.9613 106.806 10
    endloop
  endfacet
  facet normal -0.182629 0.983182 0
    outer loop
      vertex -80.0178 106.424 10
      vertex -80.0178 106.424 11
      vertex -77.9613 106.806 11
    endloop
  endfacet
  facet normal -0.231574 0.972817 0
    outer loop
      vertex -81.8872 105.979 10
      vertex -80.0178 106.424 11
      vertex -80.0178 106.424 10
    endloop
  endfacet
  facet normal -0.231574 0.972817 0
    outer loop
      vertex -81.8872 105.979 10
      vertex -81.8872 105.979 11
      vertex -80.0178 106.424 11
    endloop
  endfacet
  facet normal -0.29029 0.956939 0
    outer loop
      vertex -83.5816 105.465 10
      vertex -81.8872 105.979 11
      vertex -81.8872 105.979 10
    endloop
  endfacet
  facet normal -0.29029 0.956939 0
    outer loop
      vertex -83.5816 105.465 10
      vertex -83.5816 105.465 11
      vertex -81.8872 105.979 11
    endloop
  endfacet
  facet normal -0.357405 0.933949 0
    outer loop
      vertex -85.1129 104.879 10
      vertex -83.5816 105.465 11
      vertex -83.5816 105.465 10
    endloop
  endfacet
  facet normal -0.357405 0.933949 0
    outer loop
      vertex -85.1129 104.879 10
      vertex -85.1129 104.879 11
      vertex -83.5816 105.465 11
    endloop
  endfacet
  facet normal -0.434059 0.900884 0
    outer loop
      vertex -86.4931 104.214 10
      vertex -85.1129 104.879 11
      vertex -85.1129 104.879 10
    endloop
  endfacet
  facet normal -0.434059 0.900884 0
    outer loop
      vertex -86.4931 104.214 10
      vertex -86.4931 104.214 11
      vertex -85.1129 104.879 11
    endloop
  endfacet
  facet normal -0.516129 0.856511 0
    outer loop
      vertex -87.7344 103.466 10
      vertex -86.4931 104.214 11
      vertex -86.4931 104.214 10
    endloop
  endfacet
  facet normal -0.516129 0.856511 0
    outer loop
      vertex -87.7344 103.466 10
      vertex -87.7344 103.466 11
      vertex -86.4931 104.214 11
    endloop
  endfacet
  facet normal -0.600092 0.799931 0
    outer loop
      vertex -88.8488 102.63 10
      vertex -87.7344 103.466 11
      vertex -87.7344 103.466 10
    endloop
  endfacet
  facet normal -0.600092 0.799931 0
    outer loop
      vertex -88.8488 102.63 10
      vertex -88.8488 102.63 11
      vertex -87.7344 103.466 11
    endloop
  endfacet
  facet normal -0.680839 0.732433 0
    outer loop
      vertex -89.8482 101.701 10
      vertex -88.8488 102.63 11
      vertex -88.8488 102.63 10
    endloop
  endfacet
  facet normal -0.680839 0.732433 0
    outer loop
      vertex -89.8482 101.701 10
      vertex -89.8482 101.701 11
      vertex -88.8488 102.63 11
    endloop
  endfacet
  facet normal -0.753031 0.657985 0
    outer loop
      vertex -90.7447 100.675 10
      vertex -89.8482 101.701 11
      vertex -89.8482 101.701 10
    endloop
  endfacet
  facet normal -0.753031 0.657985 0
    outer loop
      vertex -90.7447 100.675 10
      vertex -90.7447 100.675 11
      vertex -89.8482 101.701 11
    endloop
  endfacet
  facet normal -0.813933 0.580959 0
    outer loop
      vertex -91.5504 99.5462 10
      vertex -90.7447 100.675 11
      vertex -90.7447 100.675 10
    endloop
  endfacet
  facet normal -0.813933 0.580959 0
    outer loop
      vertex -91.5504 99.5462 10
      vertex -91.5504 99.5462 11
      vertex -90.7447 100.675 11
    endloop
  endfacet
  facet normal -0.862049 0.506825 0
    outer loop
      vertex -92.2772 98.31 10
      vertex -91.5504 99.5462 11
      vertex -91.5504 99.5462 10
    endloop
  endfacet
  facet normal -0.862049 0.506825 0
    outer loop
      vertex -92.2772 98.31 10
      vertex -92.2772 98.31 11
      vertex -91.5504 99.5462 11
    endloop
  endfacet
  facet normal -0.898204 0.439578 0
    outer loop
      vertex -92.9372 96.9614 10
      vertex -92.2772 98.31 11
      vertex -92.2772 98.31 10
    endloop
  endfacet
  facet normal -0.898204 0.439578 0
    outer loop
      vertex -92.9372 96.9614 10
      vertex -92.9372 96.9614 11
      vertex -92.2772 98.31 11
    endloop
  endfacet
  facet normal -0.924315 0.381631 0
    outer loop
      vertex -93.5424 95.4956 10
      vertex -92.9372 96.9614 11
      vertex -92.9372 96.9614 10
    endloop
  endfacet
  facet normal -0.924315 0.381631 0
    outer loop
      vertex -93.5424 95.4956 10
      vertex -93.5424 95.4956 11
      vertex -92.9372 96.9614 11
    endloop
  endfacet
  facet normal -0.942624 0.333857 0
    outer loop
      vertex -94.1048 93.9077 10
      vertex -93.5424 95.4956 11
      vertex -93.5424 95.4956 10
    endloop
  endfacet
  facet normal -0.942624 0.333857 0
    outer loop
      vertex -94.1048 93.9077 10
      vertex -94.1048 93.9077 11
      vertex -93.5424 95.4956 11
    endloop
  endfacet
  facet normal -0.955124 0.296206 0
    outer loop
      vertex -94.6366 92.1929 10
      vertex -94.1048 93.9077 11
      vertex -94.1048 93.9077 10
    endloop
  endfacet
  facet normal -0.955124 0.296206 0
    outer loop
      vertex -94.6366 92.1929 10
      vertex -94.6366 92.1929 11
      vertex -94.1048 93.9077 11
    endloop
  endfacet
  facet normal -0.96351 0.267671 0
    outer loop
      vertex -95.1496 90.3463 10
      vertex -94.6366 92.1929 11
      vertex -94.6366 92.1929 10
    endloop
  endfacet
  facet normal -0.96351 0.267671 0
    outer loop
      vertex -95.1496 90.3463 10
      vertex -95.1496 90.3463 11
      vertex -94.6366 92.1929 11
    endloop
  endfacet
  facet normal -0.968918 0.247383 0
    outer loop
      vertex -95.656 88.3629 10
      vertex -95.1496 90.3463 11
      vertex -95.1496 90.3463 10
    endloop
  endfacet
  facet normal -0.968918 0.247383 0
    outer loop
      vertex -95.656 88.3629 10
      vertex -95.656 88.3629 11
      vertex -95.1496 90.3463 11
    endloop
  endfacet
  facet normal -0.972211 0.234108 0
    outer loop
      vertex -96.1677 86.2379 10
      vertex -95.656 88.3629 11
      vertex -95.656 88.3629 10
    endloop
  endfacet
  facet normal -0.972211 0.234108 0
    outer loop
      vertex -96.1677 86.2379 10
      vertex -96.1677 86.2379 11
      vertex -95.656 88.3629 11
    endloop
  endfacet
  facet normal -0.973928 0.226857 0
    outer loop
      vertex -96.6968 83.9664 10
      vertex -96.1677 86.2379 11
      vertex -96.1677 86.2379 10
    endloop
  endfacet
  facet normal -0.973928 0.226857 0
    outer loop
      vertex -96.6968 83.9664 10
      vertex -96.6968 83.9664 11
      vertex -96.1677 86.2379 11
    endloop
  endfacet
  facet normal -0.974447 0.224619 0
    outer loop
      vertex -97.2553 81.5435 10
      vertex -96.6968 83.9664 11
      vertex -96.6968 83.9664 10
    endloop
  endfacet
  facet normal -0.974447 0.224619 0
    outer loop
      vertex -97.2553 81.5435 10
      vertex -97.2553 81.5435 11
      vertex -96.6968 83.9664 11
    endloop
  endfacet
  facet normal -0.973993 0.22658 0
    outer loop
      vertex -97.8553 78.9643 10
      vertex -97.2553 81.5435 11
      vertex -97.2553 81.5435 10
    endloop
  endfacet
  facet normal -0.973993 0.22658 0
    outer loop
      vertex -97.8553 78.9643 10
      vertex -97.8553 78.9643 11
      vertex -97.2553 81.5435 11
    endloop
  endfacet
  facet normal -0.972722 0.231972 0
    outer loop
      vertex -98.5088 76.224 10
      vertex -97.8553 78.9643 11
      vertex -97.8553 78.9643 10
    endloop
  endfacet
  facet normal -0.972722 0.231972 0
    outer loop
      vertex -98.5088 76.224 10
      vertex -98.5088 76.224 11
      vertex -97.8553 78.9643 11
    endloop
  endfacet
  facet normal -0.970743 0.240122 0
    outer loop
      vertex -99.2277 73.3177 10
      vertex -98.5088 76.224 11
      vertex -98.5088 76.224 10
    endloop
  endfacet
  facet normal -0.970743 0.240122 0
    outer loop
      vertex -99.2277 73.3177 10
      vertex -99.2277 73.3177 11
      vertex -98.5088 76.224 11
    endloop
  endfacet
  facet normal -0.968111 0.250522 0
    outer loop
      vertex -100.024 70.2405 10
      vertex -99.2277 73.3177 11
      vertex -99.2277 73.3177 10
    endloop
  endfacet
  facet normal -0.968111 0.250522 0
    outer loop
      vertex -100.024 70.2405 10
      vertex -100.024 70.2405 11
      vertex -99.2277 73.3177 11
    endloop
  endfacet
  facet normal -0.964855 0.262784 0
    outer loop
      vertex -100.91 66.9874 10
      vertex -100.024 70.2405 11
      vertex -100.024 70.2405 10
    endloop
  endfacet
  facet normal -0.964855 0.262784 0
    outer loop
      vertex -100.91 66.9874 10
      vertex -100.91 66.9874 11
      vertex -100.024 70.2405 11
    endloop
  endfacet
  facet normal -0.961009 0.276517 0
    outer loop
      vertex -101.898 63.5537 10
      vertex -100.91 66.9874 11
      vertex -100.91 66.9874 10
    endloop
  endfacet
  facet normal -0.961009 0.276517 0
    outer loop
      vertex -101.898 63.5537 10
      vertex -101.898 63.5537 11
      vertex -100.91 66.9874 11
    endloop
  endfacet
  facet normal -0.95671 0.291042 0
    outer loop
      vertex -102.999 59.9345 10
      vertex -101.898 63.5537 11
      vertex -101.898 63.5537 10
    endloop
  endfacet
  facet normal -0.95671 0.291042 0
    outer loop
      vertex -102.999 59.9345 10
      vertex -102.999 59.9345 11
      vertex -101.898 63.5537 11
    endloop
  endfacet
  facet normal -0.95185 0.306565 0
    outer loop
      vertex -104.226 56.1248 10
      vertex -102.999 59.9345 11
      vertex -102.999 59.9345 10
    endloop
  endfacet
  facet normal -0.95185 0.306565 0
    outer loop
      vertex -104.226 56.1248 10
      vertex -104.226 56.1248 11
      vertex -102.999 59.9345 11
    endloop
  endfacet
  facet normal -0.946537 0.322595 0
    outer loop
      vertex -105.591 52.1197 10
      vertex -104.226 56.1248 11
      vertex -104.226 56.1248 10
    endloop
  endfacet
  facet normal -0.946537 0.322595 0
    outer loop
      vertex -105.591 52.1197 10
      vertex -105.591 52.1197 11
      vertex -104.226 56.1248 11
    endloop
  endfacet
  facet normal -0.940878 0.338745 0
    outer loop
      vertex -107.105 47.9145 10
      vertex -105.591 52.1197 11
      vertex -105.591 52.1197 10
    endloop
  endfacet
  facet normal -0.940878 0.338745 0
    outer loop
      vertex -107.105 47.9145 10
      vertex -107.105 47.9145 11
      vertex -105.591 52.1197 11
    endloop
  endfacet
  facet normal -0.93478 0.355227 0
    outer loop
      vertex -108.781 43.5041 10
      vertex -107.105 47.9145 11
      vertex -107.105 47.9145 10
    endloop
  endfacet
  facet normal -0.93478 0.355227 0
    outer loop
      vertex -108.781 43.5041 10
      vertex -108.781 43.5041 11
      vertex -107.105 47.9145 11
    endloop
  endfacet
  facet normal -0.928416 0.371543 0
    outer loop
      vertex -110.63 38.8838 10
      vertex -108.781 43.5041 11
      vertex -108.781 43.5041 10
    endloop
  endfacet
  facet normal -0.928416 0.371543 0
    outer loop
      vertex -110.63 38.8838 10
      vertex -110.63 38.8838 11
      vertex -108.781 43.5041 11
    endloop
  endfacet
  facet normal -0.921627 0.388077 0
    outer loop
      vertex -112.666 34.0486 10
      vertex -110.63 38.8838 11
      vertex -110.63 38.8838 10
    endloop
  endfacet
  facet normal -0.921627 0.388077 0
    outer loop
      vertex -112.666 34.0486 10
      vertex -112.666 34.0486 11
      vertex -110.63 38.8838 11
    endloop
  endfacet
  facet normal -0.914724 0.404079 0
    outer loop
      vertex -114.899 28.9937 10
      vertex -112.666 34.0486 11
      vertex -112.666 34.0486 10
    endloop
  endfacet
  facet normal -0.914724 0.404079 0
    outer loop
      vertex -114.899 28.9937 10
      vertex -114.899 28.9937 11
      vertex -112.666 34.0486 11
    endloop
  endfacet
  facet normal -0.907484 0.420087 0
    outer loop
      vertex -117.343 23.7141 10
      vertex -114.899 28.9937 11
      vertex -114.899 28.9937 10
    endloop
  endfacet
  facet normal -0.907484 0.420087 0
    outer loop
      vertex -117.343 23.7141 10
      vertex -117.343 23.7141 11
      vertex -114.899 28.9937 11
    endloop
  endfacet
  facet normal -0.900204 0.435469 0
    outer loop
      vertex -120.008 18.205 10
      vertex -117.343 23.7141 11
      vertex -117.343 23.7141 10
    endloop
  endfacet
  facet normal -0.900204 0.435469 0
    outer loop
      vertex -120.008 18.205 10
      vertex -120.008 18.205 11
      vertex -117.343 23.7141 11
    endloop
  endfacet
  facet normal -0.892723 0.450605 0
    outer loop
      vertex -122.907 12.4616 10
      vertex -120.008 18.205 11
      vertex -120.008 18.205 10
    endloop
  endfacet
  facet normal -0.892723 0.450605 0
    outer loop
      vertex -122.907 12.4616 10
      vertex -122.907 12.4616 11
      vertex -120.008 18.205 11
    endloop
  endfacet
  facet normal 0.443404 -0.896322 0
    outer loop
      vertex -121.004 13.403 10
      vertex -122.907 12.4616 11
      vertex -122.907 12.4616 10
    endloop
  endfacet
  facet normal 0.443404 -0.896322 0
    outer loop
      vertex -121.004 13.403 10
      vertex -121.004 13.403 11
      vertex -122.907 12.4616 11
    endloop
  endfacet
  facet normal -0.483687 -0.875241 0
    outer loop
      vertex -108.098 6.27072 10
      vertex -121.004 13.403 11
      vertex -121.004 13.403 10
    endloop
  endfacet
  facet normal -0.483687 -0.875241 0
    outer loop
      vertex -108.098 6.27072 10
      vertex -108.098 6.27072 11
      vertex -121.004 13.403 11
    endloop
  endfacet
  facet normal 0 -1 0
    outer loop
      vertex -98.5823 6.27072 10
      vertex -108.098 6.27072 11
      vertex -108.098 6.27072 10
    endloop
  endfacet
  facet normal 0 -1 0
    outer loop
      vertex -98.5823 6.27072 10
      vertex -98.5823 6.27072 11
      vertex -108.098 6.27072 11
    endloop
  endfacet
  facet normal -0.000920463 -1 0
    outer loop
      vertex -51.204 6.22711 10
      vertex -98.5823 6.27072 11
      vertex -98.5823 6.27072 10
    endloop
  endfacet
  facet normal -0.000920463 -1 0
    outer loop
      vertex -51.204 6.22711 10
      vertex -51.204 6.22711 11
      vertex -98.5823 6.27072 11
    endloop
  endfacet
  facet normal -0.0854827 -0.99634 0
    outer loop
      vertex -50.9442 6.20482 10
      vertex -51.204 6.22711 11
      vertex -51.204 6.22711 10
    endloop
  endfacet
  facet normal -0.0854827 -0.99634 0
    outer loop
      vertex -50.9442 6.20482 10
      vertex -50.9442 6.20482 11
      vertex -51.204 6.22711 11
    endloop
  endfacet
  facet normal -0.252931 -0.967484 0
    outer loop
      vertex -50.6997 6.1409 10
      vertex -50.9442 6.20482 11
      vertex -50.9442 6.20482 10
    endloop
  endfacet
  facet normal -0.252931 -0.967484 0
    outer loop
      vertex -50.6997 6.1409 10
      vertex -50.6997 6.1409 11
      vertex -50.9442 6.20482 11
    endloop
  endfacet
  facet normal -0.411173 -0.911557 0
    outer loop
      vertex -50.4747 6.03941 10
      vertex -50.6997 6.1409 11
      vertex -50.6997 6.1409 10
    endloop
  endfacet
  facet normal -0.411173 -0.911557 0
    outer loop
      vertex -50.4747 6.03941 10
      vertex -50.4747 6.03941 11
      vertex -50.6997 6.1409 11
    endloop
  endfacet
  facet normal -0.556383 -0.830926 0
    outer loop
      vertex -50.2731 5.90442 10
      vertex -50.4747 6.03941 11
      vertex -50.4747 6.03941 10
    endloop
  endfacet
  facet normal -0.556383 -0.830926 0
    outer loop
      vertex -50.2731 5.90442 10
      vertex -50.2731 5.90442 11
      vertex -50.4747 6.03941 11
    endloop
  endfacet
  facet normal -0.68709 -0.726573 0
    outer loop
      vertex -50.0992 5.73997 10
      vertex -50.2731 5.90442 11
      vertex -50.2731 5.90442 10
    endloop
  endfacet
  facet normal -0.68709 -0.726573 0
    outer loop
      vertex -50.0992 5.73997 10
      vertex -50.0992 5.73997 11
      vertex -50.2731 5.90442 11
    endloop
  endfacet
  facet normal -0.799914 -0.600115 0
    outer loop
      vertex -49.9568 5.55016 10
      vertex -50.0992 5.73997 11
      vertex -50.0992 5.73997 10
    endloop
  endfacet
  facet normal -0.799914 -0.600115 0
    outer loop
      vertex -49.9568 5.55016 10
      vertex -49.9568 5.55016 11
      vertex -50.0992 5.73997 11
    endloop
  endfacet
  facet normal -0.892508 -0.451031 0
    outer loop
      vertex -49.8501 5.33902 10
      vertex -49.9568 5.55016 11
      vertex -49.9568 5.55016 10
    endloop
  endfacet
  facet normal -0.892508 -0.451031 0
    outer loop
      vertex -49.8501 5.33902 10
      vertex -49.8501 5.33902 11
      vertex -49.9568 5.55016 11
    endloop
  endfacet
  facet normal -0.959563 -0.281495 0
    outer loop
      vertex -49.7831 5.11063 10
      vertex -49.8501 5.33902 11
      vertex -49.8501 5.33902 10
    endloop
  endfacet
  facet normal -0.959563 -0.281495 0
    outer loop
      vertex -49.7831 5.11063 10
      vertex -49.7831 5.11063 11
      vertex -49.8501 5.33902 11
    endloop
  endfacet
  facet normal -0.99546 -0.0951785 0
    outer loop
      vertex -49.76 4.86903 10
      vertex -49.7831 5.11063 11
      vertex -49.7831 5.11063 10
    endloop
  endfacet
  facet normal -0.99546 -0.0951785 0
    outer loop
      vertex -49.76 4.86903 10
      vertex -49.76 4.86903 11
      vertex -49.7831 5.11063 11
    endloop
  endfacet
  facet normal -1 0 0
    outer loop
      vertex -49.76 -4.08694 10
      vertex -49.76 4.86903 11
      vertex -49.76 4.86903 10
    endloop
  endfacet
  facet normal -1 0 0
    outer loop
      vertex -49.76 -4.08694 10
      vertex -49.76 -4.08694 11
      vertex -49.76 4.86903 11
    endloop
  endfacet
  facet normal -0.995678 -0.0928673 0
    outer loop
      vertex -49.7061 -4.66483 10
      vertex -49.76 -4.08694 11
      vertex -49.76 -4.08694 10
    endloop
  endfacet
  facet normal -0.995678 -0.0928673 0
    outer loop
      vertex -49.7061 -4.66483 10
      vertex -49.7061 -4.66483 11
      vertex -49.76 -4.08694 11
    endloop
  endfacet
  facet normal -0.961206 -0.275832 0
    outer loop
      vertex -49.55 -5.2088 10
      vertex -49.7061 -4.66483 11
      vertex -49.7061 -4.66483 10
    endloop
  endfacet
  facet normal -0.961206 -0.275832 0
    outer loop
      vertex -49.55 -5.2088 10
      vertex -49.55 -5.2088 11
      vertex -49.7061 -4.66483 11
    endloop
  endfacet
  facet normal -0.895561 -0.444938 0
    outer loop
      vertex -49.3011 -5.70978 10
      vertex -49.55 -5.2088 11
      vertex -49.55 -5.2088 10
    endloop
  endfacet
  facet normal -0.895561 -0.444938 0
    outer loop
      vertex -49.3011 -5.70978 10
      vertex -49.3011 -5.70978 11
      vertex -49.55 -5.2088 11
    endloop
  endfacet
  facet normal -0.803916 -0.594743 0
    outer loop
      vertex -48.969 -6.15868 10
      vertex -49.3011 -5.70978 11
      vertex -49.3011 -5.70978 10
    endloop
  endfacet
  facet normal -0.803916 -0.594743 0
    outer loop
      vertex -48.969 -6.15868 10
      vertex -48.969 -6.15868 11
      vertex -49.3011 -5.70978 11
    endloop
  endfacet
  facet normal -0.690666 -0.723174 0
    outer loop
      vertex -48.563 -6.54643 10
      vertex -48.969 -6.15868 11
      vertex -48.969 -6.15868 10
    endloop
  endfacet
  facet normal -0.690666 -0.723174 0
    outer loop
      vertex -48.563 -6.54643 10
      vertex -48.563 -6.54643 11
      vertex -48.969 -6.15868 11
    endloop
  endfacet
  facet normal -0.559624 -0.828746 0
    outer loop
      vertex -48.0928 -6.86394 10
      vertex -48.563 -6.54643 11
      vertex -48.563 -6.54643 10
    endloop
  endfacet
  facet normal -0.559624 -0.828746 0
    outer loop
      vertex -48.0928 -6.86394 10
      vertex -48.0928 -6.86394 11
      vertex -48.563 -6.54643 11
    endloop
  endfacet
  facet normal -0.41311 -0.910681 0
    outer loop
      vertex -47.5677 -7.10214 10
      vertex -48.0928 -6.86394 11
      vertex -48.0928 -6.86394 10
    endloop
  endfacet
  facet normal -0.41311 -0.910681 0
    outer loop
      vertex -47.5677 -7.10214 10
      vertex -47.5677 -7.10214 11
      vertex -48.0928 -6.86394 11
    endloop
  endfacet
  facet normal -0.254025 -0.967198 0
    outer loop
      vertex -46.9973 -7.25195 10
      vertex -47.5677 -7.10214 11
      vertex -47.5677 -7.10214 10
    endloop
  endfacet
  facet normal -0.254025 -0.967198 0
    outer loop
      vertex -46.9973 -7.25195 10
      vertex -46.9973 -7.25195 11
      vertex -47.5677 -7.10214 11
    endloop
  endfacet
  facet normal -0.0859907 -0.996296 0
    outer loop
      vertex -46.391 -7.30428 10
      vertex -46.9973 -7.25195 11
      vertex -46.9973 -7.25195 10
    endloop
  endfacet
  facet normal -0.0859907 -0.996296 0
    outer loop
      vertex -46.391 -7.30428 10
      vertex -46.391 -7.30428 11
      vertex -46.9973 -7.25195 11
    endloop
  endfacet
  facet normal 0 -1 0
    outer loop
      vertex -16.078 -7.30428 10
      vertex -46.391 -7.30428 11
      vertex -46.391 -7.30428 10
    endloop
  endfacet
  facet normal 0 -1 0
    outer loop
      vertex -16.078 -7.30428 10
      vertex -16.078 -7.30428 11
      vertex -46.391 -7.30428 11
    endloop
  endfacet
  facet normal 8.20284e-05 -1 0
    outer loop
      vertex -5.95955 -7.30345 10
      vertex -16.078 -7.30428 11
      vertex -16.078 -7.30428 10
    endloop
  endfacet
  facet normal 8.20284e-05 -1 0
    outer loop
      vertex -5.95955 -7.30345 10
      vertex -5.95955 -7.30345 11
      vertex -16.078 -7.30428 11
    endloop
  endfacet
  facet normal -0.0777869 -0.99697 0
    outer loop
      vertex -5.68617 -7.32478 10
      vertex -5.95955 -7.30345 11
      vertex -5.95955 -7.30345 10
    endloop
  endfacet
  facet normal -0.0777869 -0.99697 0
    outer loop
      vertex -5.68617 -7.32478 10
      vertex -5.68617 -7.32478 11
      vertex -5.95955 -7.30345 11
    endloop
  endfacet
  facet normal -0.242482 -0.970156 0
    outer loop
      vertex -5.43111 -7.38853 10
      vertex -5.68617 -7.32478 11
      vertex -5.68617 -7.32478 10
    endloop
  endfacet
  facet normal -0.242482 -0.970156 0
    outer loop
      vertex -5.43111 -7.38853 10
      vertex -5.43111 -7.38853 11
      vertex -5.68617 -7.32478 11
    endloop
  endfacet
  facet normal -0.403094 -0.915159 0
    outer loop
      vertex -5.19806 -7.49118 10
      vertex -5.43111 -7.38853 11
      vertex -5.43111 -7.38853 10
    endloop
  endfacet
  facet normal -0.403094 -0.915159 0
    outer loop
      vertex -5.19806 -7.49118 10
      vertex -5.19806 -7.49118 11
      vertex -5.43111 -7.38853 11
    endloop
  endfacet
  facet normal -0.554218 -0.832371 0
    outer loop
      vertex -4.99071 -7.62924 10
      vertex -5.19806 -7.49118 11
      vertex -5.19806 -7.49118 10
    endloop
  endfacet
  facet normal -0.554218 -0.832371 0
    outer loop
      vertex -4.99071 -7.62924 10
      vertex -4.99071 -7.62924 11
      vertex -5.19806 -7.49118 11
    endloop
  endfacet
  facet normal -0.690624 -0.723214 0
    outer loop
      vertex -4.81274 -7.79919 10
      vertex -4.99071 -7.62924 11
      vertex -4.99071 -7.62924 10
    endloop
  endfacet
  facet normal -0.690624 -0.723214 0
    outer loop
      vertex -4.81274 -7.79919 10
      vertex -4.81274 -7.79919 11
      vertex -4.99071 -7.62924 11
    endloop
  endfacet
  facet normal -0.80759 -0.589744 0
    outer loop
      vertex -4.66788 -7.99756 10
      vertex -4.81274 -7.79919 11
      vertex -4.81274 -7.79919 10
    endloop
  endfacet
  facet normal -0.80759 -0.589744 0
    outer loop
      vertex -4.66788 -7.99756 10
      vertex -4.66788 -7.99756 11
      vertex -4.81274 -7.79919 11
    endloop
  endfacet
  facet normal -0.900086 -0.435712 0
    outer loop
      vertex -4.5598 -8.22083 10
      vertex -4.66788 -7.99756 11
      vertex -4.66788 -7.99756 10
    endloop
  endfacet
  facet normal -0.900086 -0.435712 0
    outer loop
      vertex -4.5598 -8.22083 10
      vertex -4.5598 -8.22083 11
      vertex -4.66788 -7.99756 11
    endloop
  endfacet
  facet normal -0.963877 -0.266349 0
    outer loop
      vertex -4.49219 -8.4655 10
      vertex -4.5598 -8.22083 11
      vertex -4.5598 -8.22083 10
    endloop
  endfacet
  facet normal -0.963877 -0.266349 0
    outer loop
      vertex -4.49219 -8.4655 10
      vertex -4.49219 -8.4655 11
      vertex -4.5598 -8.22083 11
    endloop
  endfacet
  facet normal -0.996039 -0.0889212 0
    outer loop
      vertex -4.46875 -8.72806 10
      vertex -4.49219 -8.4655 11
      vertex -4.49219 -8.4655 10
    endloop
  endfacet
  facet normal -0.996039 -0.0889212 0
    outer loop
      vertex -4.46875 -8.72806 10
      vertex -4.46875 -8.72806 11
      vertex -4.49219 -8.4655 11
    endloop
  endfacet
  facet normal -0.82899 -0.559264 0
    outer loop
      vertex -3.33878 -10.403 10
      vertex -4.46875 -8.72806 11
      vertex -4.46875 -8.72806 10
    endloop
  endfacet
  facet normal -0.82899 -0.559264 0
    outer loop
      vertex -3.33878 -10.403 10
      vertex -3.33878 -10.403 11
      vertex -4.46875 -8.72806 11
    endloop
  endfacet
  facet normal 0.999917 0.0128508 0
    outer loop
      vertex -3.43022 -3.28806 10
      vertex -3.33878 -10.403 11
      vertex -3.33878 -10.403 10
    endloop
  endfacet
  facet normal 0.999917 0.0128508 -0
    outer loop
      vertex -3.43022 -3.28806 10
      vertex -3.43022 -3.28806 11
      vertex -3.33878 -10.403 11
    endloop
  endfacet
endsolid OpenSCAD_Model
