solid OpenSCAD_Model
  facet normal 0 0 -1
    outer loop
      vertex -6.70599 97.4694 10
      vertex -8.4435 98.8367 10
      vertex -7.54939 98.1957 10
    endloop
  endfacet
  facet normal 0 0 -1
    outer loop
      vertex -5.91164 96.6523 10
      vertex -9.38995 99.3978 10
      vertex -6.70599 97.4694 10
    endloop
  endfacet
  facet normal 0 0 -1
    outer loop
      vertex -9.38995 99.3978 10
      vertex -8.4435 98.8367 10
      vertex -6.70599 97.4694 10
    endloop
  endfacet
  facet normal 0 0 -1
    outer loop
      vertex -5.91164 96.6523 10
      vertex -10.3904 99.8841 10
      vertex -9.38995 99.3978 10
    endloop
  endfacet
  facet normal -0 -0 -1
    outer loop
      vertex -5.91164 96.6523 10
      vertex -5.16466 95.7393 10
      vertex -10.3904 99.8841 10
    endloop
  endfacet
  facet normal -0 -0 -1
    outer loop
      vertex -10.3904 99.8841 10
      vertex -5.16466 95.7393 10
      vertex -11.4466 100.301 10
    endloop
  endfacet
  facet normal 0 0 -1
    outer loop
      vertex -11.4466 100.301 10
      vertex -5.16466 95.7393 10
      vertex -4.46342 94.7249 10
    endloop
  endfacet
  facet normal 0 0 -1
    outer loop
      vertex -12.5601 100.654 10
      vertex -11.4466 100.301 10
      vertex -4.46342 94.7249 10
    endloop
  endfacet
  facet normal 0 0 -1
    outer loop
      vertex -3.80626 93.6038 10
      vertex -12.5601 100.654 10
      vertex -4.46342 94.7249 10
    endloop
  endfacet
  facet normal 0 0 -1
    outer loop
      vertex -3.80626 93.6038 10
      vertex -13.7325 100.948 10
      vertex -12.5601 100.654 10
    endloop
  endfacet
  facet normal -0 -0 -1
    outer loop
      vertex -3.80626 93.6038 10
      vertex -3.19151 92.3707 10
      vertex -13.7325 100.948 10
    endloop
  endfacet
  facet normal -0 -0 -1
    outer loop
      vertex -13.7325 100.948 10
      vertex -3.19151 92.3707 10
      vertex -14.9657 101.189 10
    endloop
  endfacet
  facet normal 0 0 -1
    outer loop
      vertex -14.9657 101.189 10
      vertex -3.19151 92.3707 10
      vertex -2.61752 91.0202 10
    endloop
  endfacet
  facet normal 0 0 -1
    outer loop
      vertex -16.2611 101.382 10
      vertex -14.9657 101.189 10
      vertex -2.61752 91.0202 10
    endloop
  endfacet
  facet normal 0 0 -1
    outer loop
      vertex -2.08264 89.547 10
      vertex -16.2611 101.382 10
      vertex -2.61752 91.0202 10
    endloop
  endfacet
  facet normal 0 0 -1
    outer loop
      vertex -2.08264 89.547 10
      vertex -17.6205 101.532 10
      vertex -16.2611 101.382 10
    endloop
  endfacet
  facet normal -0 -0 -1
    outer loop
      vertex -2.08264 89.547 10
      vertex -1.58521 87.9458 10
      vertex -17.6205 101.532 10
    endloop
  endfacet
  facet normal -0 -0 -1
    outer loop
      vertex -17.6205 101.532 10
      vertex -1.58521 87.9458 10
      vertex -19.0455 101.645 10
    endloop
  endfacet
  facet normal 0 0 -1
    outer loop
      vertex -19.0455 101.645 10
      vertex -1.58521 87.9458 10
      vertex -1.12355 86.2113 10
    endloop
  endfacet
  facet normal 0 0 -1
    outer loop
      vertex -20.5377 101.726 10
      vertex -19.0455 101.645 10
      vertex -1.12355 86.2113 10
    endloop
  endfacet
  facet normal 0 0 -1
    outer loop
      vertex -0.696014 84.338 10
      vertex -20.5377 101.726 10
      vertex -1.12355 86.2113 10
    endloop
  endfacet
  facet normal 0 0 -1
    outer loop
      vertex -0.696014 84.338 10
      vertex -22.0989 101.78 10
      vertex -20.5377 101.726 10
    endloop
  endfacet
  facet normal -0 -0 -1
    outer loop
      vertex -0.696014 84.338 10
      vertex -0.300964 82.3208 10
      vertex -22.0989 101.78 10
    endloop
  endfacet
  facet normal -0 -0 -1
    outer loop
      vertex -22.0989 101.78 10
      vertex -0.300964 82.3208 10
      vertex -23.7307 101.813 10
    endloop
  endfacet
  facet normal 0 0 -1
    outer loop
      vertex -23.7307 101.813 10
      vertex -0.300964 82.3208 10
      vertex 0.0632477 80.1541 10
    endloop
  endfacet
  facet normal 0 0 -1
    outer loop
      vertex -25.4348 101.83 10
      vertex -23.7307 101.813 10
      vertex 0.0632477 80.1541 10
    endloop
  endfacet
  facet normal 0 0 -1
    outer loop
      vertex 0.398331 77.8328 10
      vertex -25.4348 101.83 10
      vertex 0.0632477 80.1541 10
    endloop
  endfacet
  facet normal 0 0 -1
    outer loop
      vertex 0.398331 77.8328 10
      vertex -27.2127 101.836 10
      vertex -25.4348 101.83 10
    endloop
  endfacet
  facet normal -0 -0 -1
    outer loop
      vertex 0.398331 77.8328 10
      vertex 0.705902 75.3515 10
      vertex -27.2127 101.836 10
    endloop
  endfacet
  facet normal -0 -0 -1
    outer loop
      vertex -27.2127 101.836 10
      vertex 0.705902 75.3515 10
      vertex -29.0662 101.837 10
    endloop
  endfacet
  facet normal 0 0 -1
    outer loop
      vertex -29.0662 101.837 10
      vertex 0.705902 75.3515 10
      vertex 0.98764 72.7047 10
    endloop
  endfacet
  facet normal 0 0 -1
    outer loop
      vertex -34.5637 101.837 10
      vertex -29.0662 101.837 10
      vertex 0.98764 72.7047 10
    endloop
  endfacet
  facet normal 0 0 -1
    outer loop
      vertex 1.24519 69.8873 10
      vertex -34.5637 101.837 10
      vertex 0.98764 72.7047 10
    endloop
  endfacet
  facet normal -0 -0 -1
    outer loop
      vertex 1.24519 69.8873 10
      vertex 1.48021 66.8939 10
      vertex -34.5637 101.837 10
    endloop
  endfacet
  facet normal 0 -0 -1
    outer loop
      vertex -34.5637 101.837 10
      vertex 1.48021 66.8939 10
      vertex -39.7134 101.832 10
    endloop
  endfacet
  facet normal 0 0 -1
    outer loop
      vertex -39.7134 101.832 10
      vertex 1.48021 66.8939 10
      vertex 1.69435 63.7191 10
    endloop
  endfacet
  facet normal 0 0 -1
    outer loop
      vertex 1.88928 60.3575 10
      vertex -39.7134 101.832 10
      vertex 1.69435 63.7191 10
    endloop
  endfacet
  facet normal 0 0 -1
    outer loop
      vertex -46.7891 15.1166 10
      vertex -44.528 101.819 10
      vertex -46.5165 15.0921 10
    endloop
  endfacet
  facet normal 0 0 -1
    outer loop
      vertex -46.5165 15.0921 10
      vertex -44.528 101.819 10
      vertex -39.7134 101.832 10
    endloop
  endfacet
  facet normal 0 0 -1
    outer loop
      vertex -44.528 101.819 10
      vertex -46.7891 15.1166 10
      vertex -49.0201 101.794 10
    endloop
  endfacet
  facet normal -0 0 -1
    outer loop
      vertex 1.88928 60.3575 10
      vertex -46.5165 15.0921 10
      vertex -39.7134 101.832 10
    endloop
  endfacet
  facet normal 0 0 -1
    outer loop
      vertex -46.7891 15.1166 10
      vertex -98.9385 67.6218 10
      vertex -98.0089 70.3217 10
    endloop
  endfacet
  facet normal 0 0 -1
    outer loop
      vertex -57.0873 101.691 10
      vertex -98.0089 70.3217 10
      vertex -97.1733 72.8757 10
    endloop
  endfacet
  facet normal 0 0 -1
    outer loop
      vertex -95.7335 77.5623 10
      vertex -67.0849 101.345 10
      vertex -64.016 101.491 10
    endloop
  endfacet
  facet normal 0 0 -1
    outer loop
      vertex -95.7335 77.5623 10
      vertex -95.104 79.7029 10
      vertex -67.0849 101.345 10
    endloop
  endfacet
  facet normal 0 -0 -1
    outer loop
      vertex -74.8616 100.67 10
      vertex -72.4951 100.938 10
      vertex -93.9629 83.5991 10
    endloop
  endfacet
  facet normal 0 -0 -1
    outer loop
      vertex -93.9629 83.5991 10
      vertex -72.4951 100.938 10
      vertex -94.518 81.7138 10
    endloop
  endfacet
  facet normal 0 -0 -1
    outer loop
      vertex -92.8948 87.009 10
      vertex -77.0192 100.353 10
      vertex -93.426 85.3628 10
    endloop
  endfacet
  facet normal 0 -0 -1
    outer loop
      vertex -92.3565 88.5417 10
      vertex -78.9805 99.9838 10
      vertex -92.8948 87.009 10
    endloop
  endfacet
  facet normal 0 -0 -1
    outer loop
      vertex -91.7986 89.9649 10
      vertex -80.7581 99.5575 10
      vertex -92.3565 88.5417 10
    endloop
  endfacet
  facet normal 0 -0 -1
    outer loop
      vertex -83.8128 98.5186 10
      vertex -82.3647 99.0705 10
      vertex -91.2085 91.2828 10
    endloop
  endfacet
  facet normal 0 0 -1
    outer loop
      vertex -85.1151 97.8979 10
      vertex -90.5736 92.4994 10
      vertex -89.8811 93.6187 10
    endloop
  endfacet
  facet normal 0 0 -1
    outer loop
      vertex -86.2842 97.2041 10
      vertex -89.1186 94.6447 10
      vertex -87.3328 96.4334 10
    endloop
  endfacet
  facet normal 0 0 -1
    outer loop
      vertex -87.3328 96.4334 10
      vertex -89.1186 94.6447 10
      vertex -88.2734 95.5816 10
    endloop
  endfacet
  facet normal 0 0 -1
    outer loop
      vertex -86.2842 97.2041 10
      vertex -89.8811 93.6187 10
      vertex -89.1186 94.6447 10
    endloop
  endfacet
  facet normal 0 -0 -1
    outer loop
      vertex -86.2842 97.2041 10
      vertex -85.1151 97.8979 10
      vertex -89.8811 93.6187 10
    endloop
  endfacet
  facet normal 0 -0 -1
    outer loop
      vertex -85.1151 97.8979 10
      vertex -83.8128 98.5186 10
      vertex -90.5736 92.4994 10
    endloop
  endfacet
  facet normal 0 -0 -1
    outer loop
      vertex -90.5736 92.4994 10
      vertex -83.8128 98.5186 10
      vertex -91.2085 91.2828 10
    endloop
  endfacet
  facet normal 0 -0 -1
    outer loop
      vertex -91.2085 91.2828 10
      vertex -82.3647 99.0705 10
      vertex -91.7986 89.9649 10
    endloop
  endfacet
  facet normal 0 0 -1
    outer loop
      vertex -91.7986 89.9649 10
      vertex -82.3647 99.0705 10
      vertex -80.7581 99.5575 10
    endloop
  endfacet
  facet normal 0 0 -1
    outer loop
      vertex -92.3565 88.5417 10
      vertex -80.7581 99.5575 10
      vertex -78.9805 99.9838 10
    endloop
  endfacet
  facet normal 0 0 -1
    outer loop
      vertex -92.8948 87.009 10
      vertex -78.9805 99.9838 10
      vertex -77.0192 100.353 10
    endloop
  endfacet
  facet normal 0 0 -1
    outer loop
      vertex -93.426 85.3628 10
      vertex -77.0192 100.353 10
      vertex -74.8616 100.67 10
    endloop
  endfacet
  facet normal 0 0 -1
    outer loop
      vertex -93.9629 83.5991 10
      vertex -93.426 85.3628 10
      vertex -74.8616 100.67 10
    endloop
  endfacet
  facet normal 0 0 -1
    outer loop
      vertex -94.518 81.7138 10
      vertex -72.4951 100.938 10
      vertex -69.9071 101.162 10
    endloop
  endfacet
  facet normal 0 0 -1
    outer loop
      vertex -95.104 79.7029 10
      vertex -94.518 81.7138 10
      vertex -69.9071 101.162 10
    endloop
  endfacet
  facet normal 0 0 -1
    outer loop
      vertex -67.0849 101.345 10
      vertex -95.104 79.7029 10
      vertex -69.9071 101.162 10
    endloop
  endfacet
  facet normal 0 0 -1
    outer loop
      vertex -96.419 75.2879 10
      vertex -95.7335 77.5623 10
      vertex -64.016 101.491 10
    endloop
  endfacet
  facet normal 0 0 -1
    outer loop
      vertex -60.6877 101.606 10
      vertex -96.419 75.2879 10
      vertex -64.016 101.491 10
    endloop
  endfacet
  facet normal 0 0 -1
    outer loop
      vertex -60.6877 101.606 10
      vertex -97.1733 72.8757 10
      vertex -96.419 75.2879 10
    endloop
  endfacet
  facet normal 0 -0 -1
    outer loop
      vertex -60.6877 101.606 10
      vertex -57.0873 101.691 10
      vertex -97.1733 72.8757 10
    endloop
  endfacet
  facet normal 0 -0 -1
    outer loop
      vertex -57.0873 101.691 10
      vertex -46.7891 15.1166 10
      vertex -98.0089 70.3217 10
    endloop
  endfacet
  facet normal 0 -0 -1
    outer loop
      vertex -53.2023 101.753 10
      vertex -46.7891 15.1166 10
      vertex -57.0873 101.691 10
    endloop
  endfacet
  facet normal 0 0 -1
    outer loop
      vertex -53.2023 101.753 10
      vertex -49.0201 101.794 10
      vertex -46.7891 15.1166 10
    endloop
  endfacet
  facet normal 0 -0 -1
    outer loop
      vertex 1.88928 60.3575 10
      vertex 2.06665 56.804 10
      vertex -46.5165 15.0921 10
    endloop
  endfacet
  facet normal 0 0 -1
    outer loop
      vertex -46.7891 15.1166 10
      vertex -99.9747 64.7719 10
      vertex -98.9385 67.6218 10
    endloop
  endfacet
  facet normal 0 0 -1
    outer loop
      vertex -46.5165 15.0921 10
      vertex 2.06665 56.804 10
      vertex 2.22812 53.0531 10
    endloop
  endfacet
  facet normal 0 -0 -1
    outer loop
      vertex -99.9747 64.7719 10
      vertex -46.7891 15.1166 10
      vertex -101.13 61.768 10
    endloop
  endfacet
  facet normal 0 -0 -1
    outer loop
      vertex -101.13 61.768 10
      vertex -46.7891 15.1166 10
      vertex -102.417 58.606 10
    endloop
  endfacet
  facet normal 0 -0 -1
    outer loop
      vertex -102.417 58.606 10
      vertex -46.7891 15.1166 10
      vertex -103.849 55.282 10
    endloop
  endfacet
  facet normal 0 0 -1
    outer loop
      vertex -46.26 15.0219 10
      vertex -46.5165 15.0921 10
      vertex 2.22812 53.0531 10
    endloop
  endfacet
  facet normal 0 0 -1
    outer loop
      vertex -96.4962 15.1646 10
      vertex -103.849 55.282 10
      vertex -46.7891 15.1166 10
    endloop
  endfacet
  facet normal -0 0 -1
    outer loop
      vertex 2.37535 49.0994 10
      vertex -46.26 15.0219 10
      vertex 2.22812 53.0531 10
    endloop
  endfacet
  facet normal 0 0 -1
    outer loop
      vertex -96.4962 15.1646 10
      vertex -107.196 48.1312 10
      vertex -105.438 51.7917 10
    endloop
  endfacet
  facet normal 0 -0 -1
    outer loop
      vertex -103.849 55.282 10
      vertex -96.4962 15.1646 10
      vertex -105.438 51.7917 10
    endloop
  endfacet
  facet normal 0 -0 -1
    outer loop
      vertex -107.196 48.1312 10
      vertex -96.4962 15.1646 10
      vertex -109.137 44.2965 10
    endloop
  endfacet
  facet normal 0 -0 -1
    outer loop
      vertex 2.37535 49.0994 10
      vertex 2.50998 44.9378 10
      vertex -46.26 15.0219 10
    endloop
  endfacet
  facet normal 0 0 -1
    outer loop
      vertex -111.272 40.2834 10
      vertex -109.137 44.2965 10
      vertex -96.4962 15.1646 10
    endloop
  endfacet
  facet normal 0 0 -1
    outer loop
      vertex -46.26 15.0219 10
      vertex 2.50998 44.9378 10
      vertex -46.0239 14.9104 10
    endloop
  endfacet
  facet normal 0 0 -1
    outer loop
      vertex -96.4962 15.1646 10
      vertex -113.615 36.088 10
      vertex -111.272 40.2834 10
    endloop
  endfacet
  facet normal 0 0 -1
    outer loop
      vertex -46.0239 14.9104 10
      vertex 2.50998 44.9378 10
      vertex 2.6337 40.5627 10
    endloop
  endfacet
  facet normal 0 0 -1
    outer loop
      vertex -113.615 36.088 10
      vertex -96.4962 15.1646 10
      vertex -106.48 15.1646 10
    endloop
  endfacet
  facet normal 0 0 -1
    outer loop
      vertex -45.8125 14.762 10
      vertex -46.0239 14.9104 10
      vertex 2.6337 40.5627 10
    endloop
  endfacet
  facet normal 0 0 -1
    outer loop
      vertex -106.48 15.1646 10
      vertex -116.179 31.7061 10
      vertex -113.615 36.088 10
    endloop
  endfacet
  facet normal 0 0 -1
    outer loop
      vertex -106.48 15.1646 10
      vertex -118.975 27.1337 10
      vertex -116.179 31.7061 10
    endloop
  endfacet
  facet normal 0 0 -1
    outer loop
      vertex -106.48 15.1646 10
      vertex -120.02 23.0023 10
      vertex -118.975 27.1337 10
    endloop
  endfacet
  facet normal 0 0 -1
    outer loop
      vertex -45.6299 14.5813 10
      vertex 2.85497 31.1512 10
      vertex -45.4806 14.3727 10
    endloop
  endfacet
  facet normal 0 0 -1
    outer loop
      vertex -45.3686 14.1407 10
      vertex -45.4806 14.3727 10
      vertex 2.95583 26.104 10
    endloop
  endfacet
  facet normal 0 0 -1
    outer loop
      vertex -118.975 27.1337 10
      vertex -120.02 23.0023 10
      vertex -122.016 22.3667 10
    endloop
  endfacet
  facet normal 0 0 -1
    outer loop
      vertex -45.0538 2.5497 10
      vertex -45.2176 3.14746 10
      vertex -44.7927 1.99916 10
    endloop
  endfacet
  facet normal -0 0 -1
    outer loop
      vertex 2.74814 35.969 10
      vertex -45.8125 14.762 10
      vertex 2.6337 40.5627 10
    endloop
  endfacet
  facet normal 0 0 -1
    outer loop
      vertex 2.74814 35.969 10
      vertex -45.6299 14.5813 10
      vertex -45.8125 14.762 10
    endloop
  endfacet
  facet normal 0 -0 -1
    outer loop
      vertex 2.74814 35.969 10
      vertex 2.85497 31.1512 10
      vertex -45.6299 14.5813 10
    endloop
  endfacet
  facet normal 0 0 -1
    outer loop
      vertex -45.4806 14.3727 10
      vertex 2.85497 31.1512 10
      vertex 2.95583 26.104 10
    endloop
  endfacet
  facet normal 0 -0 -1
    outer loop
      vertex 2.95583 26.104 10
      vertex 3.0524 20.8221 10
      vertex -45.3686 14.1407 10
    endloop
  endfacet
  facet normal 0 0 -1
    outer loop
      vertex -45.3686 14.1407 10
      vertex -9.9366 0.246964 10
      vertex -45.2984 13.8897 10
    endloop
  endfacet
  facet normal 0 0 -1
    outer loop
      vertex -45.3686 14.1407 10
      vertex 3.0524 20.8221 10
      vertex -9.9366 0.246964 10
    endloop
  endfacet
  facet normal 0 0 -1
    outer loop
      vertex -45.2741 13.6243 10
      vertex -45.2984 13.8897 10
      vertex -9.9366 0.246964 10
    endloop
  endfacet
  facet normal 0 0 -1
    outer loop
      vertex -41.7395 0.246964 10
      vertex -45.2741 13.6243 10
      vertex -9.9366 0.246964 10
    endloop
  endfacet
  facet normal 0 0 -1
    outer loop
      vertex -44.7927 1.99916 10
      vertex -45.2741 3.78249 10
      vertex -44.4442 1.50586 10
    endloop
  endfacet
  facet normal 0 0 -1
    outer loop
      vertex -44.7927 1.99916 10
      vertex -45.2176 3.14746 10
      vertex -45.2741 3.78249 10
    endloop
  endfacet
  facet normal 0 0 -1
    outer loop
      vertex -45.2741 3.78249 10
      vertex -44.0183 1.07977 10
      vertex -44.4442 1.50586 10
    endloop
  endfacet
  facet normal 0 0 -1
    outer loop
      vertex -42.9741 0.469086 10
      vertex -43.525 0.73085 10
      vertex -42.3756 0.304474 10
    endloop
  endfacet
  facet normal 0 0 -1
    outer loop
      vertex -42.3756 0.304474 10
      vertex -43.525 0.73085 10
      vertex -44.0183 1.07977 10
    endloop
  endfacet
  facet normal 0 0 -1
    outer loop
      vertex -41.7395 0.246964 10
      vertex -42.3756 0.304474 10
      vertex -44.0183 1.07977 10
    endloop
  endfacet
  facet normal 0 0 -1
    outer loop
      vertex -45.2741 3.78249 10
      vertex -41.7395 0.246964 10
      vertex -44.0183 1.07977 10
    endloop
  endfacet
  facet normal 0 0 -1
    outer loop
      vertex -45.2741 3.78249 10
      vertex -45.2741 13.6243 10
      vertex -41.7395 0.246964 10
    endloop
  endfacet
  facet normal 0 -0 -1
    outer loop
      vertex 3.0524 20.8221 10
      vertex 3.14632 15.3002 10
      vertex -9.9366 0.246964 10
    endloop
  endfacet
  facet normal 0 0 -1
    outer loop
      vertex -9.9366 0.246964 10
      vertex 3.14632 15.3002 10
      vertex 3.23926 9.53288 10
    endloop
  endfacet
  facet normal 0 0 -1
    outer loop
      vertex 3.33287 3.51488 10
      vertex 2.14778 -0.760223 10
      vertex 2.03438 -0.514877 10
    endloop
  endfacet
  facet normal -0 0 -1
    outer loop
      vertex 0.679214 0.247879 10
      vertex -9.9366 0.246964 10
      vertex 3.23926 9.53288 10
    endloop
  endfacet
  facet normal -0 0 -1
    outer loop
      vertex 3.33287 3.51488 10
      vertex 0.679214 0.247879 10
      vertex 3.23926 9.53288 10
    endloop
  endfacet
  facet normal 0 0 -1
    outer loop
      vertex 3.33287 3.51488 10
      vertex 0.966034 0.224426 10
      vertex 0.679214 0.247879 10
    endloop
  endfacet
  facet normal 0 -0 -1
    outer loop
      vertex 3.33287 3.51488 10
      vertex 3.42882 -2.75919 10
      vertex 2.14778 -0.760223 10
    endloop
  endfacet
  facet normal 0 0 -1
    outer loop
      vertex 3.33287 3.51488 10
      vertex 1.23364 0.154373 10
      vertex 0.966034 0.224426 10
    endloop
  endfacet
  facet normal 0 0 -1
    outer loop
      vertex 3.33287 3.51488 10
      vertex 1.47815 0.0415802 10
      vertex 1.23364 0.154373 10
    endloop
  endfacet
  facet normal 0 0 -1
    outer loop
      vertex 3.33287 3.51488 10
      vertex 1.69569 -0.110123 10
      vertex 1.47815 0.0415802 10
    endloop
  endfacet
  facet normal 0 0 -1
    outer loop
      vertex 3.33287 3.51488 10
      vertex 1.88239 -0.29689 10
      vertex 1.69569 -0.110123 10
    endloop
  endfacet
  facet normal 0 0 -1
    outer loop
      vertex 3.33287 3.51488 10
      vertex 2.03438 -0.514877 10
      vertex 1.88239 -0.29689 10
    endloop
  endfacet
  facet normal 0 0 -1
    outer loop
      vertex 2.14778 -0.760223 10
      vertex 3.42882 -2.75919 10
      vertex 2.2187 -1.02908 10
    endloop
  endfacet
  facet normal 0 0 -1
    outer loop
      vertex 2.2187 -1.02908 10
      vertex 3.42882 -2.75919 10
      vertex 2.2433 -1.31761 10
    endloop
  endfacet
  facet normal 0 0 1
    outer loop
      vertex -7.54939 98.1957 11
      vertex -8.4435 98.8367 11
      vertex -6.70599 97.4694 11
    endloop
  endfacet
  facet normal 0 0 1
    outer loop
      vertex -6.70599 97.4694 11
      vertex -9.38995 99.3978 11
      vertex -5.91164 96.6523 11
    endloop
  endfacet
  facet normal 0 0 1
    outer loop
      vertex -6.70599 97.4694 11
      vertex -8.4435 98.8367 11
      vertex -9.38995 99.3978 11
    endloop
  endfacet
  facet normal 0 0 1
    outer loop
      vertex -9.38995 99.3978 11
      vertex -10.3904 99.8841 11
      vertex -5.91164 96.6523 11
    endloop
  endfacet
  facet normal 0 0 1
    outer loop
      vertex -10.3904 99.8841 11
      vertex -5.16466 95.7393 11
      vertex -5.91164 96.6523 11
    endloop
  endfacet
  facet normal 0 0 1
    outer loop
      vertex -11.4466 100.301 11
      vertex -5.16466 95.7393 11
      vertex -10.3904 99.8841 11
    endloop
  endfacet
  facet normal 0 0 1
    outer loop
      vertex -4.46342 94.7249 11
      vertex -5.16466 95.7393 11
      vertex -11.4466 100.301 11
    endloop
  endfacet
  facet normal 0 0 1
    outer loop
      vertex -4.46342 94.7249 11
      vertex -11.4466 100.301 11
      vertex -12.5601 100.654 11
    endloop
  endfacet
  facet normal 0 0 1
    outer loop
      vertex -4.46342 94.7249 11
      vertex -12.5601 100.654 11
      vertex -3.80626 93.6038 11
    endloop
  endfacet
  facet normal 0 0 1
    outer loop
      vertex -12.5601 100.654 11
      vertex -13.7325 100.948 11
      vertex -3.80626 93.6038 11
    endloop
  endfacet
  facet normal 0 0 1
    outer loop
      vertex -13.7325 100.948 11
      vertex -3.19151 92.3707 11
      vertex -3.80626 93.6038 11
    endloop
  endfacet
  facet normal 0 0 1
    outer loop
      vertex -14.9657 101.189 11
      vertex -3.19151 92.3707 11
      vertex -13.7325 100.948 11
    endloop
  endfacet
  facet normal 0 0 1
    outer loop
      vertex -2.61752 91.0202 11
      vertex -3.19151 92.3707 11
      vertex -14.9657 101.189 11
    endloop
  endfacet
  facet normal 0 0 1
    outer loop
      vertex -2.61752 91.0202 11
      vertex -14.9657 101.189 11
      vertex -16.2611 101.382 11
    endloop
  endfacet
  facet normal 0 0 1
    outer loop
      vertex -2.61752 91.0202 11
      vertex -16.2611 101.382 11
      vertex -2.08264 89.547 11
    endloop
  endfacet
  facet normal 0 0 1
    outer loop
      vertex -16.2611 101.382 11
      vertex -17.6205 101.532 11
      vertex -2.08264 89.547 11
    endloop
  endfacet
  facet normal 0 0 1
    outer loop
      vertex -17.6205 101.532 11
      vertex -1.58521 87.9458 11
      vertex -2.08264 89.547 11
    endloop
  endfacet
  facet normal 0 0 1
    outer loop
      vertex -19.0455 101.645 11
      vertex -1.58521 87.9458 11
      vertex -17.6205 101.532 11
    endloop
  endfacet
  facet normal 0 0 1
    outer loop
      vertex -1.12355 86.2113 11
      vertex -1.58521 87.9458 11
      vertex -19.0455 101.645 11
    endloop
  endfacet
  facet normal 0 0 1
    outer loop
      vertex -1.12355 86.2113 11
      vertex -19.0455 101.645 11
      vertex -20.5377 101.726 11
    endloop
  endfacet
  facet normal 0 0 1
    outer loop
      vertex -1.12355 86.2113 11
      vertex -20.5377 101.726 11
      vertex -0.696014 84.338 11
    endloop
  endfacet
  facet normal 0 0 1
    outer loop
      vertex -20.5377 101.726 11
      vertex -22.0989 101.78 11
      vertex -0.696014 84.338 11
    endloop
  endfacet
  facet normal 0 0 1
    outer loop
      vertex -22.0989 101.78 11
      vertex -0.300964 82.3208 11
      vertex -0.696014 84.338 11
    endloop
  endfacet
  facet normal 0 0 1
    outer loop
      vertex -23.7307 101.813 11
      vertex -0.300964 82.3208 11
      vertex -22.0989 101.78 11
    endloop
  endfacet
  facet normal 0 0 1
    outer loop
      vertex 0.0632477 80.1541 11
      vertex -0.300964 82.3208 11
      vertex -23.7307 101.813 11
    endloop
  endfacet
  facet normal 0 0 1
    outer loop
      vertex 0.0632477 80.1541 11
      vertex -23.7307 101.813 11
      vertex -25.4348 101.83 11
    endloop
  endfacet
  facet normal 0 0 1
    outer loop
      vertex 0.0632477 80.1541 11
      vertex -25.4348 101.83 11
      vertex 0.398331 77.8328 11
    endloop
  endfacet
  facet normal 0 0 1
    outer loop
      vertex -25.4348 101.83 11
      vertex -27.2127 101.836 11
      vertex 0.398331 77.8328 11
    endloop
  endfacet
  facet normal 0 0 1
    outer loop
      vertex -27.2127 101.836 11
      vertex 0.705902 75.3515 11
      vertex 0.398331 77.8328 11
    endloop
  endfacet
  facet normal 0 0 1
    outer loop
      vertex -29.0662 101.837 11
      vertex 0.705902 75.3515 11
      vertex -27.2127 101.836 11
    endloop
  endfacet
  facet normal 0 0 1
    outer loop
      vertex 0.98764 72.7047 11
      vertex 0.705902 75.3515 11
      vertex -29.0662 101.837 11
    endloop
  endfacet
  facet normal 0 0 1
    outer loop
      vertex 0.98764 72.7047 11
      vertex -29.0662 101.837 11
      vertex -34.5637 101.837 11
    endloop
  endfacet
  facet normal 0 0 1
    outer loop
      vertex 0.98764 72.7047 11
      vertex -34.5637 101.837 11
      vertex 1.24519 69.8873 11
    endloop
  endfacet
  facet normal 0 0 1
    outer loop
      vertex -34.5637 101.837 11
      vertex 1.48021 66.8939 11
      vertex 1.24519 69.8873 11
    endloop
  endfacet
  facet normal -0 0 1
    outer loop
      vertex -39.7134 101.832 11
      vertex 1.48021 66.8939 11
      vertex -34.5637 101.837 11
    endloop
  endfacet
  facet normal 0 0 1
    outer loop
      vertex 1.69435 63.7191 11
      vertex 1.48021 66.8939 11
      vertex -39.7134 101.832 11
    endloop
  endfacet
  facet normal 0 0 1
    outer loop
      vertex 1.69435 63.7191 11
      vertex -39.7134 101.832 11
      vertex 1.88928 60.3575 11
    endloop
  endfacet
  facet normal 0 -0 1
    outer loop
      vertex -46.5165 15.0921 11
      vertex -44.528 101.819 11
      vertex -46.7891 15.1166 11
    endloop
  endfacet
  facet normal 0 0 1
    outer loop
      vertex -39.7134 101.832 11
      vertex -44.528 101.819 11
      vertex -46.5165 15.0921 11
    endloop
  endfacet
  facet normal -0 0 1
    outer loop
      vertex -49.0201 101.794 11
      vertex -46.7891 15.1166 11
      vertex -44.528 101.819 11
    endloop
  endfacet
  facet normal 0 0 1
    outer loop
      vertex -39.7134 101.832 11
      vertex -46.5165 15.0921 11
      vertex 1.88928 60.3575 11
    endloop
  endfacet
  facet normal 0 0 1
    outer loop
      vertex -98.0089 70.3217 11
      vertex -98.9385 67.6218 11
      vertex -46.7891 15.1166 11
    endloop
  endfacet
  facet normal -0 0 1
    outer loop
      vertex -97.1733 72.8757 11
      vertex -98.0089 70.3217 11
      vertex -57.0873 101.691 11
    endloop
  endfacet
  facet normal 0 0 1
    outer loop
      vertex -64.016 101.491 11
      vertex -67.0849 101.345 11
      vertex -95.7335 77.5623 11
    endloop
  endfacet
  facet normal 0 0 1
    outer loop
      vertex -67.0849 101.345 11
      vertex -95.104 79.7029 11
      vertex -95.7335 77.5623 11
    endloop
  endfacet
  facet normal 0 0 1
    outer loop
      vertex -93.9629 83.5991 11
      vertex -72.4951 100.938 11
      vertex -74.8616 100.67 11
    endloop
  endfacet
  facet normal 0 0 1
    outer loop
      vertex -94.518 81.7138 11
      vertex -72.4951 100.938 11
      vertex -93.9629 83.5991 11
    endloop
  endfacet
  facet normal 0 0 1
    outer loop
      vertex -93.426 85.3628 11
      vertex -77.0192 100.353 11
      vertex -92.8948 87.009 11
    endloop
  endfacet
  facet normal 0 0 1
    outer loop
      vertex -92.8948 87.009 11
      vertex -78.9805 99.9838 11
      vertex -92.3565 88.5417 11
    endloop
  endfacet
  facet normal 0 0 1
    outer loop
      vertex -92.3565 88.5417 11
      vertex -80.7581 99.5575 11
      vertex -91.7986 89.9649 11
    endloop
  endfacet
  facet normal 0 0 1
    outer loop
      vertex -91.2085 91.2828 11
      vertex -82.3647 99.0705 11
      vertex -83.8128 98.5186 11
    endloop
  endfacet
  facet normal -0 0 1
    outer loop
      vertex -89.8811 93.6187 11
      vertex -90.5736 92.4994 11
      vertex -85.1151 97.8979 11
    endloop
  endfacet
  facet normal -0 0 1
    outer loop
      vertex -87.3328 96.4334 11
      vertex -89.1186 94.6447 11
      vertex -86.2842 97.2041 11
    endloop
  endfacet
  facet normal -0 0 1
    outer loop
      vertex -88.2734 95.5816 11
      vertex -89.1186 94.6447 11
      vertex -87.3328 96.4334 11
    endloop
  endfacet
  facet normal -0 0 1
    outer loop
      vertex -89.1186 94.6447 11
      vertex -89.8811 93.6187 11
      vertex -86.2842 97.2041 11
    endloop
  endfacet
  facet normal 0 0 1
    outer loop
      vertex -89.8811 93.6187 11
      vertex -85.1151 97.8979 11
      vertex -86.2842 97.2041 11
    endloop
  endfacet
  facet normal 0 0 1
    outer loop
      vertex -90.5736 92.4994 11
      vertex -83.8128 98.5186 11
      vertex -85.1151 97.8979 11
    endloop
  endfacet
  facet normal 0 0 1
    outer loop
      vertex -91.2085 91.2828 11
      vertex -83.8128 98.5186 11
      vertex -90.5736 92.4994 11
    endloop
  endfacet
  facet normal 0 0 1
    outer loop
      vertex -91.7986 89.9649 11
      vertex -82.3647 99.0705 11
      vertex -91.2085 91.2828 11
    endloop
  endfacet
  facet normal 0 0 1
    outer loop
      vertex -80.7581 99.5575 11
      vertex -82.3647 99.0705 11
      vertex -91.7986 89.9649 11
    endloop
  endfacet
  facet normal 0 0 1
    outer loop
      vertex -78.9805 99.9838 11
      vertex -80.7581 99.5575 11
      vertex -92.3565 88.5417 11
    endloop
  endfacet
  facet normal 0 0 1
    outer loop
      vertex -77.0192 100.353 11
      vertex -78.9805 99.9838 11
      vertex -92.8948 87.009 11
    endloop
  endfacet
  facet normal 0 0 1
    outer loop
      vertex -74.8616 100.67 11
      vertex -77.0192 100.353 11
      vertex -93.426 85.3628 11
    endloop
  endfacet
  facet normal 0 0 1
    outer loop
      vertex -74.8616 100.67 11
      vertex -93.426 85.3628 11
      vertex -93.9629 83.5991 11
    endloop
  endfacet
  facet normal 0 0 1
    outer loop
      vertex -69.9071 101.162 11
      vertex -72.4951 100.938 11
      vertex -94.518 81.7138 11
    endloop
  endfacet
  facet normal 0 0 1
    outer loop
      vertex -69.9071 101.162 11
      vertex -94.518 81.7138 11
      vertex -95.104 79.7029 11
    endloop
  endfacet
  facet normal -0 0 1
    outer loop
      vertex -69.9071 101.162 11
      vertex -95.104 79.7029 11
      vertex -67.0849 101.345 11
    endloop
  endfacet
  facet normal 0 0 1
    outer loop
      vertex -64.016 101.491 11
      vertex -95.7335 77.5623 11
      vertex -96.419 75.2879 11
    endloop
  endfacet
  facet normal -0 0 1
    outer loop
      vertex -64.016 101.491 11
      vertex -96.419 75.2879 11
      vertex -60.6877 101.606 11
    endloop
  endfacet
  facet normal -0 0 1
    outer loop
      vertex -96.419 75.2879 11
      vertex -97.1733 72.8757 11
      vertex -60.6877 101.606 11
    endloop
  endfacet
  facet normal 0 0 1
    outer loop
      vertex -97.1733 72.8757 11
      vertex -57.0873 101.691 11
      vertex -60.6877 101.606 11
    endloop
  endfacet
  facet normal -0 0 1
    outer loop
      vertex -98.0089 70.3217 11
      vertex -46.7891 15.1166 11
      vertex -57.0873 101.691 11
    endloop
  endfacet
  facet normal -0 0 1
    outer loop
      vertex -57.0873 101.691 11
      vertex -46.7891 15.1166 11
      vertex -53.2023 101.753 11
    endloop
  endfacet
  facet normal 0 0 1
    outer loop
      vertex -46.7891 15.1166 11
      vertex -49.0201 101.794 11
      vertex -53.2023 101.753 11
    endloop
  endfacet
  facet normal 0 0 1
    outer loop
      vertex -46.5165 15.0921 11
      vertex 2.06665 56.804 11
      vertex 1.88928 60.3575 11
    endloop
  endfacet
  facet normal 0 0 1
    outer loop
      vertex -98.9385 67.6218 11
      vertex -99.9747 64.7719 11
      vertex -46.7891 15.1166 11
    endloop
  endfacet
  facet normal 0 0 1
    outer loop
      vertex 2.22812 53.0531 11
      vertex 2.06665 56.804 11
      vertex -46.5165 15.0921 11
    endloop
  endfacet
  facet normal -0 0 1
    outer loop
      vertex -101.13 61.768 11
      vertex -46.7891 15.1166 11
      vertex -99.9747 64.7719 11
    endloop
  endfacet
  facet normal -0 0 1
    outer loop
      vertex -102.417 58.606 11
      vertex -46.7891 15.1166 11
      vertex -101.13 61.768 11
    endloop
  endfacet
  facet normal -0 0 1
    outer loop
      vertex -103.849 55.282 11
      vertex -46.7891 15.1166 11
      vertex -102.417 58.606 11
    endloop
  endfacet
  facet normal 0 0 1
    outer loop
      vertex 2.22812 53.0531 11
      vertex -46.5165 15.0921 11
      vertex -46.26 15.0219 11
    endloop
  endfacet
  facet normal 0 0 1
    outer loop
      vertex -46.7891 15.1166 11
      vertex -103.849 55.282 11
      vertex -96.4962 15.1646 11
    endloop
  endfacet
  facet normal 0 0 1
    outer loop
      vertex 2.22812 53.0531 11
      vertex -46.26 15.0219 11
      vertex 2.37535 49.0994 11
    endloop
  endfacet
  facet normal 0 0 1
    outer loop
      vertex -105.438 51.7917 11
      vertex -107.196 48.1312 11
      vertex -96.4962 15.1646 11
    endloop
  endfacet
  facet normal -0 0 1
    outer loop
      vertex -105.438 51.7917 11
      vertex -96.4962 15.1646 11
      vertex -103.849 55.282 11
    endloop
  endfacet
  facet normal -0 0 1
    outer loop
      vertex -109.137 44.2965 11
      vertex -96.4962 15.1646 11
      vertex -107.196 48.1312 11
    endloop
  endfacet
  facet normal 0 0 1
    outer loop
      vertex -46.26 15.0219 11
      vertex 2.50998 44.9378 11
      vertex 2.37535 49.0994 11
    endloop
  endfacet
  facet normal 0 0 1
    outer loop
      vertex -96.4962 15.1646 11
      vertex -109.137 44.2965 11
      vertex -111.272 40.2834 11
    endloop
  endfacet
  facet normal 0 -0 1
    outer loop
      vertex -46.0239 14.9104 11
      vertex 2.50998 44.9378 11
      vertex -46.26 15.0219 11
    endloop
  endfacet
  facet normal 0 0 1
    outer loop
      vertex -111.272 40.2834 11
      vertex -113.615 36.088 11
      vertex -96.4962 15.1646 11
    endloop
  endfacet
  facet normal 0 0 1
    outer loop
      vertex 2.6337 40.5627 11
      vertex 2.50998 44.9378 11
      vertex -46.0239 14.9104 11
    endloop
  endfacet
  facet normal 0 -0 1
    outer loop
      vertex -106.48 15.1646 11
      vertex -96.4962 15.1646 11
      vertex -113.615 36.088 11
    endloop
  endfacet
  facet normal 0 0 1
    outer loop
      vertex 2.6337 40.5627 11
      vertex -46.0239 14.9104 11
      vertex -45.8125 14.762 11
    endloop
  endfacet
  facet normal 0 0 1
    outer loop
      vertex -113.615 36.088 11
      vertex -116.179 31.7061 11
      vertex -106.48 15.1646 11
    endloop
  endfacet
  facet normal 0 0 1
    outer loop
      vertex -116.179 31.7061 11
      vertex -118.975 27.1337 11
      vertex -106.48 15.1646 11
    endloop
  endfacet
  facet normal 0 0 1
    outer loop
      vertex -118.975 27.1337 11
      vertex -120.02 23.0023 11
      vertex -106.48 15.1646 11
    endloop
  endfacet
  facet normal 0 -0 1
    outer loop
      vertex -45.4806 14.3727 11
      vertex 2.85497 31.1512 11
      vertex -45.6299 14.5813 11
    endloop
  endfacet
  facet normal 0 0 1
    outer loop
      vertex 2.95583 26.104 11
      vertex -45.4806 14.3727 11
      vertex -45.3686 14.1407 11
    endloop
  endfacet
  facet normal 0 0 1
    outer loop
      vertex -122.016 22.3667 11
      vertex -120.02 23.0023 11
      vertex -118.975 27.1337 11
    endloop
  endfacet
  facet normal 0 0 1
    outer loop
      vertex -44.7927 1.99916 11
      vertex -45.2176 3.14746 11
      vertex -45.0538 2.5497 11
    endloop
  endfacet
  facet normal 0 0 1
    outer loop
      vertex 2.6337 40.5627 11
      vertex -45.8125 14.762 11
      vertex 2.74814 35.969 11
    endloop
  endfacet
  facet normal -0 0 1
    outer loop
      vertex -45.8125 14.762 11
      vertex -45.6299 14.5813 11
      vertex 2.74814 35.969 11
    endloop
  endfacet
  facet normal 0 0 1
    outer loop
      vertex -45.6299 14.5813 11
      vertex 2.85497 31.1512 11
      vertex 2.74814 35.969 11
    endloop
  endfacet
  facet normal 0 0 1
    outer loop
      vertex 2.95583 26.104 11
      vertex 2.85497 31.1512 11
      vertex -45.4806 14.3727 11
    endloop
  endfacet
  facet normal 0 0 1
    outer loop
      vertex -45.3686 14.1407 11
      vertex 3.0524 20.8221 11
      vertex 2.95583 26.104 11
    endloop
  endfacet
  facet normal -0 -0 1
    outer loop
      vertex -45.2984 13.8897 11
      vertex -9.9366 0.246964 11
      vertex -45.3686 14.1407 11
    endloop
  endfacet
  facet normal 0 -0 1
    outer loop
      vertex -9.9366 0.246964 11
      vertex 3.0524 20.8221 11
      vertex -45.3686 14.1407 11
    endloop
  endfacet
  facet normal 0 0 1
    outer loop
      vertex -9.9366 0.246964 11
      vertex -45.2984 13.8897 11
      vertex -45.2741 13.6243 11
    endloop
  endfacet
  facet normal 0 0 1
    outer loop
      vertex -9.9366 0.246964 11
      vertex -45.2741 13.6243 11
      vertex -41.7395 0.246964 11
    endloop
  endfacet
  facet normal 0 0 1
    outer loop
      vertex -44.4442 1.50586 11
      vertex -45.2741 3.78249 11
      vertex -44.7927 1.99916 11
    endloop
  endfacet
  facet normal 0 0 1
    outer loop
      vertex -45.2741 3.78249 11
      vertex -45.2176 3.14746 11
      vertex -44.7927 1.99916 11
    endloop
  endfacet
  facet normal -0 -0 1
    outer loop
      vertex -44.4442 1.50586 11
      vertex -44.0183 1.07977 11
      vertex -45.2741 3.78249 11
    endloop
  endfacet
  facet normal 0 0 1
    outer loop
      vertex -42.3756 0.304474 11
      vertex -43.525 0.73085 11
      vertex -42.9741 0.469086 11
    endloop
  endfacet
  facet normal 0 0 1
    outer loop
      vertex -44.0183 1.07977 11
      vertex -43.525 0.73085 11
      vertex -42.3756 0.304474 11
    endloop
  endfacet
  facet normal 0 0 1
    outer loop
      vertex -44.0183 1.07977 11
      vertex -42.3756 0.304474 11
      vertex -41.7395 0.246964 11
    endloop
  endfacet
  facet normal -0 -0 1
    outer loop
      vertex -44.0183 1.07977 11
      vertex -41.7395 0.246964 11
      vertex -45.2741 3.78249 11
    endloop
  endfacet
  facet normal 0 0 1
    outer loop
      vertex -41.7395 0.246964 11
      vertex -45.2741 13.6243 11
      vertex -45.2741 3.78249 11
    endloop
  endfacet
  facet normal 0 0 1
    outer loop
      vertex -9.9366 0.246964 11
      vertex 3.14632 15.3002 11
      vertex 3.0524 20.8221 11
    endloop
  endfacet
  facet normal 0 0 1
    outer loop
      vertex 3.23926 9.53288 11
      vertex 3.14632 15.3002 11
      vertex -9.9366 0.246964 11
    endloop
  endfacet
  facet normal -0 0 1
    outer loop
      vertex 2.03438 -0.514877 11
      vertex 2.14778 -0.760223 11
      vertex 3.33287 3.51488 11
    endloop
  endfacet
  facet normal 0 0 1
    outer loop
      vertex 3.23926 9.53288 11
      vertex -9.9366 0.246964 11
      vertex 0.679214 0.247879 11
    endloop
  endfacet
  facet normal 0 0 1
    outer loop
      vertex 3.23926 9.53288 11
      vertex 0.679214 0.247879 11
      vertex 3.33287 3.51488 11
    endloop
  endfacet
  facet normal -0 0 1
    outer loop
      vertex 0.679214 0.247879 11
      vertex 0.966034 0.224426 11
      vertex 3.33287 3.51488 11
    endloop
  endfacet
  facet normal -0 0 1
    outer loop
      vertex 2.14778 -0.760223 11
      vertex 3.42882 -2.75919 11
      vertex 3.33287 3.51488 11
    endloop
  endfacet
  facet normal -0 0 1
    outer loop
      vertex 0.966034 0.224426 11
      vertex 1.23364 0.154373 11
      vertex 3.33287 3.51488 11
    endloop
  endfacet
  facet normal -0 0 1
    outer loop
      vertex 1.23364 0.154373 11
      vertex 1.47815 0.0415802 11
      vertex 3.33287 3.51488 11
    endloop
  endfacet
  facet normal -0 0 1
    outer loop
      vertex 1.47815 0.0415802 11
      vertex 1.69569 -0.110123 11
      vertex 3.33287 3.51488 11
    endloop
  endfacet
  facet normal -0 0 1
    outer loop
      vertex 1.69569 -0.110123 11
      vertex 1.88239 -0.29689 11
      vertex 3.33287 3.51488 11
    endloop
  endfacet
  facet normal -0 0 1
    outer loop
      vertex 1.88239 -0.29689 11
      vertex 2.03438 -0.514877 11
      vertex 3.33287 3.51488 11
    endloop
  endfacet
  facet normal -0 -0 1
    outer loop
      vertex 2.2187 -1.02908 11
      vertex 3.42882 -2.75919 11
      vertex 2.14778 -0.760223 11
    endloop
  endfacet
  facet normal -0 -0 1
    outer loop
      vertex 2.2433 -1.31761 11
      vertex 3.42882 -2.75919 11
      vertex 2.2187 -1.02908 11
    endloop
  endfacet
  facet normal 0.999879 0.0155531 0
    outer loop
      vertex 3.23926 9.53288 10
      vertex 3.33287 3.51488 11
      vertex 3.33287 3.51488 10
    endloop
  endfacet
  facet normal 0.999879 0.0155531 -0
    outer loop
      vertex 3.23926 9.53288 10
      vertex 3.23926 9.53288 11
      vertex 3.33287 3.51488 11
    endloop
  endfacet
  facet normal 0.99987 0.0161128 0
    outer loop
      vertex 3.14632 15.3002 10
      vertex 3.23926 9.53288 11
      vertex 3.23926 9.53288 10
    endloop
  endfacet
  facet normal 0.99987 0.0161128 -0
    outer loop
      vertex 3.14632 15.3002 10
      vertex 3.14632 15.3002 11
      vertex 3.23926 9.53288 11
    endloop
  endfacet
  facet normal 0.999855 0.0170062 0
    outer loop
      vertex 3.0524 20.8221 10
      vertex 3.14632 15.3002 11
      vertex 3.14632 15.3002 10
    endloop
  endfacet
  facet normal 0.999855 0.0170062 -0
    outer loop
      vertex 3.0524 20.8221 10
      vertex 3.0524 20.8221 11
      vertex 3.14632 15.3002 11
    endloop
  endfacet
  facet normal 0.999833 0.0182801 0
    outer loop
      vertex 2.95583 26.104 10
      vertex 3.0524 20.8221 11
      vertex 3.0524 20.8221 10
    endloop
  endfacet
  facet normal 0.999833 0.0182801 -0
    outer loop
      vertex 2.95583 26.104 10
      vertex 2.95583 26.104 11
      vertex 3.0524 20.8221 11
    endloop
  endfacet
  facet normal 0.9998 0.0199794 0
    outer loop
      vertex 2.85497 31.1512 10
      vertex 2.95583 26.104 11
      vertex 2.95583 26.104 10
    endloop
  endfacet
  facet normal 0.9998 0.0199794 -0
    outer loop
      vertex 2.85497 31.1512 10
      vertex 2.85497 31.1512 11
      vertex 2.95583 26.104 11
    endloop
  endfacet
  facet normal 0.999754 0.0221686 0
    outer loop
      vertex 2.74814 35.969 10
      vertex 2.85497 31.1512 11
      vertex 2.85497 31.1512 10
    endloop
  endfacet
  facet normal 0.999754 0.0221686 -0
    outer loop
      vertex 2.74814 35.969 10
      vertex 2.74814 35.969 11
      vertex 2.85497 31.1512 11
    endloop
  endfacet
  facet normal 0.99969 0.0249047 0
    outer loop
      vertex 2.6337 40.5627 10
      vertex 2.74814 35.969 11
      vertex 2.74814 35.969 10
    endloop
  endfacet
  facet normal 0.99969 0.0249047 -0
    outer loop
      vertex 2.6337 40.5627 10
      vertex 2.6337 40.5627 11
      vertex 2.74814 35.969 11
    endloop
  endfacet
  facet normal 0.9996 0.0282669 0
    outer loop
      vertex 2.50998 44.9378 10
      vertex 2.6337 40.5627 11
      vertex 2.6337 40.5627 10
    endloop
  endfacet
  facet normal 0.9996 0.0282669 -0
    outer loop
      vertex 2.50998 44.9378 10
      vertex 2.50998 44.9378 11
      vertex 2.6337 40.5627 11
    endloop
  endfacet
  facet normal 0.999477 0.0323336 0
    outer loop
      vertex 2.37535 49.0994 10
      vertex 2.50998 44.9378 11
      vertex 2.50998 44.9378 10
    endloop
  endfacet
  facet normal 0.999477 0.0323336 -0
    outer loop
      vertex 2.37535 49.0994 10
      vertex 2.37535 49.0994 11
      vertex 2.50998 44.9378 11
    endloop
  endfacet
  facet normal 0.999307 0.0372127 0
    outer loop
      vertex 2.22812 53.0531 10
      vertex 2.37535 49.0994 11
      vertex 2.37535 49.0994 10
    endloop
  endfacet
  facet normal 0.999307 0.0372127 -0
    outer loop
      vertex 2.22812 53.0531 10
      vertex 2.22812 53.0531 11
      vertex 2.37535 49.0994 11
    endloop
  endfacet
  facet normal 0.999075 0.0430085 0
    outer loop
      vertex 2.06665 56.804 10
      vertex 2.22812 53.0531 11
      vertex 2.22812 53.0531 10
    endloop
  endfacet
  facet normal 0.999075 0.0430085 -0
    outer loop
      vertex 2.06665 56.804 10
      vertex 2.06665 56.804 11
      vertex 2.22812 53.0531 11
    endloop
  endfacet
  facet normal 0.998757 0.0498521 0
    outer loop
      vertex 1.88928 60.3575 10
      vertex 2.06665 56.804 11
      vertex 2.06665 56.804 10
    endloop
  endfacet
  facet normal 0.998757 0.0498521 -0
    outer loop
      vertex 1.88928 60.3575 10
      vertex 1.88928 60.3575 11
      vertex 2.06665 56.804 11
    endloop
  endfacet
  facet normal 0.998323 0.05789 0
    outer loop
      vertex 1.69435 63.7191 10
      vertex 1.88928 60.3575 11
      vertex 1.88928 60.3575 10
    endloop
  endfacet
  facet normal 0.998323 0.05789 -0
    outer loop
      vertex 1.69435 63.7191 10
      vertex 1.69435 63.7191 11
      vertex 1.88928 60.3575 11
    endloop
  endfacet
  facet normal 0.997733 0.067297 0
    outer loop
      vertex 1.48021 66.8939 10
      vertex 1.69435 63.7191 11
      vertex 1.69435 63.7191 10
    endloop
  endfacet
  facet normal 0.997733 0.067297 -0
    outer loop
      vertex 1.48021 66.8939 10
      vertex 1.48021 66.8939 11
      vertex 1.69435 63.7191 11
    endloop
  endfacet
  facet normal 0.996932 0.0782719 0
    outer loop
      vertex 1.24519 69.8873 10
      vertex 1.48021 66.8939 11
      vertex 1.48021 66.8939 10
    endloop
  endfacet
  facet normal 0.996932 0.0782719 -0
    outer loop
      vertex 1.24519 69.8873 10
      vertex 1.24519 69.8873 11
      vertex 1.48021 66.8939 11
    endloop
  endfacet
  facet normal 0.995848 0.0910345 0
    outer loop
      vertex 0.98764 72.7047 10
      vertex 1.24519 69.8873 11
      vertex 1.24519 69.8873 10
    endloop
  endfacet
  facet normal 0.995848 0.0910345 -0
    outer loop
      vertex 0.98764 72.7047 10
      vertex 0.98764 72.7047 11
      vertex 1.24519 69.8873 11
    endloop
  endfacet
  facet normal 0.994382 0.105847 0
    outer loop
      vertex 0.705902 75.3515 10
      vertex 0.98764 72.7047 11
      vertex 0.98764 72.7047 10
    endloop
  endfacet
  facet normal 0.994382 0.105847 -0
    outer loop
      vertex 0.705902 75.3515 10
      vertex 0.705902 75.3515 11
      vertex 0.98764 72.7047 11
    endloop
  endfacet
  facet normal 0.992405 0.123014 0
    outer loop
      vertex 0.398331 77.8328 10
      vertex 0.705902 75.3515 11
      vertex 0.705902 75.3515 10
    endloop
  endfacet
  facet normal 0.992405 0.123014 -0
    outer loop
      vertex 0.398331 77.8328 10
      vertex 0.398331 77.8328 11
      vertex 0.705902 75.3515 11
    endloop
  endfacet
  facet normal 0.989741 0.142871 0
    outer loop
      vertex 0.0632477 80.1541 10
      vertex 0.398331 77.8328 11
      vertex 0.398331 77.8328 10
    endloop
  endfacet
  facet normal 0.989741 0.142871 -0
    outer loop
      vertex 0.0632477 80.1541 10
      vertex 0.0632477 80.1541 11
      vertex 0.398331 77.8328 11
    endloop
  endfacet
  facet normal 0.986165 0.165769 0
    outer loop
      vertex -0.300964 82.3208 10
      vertex 0.0632477 80.1541 11
      vertex 0.0632477 80.1541 10
    endloop
  endfacet
  facet normal 0.986165 0.165769 -0
    outer loop
      vertex -0.300964 82.3208 10
      vertex -0.300964 82.3208 11
      vertex 0.0632477 80.1541 11
    endloop
  endfacet
  facet normal 0.981358 0.19219 0
    outer loop
      vertex -0.696014 84.338 10
      vertex -0.300964 82.3208 11
      vertex -0.300964 82.3208 10
    endloop
  endfacet
  facet normal 0.981358 0.19219 -0
    outer loop
      vertex -0.696014 84.338 10
      vertex -0.696014 84.338 11
      vertex -0.300964 82.3208 11
    endloop
  endfacet
  facet normal 0.974932 0.222505 0
    outer loop
      vertex -1.12355 86.2113 10
      vertex -0.696014 84.338 11
      vertex -0.696014 84.338 10
    endloop
  endfacet
  facet normal 0.974932 0.222505 -0
    outer loop
      vertex -1.12355 86.2113 10
      vertex -1.12355 86.2113 11
      vertex -0.696014 84.338 11
    endloop
  endfacet
  facet normal 0.966356 0.257208 0
    outer loop
      vertex -1.58521 87.9458 10
      vertex -1.12355 86.2113 11
      vertex -1.12355 86.2113 10
    endloop
  endfacet
  facet normal 0.966356 0.257208 -0
    outer loop
      vertex -1.58521 87.9458 10
      vertex -1.58521 87.9458 11
      vertex -1.12355 86.2113 11
    endloop
  endfacet
  facet normal 0.954979 0.296674 0
    outer loop
      vertex -2.08264 89.547 10
      vertex -1.58521 87.9458 11
      vertex -1.58521 87.9458 10
    endloop
  endfacet
  facet normal 0.954979 0.296674 -0
    outer loop
      vertex -2.08264 89.547 10
      vertex -2.08264 89.547 11
      vertex -1.58521 87.9458 11
    endloop
  endfacet
  facet normal 0.939963 0.341276 0
    outer loop
      vertex -2.61752 91.0202 10
      vertex -2.08264 89.547 11
      vertex -2.08264 89.547 10
    endloop
  endfacet
  facet normal 0.939963 0.341276 -0
    outer loop
      vertex -2.61752 91.0202 10
      vertex -2.61752 91.0202 11
      vertex -2.08264 89.547 11
    endloop
  endfacet
  facet normal 0.920324 0.391157 0
    outer loop
      vertex -3.19151 92.3707 10
      vertex -2.61752 91.0202 11
      vertex -2.61752 91.0202 10
    endloop
  endfacet
  facet normal 0.920324 0.391157 -0
    outer loop
      vertex -3.19151 92.3707 10
      vertex -3.19151 92.3707 11
      vertex -2.61752 91.0202 11
    endloop
  endfacet
  facet normal 0.894949 0.446168 0
    outer loop
      vertex -3.80626 93.6038 10
      vertex -3.19151 92.3707 11
      vertex -3.19151 92.3707 10
    endloop
  endfacet
  facet normal 0.894949 0.446168 -0
    outer loop
      vertex -3.80626 93.6038 10
      vertex -3.80626 93.6038 11
      vertex -3.19151 92.3707 11
    endloop
  endfacet
  facet normal 0.86271 0.505699 0
    outer loop
      vertex -4.46342 94.7249 10
      vertex -3.80626 93.6038 11
      vertex -3.80626 93.6038 10
    endloop
  endfacet
  facet normal 0.86271 0.505699 -0
    outer loop
      vertex -4.46342 94.7249 10
      vertex -4.46342 94.7249 11
      vertex -3.80626 93.6038 11
    endloop
  endfacet
  facet normal 0.822586 0.568641 0
    outer loop
      vertex -5.16466 95.7393 10
      vertex -4.46342 94.7249 11
      vertex -4.46342 94.7249 10
    endloop
  endfacet
  facet normal 0.822586 0.568641 -0
    outer loop
      vertex -5.16466 95.7393 10
      vertex -5.16466 95.7393 11
      vertex -4.46342 94.7249 11
    endloop
  endfacet
  facet normal 0.773966 0.633228 0
    outer loop
      vertex -5.91164 96.6523 10
      vertex -5.16466 95.7393 11
      vertex -5.16466 95.7393 10
    endloop
  endfacet
  facet normal 0.773966 0.633228 -0
    outer loop
      vertex -5.91164 96.6523 10
      vertex -5.91164 96.6523 11
      vertex -5.16466 95.7393 11
    endloop
  endfacet
  facet normal 0.717018 0.697055 0
    outer loop
      vertex -6.70599 97.4694 10
      vertex -5.91164 96.6523 11
      vertex -5.91164 96.6523 10
    endloop
  endfacet
  facet normal 0.717018 0.697055 -0
    outer loop
      vertex -6.70599 97.4694 10
      vertex -6.70599 97.4694 11
      vertex -5.91164 96.6523 11
    endloop
  endfacet
  facet normal 0.652543 0.757752 0
    outer loop
      vertex -7.54939 98.1957 10
      vertex -6.70599 97.4694 11
      vertex -6.70599 97.4694 10
    endloop
  endfacet
  facet normal 0.652543 0.757752 -0
    outer loop
      vertex -7.54939 98.1957 10
      vertex -7.54939 98.1957 11
      vertex -6.70599 97.4694 11
    endloop
  endfacet
  facet normal 0.582652 0.812722 0
    outer loop
      vertex -8.4435 98.8367 10
      vertex -7.54939 98.1957 11
      vertex -7.54939 98.1957 10
    endloop
  endfacet
  facet normal 0.582652 0.812722 -0
    outer loop
      vertex -8.4435 98.8367 10
      vertex -8.4435 98.8367 11
      vertex -7.54939 98.1957 11
    endloop
  endfacet
  facet normal 0.509964 0.860196 0
    outer loop
      vertex -9.38995 99.3978 10
      vertex -8.4435 98.8367 11
      vertex -8.4435 98.8367 10
    endloop
  endfacet
  facet normal 0.509964 0.860196 -0
    outer loop
      vertex -9.38995 99.3978 10
      vertex -9.38995 99.3978 11
      vertex -8.4435 98.8367 11
    endloop
  endfacet
  facet normal 0.437171 0.899378 0
    outer loop
      vertex -10.3904 99.8841 10
      vertex -9.38995 99.3978 11
      vertex -9.38995 99.3978 10
    endloop
  endfacet
  facet normal 0.437171 0.899378 -0
    outer loop
      vertex -10.3904 99.8841 10
      vertex -10.3904 99.8841 11
      vertex -9.38995 99.3978 11
    endloop
  endfacet
  facet normal 0.36715 0.930162 0
    outer loop
      vertex -11.4466 100.301 10
      vertex -10.3904 99.8841 11
      vertex -10.3904 99.8841 10
    endloop
  endfacet
  facet normal 0.36715 0.930162 -0
    outer loop
      vertex -11.4466 100.301 10
      vertex -11.4466 100.301 11
      vertex -10.3904 99.8841 11
    endloop
  endfacet
  facet normal 0.302196 0.953246 0
    outer loop
      vertex -12.5601 100.654 10
      vertex -11.4466 100.301 11
      vertex -11.4466 100.301 10
    endloop
  endfacet
  facet normal 0.302196 0.953246 -0
    outer loop
      vertex -12.5601 100.654 10
      vertex -12.5601 100.654 11
      vertex -11.4466 100.301 11
    endloop
  endfacet
  facet normal 0.243236 0.969967 0
    outer loop
      vertex -13.7325 100.948 10
      vertex -12.5601 100.654 11
      vertex -12.5601 100.654 10
    endloop
  endfacet
  facet normal 0.243236 0.969967 -0
    outer loop
      vertex -13.7325 100.948 10
      vertex -13.7325 100.948 11
      vertex -12.5601 100.654 11
    endloop
  endfacet
  facet normal 0.191798 0.981434 0
    outer loop
      vertex -14.9657 101.189 10
      vertex -13.7325 100.948 11
      vertex -13.7325 100.948 10
    endloop
  endfacet
  facet normal 0.191798 0.981434 -0
    outer loop
      vertex -14.9657 101.189 10
      vertex -14.9657 101.189 11
      vertex -13.7325 100.948 11
    endloop
  endfacet
  facet normal 0.147362 0.989083 0
    outer loop
      vertex -16.2611 101.382 10
      vertex -14.9657 101.189 11
      vertex -14.9657 101.189 10
    endloop
  endfacet
  facet normal 0.147362 0.989083 -0
    outer loop
      vertex -16.2611 101.382 10
      vertex -16.2611 101.382 11
      vertex -14.9657 101.189 11
    endloop
  endfacet
  facet normal 0.109677 0.993967 0
    outer loop
      vertex -17.6205 101.532 10
      vertex -16.2611 101.382 11
      vertex -16.2611 101.382 10
    endloop
  endfacet
  facet normal 0.109677 0.993967 -0
    outer loop
      vertex -17.6205 101.532 10
      vertex -17.6205 101.532 11
      vertex -16.2611 101.382 11
    endloop
  endfacet
  facet normal 0.0790501 0.996871 0
    outer loop
      vertex -19.0455 101.645 10
      vertex -17.6205 101.532 11
      vertex -17.6205 101.532 10
    endloop
  endfacet
  facet normal 0.0790501 0.996871 -0
    outer loop
      vertex -19.0455 101.645 10
      vertex -19.0455 101.645 11
      vertex -17.6205 101.532 11
    endloop
  endfacet
  facet normal 0.0542025 0.99853 0
    outer loop
      vertex -20.5377 101.726 10
      vertex -19.0455 101.645 11
      vertex -19.0455 101.645 10
    endloop
  endfacet
  facet normal 0.0542025 0.99853 -0
    outer loop
      vertex -20.5377 101.726 10
      vertex -20.5377 101.726 11
      vertex -19.0455 101.645 11
    endloop
  endfacet
  facet normal 0.0345681 0.999402 0
    outer loop
      vertex -22.0989 101.78 10
      vertex -20.5377 101.726 11
      vertex -20.5377 101.726 10
    endloop
  endfacet
  facet normal 0.0345681 0.999402 -0
    outer loop
      vertex -22.0989 101.78 10
      vertex -22.0989 101.78 11
      vertex -20.5377 101.726 11
    endloop
  endfacet
  facet normal 0.0202189 0.999796 0
    outer loop
      vertex -23.7307 101.813 10
      vertex -22.0989 101.78 11
      vertex -22.0989 101.78 10
    endloop
  endfacet
  facet normal 0.0202189 0.999796 -0
    outer loop
      vertex -23.7307 101.813 10
      vertex -23.7307 101.813 11
      vertex -22.0989 101.78 11
    endloop
  endfacet
  facet normal 0.00997544 0.99995 0
    outer loop
      vertex -25.4348 101.83 10
      vertex -23.7307 101.813 11
      vertex -23.7307 101.813 10
    endloop
  endfacet
  facet normal 0.00997544 0.99995 -0
    outer loop
      vertex -25.4348 101.83 10
      vertex -25.4348 101.83 11
      vertex -23.7307 101.813 11
    endloop
  endfacet
  facet normal 0.00337475 0.999994 0
    outer loop
      vertex -27.2127 101.836 10
      vertex -25.4348 101.83 11
      vertex -25.4348 101.83 10
    endloop
  endfacet
  facet normal 0.00337475 0.999994 -0
    outer loop
      vertex -27.2127 101.836 10
      vertex -27.2127 101.836 11
      vertex -25.4348 101.83 11
    endloop
  endfacet
  facet normal 0.00053952 1 0
    outer loop
      vertex -29.0662 101.837 10
      vertex -27.2127 101.836 11
      vertex -27.2127 101.836 10
    endloop
  endfacet
  facet normal 0.00053952 1 -0
    outer loop
      vertex -29.0662 101.837 10
      vertex -29.0662 101.837 11
      vertex -27.2127 101.836 11
    endloop
  endfacet
  facet normal 0 1 0
    outer loop
      vertex -34.5637 101.837 10
      vertex -29.0662 101.837 11
      vertex -29.0662 101.837 10
    endloop
  endfacet
  facet normal 0 1 0
    outer loop
      vertex -34.5637 101.837 10
      vertex -34.5637 101.837 11
      vertex -29.0662 101.837 11
    endloop
  endfacet
  facet normal -0.00097093 1 0
    outer loop
      vertex -39.7134 101.832 10
      vertex -34.5637 101.837 11
      vertex -34.5637 101.837 10
    endloop
  endfacet
  facet normal -0.00097093 1 0
    outer loop
      vertex -39.7134 101.832 10
      vertex -39.7134 101.832 11
      vertex -34.5637 101.837 11
    endloop
  endfacet
  facet normal -0.00270011 0.999996 0
    outer loop
      vertex -44.528 101.819 10
      vertex -39.7134 101.832 11
      vertex -39.7134 101.832 10
    endloop
  endfacet
  facet normal -0.00270011 0.999996 0
    outer loop
      vertex -44.528 101.819 10
      vertex -44.528 101.819 11
      vertex -39.7134 101.832 11
    endloop
  endfacet
  facet normal -0.00556524 0.999985 0
    outer loop
      vertex -49.0201 101.794 10
      vertex -44.528 101.819 11
      vertex -44.528 101.819 10
    endloop
  endfacet
  facet normal -0.00556524 0.999985 0
    outer loop
      vertex -49.0201 101.794 10
      vertex -49.0201 101.794 11
      vertex -44.528 101.819 11
    endloop
  endfacet
  facet normal -0.00980298 0.999952 0
    outer loop
      vertex -53.2023 101.753 10
      vertex -49.0201 101.794 11
      vertex -49.0201 101.794 10
    endloop
  endfacet
  facet normal -0.00980298 0.999952 0
    outer loop
      vertex -53.2023 101.753 10
      vertex -53.2023 101.753 11
      vertex -49.0201 101.794 11
    endloop
  endfacet
  facet normal -0.0159568 0.999873 0
    outer loop
      vertex -57.0873 101.691 10
      vertex -53.2023 101.753 11
      vertex -53.2023 101.753 10
    endloop
  endfacet
  facet normal -0.0159568 0.999873 0
    outer loop
      vertex -57.0873 101.691 10
      vertex -57.0873 101.691 11
      vertex -53.2023 101.753 11
    endloop
  endfacet
  facet normal -0.0236019 0.999721 0
    outer loop
      vertex -60.6877 101.606 10
      vertex -57.0873 101.691 11
      vertex -57.0873 101.691 10
    endloop
  endfacet
  facet normal -0.0236019 0.999721 0
    outer loop
      vertex -60.6877 101.606 10
      vertex -60.6877 101.606 11
      vertex -57.0873 101.691 11
    endloop
  endfacet
  facet normal -0.0345316 0.999404 0
    outer loop
      vertex -64.016 101.491 10
      vertex -60.6877 101.606 11
      vertex -60.6877 101.606 10
    endloop
  endfacet
  facet normal -0.0345316 0.999404 0
    outer loop
      vertex -64.016 101.491 10
      vertex -64.016 101.491 11
      vertex -60.6877 101.606 11
    endloop
  endfacet
  facet normal -0.0475203 0.99887 0
    outer loop
      vertex -67.0849 101.345 10
      vertex -64.016 101.491 11
      vertex -64.016 101.491 10
    endloop
  endfacet
  facet normal -0.0475203 0.99887 0
    outer loop
      vertex -67.0849 101.345 10
      vertex -67.0849 101.345 11
      vertex -64.016 101.491 11
    endloop
  endfacet
  facet normal -0.0647071 0.997904 0
    outer loop
      vertex -69.9071 101.162 10
      vertex -67.0849 101.345 11
      vertex -67.0849 101.345 10
    endloop
  endfacet
  facet normal -0.0647071 0.997904 0
    outer loop
      vertex -69.9071 101.162 10
      vertex -69.9071 101.162 11
      vertex -67.0849 101.345 11
    endloop
  endfacet
  facet normal -0.0862309 0.996275 0
    outer loop
      vertex -72.4951 100.938 10
      vertex -69.9071 101.162 11
      vertex -69.9071 101.162 10
    endloop
  endfacet
  facet normal -0.0862309 0.996275 0
    outer loop
      vertex -72.4951 100.938 10
      vertex -72.4951 100.938 11
      vertex -69.9071 101.162 11
    endloop
  endfacet
  facet normal -0.112528 0.993649 0
    outer loop
      vertex -74.8616 100.67 10
      vertex -72.4951 100.938 11
      vertex -72.4951 100.938 10
    endloop
  endfacet
  facet normal -0.112528 0.993649 0
    outer loop
      vertex -74.8616 100.67 10
      vertex -74.8616 100.67 11
      vertex -72.4951 100.938 11
    endloop
  endfacet
  facet normal -0.145362 0.989379 0
    outer loop
      vertex -77.0192 100.353 10
      vertex -74.8616 100.67 11
      vertex -74.8616 100.67 10
    endloop
  endfacet
  facet normal -0.145362 0.989379 0
    outer loop
      vertex -77.0192 100.353 10
      vertex -77.0192 100.353 11
      vertex -74.8616 100.67 11
    endloop
  endfacet
  facet normal -0.184993 0.98274 0
    outer loop
      vertex -78.9805 99.9838 10
      vertex -77.0192 100.353 11
      vertex -77.0192 100.353 10
    endloop
  endfacet
  facet normal -0.184993 0.98274 0
    outer loop
      vertex -78.9805 99.9838 10
      vertex -78.9805 99.9838 11
      vertex -77.0192 100.353 11
    endloop
  endfacet
  facet normal -0.233205 0.972428 0
    outer loop
      vertex -80.7581 99.5575 10
      vertex -78.9805 99.9838 11
      vertex -78.9805 99.9838 10
    endloop
  endfacet
  facet normal -0.233205 0.972428 0
    outer loop
      vertex -80.7581 99.5575 10
      vertex -80.7581 99.5575 11
      vertex -78.9805 99.9838 11
    endloop
  endfacet
  facet normal -0.29009 0.956999 0
    outer loop
      vertex -82.3647 99.0705 10
      vertex -80.7581 99.5575 11
      vertex -80.7581 99.5575 10
    endloop
  endfacet
  facet normal -0.29009 0.956999 0
    outer loop
      vertex -82.3647 99.0705 10
      vertex -82.3647 99.0705 11
      vertex -80.7581 99.5575 11
    endloop
  endfacet
  facet normal -0.356132 0.934436 0
    outer loop
      vertex -83.8128 98.5186 10
      vertex -82.3647 99.0705 11
      vertex -82.3647 99.0705 10
    endloop
  endfacet
  facet normal -0.356132 0.934436 0
    outer loop
      vertex -83.8128 98.5186 10
      vertex -83.8128 98.5186 11
      vertex -82.3647 99.0705 11
    endloop
  endfacet
  facet normal -0.430248 0.902711 0
    outer loop
      vertex -85.1151 97.8979 10
      vertex -83.8128 98.5186 11
      vertex -83.8128 98.5186 10
    endloop
  endfacet
  facet normal -0.430248 0.902711 0
    outer loop
      vertex -85.1151 97.8979 10
      vertex -85.1151 97.8979 11
      vertex -83.8128 98.5186 11
    endloop
  endfacet
  facet normal -0.510347 0.859969 0
    outer loop
      vertex -86.2842 97.2041 10
      vertex -85.1151 97.8979 11
      vertex -85.1151 97.8979 10
    endloop
  endfacet
  facet normal -0.510347 0.859969 0
    outer loop
      vertex -86.2842 97.2041 10
      vertex -86.2842 97.2041 11
      vertex -85.1151 97.8979 11
    endloop
  endfacet
  facet normal -0.592226 0.805772 0
    outer loop
      vertex -87.3328 96.4334 10
      vertex -86.2842 97.2041 11
      vertex -86.2842 97.2041 10
    endloop
  endfacet
  facet normal -0.592226 0.805772 0
    outer loop
      vertex -87.3328 96.4334 10
      vertex -87.3328 96.4334 11
      vertex -86.2842 97.2041 11
    endloop
  endfacet
  facet normal -0.671252 0.74123 0
    outer loop
      vertex -88.2734 95.5816 10
      vertex -87.3328 96.4334 11
      vertex -87.3328 96.4334 10
    endloop
  endfacet
  facet normal -0.671252 0.74123 0
    outer loop
      vertex -88.2734 95.5816 10
      vertex -88.2734 95.5816 11
      vertex -87.3328 96.4334 11
    endloop
  endfacet
  facet normal -0.742509 0.669836 0
    outer loop
      vertex -89.1186 94.6447 10
      vertex -88.2734 95.5816 11
      vertex -88.2734 95.5816 10
    endloop
  endfacet
  facet normal -0.742509 0.669836 0
    outer loop
      vertex -89.1186 94.6447 10
      vertex -89.1186 94.6447 11
      vertex -88.2734 95.5816 11
    endloop
  endfacet
  facet normal -0.802621 0.59649 0
    outer loop
      vertex -89.8811 93.6187 10
      vertex -89.1186 94.6447 11
      vertex -89.1186 94.6447 10
    endloop
  endfacet
  facet normal -0.802621 0.59649 0
    outer loop
      vertex -89.8811 93.6187 10
      vertex -89.8811 93.6187 11
      vertex -89.1186 94.6447 11
    endloop
  endfacet
  facet normal -0.850401 0.526135 0
    outer loop
      vertex -90.5736 92.4994 10
      vertex -89.8811 93.6187 11
      vertex -89.8811 93.6187 10
    endloop
  endfacet
  facet normal -0.850401 0.526135 0
    outer loop
      vertex -90.5736 92.4994 10
      vertex -90.5736 92.4994 11
      vertex -89.8811 93.6187 11
    endloop
  endfacet
  facet normal -0.886539 0.462653 0
    outer loop
      vertex -91.2085 91.2828 10
      vertex -90.5736 92.4994 11
      vertex -90.5736 92.4994 10
    endloop
  endfacet
  facet normal -0.886539 0.462653 0
    outer loop
      vertex -91.2085 91.2828 10
      vertex -91.2085 91.2828 11
      vertex -90.5736 92.4994 11
    endloop
  endfacet
  facet normal -0.912686 0.408662 0
    outer loop
      vertex -91.7986 89.9649 10
      vertex -91.2085 91.2828 11
      vertex -91.2085 91.2828 10
    endloop
  endfacet
  facet normal -0.912686 0.408662 0
    outer loop
      vertex -91.7986 89.9649 10
      vertex -91.7986 89.9649 11
      vertex -91.2085 91.2828 11
    endloop
  endfacet
  facet normal -0.931022 0.364964 0
    outer loop
      vertex -92.3565 88.5417 10
      vertex -91.7986 89.9649 11
      vertex -91.7986 89.9649 10
    endloop
  endfacet
  facet normal -0.931022 0.364964 0
    outer loop
      vertex -92.3565 88.5417 10
      vertex -92.3565 88.5417 11
      vertex -91.7986 89.9649 11
    endloop
  endfacet
  facet normal -0.943502 0.331368 0
    outer loop
      vertex -92.8948 87.009 10
      vertex -92.3565 88.5417 11
      vertex -92.3565 88.5417 10
    endloop
  endfacet
  facet normal -0.943502 0.331368 0
    outer loop
      vertex -92.8948 87.009 10
      vertex -92.8948 87.009 11
      vertex -92.3565 88.5417 11
    endloop
  endfacet
  facet normal -0.95168 0.307091 0
    outer loop
      vertex -93.426 85.3628 10
      vertex -92.8948 87.009 11
      vertex -92.8948 87.009 10
    endloop
  endfacet
  facet normal -0.95168 0.307091 0
    outer loop
      vertex -93.426 85.3628 10
      vertex -93.426 85.3628 11
      vertex -92.8948 87.009 11
    endloop
  endfacet
  facet normal -0.956655 0.291222 0
    outer loop
      vertex -93.9629 83.5991 10
      vertex -93.426 85.3628 11
      vertex -93.426 85.3628 10
    endloop
  endfacet
  facet normal -0.956655 0.291222 0
    outer loop
      vertex -93.9629 83.5991 10
      vertex -93.9629 83.5991 11
      vertex -93.426 85.3628 11
    endloop
  endfacet
  facet normal -0.959283 0.282447 0
    outer loop
      vertex -94.518 81.7138 10
      vertex -93.9629 83.5991 11
      vertex -93.9629 83.5991 10
    endloop
  endfacet
  facet normal -0.959283 0.282447 0
    outer loop
      vertex -94.518 81.7138 10
      vertex -94.518 81.7138 11
      vertex -93.9629 83.5991 11
    endloop
  endfacet
  facet normal -0.960066 0.279774 0
    outer loop
      vertex -95.104 79.7029 10
      vertex -94.518 81.7138 11
      vertex -94.518 81.7138 10
    endloop
  endfacet
  facet normal -0.960066 0.279774 0
    outer loop
      vertex -95.104 79.7029 10
      vertex -95.104 79.7029 11
      vertex -94.518 81.7138 11
    endloop
  endfacet
  facet normal -0.959376 0.28213 0
    outer loop
      vertex -95.7335 77.5623 10
      vertex -95.104 79.7029 11
      vertex -95.104 79.7029 10
    endloop
  endfacet
  facet normal -0.959376 0.28213 0
    outer loop
      vertex -95.7335 77.5623 10
      vertex -95.7335 77.5623 11
      vertex -95.104 79.7029 11
    endloop
  endfacet
  facet normal -0.957457 0.288576 0
    outer loop
      vertex -96.419 75.2879 10
      vertex -95.7335 77.5623 11
      vertex -95.7335 77.5623 10
    endloop
  endfacet
  facet normal -0.957457 0.288576 0
    outer loop
      vertex -96.419 75.2879 10
      vertex -96.419 75.2879 11
      vertex -95.7335 77.5623 11
    endloop
  endfacet
  facet normal -0.954425 0.298451 0
    outer loop
      vertex -97.1733 72.8757 10
      vertex -96.419 75.2879 11
      vertex -96.419 75.2879 10
    endloop
  endfacet
  facet normal -0.954425 0.298451 0
    outer loop
      vertex -97.1733 72.8757 10
      vertex -97.1733 72.8757 11
      vertex -96.419 75.2879 11
    endloop
  endfacet
  facet normal -0.950425 0.310953 0
    outer loop
      vertex -98.0089 70.3217 10
      vertex -97.1733 72.8757 11
      vertex -97.1733 72.8757 10
    endloop
  endfacet
  facet normal -0.950425 0.310953 0
    outer loop
      vertex -98.0089 70.3217 10
      vertex -98.0089 70.3217 11
      vertex -97.1733 72.8757 11
    endloop
  endfacet
  facet normal -0.945524 0.325552 0
    outer loop
      vertex -98.9385 67.6218 10
      vertex -98.0089 70.3217 11
      vertex -98.0089 70.3217 10
    endloop
  endfacet
  facet normal -0.945524 0.325552 0
    outer loop
      vertex -98.9385 67.6218 10
      vertex -98.9385 67.6218 11
      vertex -98.0089 70.3217 11
    endloop
  endfacet
  facet normal -0.939807 0.341706 0
    outer loop
      vertex -99.9747 64.7719 10
      vertex -98.9385 67.6218 11
      vertex -98.9385 67.6218 10
    endloop
  endfacet
  facet normal -0.939807 0.341706 0
    outer loop
      vertex -99.9747 64.7719 10
      vertex -99.9747 64.7719 11
      vertex -98.9385 67.6218 11
    endloop
  endfacet
  facet normal -0.93335 0.358967 0
    outer loop
      vertex -101.13 61.768 10
      vertex -99.9747 64.7719 11
      vertex -99.9747 64.7719 10
    endloop
  endfacet
  facet normal -0.93335 0.358967 0
    outer loop
      vertex -101.13 61.768 10
      vertex -101.13 61.768 11
      vertex -99.9747 64.7719 11
    endloop
  endfacet
  facet normal -0.926217 0.37699 0
    outer loop
      vertex -102.417 58.606 10
      vertex -101.13 61.768 11
      vertex -101.13 61.768 10
    endloop
  endfacet
  facet normal -0.926217 0.37699 0
    outer loop
      vertex -102.417 58.606 10
      vertex -102.417 58.606 11
      vertex -101.13 61.768 11
    endloop
  endfacet
  facet normal -0.9184 0.395653 0
    outer loop
      vertex -103.849 55.282 10
      vertex -102.417 58.606 11
      vertex -102.417 58.606 10
    endloop
  endfacet
  facet normal -0.9184 0.395653 0
    outer loop
      vertex -103.849 55.282 10
      vertex -103.849 55.282 11
      vertex -102.417 58.606 11
    endloop
  endfacet
  facet normal -0.910121 0.414343 0
    outer loop
      vertex -105.438 51.7917 10
      vertex -103.849 55.282 11
      vertex -103.849 55.282 10
    endloop
  endfacet
  facet normal -0.910121 0.414343 0
    outer loop
      vertex -105.438 51.7917 10
      vertex -105.438 51.7917 11
      vertex -103.849 55.282 11
    endloop
  endfacet
  facet normal -0.901431 0.432923 0
    outer loop
      vertex -107.196 48.1312 10
      vertex -105.438 51.7917 11
      vertex -105.438 51.7917 10
    endloop
  endfacet
  facet normal -0.901431 0.432923 0
    outer loop
      vertex -107.196 48.1312 10
      vertex -107.196 48.1312 11
      vertex -105.438 51.7917 11
    endloop
  endfacet
  facet normal -0.892215 0.45161 0
    outer loop
      vertex -109.137 44.2965 10
      vertex -107.196 48.1312 11
      vertex -107.196 48.1312 10
    endloop
  endfacet
  facet normal -0.892215 0.45161 0
    outer loop
      vertex -109.137 44.2965 10
      vertex -109.137 44.2965 11
      vertex -107.196 48.1312 11
    endloop
  endfacet
  facet normal -0.882838 0.469677 0
    outer loop
      vertex -111.272 40.2834 10
      vertex -109.137 44.2965 11
      vertex -109.137 44.2965 10
    endloop
  endfacet
  facet normal -0.882838 0.469677 0
    outer loop
      vertex -111.272 40.2834 10
      vertex -111.272 40.2834 11
      vertex -109.137 44.2965 11
    endloop
  endfacet
  facet normal -0.873075 0.487585 0
    outer loop
      vertex -113.615 36.088 10
      vertex -111.272 40.2834 11
      vertex -111.272 40.2834 10
    endloop
  endfacet
  facet normal -0.873075 0.487585 0
    outer loop
      vertex -113.615 36.088 10
      vertex -113.615 36.088 11
      vertex -111.272 40.2834 11
    endloop
  endfacet
  facet normal -0.863102 0.50503 0
    outer loop
      vertex -116.179 31.7061 10
      vertex -113.615 36.088 11
      vertex -113.615 36.088 10
    endloop
  endfacet
  facet normal -0.863102 0.50503 0
    outer loop
      vertex -116.179 31.7061 10
      vertex -116.179 31.7061 11
      vertex -113.615 36.088 11
    endloop
  endfacet
  facet normal -0.853136 0.521688 0
    outer loop
      vertex -118.975 27.1337 10
      vertex -116.179 31.7061 11
      vertex -116.179 31.7061 10
    endloop
  endfacet
  facet normal -0.853136 0.521688 0
    outer loop
      vertex -118.975 27.1337 10
      vertex -118.975 27.1337 11
      vertex -116.179 31.7061 11
    endloop
  endfacet
  facet normal -0.843064 0.537814 0
    outer loop
      vertex -122.016 22.3667 10
      vertex -118.975 27.1337 11
      vertex -118.975 27.1337 10
    endloop
  endfacet
  facet normal -0.843064 0.537814 0
    outer loop
      vertex -122.016 22.3667 10
      vertex -122.016 22.3667 11
      vertex -118.975 27.1337 11
    endloop
  endfacet
  facet normal 0.303424 -0.952856 0
    outer loop
      vertex -120.02 23.0023 10
      vertex -122.016 22.3667 11
      vertex -122.016 22.3667 10
    endloop
  endfacet
  facet normal 0.303424 -0.952856 0
    outer loop
      vertex -120.02 23.0023 10
      vertex -120.02 23.0023 11
      vertex -122.016 22.3667 11
    endloop
  endfacet
  facet normal -0.500977 -0.865461 0
    outer loop
      vertex -106.48 15.1646 10
      vertex -120.02 23.0023 11
      vertex -120.02 23.0023 10
    endloop
  endfacet
  facet normal -0.500977 -0.865461 0
    outer loop
      vertex -106.48 15.1646 10
      vertex -106.48 15.1646 11
      vertex -120.02 23.0023 11
    endloop
  endfacet
  facet normal 0 -1 0
    outer loop
      vertex -96.4962 15.1646 10
      vertex -106.48 15.1646 11
      vertex -106.48 15.1646 10
    endloop
  endfacet
  facet normal 0 -1 0
    outer loop
      vertex -96.4962 15.1646 10
      vertex -96.4962 15.1646 11
      vertex -106.48 15.1646 11
    endloop
  endfacet
  facet normal -0.000965656 -1 0
    outer loop
      vertex -46.7891 15.1166 10
      vertex -96.4962 15.1646 11
      vertex -96.4962 15.1646 10
    endloop
  endfacet
  facet normal -0.000965656 -1 0
    outer loop
      vertex -46.7891 15.1166 10
      vertex -46.7891 15.1166 11
      vertex -96.4962 15.1646 11
    endloop
  endfacet
  facet normal -0.0895145 -0.995986 0
    outer loop
      vertex -46.5165 15.0921 10
      vertex -46.7891 15.1166 11
      vertex -46.7891 15.1166 10
    endloop
  endfacet
  facet normal -0.0895145 -0.995986 0
    outer loop
      vertex -46.5165 15.0921 10
      vertex -46.5165 15.0921 11
      vertex -46.7891 15.1166 11
    endloop
  endfacet
  facet normal -0.263976 -0.964529 0
    outer loop
      vertex -46.26 15.0219 10
      vertex -46.5165 15.0921 11
      vertex -46.5165 15.0921 10
    endloop
  endfacet
  facet normal -0.263976 -0.964529 0
    outer loop
      vertex -46.26 15.0219 10
      vertex -46.26 15.0219 11
      vertex -46.5165 15.0921 11
    endloop
  endfacet
  facet normal -0.427032 -0.904236 0
    outer loop
      vertex -46.0239 14.9104 10
      vertex -46.26 15.0219 11
      vertex -46.26 15.0219 10
    endloop
  endfacet
  facet normal -0.427032 -0.904236 0
    outer loop
      vertex -46.0239 14.9104 10
      vertex -46.0239 14.9104 11
      vertex -46.26 15.0219 11
    endloop
  endfacet
  facet normal -0.574553 -0.818467 0
    outer loop
      vertex -45.8125 14.762 10
      vertex -46.0239 14.9104 11
      vertex -46.0239 14.9104 10
    endloop
  endfacet
  facet normal -0.574553 -0.818467 0
    outer loop
      vertex -45.8125 14.762 10
      vertex -45.8125 14.762 11
      vertex -46.0239 14.9104 11
    endloop
  endfacet
  facet normal -0.703399 -0.710795 0
    outer loop
      vertex -45.6299 14.5813 10
      vertex -45.8125 14.762 11
      vertex -45.8125 14.762 10
    endloop
  endfacet
  facet normal -0.703399 -0.710795 0
    outer loop
      vertex -45.6299 14.5813 10
      vertex -45.6299 14.5813 11
      vertex -45.8125 14.762 11
    endloop
  endfacet
  facet normal -0.81318 -0.582012 0
    outer loop
      vertex -45.4806 14.3727 10
      vertex -45.6299 14.5813 11
      vertex -45.6299 14.5813 10
    endloop
  endfacet
  facet normal -0.81318 -0.582012 0
    outer loop
      vertex -45.4806 14.3727 10
      vertex -45.4806 14.3727 11
      vertex -45.6299 14.5813 11
    endloop
  endfacet
  facet normal -0.900552 -0.434749 0
    outer loop
      vertex -45.3686 14.1407 10
      vertex -45.4806 14.3727 11
      vertex -45.4806 14.3727 10
    endloop
  endfacet
  facet normal -0.900552 -0.434749 0
    outer loop
      vertex -45.3686 14.1407 10
      vertex -45.3686 14.1407 11
      vertex -45.4806 14.3727 11
    endloop
  endfacet
  facet normal -0.963044 -0.269345 0
    outer loop
      vertex -45.2984 13.8897 10
      vertex -45.3686 14.1407 11
      vertex -45.3686 14.1407 10
    endloop
  endfacet
  facet normal -0.963044 -0.269345 0
    outer loop
      vertex -45.2984 13.8897 10
      vertex -45.2984 13.8897 11
      vertex -45.3686 14.1407 11
    endloop
  endfacet
  facet normal -0.995835 -0.0911785 0
    outer loop
      vertex -45.2741 13.6243 10
      vertex -45.2984 13.8897 11
      vertex -45.2984 13.8897 10
    endloop
  endfacet
  facet normal -0.995835 -0.0911785 0
    outer loop
      vertex -45.2741 13.6243 10
      vertex -45.2741 13.6243 11
      vertex -45.2984 13.8897 11
    endloop
  endfacet
  facet normal -1 0 0
    outer loop
      vertex -45.2741 3.78249 10
      vertex -45.2741 13.6243 11
      vertex -45.2741 13.6243 10
    endloop
  endfacet
  facet normal -1 0 0
    outer loop
      vertex -45.2741 3.78249 10
      vertex -45.2741 3.78249 11
      vertex -45.2741 13.6243 11
    endloop
  endfacet
  facet normal -0.996065 -0.0886221 0
    outer loop
      vertex -45.2176 3.14746 10
      vertex -45.2741 3.78249 11
      vertex -45.2741 3.78249 10
    endloop
  endfacet
  facet normal -0.996065 -0.0886221 0
    outer loop
      vertex -45.2176 3.14746 10
      vertex -45.2176 3.14746 11
      vertex -45.2741 3.78249 11
    endloop
  endfacet
  facet normal -0.964446 -0.26428 0
    outer loop
      vertex -45.0538 2.5497 10
      vertex -45.2176 3.14746 11
      vertex -45.2176 3.14746 10
    endloop
  endfacet
  facet normal -0.964446 -0.26428 0
    outer loop
      vertex -45.0538 2.5497 10
      vertex -45.0538 2.5497 11
      vertex -45.2176 3.14746 11
    endloop
  endfacet
  facet normal -0.903536 -0.428512 0
    outer loop
      vertex -44.7927 1.99916 10
      vertex -45.0538 2.5497 11
      vertex -45.0538 2.5497 10
    endloop
  endfacet
  facet normal -0.903536 -0.428512 0
    outer loop
      vertex -44.7927 1.99916 10
      vertex -44.7927 1.99916 11
      vertex -45.0538 2.5497 11
    endloop
  endfacet
  facet normal -0.816743 -0.577002 0
    outer loop
      vertex -44.4442 1.50586 10
      vertex -44.7927 1.99916 11
      vertex -44.7927 1.99916 10
    endloop
  endfacet
  facet normal -0.816743 -0.577002 0
    outer loop
      vertex -44.4442 1.50586 10
      vertex -44.4442 1.50586 11
      vertex -44.7927 1.99916 11
    endloop
  endfacet
  facet normal -0.707264 -0.706949 0
    outer loop
      vertex -44.0183 1.07977 10
      vertex -44.4442 1.50586 11
      vertex -44.4442 1.50586 10
    endloop
  endfacet
  facet normal -0.707264 -0.706949 0
    outer loop
      vertex -44.0183 1.07977 10
      vertex -44.0183 1.07977 11
      vertex -44.4442 1.50586 11
    endloop
  endfacet
  facet normal -0.577465 -0.816415 0
    outer loop
      vertex -43.525 0.73085 10
      vertex -44.0183 1.07977 11
      vertex -44.0183 1.07977 10
    endloop
  endfacet
  facet normal -0.577465 -0.816415 0
    outer loop
      vertex -43.525 0.73085 10
      vertex -43.525 0.73085 11
      vertex -44.0183 1.07977 11
    endloop
  endfacet
  facet normal -0.429173 -0.903223 0
    outer loop
      vertex -42.9741 0.469086 10
      vertex -43.525 0.73085 11
      vertex -43.525 0.73085 10
    endloop
  endfacet
  facet normal -0.429173 -0.903223 0
    outer loop
      vertex -42.9741 0.469086 10
      vertex -42.9741 0.469086 11
      vertex -43.525 0.73085 11
    endloop
  endfacet
  facet normal -0.265193 -0.964195 0
    outer loop
      vertex -42.3756 0.304474 10
      vertex -42.9741 0.469086 11
      vertex -42.9741 0.469086 10
    endloop
  endfacet
  facet normal -0.265193 -0.964195 0
    outer loop
      vertex -42.3756 0.304474 10
      vertex -42.3756 0.304474 11
      vertex -42.9741 0.469086 11
    endloop
  endfacet
  facet normal -0.0900431 -0.995938 0
    outer loop
      vertex -41.7395 0.246964 10
      vertex -42.3756 0.304474 11
      vertex -42.3756 0.304474 10
    endloop
  endfacet
  facet normal -0.0900431 -0.995938 0
    outer loop
      vertex -41.7395 0.246964 10
      vertex -41.7395 0.246964 11
      vertex -42.3756 0.304474 11
    endloop
  endfacet
  facet normal 0 -1 0
    outer loop
      vertex -9.9366 0.246964 10
      vertex -41.7395 0.246964 11
      vertex -41.7395 0.246964 10
    endloop
  endfacet
  facet normal 0 -1 0
    outer loop
      vertex -9.9366 0.246964 10
      vertex -9.9366 0.246964 11
      vertex -41.7395 0.246964 11
    endloop
  endfacet
  facet normal 8.61922e-05 -1 0
    outer loop
      vertex 0.679214 0.247879 10
      vertex -9.9366 0.246964 11
      vertex -9.9366 0.246964 10
    endloop
  endfacet
  facet normal 8.61922e-05 -1 0
    outer loop
      vertex 0.679214 0.247879 10
      vertex 0.679214 0.247879 11
      vertex -9.9366 0.246964 11
    endloop
  endfacet
  facet normal -0.0814971 -0.996674 0
    outer loop
      vertex 0.966034 0.224426 10
      vertex 0.679214 0.247879 11
      vertex 0.679214 0.247879 10
    endloop
  endfacet
  facet normal -0.0814971 -0.996674 0
    outer loop
      vertex 0.966034 0.224426 10
      vertex 0.966034 0.224426 11
      vertex 0.679214 0.247879 11
    endloop
  endfacet
  facet normal -0.253243 -0.967403 0
    outer loop
      vertex 1.23364 0.154373 10
      vertex 0.966034 0.224426 11
      vertex 0.966034 0.224426 10
    endloop
  endfacet
  facet normal -0.253243 -0.967403 0
    outer loop
      vertex 1.23364 0.154373 10
      vertex 1.23364 0.154373 11
      vertex 0.966034 0.224426 11
    endloop
  endfacet
  facet normal -0.418881 -0.908041 0
    outer loop
      vertex 1.47815 0.0415802 10
      vertex 1.23364 0.154373 11
      vertex 1.23364 0.154373 10
    endloop
  endfacet
  facet normal -0.418881 -0.908041 0
    outer loop
      vertex 1.47815 0.0415802 10
      vertex 1.47815 0.0415802 11
      vertex 1.23364 0.154373 11
    endloop
  endfacet
  facet normal -0.572007 -0.820249 0
    outer loop
      vertex 1.69569 -0.110123 10
      vertex 1.47815 0.0415802 11
      vertex 1.47815 0.0415802 10
    endloop
  endfacet
  facet normal -0.572007 -0.820249 0
    outer loop
      vertex 1.69569 -0.110123 10
      vertex 1.69569 -0.110123 11
      vertex 1.47815 0.0415802 11
    endloop
  endfacet
  facet normal -0.707234 -0.70698 0
    outer loop
      vertex 1.88239 -0.29689 10
      vertex 1.69569 -0.110123 11
      vertex 1.69569 -0.110123 10
    endloop
  endfacet
  facet normal -0.707234 -0.70698 0
    outer loop
      vertex 1.88239 -0.29689 10
      vertex 1.88239 -0.29689 11
      vertex 1.69569 -0.110123 11
    endloop
  endfacet
  facet normal -0.820293 -0.571944 0
    outer loop
      vertex 2.03438 -0.514877 10
      vertex 1.88239 -0.29689 11
      vertex 1.88239 -0.29689 10
    endloop
  endfacet
  facet normal -0.820293 -0.571944 0
    outer loop
      vertex 2.03438 -0.514877 10
      vertex 2.03438 -0.514877 11
      vertex 1.88239 -0.29689 11
    endloop
  endfacet
  facet normal -0.907729 -0.419556 0
    outer loop
      vertex 2.14778 -0.760223 10
      vertex 2.03438 -0.514877 11
      vertex 2.03438 -0.514877 10
    endloop
  endfacet
  facet normal -0.907729 -0.419556 0
    outer loop
      vertex 2.14778 -0.760223 10
      vertex 2.14778 -0.760223 11
      vertex 2.03438 -0.514877 11
    endloop
  endfacet
  facet normal -0.966926 -0.255059 0
    outer loop
      vertex 2.2187 -1.02908 10
      vertex 2.14778 -0.760223 11
      vertex 2.14778 -0.760223 10
    endloop
  endfacet
  facet normal -0.966926 -0.255059 0
    outer loop
      vertex 2.2187 -1.02908 10
      vertex 2.2187 -1.02908 11
      vertex 2.14778 -0.760223 11
    endloop
  endfacet
  facet normal -0.996385 -0.0849516 0
    outer loop
      vertex 2.2433 -1.31761 10
      vertex 2.2187 -1.02908 11
      vertex 2.2187 -1.02908 10
    endloop
  endfacet
  facet normal -0.996385 -0.0849516 0
    outer loop
      vertex 2.2433 -1.31761 10
      vertex 2.2433 -1.31761 11
      vertex 2.2187 -1.02908 11
    endloop
  endfacet
  facet normal -0.772367 -0.635176 0
    outer loop
      vertex 3.42882 -2.75919 10
      vertex 2.2433 -1.31761 11
      vertex 2.2433 -1.31761 10
    endloop
  endfacet
  facet normal -0.772367 -0.635176 0
    outer loop
      vertex 3.42882 -2.75919 10
      vertex 3.42882 -2.75919 11
      vertex 2.2433 -1.31761 11
    endloop
  endfacet
  facet normal 0.999883 0.0152913 0
    outer loop
      vertex 3.33287 3.51488 10
      vertex 3.42882 -2.75919 11
      vertex 3.42882 -2.75919 10
    endloop
  endfacet
  facet normal 0.999883 0.0152913 -0
    outer loop
      vertex 3.33287 3.51488 10
      vertex 3.33287 3.51488 11
      vertex 3.42882 -2.75919 11
    endloop
  endfacet
endsolid OpenSCAD_Model
