solid OpenSCAD_Model
  facet normal 0 0 -1
    outer loop
      vertex -9.38995 124.148 10
      vertex -8.4435 123.449 10
      vertex -7.54939 122.65 10
    endloop
  endfacet
  facet normal 0 0 -1
    outer loop
      vertex -10.3904 124.754 10
      vertex -7.54939 122.65 10
      vertex -6.70599 121.745 10
    endloop
  endfacet
  facet normal -0 -0 -1
    outer loop
      vertex -9.38995 124.148 10
      vertex -7.54939 122.65 10
      vertex -10.3904 124.754 10
    endloop
  endfacet
  facet normal 0 0 -1
    outer loop
      vertex -11.4466 125.274 10
      vertex -10.3904 124.754 10
      vertex -6.70599 121.745 10
    endloop
  endfacet
  facet normal 0 0 -1
    outer loop
      vertex -5.91164 120.727 10
      vertex -11.4466 125.274 10
      vertex -6.70599 121.745 10
    endloop
  endfacet
  facet normal 0 0 -1
    outer loop
      vertex -5.91164 120.727 10
      vertex -12.5601 125.714 10
      vertex -11.4466 125.274 10
    endloop
  endfacet
  facet normal -0 -0 -1
    outer loop
      vertex -5.91164 120.727 10
      vertex -5.16466 119.589 10
      vertex -12.5601 125.714 10
    endloop
  endfacet
  facet normal -0 -0 -1
    outer loop
      vertex -12.5601 125.714 10
      vertex -5.16466 119.589 10
      vertex -13.7325 126.08 10
    endloop
  endfacet
  facet normal 0 0 -1
    outer loop
      vertex -13.7325 126.08 10
      vertex -5.16466 119.589 10
      vertex -4.46342 118.325 10
    endloop
  endfacet
  facet normal 0 0 -1
    outer loop
      vertex -14.9657 126.381 10
      vertex -13.7325 126.08 10
      vertex -4.46342 118.325 10
    endloop
  endfacet
  facet normal 0 0 -1
    outer loop
      vertex -16.2611 126.621 10
      vertex -14.9657 126.381 10
      vertex -4.46342 118.325 10
    endloop
  endfacet
  facet normal 0 0 -1
    outer loop
      vertex -3.80626 116.928 10
      vertex -16.2611 126.621 10
      vertex -4.46342 118.325 10
    endloop
  endfacet
  facet normal 0 0 -1
    outer loop
      vertex -3.80626 116.928 10
      vertex -17.6205 126.808 10
      vertex -16.2611 126.621 10
    endloop
  endfacet
  facet normal -0 -0 -1
    outer loop
      vertex -3.80626 116.928 10
      vertex -3.19151 115.391 10
      vertex -17.6205 126.808 10
    endloop
  endfacet
  facet normal -0 -0 -1
    outer loop
      vertex -17.6205 126.808 10
      vertex -3.19151 115.391 10
      vertex -19.0455 126.949 10
    endloop
  endfacet
  facet normal 0 0 -1
    outer loop
      vertex -19.0455 126.949 10
      vertex -3.19151 115.391 10
      vertex -2.61752 113.708 10
    endloop
  endfacet
  facet normal 0 0 -1
    outer loop
      vertex -20.5377 127.05 10
      vertex -19.0455 126.949 10
      vertex -2.61752 113.708 10
    endloop
  endfacet
  facet normal 0 0 -1
    outer loop
      vertex -2.08264 111.872 10
      vertex -20.5377 127.05 10
      vertex -2.61752 113.708 10
    endloop
  endfacet
  facet normal 0 0 -1
    outer loop
      vertex -2.08264 111.872 10
      vertex -22.0989 127.117 10
      vertex -20.5377 127.05 10
    endloop
  endfacet
  facet normal -0 -0 -1
    outer loop
      vertex -2.08264 111.872 10
      vertex -1.58521 109.877 10
      vertex -22.0989 127.117 10
    endloop
  endfacet
  facet normal -0 -0 -1
    outer loop
      vertex -22.0989 127.117 10
      vertex -1.58521 109.877 10
      vertex -23.7307 127.158 10
    endloop
  endfacet
  facet normal 0 0 -1
    outer loop
      vertex -23.7307 127.158 10
      vertex -1.58521 109.877 10
      vertex -1.12355 107.715 10
    endloop
  endfacet
  facet normal 0 0 -1
    outer loop
      vertex -25.4348 127.179 10
      vertex -23.7307 127.158 10
      vertex -1.12355 107.715 10
    endloop
  endfacet
  facet normal 0 0 -1
    outer loop
      vertex -0.696014 105.381 10
      vertex -25.4348 127.179 10
      vertex -1.12355 107.715 10
    endloop
  endfacet
  facet normal 0 0 -1
    outer loop
      vertex -0.696014 105.381 10
      vertex -27.2127 127.187 10
      vertex -25.4348 127.179 10
    endloop
  endfacet
  facet normal -0 -0 -1
    outer loop
      vertex -0.696014 105.381 10
      vertex -0.300964 102.867 10
      vertex -27.2127 127.187 10
    endloop
  endfacet
  facet normal -0 -0 -1
    outer loop
      vertex -27.2127 127.187 10
      vertex -0.300964 102.867 10
      vertex -29.0662 127.188 10
    endloop
  endfacet
  facet normal 0 0 -1
    outer loop
      vertex -29.0662 127.188 10
      vertex -0.300964 102.867 10
      vertex 0.0632477 100.167 10
    endloop
  endfacet
  facet normal 0 0 -1
    outer loop
      vertex -34.5637 127.187 10
      vertex -29.0662 127.188 10
      vertex 0.0632477 100.167 10
    endloop
  endfacet
  facet normal 0 0 -1
    outer loop
      vertex 0.398331 97.2742 10
      vertex -34.5637 127.187 10
      vertex 0.0632477 100.167 10
    endloop
  endfacet
  facet normal -0 -0 -1
    outer loop
      vertex 0.398331 97.2742 10
      vertex 0.705902 94.182 10
      vertex -34.5637 127.187 10
    endloop
  endfacet
  facet normal 0 0 -1
    outer loop
      vertex -34.5637 127.187 10
      vertex 0.705902 94.182 10
      vertex 0.98764 90.8837 10
    endloop
  endfacet
  facet normal 0 0 -1
    outer loop
      vertex -39.7134 127.181 10
      vertex -34.5637 127.187 10
      vertex 0.98764 90.8837 10
    endloop
  endfacet
  facet normal 0 0 -1
    outer loop
      vertex 1.24519 87.3727 10
      vertex -39.7134 127.181 10
      vertex 0.98764 90.8837 10
    endloop
  endfacet
  facet normal 0 0 -1
    outer loop
      vertex 1.24519 87.3727 10
      vertex -44.528 127.164 10
      vertex -39.7134 127.181 10
    endloop
  endfacet
  facet normal -0 -0 -1
    outer loop
      vertex 1.24519 87.3727 10
      vertex 1.48021 83.6423 10
      vertex -44.528 127.164 10
    endloop
  endfacet
  facet normal 0 -0 -1
    outer loop
      vertex -44.528 127.164 10
      vertex 1.48021 83.6423 10
      vertex -49.0201 127.131 10
    endloop
  endfacet
  facet normal 0 0 -1
    outer loop
      vertex -49.0201 127.131 10
      vertex 1.48021 83.6423 10
      vertex 1.69435 79.6859 10
    endloop
  endfacet
  facet normal 0 0 -1
    outer loop
      vertex -53.2023 127.076 10
      vertex -95.7335 95.0476 10
      vertex -57.0873 126.995 10
    endloop
  endfacet
  facet normal 0 0 -1
    outer loop
      vertex -57.0873 126.995 10
      vertex -95.104 97.8819 10
      vertex -60.6877 126.882 10
    endloop
  endfacet
  facet normal 0 -0 -1
    outer loop
      vertex -93.426 105.376 10
      vertex -67.0849 126.536 10
      vertex -93.9629 103.041 10
    endloop
  endfacet
  facet normal 0 0 -1
    outer loop
      vertex -93.9629 103.041 10
      vertex -67.0849 126.536 10
      vertex -64.016 126.73 10
    endloop
  endfacet
  facet normal 0 -0 -1
    outer loop
      vertex -92.3565 109.585 10
      vertex -72.4951 125.998 10
      vertex -92.8948 107.555 10
    endloop
  endfacet
  facet normal 0 0 -1
    outer loop
      vertex -92.3565 109.585 10
      vertex -74.8616 125.643 10
      vertex -72.4951 125.998 10
    endloop
  endfacet
  facet normal 0 -0 -1
    outer loop
      vertex -91.2085 113.214 10
      vertex -77.0192 125.223 10
      vertex -91.7986 111.469 10
    endloop
  endfacet
  facet normal 0 -0 -1
    outer loop
      vertex -80.7581 124.17 10
      vertex -78.9805 124.734 10
      vertex -90.5736 114.825 10
    endloop
  endfacet
  facet normal 0 -0 -1
    outer loop
      vertex -82.3647 123.525 10
      vertex -80.7581 124.17 10
      vertex -89.8811 116.307 10
    endloop
  endfacet
  facet normal 0 -0 -1
    outer loop
      vertex -83.8128 122.794 10
      vertex -82.3647 123.525 10
      vertex -89.1186 117.665 10
    endloop
  endfacet
  facet normal 0 0 -1
    outer loop
      vertex -85.1151 121.972 10
      vertex -88.2734 118.906 10
      vertex -87.3328 120.033 10
    endloop
  endfacet
  facet normal 0 -0 -1
    outer loop
      vertex -86.2842 121.054 10
      vertex -85.1151 121.972 10
      vertex -87.3328 120.033 10
    endloop
  endfacet
  facet normal 0 -0 -1
    outer loop
      vertex -85.1151 121.972 10
      vertex -83.8128 122.794 10
      vertex -88.2734 118.906 10
    endloop
  endfacet
  facet normal 0 -0 -1
    outer loop
      vertex -88.2734 118.906 10
      vertex -83.8128 122.794 10
      vertex -89.1186 117.665 10
    endloop
  endfacet
  facet normal 0 -0 -1
    outer loop
      vertex -89.1186 117.665 10
      vertex -82.3647 123.525 10
      vertex -89.8811 116.307 10
    endloop
  endfacet
  facet normal 0 -0 -1
    outer loop
      vertex -89.8811 116.307 10
      vertex -80.7581 124.17 10
      vertex -90.5736 114.825 10
    endloop
  endfacet
  facet normal 0 -0 -1
    outer loop
      vertex -90.5736 114.825 10
      vertex -78.9805 124.734 10
      vertex -91.2085 113.214 10
    endloop
  endfacet
  facet normal 0 0 -1
    outer loop
      vertex -91.2085 113.214 10
      vertex -78.9805 124.734 10
      vertex -77.0192 125.223 10
    endloop
  endfacet
  facet normal 0 0 -1
    outer loop
      vertex -91.7986 111.469 10
      vertex -77.0192 125.223 10
      vertex -74.8616 125.643 10
    endloop
  endfacet
  facet normal 0 0 -1
    outer loop
      vertex -92.3565 109.585 10
      vertex -91.7986 111.469 10
      vertex -74.8616 125.643 10
    endloop
  endfacet
  facet normal 0 0 -1
    outer loop
      vertex -92.8948 107.555 10
      vertex -72.4951 125.998 10
      vertex -69.9071 126.294 10
    endloop
  endfacet
  facet normal 0 0 -1
    outer loop
      vertex -93.426 105.376 10
      vertex -92.8948 107.555 10
      vertex -69.9071 126.294 10
    endloop
  endfacet
  facet normal 0 0 -1
    outer loop
      vertex -67.0849 126.536 10
      vertex -93.426 105.376 10
      vertex -69.9071 126.294 10
    endloop
  endfacet
  facet normal 0 0 -1
    outer loop
      vertex -94.518 100.544 10
      vertex -93.9629 103.041 10
      vertex -64.016 126.73 10
    endloop
  endfacet
  facet normal 0 0 -1
    outer loop
      vertex -60.6877 126.882 10
      vertex -94.518 100.544 10
      vertex -64.016 126.73 10
    endloop
  endfacet
  facet normal 0 0 -1
    outer loop
      vertex -60.6877 126.882 10
      vertex -95.104 97.8819 10
      vertex -94.518 100.544 10
    endloop
  endfacet
  facet normal 0 0 -1
    outer loop
      vertex -57.0873 126.995 10
      vertex -95.7335 95.0476 10
      vertex -95.104 97.8819 10
    endloop
  endfacet
  facet normal 0 0 -1
    outer loop
      vertex -53.2023 127.076 10
      vertex -96.419 92.0363 10
      vertex -95.7335 95.0476 10
    endloop
  endfacet
  facet normal 0 -0 -1
    outer loop
      vertex -53.2023 127.076 10
      vertex -49.0201 127.131 10
      vertex -96.419 92.0363 10
    endloop
  endfacet
  facet normal 0 -0 -1
    outer loop
      vertex -96.419 92.0363 10
      vertex -49.0201 127.131 10
      vertex -97.1733 88.8426 10
    endloop
  endfacet
  facet normal 0 0 -1
    outer loop
      vertex -97.1733 88.8426 10
      vertex -49.0201 127.131 10
      vertex 1.69435 79.6859 10
    endloop
  endfacet
  facet normal 0 0 -1
    outer loop
      vertex 1.88928 75.4968 10
      vertex -97.1733 88.8426 10
      vertex 1.69435 79.6859 10
    endloop
  endfacet
  facet normal 0 0 -1
    outer loop
      vertex 1.88928 75.4968 10
      vertex -98.0089 85.461 10
      vertex -97.1733 88.8426 10
    endloop
  endfacet
  facet normal -0 -0 -1
    outer loop
      vertex 1.88928 75.4968 10
      vertex 2.06665 71.0684 10
      vertex -98.0089 85.461 10
    endloop
  endfacet
  facet normal 0 -0 -1
    outer loop
      vertex -98.0089 85.461 10
      vertex 2.06665 71.0684 10
      vertex -98.9385 81.8862 10
    endloop
  endfacet
  facet normal 0 0 -1
    outer loop
      vertex -98.9385 81.8862 10
      vertex 2.06665 71.0684 10
      vertex 2.22812 66.3941 10
    endloop
  endfacet
  facet normal 0 0 -1
    outer loop
      vertex -99.9747 78.1129 10
      vertex -98.9385 81.8862 10
      vertex -46.7891 15.1166 10
    endloop
  endfacet
  facet normal 0 0 -1
    outer loop
      vertex -46.7891 15.1166 10
      vertex -98.9385 81.8862 10
      vertex 2.22812 66.3941 10
    endloop
  endfacet
  facet normal 0 0 -1
    outer loop
      vertex -46.7891 15.1166 10
      vertex -101.13 74.1357 10
      vertex -99.9747 78.1129 10
    endloop
  endfacet
  facet normal -0 0 -1
    outer loop
      vertex 2.37535 61.4671 10
      vertex -46.7891 15.1166 10
      vertex 2.22812 66.3941 10
    endloop
  endfacet
  facet normal 0 -0 -1
    outer loop
      vertex -101.13 74.1357 10
      vertex -46.7891 15.1166 10
      vertex -102.417 69.9492 10
    endloop
  endfacet
  facet normal 0 0 -1
    outer loop
      vertex 2.37535 61.4671 10
      vertex -46.5165 15.0921 10
      vertex -46.7891 15.1166 10
    endloop
  endfacet
  facet normal 0 0 -1
    outer loop
      vertex -103.849 65.5481 10
      vertex -102.417 69.9492 10
      vertex -46.7891 15.1166 10
    endloop
  endfacet
  facet normal 0 0 -1
    outer loop
      vertex -105.438 60.9269 10
      vertex -103.849 65.5481 10
      vertex -46.7891 15.1166 10
    endloop
  endfacet
  facet normal 0 0 -1
    outer loop
      vertex -107.196 56.0804 10
      vertex -105.438 60.9269 10
      vertex -46.7891 15.1166 10
    endloop
  endfacet
  facet normal 0 -0 -1
    outer loop
      vertex 2.37535 61.4671 10
      vertex 2.50998 56.2809 10
      vertex -46.5165 15.0921 10
    endloop
  endfacet
  facet normal 0 0 -1
    outer loop
      vertex -46.7891 15.1166 10
      vertex -96.4962 15.1646 10
      vertex -107.196 56.0804 10
    endloop
  endfacet
  facet normal 0 -0 -1
    outer loop
      vertex -107.196 56.0804 10
      vertex -96.4962 15.1646 10
      vertex -109.137 51.0031 10
    endloop
  endfacet
  facet normal 0 -0 -1
    outer loop
      vertex -109.137 51.0031 10
      vertex -96.4962 15.1646 10
      vertex -111.272 45.6897 10
    endloop
  endfacet
  facet normal 0 0 -1
    outer loop
      vertex -46.5165 15.0921 10
      vertex 2.50998 56.2809 10
      vertex 2.6337 50.8288 10
    endloop
  endfacet
  facet normal 0 0 -1
    outer loop
      vertex -113.615 40.1348 10
      vertex -111.272 45.6897 10
      vertex -96.4962 15.1646 10
    endloop
  endfacet
  facet normal 0 0 -1
    outer loop
      vertex -46.26 15.0219 10
      vertex -46.5165 15.0921 10
      vertex 2.6337 50.8288 10
    endloop
  endfacet
  facet normal 0 0 -1
    outer loop
      vertex -96.4962 15.1646 10
      vertex -116.179 34.3331 10
      vertex -113.615 40.1348 10
    endloop
  endfacet
  facet normal -0 0 -1
    outer loop
      vertex 2.74814 45.1042 10
      vertex -46.26 15.0219 10
      vertex 2.6337 50.8288 10
    endloop
  endfacet
  facet normal 0 0 -1
    outer loop
      vertex -116.179 34.3331 10
      vertex -96.4962 15.1646 10
      vertex -106.48 15.1646 10
    endloop
  endfacet
  facet normal 0 0 -1
    outer loop
      vertex -118.975 28.2792 10
      vertex -116.179 34.3331 10
      vertex -106.48 15.1646 10
    endloop
  endfacet
  facet normal 0 0 -1
    outer loop
      vertex -120.02 23.0023 10
      vertex -118.975 28.2792 10
      vertex -106.48 15.1646 10
    endloop
  endfacet
  facet normal 0 0 -1
    outer loop
      vertex 2.74814 45.1042 10
      vertex -46.0239 14.9104 10
      vertex -46.26 15.0219 10
    endloop
  endfacet
  facet normal -0 0 -1
    outer loop
      vertex 3.0524 26.2284 10
      vertex -45.4806 14.3727 10
      vertex 2.95583 32.8106 10
    endloop
  endfacet
  facet normal 0 0 -1
    outer loop
      vertex -118.975 28.2792 10
      vertex -120.02 23.0023 10
      vertex -122.016 21.9677 10
    endloop
  endfacet
  facet normal 0 0 -1
    outer loop
      vertex -45.0538 2.5497 10
      vertex -45.2176 3.14746 10
      vertex -44.7927 1.99916 10
    endloop
  endfacet
  facet normal 0 -0 -1
    outer loop
      vertex 2.74814 45.1042 10
      vertex 2.85497 39.1003 10
      vertex -46.0239 14.9104 10
    endloop
  endfacet
  facet normal 0 0 -1
    outer loop
      vertex -46.0239 14.9104 10
      vertex 2.85497 39.1003 10
      vertex -45.8125 14.762 10
    endloop
  endfacet
  facet normal 0 0 -1
    outer loop
      vertex -45.6299 14.5813 10
      vertex -45.8125 14.762 10
      vertex 2.95583 32.8106 10
    endloop
  endfacet
  facet normal 0 0 -1
    outer loop
      vertex -45.8125 14.762 10
      vertex 2.85497 39.1003 10
      vertex 2.95583 32.8106 10
    endloop
  endfacet
  facet normal 0 0 -1
    outer loop
      vertex -45.4806 14.3727 10
      vertex -45.6299 14.5813 10
      vertex 2.95583 32.8106 10
    endloop
  endfacet
  facet normal 0 0 -1
    outer loop
      vertex -45.4806 14.3727 10
      vertex 3.0524 26.2284 10
      vertex -45.3686 14.1407 10
    endloop
  endfacet
  facet normal 0 0 -1
    outer loop
      vertex -45.3686 14.1407 10
      vertex 3.0524 26.2284 10
      vertex 3.14632 19.3471 10
    endloop
  endfacet
  facet normal 0 0 -1
    outer loop
      vertex -45.2984 13.8897 10
      vertex -45.3686 14.1407 10
      vertex -9.9366 0.246964 10
    endloop
  endfacet
  facet normal 0 0 -1
    outer loop
      vertex -45.2741 13.6243 10
      vertex -45.2984 13.8897 10
      vertex -9.9366 0.246964 10
    endloop
  endfacet
  facet normal 0 0 -1
    outer loop
      vertex -9.9366 0.246964 10
      vertex -45.3686 14.1407 10
      vertex 3.14632 19.3471 10
    endloop
  endfacet
  facet normal 0 0 -1
    outer loop
      vertex -44.7927 1.99916 10
      vertex -45.2741 3.78249 10
      vertex -44.4442 1.50586 10
    endloop
  endfacet
  facet normal 0 0 -1
    outer loop
      vertex -44.4442 1.50586 10
      vertex -45.2741 3.78249 10
      vertex -44.0183 1.07977 10
    endloop
  endfacet
  facet normal 0 0 -1
    outer loop
      vertex -44.7927 1.99916 10
      vertex -45.2176 3.14746 10
      vertex -45.2741 3.78249 10
    endloop
  endfacet
  facet normal 0 0 -1
    outer loop
      vertex -42.9741 0.469086 10
      vertex -43.525 0.73085 10
      vertex -42.3756 0.304474 10
    endloop
  endfacet
  facet normal 0 0 -1
    outer loop
      vertex -42.3756 0.304474 10
      vertex -43.525 0.73085 10
      vertex -44.0183 1.07977 10
    endloop
  endfacet
  facet normal 0 0 -1
    outer loop
      vertex -41.7395 0.246964 10
      vertex -42.3756 0.304474 10
      vertex -44.0183 1.07977 10
    endloop
  endfacet
  facet normal 0 0 -1
    outer loop
      vertex -45.2741 3.78249 10
      vertex -41.7395 0.246964 10
      vertex -44.0183 1.07977 10
    endloop
  endfacet
  facet normal 0 0 -1
    outer loop
      vertex -45.2741 3.78249 10
      vertex -45.2741 13.6243 10
      vertex -41.7395 0.246964 10
    endloop
  endfacet
  facet normal 0 0 -1
    outer loop
      vertex -41.7395 0.246964 10
      vertex -45.2741 13.6243 10
      vertex -9.9366 0.246964 10
    endloop
  endfacet
  facet normal 0 0 -1
    outer loop
      vertex -9.9366 0.246964 10
      vertex 3.14632 19.3471 10
      vertex 3.23926 12.16 10
    endloop
  endfacet
  facet normal 0 0 -1
    outer loop
      vertex 3.33287 4.6604 10
      vertex 2.14778 -0.760223 10
      vertex 2.03438 -0.514877 10
    endloop
  endfacet
  facet normal -0 0 -1
    outer loop
      vertex 3.33287 4.6604 10
      vertex -9.9366 0.246964 10
      vertex 3.23926 12.16 10
    endloop
  endfacet
  facet normal 0 0 -1
    outer loop
      vertex 3.33287 4.6604 10
      vertex 0.679214 0.247879 10
      vertex -9.9366 0.246964 10
    endloop
  endfacet
  facet normal 0 0 -1
    outer loop
      vertex 3.33287 4.6604 10
      vertex 0.966034 0.224426 10
      vertex 0.679214 0.247879 10
    endloop
  endfacet
  facet normal 0 -0 -1
    outer loop
      vertex 3.33287 4.6604 10
      vertex 3.42882 -3.15823 10
      vertex 2.14778 -0.760223 10
    endloop
  endfacet
  facet normal 0 0 -1
    outer loop
      vertex 3.33287 4.6604 10
      vertex 1.23364 0.154373 10
      vertex 0.966034 0.224426 10
    endloop
  endfacet
  facet normal 0 0 -1
    outer loop
      vertex 3.33287 4.6604 10
      vertex 1.47815 0.0415802 10
      vertex 1.23364 0.154373 10
    endloop
  endfacet
  facet normal 0 0 -1
    outer loop
      vertex 3.33287 4.6604 10
      vertex 1.69569 -0.110123 10
      vertex 1.47815 0.0415802 10
    endloop
  endfacet
  facet normal 0 0 -1
    outer loop
      vertex 3.33287 4.6604 10
      vertex 1.88239 -0.29689 10
      vertex 1.69569 -0.110123 10
    endloop
  endfacet
  facet normal 0 0 -1
    outer loop
      vertex 3.33287 4.6604 10
      vertex 2.03438 -0.514877 10
      vertex 1.88239 -0.29689 10
    endloop
  endfacet
  facet normal 0 0 -1
    outer loop
      vertex 2.14778 -0.760223 10
      vertex 3.42882 -3.15823 10
      vertex 2.2187 -1.02908 10
    endloop
  endfacet
  facet normal 0 0 -1
    outer loop
      vertex 2.2187 -1.02908 10
      vertex 3.42882 -3.15823 10
      vertex 2.2433 -1.31761 10
    endloop
  endfacet
  facet normal 0 0 1
    outer loop
      vertex -7.54939 122.65 11
      vertex -8.4435 123.449 11
      vertex -9.38995 124.148 11
    endloop
  endfacet
  facet normal 0 0 1
    outer loop
      vertex -6.70599 121.745 11
      vertex -7.54939 122.65 11
      vertex -10.3904 124.754 11
    endloop
  endfacet
  facet normal 0 0 1
    outer loop
      vertex -10.3904 124.754 11
      vertex -7.54939 122.65 11
      vertex -9.38995 124.148 11
    endloop
  endfacet
  facet normal 0 0 1
    outer loop
      vertex -6.70599 121.745 11
      vertex -10.3904 124.754 11
      vertex -11.4466 125.274 11
    endloop
  endfacet
  facet normal 0 0 1
    outer loop
      vertex -6.70599 121.745 11
      vertex -11.4466 125.274 11
      vertex -5.91164 120.727 11
    endloop
  endfacet
  facet normal 0 0 1
    outer loop
      vertex -11.4466 125.274 11
      vertex -12.5601 125.714 11
      vertex -5.91164 120.727 11
    endloop
  endfacet
  facet normal 0 0 1
    outer loop
      vertex -12.5601 125.714 11
      vertex -5.16466 119.589 11
      vertex -5.91164 120.727 11
    endloop
  endfacet
  facet normal 0 0 1
    outer loop
      vertex -13.7325 126.08 11
      vertex -5.16466 119.589 11
      vertex -12.5601 125.714 11
    endloop
  endfacet
  facet normal 0 0 1
    outer loop
      vertex -4.46342 118.325 11
      vertex -5.16466 119.589 11
      vertex -13.7325 126.08 11
    endloop
  endfacet
  facet normal 0 0 1
    outer loop
      vertex -4.46342 118.325 11
      vertex -13.7325 126.08 11
      vertex -14.9657 126.381 11
    endloop
  endfacet
  facet normal 0 0 1
    outer loop
      vertex -4.46342 118.325 11
      vertex -14.9657 126.381 11
      vertex -16.2611 126.621 11
    endloop
  endfacet
  facet normal 0 0 1
    outer loop
      vertex -4.46342 118.325 11
      vertex -16.2611 126.621 11
      vertex -3.80626 116.928 11
    endloop
  endfacet
  facet normal 0 0 1
    outer loop
      vertex -16.2611 126.621 11
      vertex -17.6205 126.808 11
      vertex -3.80626 116.928 11
    endloop
  endfacet
  facet normal 0 0 1
    outer loop
      vertex -17.6205 126.808 11
      vertex -3.19151 115.391 11
      vertex -3.80626 116.928 11
    endloop
  endfacet
  facet normal 0 0 1
    outer loop
      vertex -19.0455 126.949 11
      vertex -3.19151 115.391 11
      vertex -17.6205 126.808 11
    endloop
  endfacet
  facet normal 0 0 1
    outer loop
      vertex -2.61752 113.708 11
      vertex -3.19151 115.391 11
      vertex -19.0455 126.949 11
    endloop
  endfacet
  facet normal 0 0 1
    outer loop
      vertex -2.61752 113.708 11
      vertex -19.0455 126.949 11
      vertex -20.5377 127.05 11
    endloop
  endfacet
  facet normal 0 0 1
    outer loop
      vertex -2.61752 113.708 11
      vertex -20.5377 127.05 11
      vertex -2.08264 111.872 11
    endloop
  endfacet
  facet normal 0 0 1
    outer loop
      vertex -20.5377 127.05 11
      vertex -22.0989 127.117 11
      vertex -2.08264 111.872 11
    endloop
  endfacet
  facet normal 0 0 1
    outer loop
      vertex -22.0989 127.117 11
      vertex -1.58521 109.877 11
      vertex -2.08264 111.872 11
    endloop
  endfacet
  facet normal 0 0 1
    outer loop
      vertex -23.7307 127.158 11
      vertex -1.58521 109.877 11
      vertex -22.0989 127.117 11
    endloop
  endfacet
  facet normal 0 0 1
    outer loop
      vertex -1.12355 107.715 11
      vertex -1.58521 109.877 11
      vertex -23.7307 127.158 11
    endloop
  endfacet
  facet normal 0 0 1
    outer loop
      vertex -1.12355 107.715 11
      vertex -23.7307 127.158 11
      vertex -25.4348 127.179 11
    endloop
  endfacet
  facet normal 0 0 1
    outer loop
      vertex -1.12355 107.715 11
      vertex -25.4348 127.179 11
      vertex -0.696014 105.381 11
    endloop
  endfacet
  facet normal 0 0 1
    outer loop
      vertex -25.4348 127.179 11
      vertex -27.2127 127.187 11
      vertex -0.696014 105.381 11
    endloop
  endfacet
  facet normal 0 0 1
    outer loop
      vertex -27.2127 127.187 11
      vertex -0.300964 102.867 11
      vertex -0.696014 105.381 11
    endloop
  endfacet
  facet normal 0 0 1
    outer loop
      vertex -29.0662 127.188 11
      vertex -0.300964 102.867 11
      vertex -27.2127 127.187 11
    endloop
  endfacet
  facet normal 0 0 1
    outer loop
      vertex 0.0632477 100.167 11
      vertex -0.300964 102.867 11
      vertex -29.0662 127.188 11
    endloop
  endfacet
  facet normal 0 0 1
    outer loop
      vertex 0.0632477 100.167 11
      vertex -29.0662 127.188 11
      vertex -34.5637 127.187 11
    endloop
  endfacet
  facet normal 0 0 1
    outer loop
      vertex 0.0632477 100.167 11
      vertex -34.5637 127.187 11
      vertex 0.398331 97.2742 11
    endloop
  endfacet
  facet normal 0 0 1
    outer loop
      vertex -34.5637 127.187 11
      vertex 0.705902 94.182 11
      vertex 0.398331 97.2742 11
    endloop
  endfacet
  facet normal 0 0 1
    outer loop
      vertex 0.98764 90.8837 11
      vertex 0.705902 94.182 11
      vertex -34.5637 127.187 11
    endloop
  endfacet
  facet normal 0 0 1
    outer loop
      vertex 0.98764 90.8837 11
      vertex -34.5637 127.187 11
      vertex -39.7134 127.181 11
    endloop
  endfacet
  facet normal 0 0 1
    outer loop
      vertex 0.98764 90.8837 11
      vertex -39.7134 127.181 11
      vertex 1.24519 87.3727 11
    endloop
  endfacet
  facet normal 0 0 1
    outer loop
      vertex -39.7134 127.181 11
      vertex -44.528 127.164 11
      vertex 1.24519 87.3727 11
    endloop
  endfacet
  facet normal 0 0 1
    outer loop
      vertex -44.528 127.164 11
      vertex 1.48021 83.6423 11
      vertex 1.24519 87.3727 11
    endloop
  endfacet
  facet normal -0 0 1
    outer loop
      vertex -49.0201 127.131 11
      vertex 1.48021 83.6423 11
      vertex -44.528 127.164 11
    endloop
  endfacet
  facet normal 0 0 1
    outer loop
      vertex 1.69435 79.6859 11
      vertex 1.48021 83.6423 11
      vertex -49.0201 127.131 11
    endloop
  endfacet
  facet normal -0 0 1
    outer loop
      vertex -57.0873 126.995 11
      vertex -95.7335 95.0476 11
      vertex -53.2023 127.076 11
    endloop
  endfacet
  facet normal -0 0 1
    outer loop
      vertex -60.6877 126.882 11
      vertex -95.104 97.8819 11
      vertex -57.0873 126.995 11
    endloop
  endfacet
  facet normal 0 0 1
    outer loop
      vertex -93.9629 103.041 11
      vertex -67.0849 126.536 11
      vertex -93.426 105.376 11
    endloop
  endfacet
  facet normal 0 0 1
    outer loop
      vertex -64.016 126.73 11
      vertex -67.0849 126.536 11
      vertex -93.9629 103.041 11
    endloop
  endfacet
  facet normal 0 0 1
    outer loop
      vertex -92.8948 107.555 11
      vertex -72.4951 125.998 11
      vertex -92.3565 109.585 11
    endloop
  endfacet
  facet normal 0 0 1
    outer loop
      vertex -72.4951 125.998 11
      vertex -74.8616 125.643 11
      vertex -92.3565 109.585 11
    endloop
  endfacet
  facet normal 0 0 1
    outer loop
      vertex -91.7986 111.469 11
      vertex -77.0192 125.223 11
      vertex -91.2085 113.214 11
    endloop
  endfacet
  facet normal 0 0 1
    outer loop
      vertex -90.5736 114.825 11
      vertex -78.9805 124.734 11
      vertex -80.7581 124.17 11
    endloop
  endfacet
  facet normal 0 0 1
    outer loop
      vertex -89.8811 116.307 11
      vertex -80.7581 124.17 11
      vertex -82.3647 123.525 11
    endloop
  endfacet
  facet normal 0 0 1
    outer loop
      vertex -89.1186 117.665 11
      vertex -82.3647 123.525 11
      vertex -83.8128 122.794 11
    endloop
  endfacet
  facet normal -0 0 1
    outer loop
      vertex -87.3328 120.033 11
      vertex -88.2734 118.906 11
      vertex -85.1151 121.972 11
    endloop
  endfacet
  facet normal 0 0 1
    outer loop
      vertex -87.3328 120.033 11
      vertex -85.1151 121.972 11
      vertex -86.2842 121.054 11
    endloop
  endfacet
  facet normal 0 0 1
    outer loop
      vertex -88.2734 118.906 11
      vertex -83.8128 122.794 11
      vertex -85.1151 121.972 11
    endloop
  endfacet
  facet normal 0 0 1
    outer loop
      vertex -89.1186 117.665 11
      vertex -83.8128 122.794 11
      vertex -88.2734 118.906 11
    endloop
  endfacet
  facet normal 0 0 1
    outer loop
      vertex -89.8811 116.307 11
      vertex -82.3647 123.525 11
      vertex -89.1186 117.665 11
    endloop
  endfacet
  facet normal 0 0 1
    outer loop
      vertex -90.5736 114.825 11
      vertex -80.7581 124.17 11
      vertex -89.8811 116.307 11
    endloop
  endfacet
  facet normal 0 0 1
    outer loop
      vertex -91.2085 113.214 11
      vertex -78.9805 124.734 11
      vertex -90.5736 114.825 11
    endloop
  endfacet
  facet normal 0 0 1
    outer loop
      vertex -77.0192 125.223 11
      vertex -78.9805 124.734 11
      vertex -91.2085 113.214 11
    endloop
  endfacet
  facet normal 0 0 1
    outer loop
      vertex -74.8616 125.643 11
      vertex -77.0192 125.223 11
      vertex -91.7986 111.469 11
    endloop
  endfacet
  facet normal 0 0 1
    outer loop
      vertex -74.8616 125.643 11
      vertex -91.7986 111.469 11
      vertex -92.3565 109.585 11
    endloop
  endfacet
  facet normal 0 0 1
    outer loop
      vertex -69.9071 126.294 11
      vertex -72.4951 125.998 11
      vertex -92.8948 107.555 11
    endloop
  endfacet
  facet normal 0 0 1
    outer loop
      vertex -69.9071 126.294 11
      vertex -92.8948 107.555 11
      vertex -93.426 105.376 11
    endloop
  endfacet
  facet normal -0 0 1
    outer loop
      vertex -69.9071 126.294 11
      vertex -93.426 105.376 11
      vertex -67.0849 126.536 11
    endloop
  endfacet
  facet normal 0 0 1
    outer loop
      vertex -64.016 126.73 11
      vertex -93.9629 103.041 11
      vertex -94.518 100.544 11
    endloop
  endfacet
  facet normal -0 0 1
    outer loop
      vertex -64.016 126.73 11
      vertex -94.518 100.544 11
      vertex -60.6877 126.882 11
    endloop
  endfacet
  facet normal -0 0 1
    outer loop
      vertex -94.518 100.544 11
      vertex -95.104 97.8819 11
      vertex -60.6877 126.882 11
    endloop
  endfacet
  facet normal -0 0 1
    outer loop
      vertex -95.104 97.8819 11
      vertex -95.7335 95.0476 11
      vertex -57.0873 126.995 11
    endloop
  endfacet
  facet normal -0 0 1
    outer loop
      vertex -95.7335 95.0476 11
      vertex -96.419 92.0363 11
      vertex -53.2023 127.076 11
    endloop
  endfacet
  facet normal 0 0 1
    outer loop
      vertex -96.419 92.0363 11
      vertex -49.0201 127.131 11
      vertex -53.2023 127.076 11
    endloop
  endfacet
  facet normal 0 0 1
    outer loop
      vertex -97.1733 88.8426 11
      vertex -49.0201 127.131 11
      vertex -96.419 92.0363 11
    endloop
  endfacet
  facet normal 0 0 1
    outer loop
      vertex 1.69435 79.6859 11
      vertex -49.0201 127.131 11
      vertex -97.1733 88.8426 11
    endloop
  endfacet
  facet normal 0 0 1
    outer loop
      vertex 1.69435 79.6859 11
      vertex -97.1733 88.8426 11
      vertex 1.88928 75.4968 11
    endloop
  endfacet
  facet normal 0 0 1
    outer loop
      vertex -97.1733 88.8426 11
      vertex -98.0089 85.461 11
      vertex 1.88928 75.4968 11
    endloop
  endfacet
  facet normal 0 0 1
    outer loop
      vertex -98.0089 85.461 11
      vertex 2.06665 71.0684 11
      vertex 1.88928 75.4968 11
    endloop
  endfacet
  facet normal -0 0 1
    outer loop
      vertex -98.9385 81.8862 11
      vertex 2.06665 71.0684 11
      vertex -98.0089 85.461 11
    endloop
  endfacet
  facet normal 0 0 1
    outer loop
      vertex 2.22812 66.3941 11
      vertex 2.06665 71.0684 11
      vertex -98.9385 81.8862 11
    endloop
  endfacet
  facet normal 0 0 1
    outer loop
      vertex -46.7891 15.1166 11
      vertex -98.9385 81.8862 11
      vertex -99.9747 78.1129 11
    endloop
  endfacet
  facet normal 0 0 1
    outer loop
      vertex 2.22812 66.3941 11
      vertex -98.9385 81.8862 11
      vertex -46.7891 15.1166 11
    endloop
  endfacet
  facet normal 0 0 1
    outer loop
      vertex -99.9747 78.1129 11
      vertex -101.13 74.1357 11
      vertex -46.7891 15.1166 11
    endloop
  endfacet
  facet normal 0 0 1
    outer loop
      vertex 2.22812 66.3941 11
      vertex -46.7891 15.1166 11
      vertex 2.37535 61.4671 11
    endloop
  endfacet
  facet normal -0 0 1
    outer loop
      vertex -102.417 69.9492 11
      vertex -46.7891 15.1166 11
      vertex -101.13 74.1357 11
    endloop
  endfacet
  facet normal -0 0 1
    outer loop
      vertex -46.7891 15.1166 11
      vertex -46.5165 15.0921 11
      vertex 2.37535 61.4671 11
    endloop
  endfacet
  facet normal 0 0 1
    outer loop
      vertex -46.7891 15.1166 11
      vertex -102.417 69.9492 11
      vertex -103.849 65.5481 11
    endloop
  endfacet
  facet normal 0 0 1
    outer loop
      vertex -46.7891 15.1166 11
      vertex -103.849 65.5481 11
      vertex -105.438 60.9269 11
    endloop
  endfacet
  facet normal 0 0 1
    outer loop
      vertex -46.7891 15.1166 11
      vertex -105.438 60.9269 11
      vertex -107.196 56.0804 11
    endloop
  endfacet
  facet normal 0 0 1
    outer loop
      vertex -46.5165 15.0921 11
      vertex 2.50998 56.2809 11
      vertex 2.37535 61.4671 11
    endloop
  endfacet
  facet normal 0 0 1
    outer loop
      vertex -107.196 56.0804 11
      vertex -96.4962 15.1646 11
      vertex -46.7891 15.1166 11
    endloop
  endfacet
  facet normal -0 0 1
    outer loop
      vertex -109.137 51.0031 11
      vertex -96.4962 15.1646 11
      vertex -107.196 56.0804 11
    endloop
  endfacet
  facet normal -0 0 1
    outer loop
      vertex -111.272 45.6897 11
      vertex -96.4962 15.1646 11
      vertex -109.137 51.0031 11
    endloop
  endfacet
  facet normal 0 0 1
    outer loop
      vertex 2.6337 50.8288 11
      vertex 2.50998 56.2809 11
      vertex -46.5165 15.0921 11
    endloop
  endfacet
  facet normal 0 0 1
    outer loop
      vertex -96.4962 15.1646 11
      vertex -111.272 45.6897 11
      vertex -113.615 40.1348 11
    endloop
  endfacet
  facet normal 0 0 1
    outer loop
      vertex 2.6337 50.8288 11
      vertex -46.5165 15.0921 11
      vertex -46.26 15.0219 11
    endloop
  endfacet
  facet normal 0 0 1
    outer loop
      vertex -113.615 40.1348 11
      vertex -116.179 34.3331 11
      vertex -96.4962 15.1646 11
    endloop
  endfacet
  facet normal 0 0 1
    outer loop
      vertex 2.6337 50.8288 11
      vertex -46.26 15.0219 11
      vertex 2.74814 45.1042 11
    endloop
  endfacet
  facet normal 0 -0 1
    outer loop
      vertex -106.48 15.1646 11
      vertex -96.4962 15.1646 11
      vertex -116.179 34.3331 11
    endloop
  endfacet
  facet normal 0 0 1
    outer loop
      vertex -106.48 15.1646 11
      vertex -116.179 34.3331 11
      vertex -118.975 28.2792 11
    endloop
  endfacet
  facet normal 0 0 1
    outer loop
      vertex -106.48 15.1646 11
      vertex -118.975 28.2792 11
      vertex -120.02 23.0023 11
    endloop
  endfacet
  facet normal -0 0 1
    outer loop
      vertex -46.26 15.0219 11
      vertex -46.0239 14.9104 11
      vertex 2.74814 45.1042 11
    endloop
  endfacet
  facet normal 0 0 1
    outer loop
      vertex 2.95583 32.8106 11
      vertex -45.4806 14.3727 11
      vertex 3.0524 26.2284 11
    endloop
  endfacet
  facet normal 0 0 1
    outer loop
      vertex -122.016 21.9677 11
      vertex -120.02 23.0023 11
      vertex -118.975 28.2792 11
    endloop
  endfacet
  facet normal 0 0 1
    outer loop
      vertex -44.7927 1.99916 11
      vertex -45.2176 3.14746 11
      vertex -45.0538 2.5497 11
    endloop
  endfacet
  facet normal 0 0 1
    outer loop
      vertex -46.0239 14.9104 11
      vertex 2.85497 39.1003 11
      vertex 2.74814 45.1042 11
    endloop
  endfacet
  facet normal 0 -0 1
    outer loop
      vertex -45.8125 14.762 11
      vertex 2.85497 39.1003 11
      vertex -46.0239 14.9104 11
    endloop
  endfacet
  facet normal 0 0 1
    outer loop
      vertex 2.95583 32.8106 11
      vertex -45.8125 14.762 11
      vertex -45.6299 14.5813 11
    endloop
  endfacet
  facet normal 0 0 1
    outer loop
      vertex 2.95583 32.8106 11
      vertex 2.85497 39.1003 11
      vertex -45.8125 14.762 11
    endloop
  endfacet
  facet normal 0 0 1
    outer loop
      vertex 2.95583 32.8106 11
      vertex -45.6299 14.5813 11
      vertex -45.4806 14.3727 11
    endloop
  endfacet
  facet normal 0 -0 1
    outer loop
      vertex -45.3686 14.1407 11
      vertex 3.0524 26.2284 11
      vertex -45.4806 14.3727 11
    endloop
  endfacet
  facet normal 0 0 1
    outer loop
      vertex 3.14632 19.3471 11
      vertex 3.0524 26.2284 11
      vertex -45.3686 14.1407 11
    endloop
  endfacet
  facet normal 0 0 1
    outer loop
      vertex -9.9366 0.246964 11
      vertex -45.3686 14.1407 11
      vertex -45.2984 13.8897 11
    endloop
  endfacet
  facet normal 0 0 1
    outer loop
      vertex -9.9366 0.246964 11
      vertex -45.2984 13.8897 11
      vertex -45.2741 13.6243 11
    endloop
  endfacet
  facet normal 0 0 1
    outer loop
      vertex 3.14632 19.3471 11
      vertex -45.3686 14.1407 11
      vertex -9.9366 0.246964 11
    endloop
  endfacet
  facet normal 0 0 1
    outer loop
      vertex -44.4442 1.50586 11
      vertex -45.2741 3.78249 11
      vertex -44.7927 1.99916 11
    endloop
  endfacet
  facet normal 0 0 1
    outer loop
      vertex -44.0183 1.07977 11
      vertex -45.2741 3.78249 11
      vertex -44.4442 1.50586 11
    endloop
  endfacet
  facet normal 0 0 1
    outer loop
      vertex -45.2741 3.78249 11
      vertex -45.2176 3.14746 11
      vertex -44.7927 1.99916 11
    endloop
  endfacet
  facet normal 0 0 1
    outer loop
      vertex -42.3756 0.304474 11
      vertex -43.525 0.73085 11
      vertex -42.9741 0.469086 11
    endloop
  endfacet
  facet normal 0 0 1
    outer loop
      vertex -44.0183 1.07977 11
      vertex -43.525 0.73085 11
      vertex -42.3756 0.304474 11
    endloop
  endfacet
  facet normal 0 0 1
    outer loop
      vertex -44.0183 1.07977 11
      vertex -42.3756 0.304474 11
      vertex -41.7395 0.246964 11
    endloop
  endfacet
  facet normal -0 -0 1
    outer loop
      vertex -44.0183 1.07977 11
      vertex -41.7395 0.246964 11
      vertex -45.2741 3.78249 11
    endloop
  endfacet
  facet normal 0 0 1
    outer loop
      vertex -41.7395 0.246964 11
      vertex -45.2741 13.6243 11
      vertex -45.2741 3.78249 11
    endloop
  endfacet
  facet normal 0 0 1
    outer loop
      vertex -9.9366 0.246964 11
      vertex -45.2741 13.6243 11
      vertex -41.7395 0.246964 11
    endloop
  endfacet
  facet normal 0 0 1
    outer loop
      vertex 3.23926 12.16 11
      vertex 3.14632 19.3471 11
      vertex -9.9366 0.246964 11
    endloop
  endfacet
  facet normal -0 0 1
    outer loop
      vertex 2.03438 -0.514877 11
      vertex 2.14778 -0.760223 11
      vertex 3.33287 4.6604 11
    endloop
  endfacet
  facet normal 0 0 1
    outer loop
      vertex 3.23926 12.16 11
      vertex -9.9366 0.246964 11
      vertex 3.33287 4.6604 11
    endloop
  endfacet
  facet normal 0 0 1
    outer loop
      vertex -9.9366 0.246964 11
      vertex 0.679214 0.247879 11
      vertex 3.33287 4.6604 11
    endloop
  endfacet
  facet normal -0 0 1
    outer loop
      vertex 0.679214 0.247879 11
      vertex 0.966034 0.224426 11
      vertex 3.33287 4.6604 11
    endloop
  endfacet
  facet normal -0 0 1
    outer loop
      vertex 2.14778 -0.760223 11
      vertex 3.42882 -3.15823 11
      vertex 3.33287 4.6604 11
    endloop
  endfacet
  facet normal -0 0 1
    outer loop
      vertex 0.966034 0.224426 11
      vertex 1.23364 0.154373 11
      vertex 3.33287 4.6604 11
    endloop
  endfacet
  facet normal -0 0 1
    outer loop
      vertex 1.23364 0.154373 11
      vertex 1.47815 0.0415802 11
      vertex 3.33287 4.6604 11
    endloop
  endfacet
  facet normal -0 0 1
    outer loop
      vertex 1.47815 0.0415802 11
      vertex 1.69569 -0.110123 11
      vertex 3.33287 4.6604 11
    endloop
  endfacet
  facet normal -0 0 1
    outer loop
      vertex 1.69569 -0.110123 11
      vertex 1.88239 -0.29689 11
      vertex 3.33287 4.6604 11
    endloop
  endfacet
  facet normal -0 0 1
    outer loop
      vertex 1.88239 -0.29689 11
      vertex 2.03438 -0.514877 11
      vertex 3.33287 4.6604 11
    endloop
  endfacet
  facet normal -0 -0 1
    outer loop
      vertex 2.2187 -1.02908 11
      vertex 3.42882 -3.15823 11
      vertex 2.14778 -0.760223 11
    endloop
  endfacet
  facet normal -0 -0 1
    outer loop
      vertex 2.2433 -1.31761 11
      vertex 3.42882 -3.15823 11
      vertex 2.2187 -1.02908 11
    endloop
  endfacet
  facet normal 0.999922 0.012481 0
    outer loop
      vertex 3.23926 12.16 10
      vertex 3.33287 4.6604 11
      vertex 3.33287 4.6604 10
    endloop
  endfacet
  facet normal 0.999922 0.012481 -0
    outer loop
      vertex 3.23926 12.16 10
      vertex 3.23926 12.16 11
      vertex 3.33287 4.6604 11
    endloop
  endfacet
  facet normal 0.999916 0.0129304 0
    outer loop
      vertex 3.14632 19.3471 10
      vertex 3.23926 12.16 11
      vertex 3.23926 12.16 10
    endloop
  endfacet
  facet normal 0.999916 0.0129304 -0
    outer loop
      vertex 3.14632 19.3471 10
      vertex 3.14632 19.3471 11
      vertex 3.23926 12.16 11
    endloop
  endfacet
  facet normal 0.999907 0.0136473 0
    outer loop
      vertex 3.0524 26.2284 10
      vertex 3.14632 19.3471 11
      vertex 3.14632 19.3471 10
    endloop
  endfacet
  facet normal 0.999907 0.0136473 -0
    outer loop
      vertex 3.0524 26.2284 10
      vertex 3.0524 26.2284 11
      vertex 3.14632 19.3471 11
    endloop
  endfacet
  facet normal 0.999892 0.0146698 0
    outer loop
      vertex 2.95583 32.8106 10
      vertex 3.0524 26.2284 11
      vertex 3.0524 26.2284 10
    endloop
  endfacet
  facet normal 0.999892 0.0146698 -0
    outer loop
      vertex 2.95583 32.8106 10
      vertex 2.95583 32.8106 11
      vertex 3.0524 26.2284 11
    endloop
  endfacet
  facet normal 0.999871 0.0160337 0
    outer loop
      vertex 2.85497 39.1003 10
      vertex 2.95583 32.8106 11
      vertex 2.95583 32.8106 10
    endloop
  endfacet
  facet normal 0.999871 0.0160337 -0
    outer loop
      vertex 2.85497 39.1003 10
      vertex 2.85497 39.1003 11
      vertex 2.95583 32.8106 11
    endloop
  endfacet
  facet normal 0.999842 0.0177906 0
    outer loop
      vertex 2.74814 45.1042 10
      vertex 2.85497 39.1003 11
      vertex 2.85497 39.1003 10
    endloop
  endfacet
  facet normal 0.999842 0.0177906 -0
    outer loop
      vertex 2.74814 45.1042 10
      vertex 2.74814 45.1042 11
      vertex 2.85497 39.1003 11
    endloop
  endfacet
  facet normal 0.9998 0.0199869 0
    outer loop
      vertex 2.6337 50.8288 10
      vertex 2.74814 45.1042 11
      vertex 2.74814 45.1042 10
    endloop
  endfacet
  facet normal 0.9998 0.0199869 -0
    outer loop
      vertex 2.6337 50.8288 10
      vertex 2.6337 50.8288 11
      vertex 2.74814 45.1042 11
    endloop
  endfacet
  facet normal 0.999743 0.0226863 0
    outer loop
      vertex 2.50998 56.2809 10
      vertex 2.6337 50.8288 11
      vertex 2.6337 50.8288 10
    endloop
  endfacet
  facet normal 0.999743 0.0226863 -0
    outer loop
      vertex 2.50998 56.2809 10
      vertex 2.50998 56.2809 11
      vertex 2.6337 50.8288 11
    endloop
  endfacet
  facet normal 0.999663 0.0259505 0
    outer loop
      vertex 2.37535 61.4671 10
      vertex 2.50998 56.2809 11
      vertex 2.50998 56.2809 10
    endloop
  endfacet
  facet normal 0.999663 0.0259505 -0
    outer loop
      vertex 2.37535 61.4671 10
      vertex 2.37535 61.4671 11
      vertex 2.50998 56.2809 11
    endloop
  endfacet
  facet normal 0.999554 0.0298689 0
    outer loop
      vertex 2.22812 66.3941 10
      vertex 2.37535 61.4671 11
      vertex 2.37535 61.4671 10
    endloop
  endfacet
  facet normal 0.999554 0.0298689 -0
    outer loop
      vertex 2.22812 66.3941 10
      vertex 2.22812 66.3941 11
      vertex 2.37535 61.4671 11
    endloop
  endfacet
  facet normal 0.999404 0.0345236 0
    outer loop
      vertex 2.06665 71.0684 10
      vertex 2.22812 66.3941 11
      vertex 2.22812 66.3941 10
    endloop
  endfacet
  facet normal 0.999404 0.0345236 -0
    outer loop
      vertex 2.06665 71.0684 10
      vertex 2.06665 71.0684 11
      vertex 2.22812 66.3941 11
    endloop
  endfacet
  facet normal 0.999199 0.0400208 0
    outer loop
      vertex 1.88928 75.4968 10
      vertex 2.06665 71.0684 11
      vertex 2.06665 71.0684 10
    endloop
  endfacet
  facet normal 0.999199 0.0400208 -0
    outer loop
      vertex 1.88928 75.4968 10
      vertex 1.88928 75.4968 11
      vertex 2.06665 71.0684 11
    endloop
  endfacet
  facet normal 0.998919 0.0464824 0
    outer loop
      vertex 1.69435 79.6859 10
      vertex 1.88928 75.4968 11
      vertex 1.88928 75.4968 10
    endloop
  endfacet
  facet normal 0.998919 0.0464824 -0
    outer loop
      vertex 1.69435 79.6859 10
      vertex 1.69435 79.6859 11
      vertex 1.88928 75.4968 11
    endloop
  endfacet
  facet normal 0.998538 0.0540459 0
    outer loop
      vertex 1.48021 83.6423 10
      vertex 1.69435 79.6859 11
      vertex 1.69435 79.6859 10
    endloop
  endfacet
  facet normal 0.998538 0.0540459 -0
    outer loop
      vertex 1.48021 83.6423 10
      vertex 1.48021 83.6423 11
      vertex 1.69435 79.6859 11
    endloop
  endfacet
  facet normal 0.998021 0.0628766 0
    outer loop
      vertex 1.24519 87.3727 10
      vertex 1.48021 83.6423 11
      vertex 1.48021 83.6423 10
    endloop
  endfacet
  facet normal 0.998021 0.0628766 -0
    outer loop
      vertex 1.24519 87.3727 10
      vertex 1.24519 87.3727 11
      vertex 1.48021 83.6423 11
    endloop
  endfacet
  facet normal 0.99732 0.0731586 0
    outer loop
      vertex 0.98764 90.8837 10
      vertex 1.24519 87.3727 11
      vertex 1.24519 87.3727 10
    endloop
  endfacet
  facet normal 0.99732 0.0731586 -0
    outer loop
      vertex 0.98764 90.8837 10
      vertex 0.98764 90.8837 11
      vertex 1.24519 87.3727 11
    endloop
  endfacet
  facet normal 0.996372 0.0851092 0
    outer loop
      vertex 0.705902 94.182 10
      vertex 0.98764 90.8837 11
      vertex 0.98764 90.8837 10
    endloop
  endfacet
  facet normal 0.996372 0.0851092 -0
    outer loop
      vertex 0.705902 94.182 10
      vertex 0.705902 94.182 11
      vertex 0.98764 90.8837 11
    endloop
  endfacet
  facet normal 0.99509 0.0989783 0
    outer loop
      vertex 0.398331 97.2742 10
      vertex 0.705902 94.182 11
      vertex 0.705902 94.182 10
    endloop
  endfacet
  facet normal 0.99509 0.0989783 -0
    outer loop
      vertex 0.398331 97.2742 10
      vertex 0.398331 97.2742 11
      vertex 0.705902 94.182 11
    endloop
  endfacet
  facet normal 0.993358 0.115064 0
    outer loop
      vertex 0.0632477 100.167 10
      vertex 0.398331 97.2742 11
      vertex 0.398331 97.2742 10
    endloop
  endfacet
  facet normal 0.993358 0.115064 -0
    outer loop
      vertex 0.0632477 100.167 10
      vertex 0.0632477 100.167 11
      vertex 0.398331 97.2742 11
    endloop
  endfacet
  facet normal 0.991024 0.133682 0
    outer loop
      vertex -0.300964 102.867 10
      vertex 0.0632477 100.167 11
      vertex 0.0632477 100.167 10
    endloop
  endfacet
  facet normal 0.991024 0.133682 -0
    outer loop
      vertex -0.300964 102.867 10
      vertex -0.300964 102.867 11
      vertex 0.0632477 100.167 11
    endloop
  endfacet
  facet normal 0.987878 0.155235 0
    outer loop
      vertex -0.696014 105.381 10
      vertex -0.300964 102.867 11
      vertex -0.300964 102.867 10
    endloop
  endfacet
  facet normal 0.987878 0.155235 -0
    outer loop
      vertex -0.696014 105.381 10
      vertex -0.696014 105.381 11
      vertex -0.300964 102.867 11
    endloop
  endfacet
  facet normal 0.983634 0.180179 0
    outer loop
      vertex -1.12355 107.715 10
      vertex -0.696014 105.381 11
      vertex -0.696014 105.381 10
    endloop
  endfacet
  facet normal 0.983634 0.180179 -0
    outer loop
      vertex -1.12355 107.715 10
      vertex -1.12355 107.715 11
      vertex -0.696014 105.381 11
    endloop
  endfacet
  facet normal 0.977953 0.208826 0
    outer loop
      vertex -1.58521 109.877 10
      vertex -1.12355 107.715 11
      vertex -1.12355 107.715 10
    endloop
  endfacet
  facet normal 0.977953 0.208826 -0
    outer loop
      vertex -1.58521 109.877 10
      vertex -1.58521 109.877 11
      vertex -1.12355 107.715 11
    endloop
  endfacet
  facet normal 0.970293 0.241931 0
    outer loop
      vertex -2.08264 111.872 10
      vertex -1.58521 109.877 11
      vertex -1.58521 109.877 10
    endloop
  endfacet
  facet normal 0.970293 0.241931 -0
    outer loop
      vertex -2.08264 111.872 10
      vertex -2.08264 111.872 11
      vertex -1.58521 109.877 11
    endloop
  endfacet
  facet normal 0.960087 0.279701 0
    outer loop
      vertex -2.61752 113.708 10
      vertex -2.08264 111.872 11
      vertex -2.08264 111.872 10
    endloop
  endfacet
  facet normal 0.960087 0.279701 -0
    outer loop
      vertex -2.61752 113.708 10
      vertex -2.61752 113.708 11
      vertex -2.08264 111.872 11
    endloop
  endfacet
  facet normal 0.946469 0.322795 0
    outer loop
      vertex -3.19151 115.391 10
      vertex -2.61752 113.708 11
      vertex -2.61752 113.708 10
    endloop
  endfacet
  facet normal 0.946469 0.322795 -0
    outer loop
      vertex -3.19151 115.391 10
      vertex -3.19151 115.391 11
      vertex -2.61752 113.708 11
    endloop
  endfacet
  facet normal 0.928487 0.371365 0
    outer loop
      vertex -3.80626 116.928 10
      vertex -3.19151 115.391 11
      vertex -3.19151 115.391 10
    endloop
  endfacet
  facet normal 0.928487 0.371365 -0
    outer loop
      vertex -3.80626 116.928 10
      vertex -3.80626 116.928 11
      vertex -3.19151 115.391 11
    endloop
  endfacet
  facet normal 0.904882 0.425664 0
    outer loop
      vertex -4.46342 118.325 10
      vertex -3.80626 116.928 11
      vertex -3.80626 116.928 10
    endloop
  endfacet
  facet normal 0.904882 0.425664 -0
    outer loop
      vertex -4.46342 118.325 10
      vertex -4.46342 118.325 11
      vertex -3.80626 116.928 11
    endloop
  endfacet
  facet normal 0.874446 0.485124 0
    outer loop
      vertex -5.16466 119.589 10
      vertex -4.46342 118.325 11
      vertex -4.46342 118.325 10
    endloop
  endfacet
  facet normal 0.874446 0.485124 -0
    outer loop
      vertex -5.16466 119.589 10
      vertex -5.16466 119.589 11
      vertex -4.46342 118.325 11
    endloop
  endfacet
  facet normal 0.835991 0.548742 0
    outer loop
      vertex -5.91164 120.727 10
      vertex -5.16466 119.589 11
      vertex -5.16466 119.589 10
    endloop
  endfacet
  facet normal 0.835991 0.548742 -0
    outer loop
      vertex -5.91164 120.727 10
      vertex -5.91164 120.727 11
      vertex -5.16466 119.589 11
    endloop
  endfacet
  facet normal 0.788386 0.615181 0
    outer loop
      vertex -6.70599 121.745 10
      vertex -5.91164 120.727 11
      vertex -5.91164 120.727 10
    endloop
  endfacet
  facet normal 0.788386 0.615181 -0
    outer loop
      vertex -6.70599 121.745 10
      vertex -6.70599 121.745 11
      vertex -5.91164 120.727 11
    endloop
  endfacet
  facet normal 0.731566 0.681771 0
    outer loop
      vertex -7.54939 122.65 10
      vertex -6.70599 121.745 11
      vertex -6.70599 121.745 10
    endloop
  endfacet
  facet normal 0.731566 0.681771 -0
    outer loop
      vertex -7.54939 122.65 10
      vertex -7.54939 122.65 11
      vertex -6.70599 121.745 11
    endloop
  endfacet
  facet normal 0.666335 0.745653 0
    outer loop
      vertex -8.4435 123.449 10
      vertex -7.54939 122.65 11
      vertex -7.54939 122.65 10
    endloop
  endfacet
  facet normal 0.666335 0.745653 -0
    outer loop
      vertex -8.4435 123.449 10
      vertex -8.4435 123.449 11
      vertex -7.54939 122.65 11
    endloop
  endfacet
  facet normal 0.594089 0.8044 0
    outer loop
      vertex -9.38995 124.148 10
      vertex -8.4435 123.449 11
      vertex -8.4435 123.449 10
    endloop
  endfacet
  facet normal 0.594089 0.8044 -0
    outer loop
      vertex -9.38995 124.148 10
      vertex -9.38995 124.148 11
      vertex -8.4435 123.449 11
    endloop
  endfacet
  facet normal 0.518093 0.855324 0
    outer loop
      vertex -10.3904 124.754 10
      vertex -9.38995 124.148 11
      vertex -9.38995 124.148 10
    endloop
  endfacet
  facet normal 0.518093 0.855324 -0
    outer loop
      vertex -10.3904 124.754 10
      vertex -10.3904 124.754 11
      vertex -9.38995 124.148 11
    endloop
  endfacet
  facet normal 0.441701 0.897162 0
    outer loop
      vertex -11.4466 125.274 10
      vertex -10.3904 124.754 11
      vertex -10.3904 124.754 10
    endloop
  endfacet
  facet normal 0.441701 0.897162 -0
    outer loop
      vertex -11.4466 125.274 10
      vertex -11.4466 125.274 11
      vertex -10.3904 124.754 11
    endloop
  endfacet
  facet normal 0.367499 0.930024 0
    outer loop
      vertex -12.5601 125.714 10
      vertex -11.4466 125.274 11
      vertex -11.4466 125.274 10
    endloop
  endfacet
  facet normal 0.367499 0.930024 -0
    outer loop
      vertex -12.5601 125.714 10
      vertex -12.5601 125.714 11
      vertex -11.4466 125.274 11
    endloop
  endfacet
  facet normal 0.297997 0.954567 0
    outer loop
      vertex -13.7325 126.08 10
      vertex -12.5601 125.714 11
      vertex -12.5601 125.714 10
    endloop
  endfacet
  facet normal 0.297997 0.954567 -0
    outer loop
      vertex -13.7325 126.08 10
      vertex -13.7325 126.08 11
      vertex -12.5601 125.714 11
    endloop
  endfacet
  facet normal 0.237119 0.971481 0
    outer loop
      vertex -14.9657 126.381 10
      vertex -13.7325 126.08 11
      vertex -13.7325 126.08 10
    endloop
  endfacet
  facet normal 0.237119 0.971481 -0
    outer loop
      vertex -14.9657 126.381 10
      vertex -14.9657 126.381 11
      vertex -13.7325 126.08 11
    endloop
  endfacet
  facet normal 0.182171 0.983267 0
    outer loop
      vertex -16.2611 126.621 10
      vertex -14.9657 126.381 11
      vertex -14.9657 126.381 10
    endloop
  endfacet
  facet normal 0.182171 0.983267 -0
    outer loop
      vertex -16.2611 126.621 10
      vertex -16.2611 126.621 11
      vertex -14.9657 126.381 11
    endloop
  endfacet
  facet normal 0.136277 0.990671 0
    outer loop
      vertex -17.6205 126.808 10
      vertex -16.2611 126.621 11
      vertex -16.2611 126.621 10
    endloop
  endfacet
  facet normal 0.136277 0.990671 -0
    outer loop
      vertex -17.6205 126.808 10
      vertex -17.6205 126.808 11
      vertex -16.2611 126.621 11
    endloop
  endfacet
  facet normal 0.0984665 0.99514 0
    outer loop
      vertex -19.0455 126.949 10
      vertex -17.6205 126.808 11
      vertex -17.6205 126.808 10
    endloop
  endfacet
  facet normal 0.0984665 0.99514 -0
    outer loop
      vertex -19.0455 126.949 10
      vertex -19.0455 126.949 11
      vertex -17.6205 126.808 11
    endloop
  endfacet
  facet normal 0.0675308 0.997717 0
    outer loop
      vertex -20.5377 127.05 10
      vertex -19.0455 126.949 11
      vertex -19.0455 126.949 10
    endloop
  endfacet
  facet normal 0.0675308 0.997717 -0
    outer loop
      vertex -20.5377 127.05 10
      vertex -20.5377 127.05 11
      vertex -19.0455 126.949 11
    endloop
  endfacet
  facet normal 0.0428762 0.99908 0
    outer loop
      vertex -22.0989 127.117 10
      vertex -20.5377 127.05 11
      vertex -20.5377 127.05 10
    endloop
  endfacet
  facet normal 0.0428762 0.99908 -0
    outer loop
      vertex -22.0989 127.117 10
      vertex -22.0989 127.117 11
      vertex -20.5377 127.05 11
    endloop
  endfacet
  facet normal 0.0251177 0.999685 0
    outer loop
      vertex -23.7307 127.158 10
      vertex -22.0989 127.117 11
      vertex -22.0989 127.117 10
    endloop
  endfacet
  facet normal 0.0251177 0.999685 -0
    outer loop
      vertex -23.7307 127.158 10
      vertex -23.7307 127.158 11
      vertex -22.0989 127.117 11
    endloop
  endfacet
  facet normal 0.0123223 0.999924 0
    outer loop
      vertex -25.4348 127.179 10
      vertex -23.7307 127.158 11
      vertex -23.7307 127.158 10
    endloop
  endfacet
  facet normal 0.0123223 0.999924 -0
    outer loop
      vertex -25.4348 127.179 10
      vertex -25.4348 127.179 11
      vertex -23.7307 127.158 11
    endloop
  endfacet
  facet normal 0.00449965 0.99999 0
    outer loop
      vertex -27.2127 127.187 10
      vertex -25.4348 127.179 11
      vertex -25.4348 127.179 10
    endloop
  endfacet
  facet normal 0.00449965 0.99999 -0
    outer loop
      vertex -27.2127 127.187 10
      vertex -27.2127 127.187 11
      vertex -25.4348 127.179 11
    endloop
  endfacet
  facet normal 0.00053952 1 0
    outer loop
      vertex -29.0662 127.188 10
      vertex -27.2127 127.187 11
      vertex -27.2127 127.187 10
    endloop
  endfacet
  facet normal 0.00053952 1 -0
    outer loop
      vertex -29.0662 127.188 10
      vertex -29.0662 127.188 11
      vertex -27.2127 127.187 11
    endloop
  endfacet
  facet normal -0.000181901 1 0
    outer loop
      vertex -34.5637 127.187 10
      vertex -29.0662 127.188 11
      vertex -29.0662 127.188 10
    endloop
  endfacet
  facet normal -0.000181901 1 0
    outer loop
      vertex -34.5637 127.187 10
      vertex -34.5637 127.187 11
      vertex -29.0662 127.188 11
    endloop
  endfacet
  facet normal -0.00116512 0.999999 0
    outer loop
      vertex -39.7134 127.181 10
      vertex -34.5637 127.187 11
      vertex -34.5637 127.187 10
    endloop
  endfacet
  facet normal -0.00116512 0.999999 0
    outer loop
      vertex -39.7134 127.181 10
      vertex -39.7134 127.181 11
      vertex -34.5637 127.187 11
    endloop
  endfacet
  facet normal -0.0035309 0.999994 0
    outer loop
      vertex -44.528 127.164 10
      vertex -39.7134 127.181 11
      vertex -39.7134 127.181 10
    endloop
  endfacet
  facet normal -0.0035309 0.999994 0
    outer loop
      vertex -44.528 127.164 10
      vertex -44.528 127.164 11
      vertex -39.7134 127.181 11
    endloop
  endfacet
  facet normal -0.00734603 0.999973 0
    outer loop
      vertex -49.0201 127.131 10
      vertex -44.528 127.164 11
      vertex -44.528 127.164 10
    endloop
  endfacet
  facet normal -0.00734603 0.999973 0
    outer loop
      vertex -49.0201 127.131 10
      vertex -49.0201 127.131 11
      vertex -44.528 127.164 11
    endloop
  endfacet
  facet normal -0.0131498 0.999914 0
    outer loop
      vertex -53.2023 127.076 10
      vertex -49.0201 127.131 11
      vertex -49.0201 127.131 10
    endloop
  endfacet
  facet normal -0.0131498 0.999914 0
    outer loop
      vertex -53.2023 127.076 10
      vertex -53.2023 127.076 11
      vertex -49.0201 127.131 11
    endloop
  endfacet
  facet normal -0.0208449 0.999783 0
    outer loop
      vertex -57.0873 126.995 10
      vertex -53.2023 127.076 11
      vertex -53.2023 127.076 10
    endloop
  endfacet
  facet normal -0.0208449 0.999783 0
    outer loop
      vertex -57.0873 126.995 10
      vertex -57.0873 126.995 11
      vertex -53.2023 127.076 11
    endloop
  endfacet
  facet normal -0.03137 0.999508 0
    outer loop
      vertex -60.6877 126.882 10
      vertex -57.0873 126.995 11
      vertex -57.0873 126.995 10
    endloop
  endfacet
  facet normal -0.03137 0.999508 0
    outer loop
      vertex -60.6877 126.882 10
      vertex -60.6877 126.882 11
      vertex -57.0873 126.995 11
    endloop
  endfacet
  facet normal -0.0456214 0.998959 0
    outer loop
      vertex -64.016 126.73 10
      vertex -60.6877 126.882 11
      vertex -60.6877 126.882 10
    endloop
  endfacet
  facet normal -0.0456214 0.998959 0
    outer loop
      vertex -64.016 126.73 10
      vertex -64.016 126.73 11
      vertex -60.6877 126.882 11
    endloop
  endfacet
  facet normal -0.0630889 0.998008 0
    outer loop
      vertex -67.0849 126.536 10
      vertex -64.016 126.73 11
      vertex -64.016 126.73 10
    endloop
  endfacet
  facet normal -0.0630889 0.998008 0
    outer loop
      vertex -67.0849 126.536 10
      vertex -67.0849 126.536 11
      vertex -64.016 126.73 11
    endloop
  endfacet
  facet normal -0.0854352 0.996344 0
    outer loop
      vertex -69.9071 126.294 10
      vertex -67.0849 126.536 11
      vertex -67.0849 126.536 10
    endloop
  endfacet
  facet normal -0.0854352 0.996344 0
    outer loop
      vertex -69.9071 126.294 10
      vertex -69.9071 126.294 11
      vertex -67.0849 126.536 11
    endloop
  endfacet
  facet normal -0.113633 0.993523 0
    outer loop
      vertex -72.4951 125.998 10
      vertex -69.9071 126.294 11
      vertex -69.9071 126.294 10
    endloop
  endfacet
  facet normal -0.113633 0.993523 0
    outer loop
      vertex -72.4951 125.998 10
      vertex -72.4951 125.998 11
      vertex -69.9071 126.294 11
    endloop
  endfacet
  facet normal -0.148351 0.988935 0
    outer loop
      vertex -74.8616 125.643 10
      vertex -72.4951 125.998 11
      vertex -72.4951 125.998 10
    endloop
  endfacet
  facet normal -0.148351 0.988935 0
    outer loop
      vertex -74.8616 125.643 10
      vertex -74.8616 125.643 11
      vertex -72.4951 125.998 11
    endloop
  endfacet
  facet normal -0.191074 0.981576 0
    outer loop
      vertex -77.0192 125.223 10
      vertex -74.8616 125.643 11
      vertex -74.8616 125.643 10
    endloop
  endfacet
  facet normal -0.191074 0.981576 0
    outer loop
      vertex -77.0192 125.223 10
      vertex -77.0192 125.223 11
      vertex -74.8616 125.643 11
    endloop
  endfacet
  facet normal -0.241919 0.970297 0
    outer loop
      vertex -78.9805 124.734 10
      vertex -77.0192 125.223 11
      vertex -77.0192 125.223 10
    endloop
  endfacet
  facet normal -0.241919 0.970297 0
    outer loop
      vertex -78.9805 124.734 10
      vertex -78.9805 124.734 11
      vertex -77.0192 125.223 11
    endloop
  endfacet
  facet normal -0.302424 0.953173 0
    outer loop
      vertex -80.7581 124.17 10
      vertex -78.9805 124.734 11
      vertex -78.9805 124.734 10
    endloop
  endfacet
  facet normal -0.302424 0.953173 0
    outer loop
      vertex -80.7581 124.17 10
      vertex -80.7581 124.17 11
      vertex -78.9805 124.734 11
    endloop
  endfacet
  facet normal -0.372566 0.928006 0
    outer loop
      vertex -82.3647 123.525 10
      vertex -80.7581 124.17 11
      vertex -80.7581 124.17 10
    endloop
  endfacet
  facet normal -0.372566 0.928006 0
    outer loop
      vertex -82.3647 123.525 10
      vertex -82.3647 123.525 11
      vertex -80.7581 124.17 11
    endloop
  endfacet
  facet normal -0.450638 0.892707 0
    outer loop
      vertex -83.8128 122.794 10
      vertex -82.3647 123.525 11
      vertex -82.3647 123.525 10
    endloop
  endfacet
  facet normal -0.450638 0.892707 0
    outer loop
      vertex -83.8128 122.794 10
      vertex -83.8128 122.794 11
      vertex -82.3647 123.525 11
    endloop
  endfacet
  facet normal -0.533758 0.845637 0
    outer loop
      vertex -85.1151 121.972 10
      vertex -83.8128 122.794 11
      vertex -83.8128 122.794 10
    endloop
  endfacet
  facet normal -0.533758 0.845637 0
    outer loop
      vertex -85.1151 121.972 10
      vertex -85.1151 121.972 11
      vertex -83.8128 122.794 11
    endloop
  endfacet
  facet normal -0.617581 0.786507 0
    outer loop
      vertex -86.2842 121.054 10
      vertex -85.1151 121.972 11
      vertex -85.1151 121.972 10
    endloop
  endfacet
  facet normal -0.617581 0.786507 0
    outer loop
      vertex -86.2842 121.054 10
      vertex -86.2842 121.054 11
      vertex -85.1151 121.972 11
    endloop
  endfacet
  facet normal -0.697615 0.716473 0
    outer loop
      vertex -87.3328 120.033 10
      vertex -86.2842 121.054 11
      vertex -86.2842 121.054 10
    endloop
  endfacet
  facet normal -0.697615 0.716473 0
    outer loop
      vertex -87.3328 120.033 10
      vertex -87.3328 120.033 11
      vertex -86.2842 121.054 11
    endloop
  endfacet
  facet normal -0.767741 0.64076 0
    outer loop
      vertex -88.2734 118.906 10
      vertex -87.3328 120.033 11
      vertex -87.3328 120.033 10
    endloop
  endfacet
  facet normal -0.767741 0.64076 0
    outer loop
      vertex -88.2734 118.906 10
      vertex -88.2734 118.906 11
      vertex -87.3328 120.033 11
    endloop
  endfacet
  facet normal -0.826517 0.562911 0
    outer loop
      vertex -89.1186 117.665 10
      vertex -88.2734 118.906 11
      vertex -88.2734 118.906 10
    endloop
  endfacet
  facet normal -0.826517 0.562911 0
    outer loop
      vertex -89.1186 117.665 10
      vertex -89.1186 117.665 11
      vertex -88.2734 118.906 11
    endloop
  endfacet
  facet normal -0.871953 0.48959 0
    outer loop
      vertex -89.8811 116.307 10
      vertex -89.1186 117.665 11
      vertex -89.1186 117.665 10
    endloop
  endfacet
  facet normal -0.871953 0.48959 0
    outer loop
      vertex -89.8811 116.307 10
      vertex -89.8811 116.307 11
      vertex -89.1186 117.665 11
    endloop
  endfacet
  facet normal -0.905972 0.423337 0
    outer loop
      vertex -90.5736 114.825 10
      vertex -89.8811 116.307 11
      vertex -89.8811 116.307 10
    endloop
  endfacet
  facet normal -0.905972 0.423337 0
    outer loop
      vertex -90.5736 114.825 10
      vertex -90.5736 114.825 11
      vertex -89.8811 116.307 11
    endloop
  endfacet
  facet normal -0.930356 0.366656 0
    outer loop
      vertex -91.2085 113.214 10
      vertex -90.5736 114.825 11
      vertex -90.5736 114.825 10
    endloop
  endfacet
  facet normal -0.930356 0.366656 0
    outer loop
      vertex -91.2085 113.214 10
      vertex -91.2085 113.214 11
      vertex -90.5736 114.825 11
    endloop
  endfacet
  facet normal -0.947301 0.320345 0
    outer loop
      vertex -91.7986 111.469 10
      vertex -91.2085 113.214 11
      vertex -91.2085 113.214 10
    endloop
  endfacet
  facet normal -0.947301 0.320345 0
    outer loop
      vertex -91.7986 111.469 10
      vertex -91.7986 111.469 11
      vertex -91.2085 113.214 11
    endloop
  endfacet
  facet normal -0.958843 0.283938 0
    outer loop
      vertex -92.3565 109.585 10
      vertex -91.7986 111.469 11
      vertex -91.7986 111.469 10
    endloop
  endfacet
  facet normal -0.958843 0.283938 0
    outer loop
      vertex -92.3565 109.585 10
      vertex -92.3565 109.585 11
      vertex -91.7986 111.469 11
    endloop
  endfacet
  facet normal -0.966594 0.256314 0
    outer loop
      vertex -92.8948 107.555 10
      vertex -92.3565 109.585 11
      vertex -92.3565 109.585 10
    endloop
  endfacet
  facet normal -0.966594 0.256314 0
    outer loop
      vertex -92.8948 107.555 10
      vertex -92.8948 107.555 11
      vertex -92.3565 109.585 11
    endloop
  endfacet
  facet normal -0.971547 0.236845 0
    outer loop
      vertex -93.426 105.376 10
      vertex -92.8948 107.555 11
      vertex -92.8948 107.555 10
    endloop
  endfacet
  facet normal -0.971547 0.236845 0
    outer loop
      vertex -93.426 105.376 10
      vertex -93.426 105.376 11
      vertex -92.8948 107.555 11
    endloop
  endfacet
  facet normal -0.974569 0.224088 0
    outer loop
      vertex -93.9629 103.041 10
      vertex -93.426 105.376 11
      vertex -93.426 105.376 10
    endloop
  endfacet
  facet normal -0.974569 0.224088 0
    outer loop
      vertex -93.9629 103.041 10
      vertex -93.9629 103.041 11
      vertex -93.426 105.376 11
    endloop
  endfacet
  facet normal -0.97617 0.217009 0
    outer loop
      vertex -94.518 100.544 10
      vertex -93.9629 103.041 11
      vertex -93.9629 103.041 10
    endloop
  endfacet
  facet normal -0.97617 0.217009 0
    outer loop
      vertex -94.518 100.544 10
      vertex -94.518 100.544 11
      vertex -93.9629 103.041 11
    endloop
  endfacet
  facet normal -0.976618 0.21498 0
    outer loop
      vertex -95.104 97.8819 10
      vertex -94.518 100.544 11
      vertex -94.518 100.544 10
    endloop
  endfacet
  facet normal -0.976618 0.21498 0
    outer loop
      vertex -95.104 97.8819 10
      vertex -95.104 97.8819 11
      vertex -94.518 100.544 11
    endloop
  endfacet
  facet normal -0.976212 0.216817 0
    outer loop
      vertex -95.7335 95.0476 10
      vertex -95.104 97.8819 11
      vertex -95.104 97.8819 10
    endloop
  endfacet
  facet normal -0.976212 0.216817 0
    outer loop
      vertex -95.7335 95.0476 10
      vertex -95.7335 95.0476 11
      vertex -95.104 97.8819 11
    endloop
  endfacet
  facet normal -0.975055 0.221964 0
    outer loop
      vertex -96.419 92.0363 10
      vertex -95.7335 95.0476 11
      vertex -95.7335 95.0476 10
    endloop
  endfacet
  facet normal -0.975055 0.221964 0
    outer loop
      vertex -96.419 92.0363 10
      vertex -96.419 92.0363 11
      vertex -95.7335 95.0476 11
    endloop
  endfacet
  facet normal -0.973224 0.22986 0
    outer loop
      vertex -97.1733 88.8426 10
      vertex -96.419 92.0363 11
      vertex -96.419 92.0363 10
    endloop
  endfacet
  facet normal -0.973224 0.22986 0
    outer loop
      vertex -97.1733 88.8426 10
      vertex -97.1733 88.8426 11
      vertex -96.419 92.0363 11
    endloop
  endfacet
  facet normal -0.970801 0.239887 0
    outer loop
      vertex -98.0089 85.461 10
      vertex -97.1733 88.8426 11
      vertex -97.1733 88.8426 10
    endloop
  endfacet
  facet normal -0.970801 0.239887 0
    outer loop
      vertex -98.0089 85.461 10
      vertex -98.0089 85.461 11
      vertex -97.1733 88.8426 11
    endloop
  endfacet
  facet normal -0.967812 0.251672 0
    outer loop
      vertex -98.9385 81.8862 10
      vertex -98.0089 85.461 11
      vertex -98.0089 85.461 10
    endloop
  endfacet
  facet normal -0.967812 0.251672 0
    outer loop
      vertex -98.9385 81.8862 10
      vertex -98.9385 81.8862 11
      vertex -98.0089 85.461 11
    endloop
  endfacet
  facet normal -0.964301 0.26481 0
    outer loop
      vertex -99.9747 78.1129 10
      vertex -98.9385 81.8862 11
      vertex -98.9385 81.8862 10
    endloop
  endfacet
  facet normal -0.964301 0.26481 0
    outer loop
      vertex -99.9747 78.1129 10
      vertex -99.9747 78.1129 11
      vertex -98.9385 81.8862 11
    endloop
  endfacet
  facet normal -0.960306 0.27895 0
    outer loop
      vertex -101.13 74.1357 10
      vertex -99.9747 78.1129 11
      vertex -99.9747 78.1129 10
    endloop
  endfacet
  facet normal -0.960306 0.27895 0
    outer loop
      vertex -101.13 74.1357 10
      vertex -101.13 74.1357 11
      vertex -99.9747 78.1129 11
    endloop
  endfacet
  facet normal -0.955853 0.293845 0
    outer loop
      vertex -102.417 69.9492 10
      vertex -101.13 74.1357 11
      vertex -101.13 74.1357 10
    endloop
  endfacet
  facet normal -0.955853 0.293845 0
    outer loop
      vertex -102.417 69.9492 10
      vertex -102.417 69.9492 11
      vertex -101.13 74.1357 11
    endloop
  endfacet
  facet normal -0.95093 0.309407 0
    outer loop
      vertex -103.849 65.5481 10
      vertex -102.417 69.9492 11
      vertex -102.417 69.9492 10
    endloop
  endfacet
  facet normal -0.95093 0.309407 0
    outer loop
      vertex -103.849 65.5481 10
      vertex -103.849 65.5481 11
      vertex -102.417 69.9492 11
    endloop
  endfacet
  facet normal -0.945657 0.325164 0
    outer loop
      vertex -105.438 60.9269 10
      vertex -103.849 65.5481 11
      vertex -103.849 65.5481 10
    endloop
  endfacet
  facet normal -0.945657 0.325164 0
    outer loop
      vertex -105.438 60.9269 10
      vertex -105.438 60.9269 11
      vertex -103.849 65.5481 11
    endloop
  endfacet
  facet normal -0.940065 0.340995 0
    outer loop
      vertex -107.196 56.0804 10
      vertex -105.438 60.9269 11
      vertex -105.438 60.9269 10
    endloop
  endfacet
  facet normal -0.940065 0.340995 0
    outer loop
      vertex -107.196 56.0804 10
      vertex -107.196 56.0804 11
      vertex -105.438 60.9269 11
    endloop
  endfacet
  facet normal -0.934072 0.357086 0
    outer loop
      vertex -109.137 51.0031 10
      vertex -107.196 56.0804 11
      vertex -107.196 56.0804 10
    endloop
  endfacet
  facet normal -0.934072 0.357086 0
    outer loop
      vertex -109.137 51.0031 10
      vertex -109.137 51.0031 11
      vertex -107.196 56.0804 11
    endloop
  endfacet
  facet normal -0.927895 0.372841 0
    outer loop
      vertex -111.272 45.6897 10
      vertex -109.137 51.0031 11
      vertex -109.137 51.0031 10
    endloop
  endfacet
  facet normal -0.927895 0.372841 0
    outer loop
      vertex -111.272 45.6897 10
      vertex -111.272 45.6897 11
      vertex -109.137 51.0031 11
    endloop
  endfacet
  facet normal -0.921392 0.388634 0
    outer loop
      vertex -113.615 40.1348 10
      vertex -111.272 45.6897 11
      vertex -111.272 45.6897 10
    endloop
  endfacet
  facet normal -0.921392 0.388634 0
    outer loop
      vertex -113.615 40.1348 10
      vertex -113.615 40.1348 11
      vertex -111.272 45.6897 11
    endloop
  endfacet
  facet normal -0.91466 0.404224 0
    outer loop
      vertex -116.179 34.3331 10
      vertex -113.615 40.1348 11
      vertex -113.615 40.1348 10
    endloop
  endfacet
  facet normal -0.91466 0.404224 0
    outer loop
      vertex -116.179 34.3331 10
      vertex -116.179 34.3331 11
      vertex -113.615 40.1348 11
    endloop
  endfacet
  facet normal -0.907851 0.419292 0
    outer loop
      vertex -118.975 28.2792 10
      vertex -116.179 34.3331 11
      vertex -116.179 34.3331 10
    endloop
  endfacet
  facet normal -0.907851 0.419292 0
    outer loop
      vertex -118.975 28.2792 10
      vertex -118.975 28.2792 11
      vertex -116.179 34.3331 11
    endloop
  endfacet
  facet normal -0.900883 0.434062 0
    outer loop
      vertex -122.016 21.9677 10
      vertex -118.975 28.2792 11
      vertex -118.975 28.2792 10
    endloop
  endfacet
  facet normal -0.900883 0.434062 0
    outer loop
      vertex -122.016 21.9677 10
      vertex -122.016 21.9677 11
      vertex -118.975 28.2792 11
    endloop
  endfacet
  facet normal 0.46019 -0.88782 0
    outer loop
      vertex -120.02 23.0023 10
      vertex -122.016 21.9677 11
      vertex -122.016 21.9677 10
    endloop
  endfacet
  facet normal 0.46019 -0.88782 0
    outer loop
      vertex -120.02 23.0023 10
      vertex -120.02 23.0023 11
      vertex -122.016 21.9677 11
    endloop
  endfacet
  facet normal -0.500977 -0.865461 0
    outer loop
      vertex -106.48 15.1646 10
      vertex -120.02 23.0023 11
      vertex -120.02 23.0023 10
    endloop
  endfacet
  facet normal -0.500977 -0.865461 0
    outer loop
      vertex -106.48 15.1646 10
      vertex -106.48 15.1646 11
      vertex -120.02 23.0023 11
    endloop
  endfacet
  facet normal 0 -1 0
    outer loop
      vertex -96.4962 15.1646 10
      vertex -106.48 15.1646 11
      vertex -106.48 15.1646 10
    endloop
  endfacet
  facet normal 0 -1 0
    outer loop
      vertex -96.4962 15.1646 10
      vertex -96.4962 15.1646 11
      vertex -106.48 15.1646 11
    endloop
  endfacet
  facet normal -0.000965656 -1 0
    outer loop
      vertex -46.7891 15.1166 10
      vertex -96.4962 15.1646 11
      vertex -96.4962 15.1646 10
    endloop
  endfacet
  facet normal -0.000965656 -1 0
    outer loop
      vertex -46.7891 15.1166 10
      vertex -46.7891 15.1166 11
      vertex -96.4962 15.1646 11
    endloop
  endfacet
  facet normal -0.0895145 -0.995986 0
    outer loop
      vertex -46.5165 15.0921 10
      vertex -46.7891 15.1166 11
      vertex -46.7891 15.1166 10
    endloop
  endfacet
  facet normal -0.0895145 -0.995986 0
    outer loop
      vertex -46.5165 15.0921 10
      vertex -46.5165 15.0921 11
      vertex -46.7891 15.1166 11
    endloop
  endfacet
  facet normal -0.263976 -0.964529 0
    outer loop
      vertex -46.26 15.0219 10
      vertex -46.5165 15.0921 11
      vertex -46.5165 15.0921 10
    endloop
  endfacet
  facet normal -0.263976 -0.964529 0
    outer loop
      vertex -46.26 15.0219 10
      vertex -46.26 15.0219 11
      vertex -46.5165 15.0921 11
    endloop
  endfacet
  facet normal -0.427032 -0.904236 0
    outer loop
      vertex -46.0239 14.9104 10
      vertex -46.26 15.0219 11
      vertex -46.26 15.0219 10
    endloop
  endfacet
  facet normal -0.427032 -0.904236 0
    outer loop
      vertex -46.0239 14.9104 10
      vertex -46.0239 14.9104 11
      vertex -46.26 15.0219 11
    endloop
  endfacet
  facet normal -0.574553 -0.818467 0
    outer loop
      vertex -45.8125 14.762 10
      vertex -46.0239 14.9104 11
      vertex -46.0239 14.9104 10
    endloop
  endfacet
  facet normal -0.574553 -0.818467 0
    outer loop
      vertex -45.8125 14.762 10
      vertex -45.8125 14.762 11
      vertex -46.0239 14.9104 11
    endloop
  endfacet
  facet normal -0.703399 -0.710795 0
    outer loop
      vertex -45.6299 14.5813 10
      vertex -45.8125 14.762 11
      vertex -45.8125 14.762 10
    endloop
  endfacet
  facet normal -0.703399 -0.710795 0
    outer loop
      vertex -45.6299 14.5813 10
      vertex -45.6299 14.5813 11
      vertex -45.8125 14.762 11
    endloop
  endfacet
  facet normal -0.81318 -0.582012 0
    outer loop
      vertex -45.4806 14.3727 10
      vertex -45.6299 14.5813 11
      vertex -45.6299 14.5813 10
    endloop
  endfacet
  facet normal -0.81318 -0.582012 0
    outer loop
      vertex -45.4806 14.3727 10
      vertex -45.4806 14.3727 11
      vertex -45.6299 14.5813 11
    endloop
  endfacet
  facet normal -0.900552 -0.434749 0
    outer loop
      vertex -45.3686 14.1407 10
      vertex -45.4806 14.3727 11
      vertex -45.4806 14.3727 10
    endloop
  endfacet
  facet normal -0.900552 -0.434749 0
    outer loop
      vertex -45.3686 14.1407 10
      vertex -45.3686 14.1407 11
      vertex -45.4806 14.3727 11
    endloop
  endfacet
  facet normal -0.963044 -0.269345 0
    outer loop
      vertex -45.2984 13.8897 10
      vertex -45.3686 14.1407 11
      vertex -45.3686 14.1407 10
    endloop
  endfacet
  facet normal -0.963044 -0.269345 0
    outer loop
      vertex -45.2984 13.8897 10
      vertex -45.2984 13.8897 11
      vertex -45.3686 14.1407 11
    endloop
  endfacet
  facet normal -0.995835 -0.0911785 0
    outer loop
      vertex -45.2741 13.6243 10
      vertex -45.2984 13.8897 11
      vertex -45.2984 13.8897 10
    endloop
  endfacet
  facet normal -0.995835 -0.0911785 0
    outer loop
      vertex -45.2741 13.6243 10
      vertex -45.2741 13.6243 11
      vertex -45.2984 13.8897 11
    endloop
  endfacet
  facet normal -1 0 0
    outer loop
      vertex -45.2741 3.78249 10
      vertex -45.2741 13.6243 11
      vertex -45.2741 13.6243 10
    endloop
  endfacet
  facet normal -1 0 0
    outer loop
      vertex -45.2741 3.78249 10
      vertex -45.2741 3.78249 11
      vertex -45.2741 13.6243 11
    endloop
  endfacet
  facet normal -0.996065 -0.0886221 0
    outer loop
      vertex -45.2176 3.14746 10
      vertex -45.2741 3.78249 11
      vertex -45.2741 3.78249 10
    endloop
  endfacet
  facet normal -0.996065 -0.0886221 0
    outer loop
      vertex -45.2176 3.14746 10
      vertex -45.2176 3.14746 11
      vertex -45.2741 3.78249 11
    endloop
  endfacet
  facet normal -0.964446 -0.26428 0
    outer loop
      vertex -45.0538 2.5497 10
      vertex -45.2176 3.14746 11
      vertex -45.2176 3.14746 10
    endloop
  endfacet
  facet normal -0.964446 -0.26428 0
    outer loop
      vertex -45.0538 2.5497 10
      vertex -45.0538 2.5497 11
      vertex -45.2176 3.14746 11
    endloop
  endfacet
  facet normal -0.903536 -0.428512 0
    outer loop
      vertex -44.7927 1.99916 10
      vertex -45.0538 2.5497 11
      vertex -45.0538 2.5497 10
    endloop
  endfacet
  facet normal -0.903536 -0.428512 0
    outer loop
      vertex -44.7927 1.99916 10
      vertex -44.7927 1.99916 11
      vertex -45.0538 2.5497 11
    endloop
  endfacet
  facet normal -0.816743 -0.577002 0
    outer loop
      vertex -44.4442 1.50586 10
      vertex -44.7927 1.99916 11
      vertex -44.7927 1.99916 10
    endloop
  endfacet
  facet normal -0.816743 -0.577002 0
    outer loop
      vertex -44.4442 1.50586 10
      vertex -44.4442 1.50586 11
      vertex -44.7927 1.99916 11
    endloop
  endfacet
  facet normal -0.707264 -0.706949 0
    outer loop
      vertex -44.0183 1.07977 10
      vertex -44.4442 1.50586 11
      vertex -44.4442 1.50586 10
    endloop
  endfacet
  facet normal -0.707264 -0.706949 0
    outer loop
      vertex -44.0183 1.07977 10
      vertex -44.0183 1.07977 11
      vertex -44.4442 1.50586 11
    endloop
  endfacet
  facet normal -0.577465 -0.816415 0
    outer loop
      vertex -43.525 0.73085 10
      vertex -44.0183 1.07977 11
      vertex -44.0183 1.07977 10
    endloop
  endfacet
  facet normal -0.577465 -0.816415 0
    outer loop
      vertex -43.525 0.73085 10
      vertex -43.525 0.73085 11
      vertex -44.0183 1.07977 11
    endloop
  endfacet
  facet normal -0.429173 -0.903223 0
    outer loop
      vertex -42.9741 0.469086 10
      vertex -43.525 0.73085 11
      vertex -43.525 0.73085 10
    endloop
  endfacet
  facet normal -0.429173 -0.903223 0
    outer loop
      vertex -42.9741 0.469086 10
      vertex -42.9741 0.469086 11
      vertex -43.525 0.73085 11
    endloop
  endfacet
  facet normal -0.265193 -0.964195 0
    outer loop
      vertex -42.3756 0.304474 10
      vertex -42.9741 0.469086 11
      vertex -42.9741 0.469086 10
    endloop
  endfacet
  facet normal -0.265193 -0.964195 0
    outer loop
      vertex -42.3756 0.304474 10
      vertex -42.3756 0.304474 11
      vertex -42.9741 0.469086 11
    endloop
  endfacet
  facet normal -0.0900431 -0.995938 0
    outer loop
      vertex -41.7395 0.246964 10
      vertex -42.3756 0.304474 11
      vertex -42.3756 0.304474 10
    endloop
  endfacet
  facet normal -0.0900431 -0.995938 0
    outer loop
      vertex -41.7395 0.246964 10
      vertex -41.7395 0.246964 11
      vertex -42.3756 0.304474 11
    endloop
  endfacet
  facet normal 0 -1 0
    outer loop
      vertex -9.9366 0.246964 10
      vertex -41.7395 0.246964 11
      vertex -41.7395 0.246964 10
    endloop
  endfacet
  facet normal 0 -1 0
    outer loop
      vertex -9.9366 0.246964 10
      vertex -9.9366 0.246964 11
      vertex -41.7395 0.246964 11
    endloop
  endfacet
  facet normal 8.61922e-05 -1 0
    outer loop
      vertex 0.679214 0.247879 10
      vertex -9.9366 0.246964 11
      vertex -9.9366 0.246964 10
    endloop
  endfacet
  facet normal 8.61922e-05 -1 0
    outer loop
      vertex 0.679214 0.247879 10
      vertex 0.679214 0.247879 11
      vertex -9.9366 0.246964 11
    endloop
  endfacet
  facet normal -0.0814971 -0.996674 0
    outer loop
      vertex 0.966034 0.224426 10
      vertex 0.679214 0.247879 11
      vertex 0.679214 0.247879 10
    endloop
  endfacet
  facet normal -0.0814971 -0.996674 0
    outer loop
      vertex 0.966034 0.224426 10
      vertex 0.966034 0.224426 11
      vertex 0.679214 0.247879 11
    endloop
  endfacet
  facet normal -0.253243 -0.967403 0
    outer loop
      vertex 1.23364 0.154373 10
      vertex 0.966034 0.224426 11
      vertex 0.966034 0.224426 10
    endloop
  endfacet
  facet normal -0.253243 -0.967403 0
    outer loop
      vertex 1.23364 0.154373 10
      vertex 1.23364 0.154373 11
      vertex 0.966034 0.224426 11
    endloop
  endfacet
  facet normal -0.418881 -0.908041 0
    outer loop
      vertex 1.47815 0.0415802 10
      vertex 1.23364 0.154373 11
      vertex 1.23364 0.154373 10
    endloop
  endfacet
  facet normal -0.418881 -0.908041 0
    outer loop
      vertex 1.47815 0.0415802 10
      vertex 1.47815 0.0415802 11
      vertex 1.23364 0.154373 11
    endloop
  endfacet
  facet normal -0.572007 -0.820249 0
    outer loop
      vertex 1.69569 -0.110123 10
      vertex 1.47815 0.0415802 11
      vertex 1.47815 0.0415802 10
    endloop
  endfacet
  facet normal -0.572007 -0.820249 0
    outer loop
      vertex 1.69569 -0.110123 10
      vertex 1.69569 -0.110123 11
      vertex 1.47815 0.0415802 11
    endloop
  endfacet
  facet normal -0.707234 -0.70698 0
    outer loop
      vertex 1.88239 -0.29689 10
      vertex 1.69569 -0.110123 11
      vertex 1.69569 -0.110123 10
    endloop
  endfacet
  facet normal -0.707234 -0.70698 0
    outer loop
      vertex 1.88239 -0.29689 10
      vertex 1.88239 -0.29689 11
      vertex 1.69569 -0.110123 11
    endloop
  endfacet
  facet normal -0.820293 -0.571944 0
    outer loop
      vertex 2.03438 -0.514877 10
      vertex 1.88239 -0.29689 11
      vertex 1.88239 -0.29689 10
    endloop
  endfacet
  facet normal -0.820293 -0.571944 0
    outer loop
      vertex 2.03438 -0.514877 10
      vertex 2.03438 -0.514877 11
      vertex 1.88239 -0.29689 11
    endloop
  endfacet
  facet normal -0.907729 -0.419556 0
    outer loop
      vertex 2.14778 -0.760223 10
      vertex 2.03438 -0.514877 11
      vertex 2.03438 -0.514877 10
    endloop
  endfacet
  facet normal -0.907729 -0.419556 0
    outer loop
      vertex 2.14778 -0.760223 10
      vertex 2.14778 -0.760223 11
      vertex 2.03438 -0.514877 11
    endloop
  endfacet
  facet normal -0.966926 -0.255059 0
    outer loop
      vertex 2.2187 -1.02908 10
      vertex 2.14778 -0.760223 11
      vertex 2.14778 -0.760223 10
    endloop
  endfacet
  facet normal -0.966926 -0.255059 0
    outer loop
      vertex 2.2187 -1.02908 10
      vertex 2.2187 -1.02908 11
      vertex 2.14778 -0.760223 11
    endloop
  endfacet
  facet normal -0.996385 -0.0849516 0
    outer loop
      vertex 2.2433 -1.31761 10
      vertex 2.2187 -1.02908 11
      vertex 2.2187 -1.02908 10
    endloop
  endfacet
  facet normal -0.996385 -0.0849516 0
    outer loop
      vertex 2.2433 -1.31761 10
      vertex 2.2433 -1.31761 11
      vertex 2.2187 -1.02908 11
    endloop
  endfacet
  facet normal -0.840708 -0.541489 0
    outer loop
      vertex 3.42882 -3.15823 10
      vertex 2.2433 -1.31761 11
      vertex 2.2433 -1.31761 10
    endloop
  endfacet
  facet normal -0.840708 -0.541489 0
    outer loop
      vertex 3.42882 -3.15823 10
      vertex 3.42882 -3.15823 11
      vertex 2.2433 -1.31761 11
    endloop
  endfacet
  facet normal 0.999925 0.012271 0
    outer loop
      vertex 3.33287 4.6604 10
      vertex 3.42882 -3.15823 11
      vertex 3.42882 -3.15823 10
    endloop
  endfacet
  facet normal 0.999925 0.012271 -0
    outer loop
      vertex 3.33287 4.6604 10
      vertex 3.33287 4.6604 11
      vertex 3.42882 -3.15823 11
    endloop
  endfacet
endsolid OpenSCAD_Model
