solid OpenSCAD_Model
  facet normal 0 0 -1
    outer loop
      vertex -3.59999 33.6 0
      vertex 0 45 0
      vertex 0 0 0
    endloop
  endfacet
  facet normal 0 0 -1
    outer loop
      vertex 0 45 0
      vertex -2.02622 42.1505 0
      vertex -2 42.4 0
    endloop
  endfacet
  facet normal 0 -0 -1
    outer loop
      vertex -2.10374 41.9119 0
      vertex 0 45 0
      vertex -3.59999 33.6 0
    endloop
  endfacet
  facet normal 0 0 -1
    outer loop
      vertex 0 45 0
      vertex -2.10374 41.9119 0
      vertex -2.02622 42.1505 0
    endloop
  endfacet
  facet normal 0 0 -1
    outer loop
      vertex -2.10374 41.9119 0
      vertex -3.59999 33.6 0
      vertex -2.22918 41.6947 0
    endloop
  endfacet
  facet normal 0 0 -1
    outer loop
      vertex -2.22918 41.6947 0
      vertex -3.59999 33.6 0
      vertex -2.39704 41.5082 0
    endloop
  endfacet
  facet normal 0 0 -1
    outer loop
      vertex -2.39704 41.5082 0
      vertex -3.59999 33.6 0
      vertex -2.6 41.3608 0
    endloop
  endfacet
  facet normal 0 0 -1
    outer loop
      vertex -2.6 41.3608 0
      vertex -3.59999 33.6 0
      vertex -2.82918 41.2587 0
    endloop
  endfacet
  facet normal 0 0 -1
    outer loop
      vertex -2.82918 41.2587 0
      vertex -3.59999 33.6 0
      vertex -3.07456 41.2066 0
    endloop
  endfacet
  facet normal -0 0 -1
    outer loop
      vertex -3.07456 41.2066 0
      vertex -3.59999 33.6 0
      vertex -3.32543 41.2066 0
    endloop
  endfacet
  facet normal 0 0 -1
    outer loop
      vertex -3.59999 33.6 0
      vertex 0 0 0
      vertex -3.59999 5.59999 0
    endloop
  endfacet
  facet normal 0 0 -1
    outer loop
      vertex 0 0 0
      vertex -16.6 5.59999 0
      vertex -3.59999 5.59999 0
    endloop
  endfacet
  facet normal 0 0 -1
    outer loop
      vertex -26 0 0
      vertex -16.6 33.6 0
      vertex -16.6 5.59999 0
    endloop
  endfacet
  facet normal 0 0 -1
    outer loop
      vertex -16.6 33.6 0
      vertex -21.6262 42.1505 0
      vertex -21.6 42.4 0
    endloop
  endfacet
  facet normal 0 0 -1
    outer loop
      vertex -16.6 33.6 0
      vertex -21.7037 41.9119 0
      vertex -21.6262 42.1505 0
    endloop
  endfacet
  facet normal 0 0 -1
    outer loop
      vertex -16.6 33.6 0
      vertex -21.8292 41.6947 0
      vertex -21.7037 41.9119 0
    endloop
  endfacet
  facet normal 0 0 -1
    outer loop
      vertex -16.6 33.6 0
      vertex -21.997 41.5082 0
      vertex -21.8292 41.6947 0
    endloop
  endfacet
  facet normal 0 0 -1
    outer loop
      vertex -16.6 33.6 0
      vertex -22.2 41.3608 0
      vertex -21.997 41.5082 0
    endloop
  endfacet
  facet normal 0 0 -1
    outer loop
      vertex -16.6 33.6 0
      vertex -22.4292 41.2587 0
      vertex -22.2 41.3608 0
    endloop
  endfacet
  facet normal 0 0 -1
    outer loop
      vertex -16.6 33.6 0
      vertex -22.6746 41.2066 0
      vertex -22.4292 41.2587 0
    endloop
  endfacet
  facet normal 0 0 -1
    outer loop
      vertex -16.6 33.6 0
      vertex -22.9254 41.2066 0
      vertex -22.6746 41.2066 0
    endloop
  endfacet
  facet normal 0 0 -1
    outer loop
      vertex -16.6 33.6 0
      vertex -23.1708 41.2587 0
      vertex -22.9254 41.2066 0
    endloop
  endfacet
  facet normal 0 0 -1
    outer loop
      vertex -16.6 33.6 0
      vertex -23.4 41.3608 0
      vertex -23.1708 41.2587 0
    endloop
  endfacet
  facet normal -0 0 -1
    outer loop
      vertex -16.6 33.6 0
      vertex -26 0 0
      vertex -23.4 41.3608 0
    endloop
  endfacet
  facet normal -0 0 -1
    outer loop
      vertex -23.4 41.3608 0
      vertex -26 0 0
      vertex -23.603 41.5082 0
    endloop
  endfacet
  facet normal -0 0 -1
    outer loop
      vertex -23.603 41.5082 0
      vertex -26 0 0
      vertex -23.7708 41.6947 0
    endloop
  endfacet
  facet normal 0 0 -1
    outer loop
      vertex -26 45 0
      vertex -23.7708 41.6947 0
      vertex -26 0 0
    endloop
  endfacet
  facet normal 0 0 -1
    outer loop
      vertex -23.8963 41.9119 0
      vertex -26 45 0
      vertex -23.9738 42.1505 0
    endloop
  endfacet
  facet normal 0 0 -1
    outer loop
      vertex -23.7708 41.6947 0
      vertex -26 45 0
      vertex -23.8963 41.9119 0
    endloop
  endfacet
  facet normal 0 0 -1
    outer loop
      vertex -26 0 0
      vertex -16.6 5.59999 0
      vertex 0 0 0
    endloop
  endfacet
  facet normal 0 0 -1
    outer loop
      vertex -2.02622 42.6495 0
      vertex 0 45 0
      vertex -2 42.4 0
    endloop
  endfacet
  facet normal 0 0 -1
    outer loop
      vertex -2.10374 42.8881 0
      vertex 0 45 0
      vertex -2.02622 42.6495 0
    endloop
  endfacet
  facet normal 0 0 -1
    outer loop
      vertex -2.22918 43.1053 0
      vertex 0 45 0
      vertex -2.10374 42.8881 0
    endloop
  endfacet
  facet normal 0 0 -1
    outer loop
      vertex -2.39704 43.2918 0
      vertex 0 45 0
      vertex -2.22918 43.1053 0
    endloop
  endfacet
  facet normal 0 0 -1
    outer loop
      vertex -2.6 43.4392 0
      vertex 0 45 0
      vertex -2.39704 43.2918 0
    endloop
  endfacet
  facet normal 0 0 -1
    outer loop
      vertex -2.82918 43.5413 0
      vertex 0 45 0
      vertex -2.6 43.4392 0
    endloop
  endfacet
  facet normal 0 0 -1
    outer loop
      vertex -3.07456 43.5934 0
      vertex 0 45 0
      vertex -2.82918 43.5413 0
    endloop
  endfacet
  facet normal 0 0 -1
    outer loop
      vertex -3.32543 43.5934 0
      vertex 0 45 0
      vertex -3.07456 43.5934 0
    endloop
  endfacet
  facet normal 0 0 -1
    outer loop
      vertex -3.57082 43.5413 0
      vertex 0 45 0
      vertex -3.32543 43.5934 0
    endloop
  endfacet
  facet normal 0 0 -1
    outer loop
      vertex -21.6 42.4 0
      vertex -4.4 42.4 0
      vertex -16.6 33.6 0
    endloop
  endfacet
  facet normal 0 0 -1
    outer loop
      vertex -4.4 42.4 0
      vertex -21.6 42.4 0
      vertex -4.37378 42.6495 0
    endloop
  endfacet
  facet normal 0 0 -1
    outer loop
      vertex -21.6262 42.6495 0
      vertex -4.37378 42.6495 0
      vertex -21.6 42.4 0
    endloop
  endfacet
  facet normal 0 0 -1
    outer loop
      vertex -4.37378 42.6495 0
      vertex -21.6262 42.6495 0
      vertex -4.29625 42.8881 0
    endloop
  endfacet
  facet normal 0 0 -1
    outer loop
      vertex -21.7037 42.8881 0
      vertex -4.29625 42.8881 0
      vertex -21.6262 42.6495 0
    endloop
  endfacet
  facet normal 0 0 -1
    outer loop
      vertex -4.29625 42.8881 0
      vertex -21.7037 42.8881 0
      vertex -4.17082 43.1053 0
    endloop
  endfacet
  facet normal 0 0 -1
    outer loop
      vertex -21.8292 43.1053 0
      vertex -4.17082 43.1053 0
      vertex -21.7037 42.8881 0
    endloop
  endfacet
  facet normal 0 0 -1
    outer loop
      vertex -4.17082 43.1053 0
      vertex -21.8292 43.1053 0
      vertex -4.00296 43.2918 0
    endloop
  endfacet
  facet normal 0 0 -1
    outer loop
      vertex -21.997 43.2918 0
      vertex -4.00296 43.2918 0
      vertex -21.8292 43.1053 0
    endloop
  endfacet
  facet normal 0 0 -1
    outer loop
      vertex -4.00296 43.2918 0
      vertex -21.997 43.2918 0
      vertex -3.8 43.4392 0
    endloop
  endfacet
  facet normal 0 0 -1
    outer loop
      vertex -22.2 43.4392 0
      vertex -3.8 43.4392 0
      vertex -21.997 43.2918 0
    endloop
  endfacet
  facet normal 0 0 -1
    outer loop
      vertex -3.8 43.4392 0
      vertex -22.2 43.4392 0
      vertex -3.57082 43.5413 0
    endloop
  endfacet
  facet normal 0 0 -1
    outer loop
      vertex -22.4292 43.5413 0
      vertex -3.57082 43.5413 0
      vertex -22.2 43.4392 0
    endloop
  endfacet
  facet normal 0 0 -1
    outer loop
      vertex -3.57082 43.5413 0
      vertex -22.4292 43.5413 0
      vertex 0 45 0
    endloop
  endfacet
  facet normal 0 0 -1
    outer loop
      vertex -26 45 0
      vertex -22.4292 43.5413 0
      vertex -22.6746 43.5934 0
    endloop
  endfacet
  facet normal 0 0 -1
    outer loop
      vertex -26 45 0
      vertex -22.6746 43.5934 0
      vertex -22.9254 43.5934 0
    endloop
  endfacet
  facet normal 0 0 -1
    outer loop
      vertex -22.4292 43.5413 0
      vertex -26 45 0
      vertex 0 45 0
    endloop
  endfacet
  facet normal 0 0 -1
    outer loop
      vertex -23.1708 43.5413 0
      vertex -26 45 0
      vertex -22.9254 43.5934 0
    endloop
  endfacet
  facet normal 0 0 -1
    outer loop
      vertex -23.4 43.4392 0
      vertex -26 45 0
      vertex -23.1708 43.5413 0
    endloop
  endfacet
  facet normal 0 0 -1
    outer loop
      vertex -23.603 43.2918 0
      vertex -26 45 0
      vertex -23.4 43.4392 0
    endloop
  endfacet
  facet normal 0 0 -1
    outer loop
      vertex -23.7708 43.1053 0
      vertex -26 45 0
      vertex -23.603 43.2918 0
    endloop
  endfacet
  facet normal 0 0 -1
    outer loop
      vertex -23.8963 42.8881 0
      vertex -26 45 0
      vertex -23.7708 43.1053 0
    endloop
  endfacet
  facet normal 0 0 -1
    outer loop
      vertex -23.9738 42.6495 0
      vertex -26 45 0
      vertex -23.8963 42.8881 0
    endloop
  endfacet
  facet normal 0 0 -1
    outer loop
      vertex -24 42.4 0
      vertex -26 45 0
      vertex -23.9738 42.6495 0
    endloop
  endfacet
  facet normal 0 0 -1
    outer loop
      vertex -23.9738 42.1505 0
      vertex -26 45 0
      vertex -24 42.4 0
    endloop
  endfacet
  facet normal -0 0 -1
    outer loop
      vertex -3.32543 41.2066 0
      vertex -3.59999 33.6 0
      vertex -3.57082 41.2587 0
    endloop
  endfacet
  facet normal 0 0 -1
    outer loop
      vertex -3.59999 33.6 0
      vertex -3.8 41.3608 0
      vertex -3.57082 41.2587 0
    endloop
  endfacet
  facet normal 0 0 -1
    outer loop
      vertex -3.59999 33.6 0
      vertex -4.00296 41.5082 0
      vertex -3.8 41.3608 0
    endloop
  endfacet
  facet normal 0 0 -1
    outer loop
      vertex -3.59999 33.6 0
      vertex -4.17082 41.6947 0
      vertex -4.00296 41.5082 0
    endloop
  endfacet
  facet normal 0 0 -1
    outer loop
      vertex -16.6 33.6 0
      vertex -4.17082 41.6947 0
      vertex -3.59999 33.6 0
    endloop
  endfacet
  facet normal -0 0 -1
    outer loop
      vertex -4.17082 41.6947 0
      vertex -16.6 33.6 0
      vertex -4.29625 41.9119 0
    endloop
  endfacet
  facet normal -0 0 -1
    outer loop
      vertex -4.29625 41.9119 0
      vertex -16.6 33.6 0
      vertex -4.37378 42.1505 0
    endloop
  endfacet
  facet normal -0 0 -1
    outer loop
      vertex -4.37378 42.1505 0
      vertex -16.6 33.6 0
      vertex -4.4 42.4 0
    endloop
  endfacet
  facet normal 0 0 1
    outer loop
      vertex -3.66352 40.9734 1.5
      vertex -3.59999 33.6 1.5
      vertex -3.35679 40.9082 1.5
    endloop
  endfacet
  facet normal 0 0 1
    outer loop
      vertex -3.77811 41.0244 1.5
      vertex -3.59999 33.6 1.5
      vertex -3.66352 40.9734 1.5
    endloop
  endfacet
  facet normal 0 0 1
    outer loop
      vertex -3.95 41.101 1.5
      vertex -3.59999 33.6 1.5
      vertex -3.77811 41.0244 1.5
    endloop
  endfacet
  facet normal 0 0 1
    outer loop
      vertex -4.10222 41.2116 1.5
      vertex -3.59999 33.6 1.5
      vertex -3.95 41.101 1.5
    endloop
  endfacet
  facet normal 0 0 1
    outer loop
      vertex -4.2037 41.2853 1.5
      vertex -3.59999 33.6 1.5
      vertex -4.10222 41.2116 1.5
    endloop
  endfacet
  facet normal 0 0 1
    outer loop
      vertex -4.28763 41.3785 1.5
      vertex -3.59999 33.6 1.5
      vertex -4.2037 41.2853 1.5
    endloop
  endfacet
  facet normal 0 0 1
    outer loop
      vertex -4.41353 41.5183 1.5
      vertex -3.59999 33.6 1.5
      vertex -4.28763 41.3785 1.5
    endloop
  endfacet
  facet normal 0 0 1
    outer loop
      vertex -16.6 33.6 1.5
      vertex -4.41353 41.5183 1.5
      vertex -4.57032 41.7899 1.5
    endloop
  endfacet
  facet normal 0 0 1
    outer loop
      vertex -16.6 33.6 1.5
      vertex -4.57032 41.7899 1.5
      vertex -4.60908 41.9092 1.5
    endloop
  endfacet
  facet normal 0 0 1
    outer loop
      vertex -16.6 33.6 1.5
      vertex -4.60908 41.9092 1.5
      vertex -4.66722 42.0881 1.5
    endloop
  endfacet
  facet normal 0 0 1
    outer loop
      vertex -21.3131 42.2753 1.5
      vertex -4.68689 42.2753 1.5
      vertex -4.7 42.4 1.5
    endloop
  endfacet
  facet normal 0 0 1
    outer loop
      vertex -4.41353 41.5183 1.5
      vertex -16.6 33.6 1.5
      vertex -3.59999 33.6 1.5
    endloop
  endfacet
  facet normal 0 0 1
    outer loop
      vertex -4.68689 42.2753 1.5
      vertex -21.3328 42.0881 1.5
      vertex -4.66722 42.0881 1.5
    endloop
  endfacet
  facet normal 0 0 1
    outer loop
      vertex -1.71967 42.2129 1.5
      vertex 0 45 1.5
      vertex -1.7 42.4 1.5
    endloop
  endfacet
  facet normal 0 0 1
    outer loop
      vertex 0 45 1.5
      vertex -1.71967 42.5871 1.5
      vertex -1.7 42.4 1.5
    endloop
  endfacet
  facet normal 0 0 1
    outer loop
      vertex 0 45 1.5
      vertex -1.73278 42.7119 1.5
      vertex -1.71967 42.5871 1.5
    endloop
  endfacet
  facet normal 0 0 1
    outer loop
      vertex 0 45 1.5
      vertex -1.79092 42.8908 1.5
      vertex -1.73278 42.7119 1.5
    endloop
  endfacet
  facet normal 0 0 1
    outer loop
      vertex 0 45 1.5
      vertex -1.82968 43.0101 1.5
      vertex -1.79092 42.8908 1.5
    endloop
  endfacet
  facet normal 0 0 1
    outer loop
      vertex 0 45 1.5
      vertex -1.8924 43.1187 1.5
      vertex -1.82968 43.0101 1.5
    endloop
  endfacet
  facet normal 0 0 1
    outer loop
      vertex 0 45 1.5
      vertex -1.98647 43.2817 1.5
      vertex -1.8924 43.1187 1.5
    endloop
  endfacet
  facet normal 0 0 1
    outer loop
      vertex 0 45 1.5
      vertex -2.07041 43.3749 1.5
      vertex -1.98647 43.2817 1.5
    endloop
  endfacet
  facet normal 0 0 1
    outer loop
      vertex 0 45 1.5
      vertex -2.1963 43.5147 1.5
      vertex -2.07041 43.3749 1.5
    endloop
  endfacet
  facet normal 0 0 1
    outer loop
      vertex 0 45 1.5
      vertex -2.34852 43.6253 1.5
      vertex -2.1963 43.5147 1.5
    endloop
  endfacet
  facet normal 0 0 1
    outer loop
      vertex 0 45 1.5
      vertex -2.45 43.699 1.5
      vertex -2.34852 43.6253 1.5
    endloop
  endfacet
  facet normal 0 0 1
    outer loop
      vertex 0 45 1.5
      vertex -2.73647 43.8266 1.5
      vertex -2.45 43.699 1.5
    endloop
  endfacet
  facet normal 0 0 1
    outer loop
      vertex 0 45 1.5
      vertex -3.04321 43.8918 1.5
      vertex -2.73647 43.8266 1.5
    endloop
  endfacet
  facet normal 0 0 1
    outer loop
      vertex 0 45 1.5
      vertex -3.35679 43.8918 1.5
      vertex -3.04321 43.8918 1.5
    endloop
  endfacet
  facet normal 0 0 1
    outer loop
      vertex 0 45 1.5
      vertex -3.66352 43.8266 1.5
      vertex -3.35679 43.8918 1.5
    endloop
  endfacet
  facet normal 0 0 1
    outer loop
      vertex -21.3909 42.8908 1.5
      vertex -4.60908 42.8908 1.5
      vertex -4.57032 43.0101 1.5
    endloop
  endfacet
  facet normal 0 0 1
    outer loop
      vertex -21.3131 42.5247 1.5
      vertex -4.68689 42.5247 1.5
      vertex -4.66722 42.7119 1.5
    endloop
  endfacet
  facet normal 0 0 1
    outer loop
      vertex -4.68689 42.5247 1.5
      vertex -21.3131 42.5247 1.5
      vertex -4.7 42.4 1.5
    endloop
  endfacet
  facet normal 0 0 1
    outer loop
      vertex -4.60908 42.8908 1.5
      vertex -21.3328 42.7119 1.5
      vertex -4.66722 42.7119 1.5
    endloop
  endfacet
  facet normal 0 0 1
    outer loop
      vertex -21.4297 43.0101 1.5
      vertex -4.57032 43.0101 1.5
      vertex -4.41353 43.2817 1.5
    endloop
  endfacet
  facet normal 0 0 1
    outer loop
      vertex -21.5865 43.2817 1.5
      vertex -4.41353 43.2817 1.5
      vertex -4.32959 43.3749 1.5
    endloop
  endfacet
  facet normal 0 0 1
    outer loop
      vertex -21.6704 43.3749 1.5
      vertex -4.32959 43.3749 1.5
      vertex -4.2037 43.5147 1.5
    endloop
  endfacet
  facet normal 0 0 1
    outer loop
      vertex -4.68689 42.2753 1.5
      vertex -21.3131 42.2753 1.5
      vertex -21.3328 42.0881 1.5
    endloop
  endfacet
  facet normal 0 0 1
    outer loop
      vertex -4.7 42.4 1.5
      vertex -21.3 42.4 1.5
      vertex -21.3131 42.2753 1.5
    endloop
  endfacet
  facet normal 0 0 1
    outer loop
      vertex -21.7963 43.5147 1.5
      vertex -4.2037 43.5147 1.5
      vertex -4.05148 43.6253 1.5
    endloop
  endfacet
  facet normal 0 0 1
    outer loop
      vertex -21.9485 43.6253 1.5
      vertex -4.05148 43.6253 1.5
      vertex -3.95 43.699 1.5
    endloop
  endfacet
  facet normal 0 0 1
    outer loop
      vertex -22.05 43.699 1.5
      vertex -3.95 43.699 1.5
      vertex -3.77811 43.7756 1.5
    endloop
  endfacet
  facet normal 0 0 1
    outer loop
      vertex -22.05 43.699 1.5
      vertex -3.77811 43.7756 1.5
      vertex -3.66352 43.8266 1.5
    endloop
  endfacet
  facet normal 0 0 1
    outer loop
      vertex -22.3365 43.8266 1.5
      vertex -3.66352 43.8266 1.5
      vertex 0 45 1.5
    endloop
  endfacet
  facet normal 0 0 1
    outer loop
      vertex -4.7 42.4 1.5
      vertex -21.3131 42.5247 1.5
      vertex -21.3 42.4 1.5
    endloop
  endfacet
  facet normal 0 0 1
    outer loop
      vertex -4.66722 42.7119 1.5
      vertex -21.3328 42.7119 1.5
      vertex -21.3131 42.5247 1.5
    endloop
  endfacet
  facet normal 0 0 1
    outer loop
      vertex -4.60908 42.8908 1.5
      vertex -21.3909 42.8908 1.5
      vertex -21.3328 42.7119 1.5
    endloop
  endfacet
  facet normal 0 0 1
    outer loop
      vertex -4.57032 43.0101 1.5
      vertex -21.4297 43.0101 1.5
      vertex -21.3909 42.8908 1.5
    endloop
  endfacet
  facet normal 0 0 1
    outer loop
      vertex -4.41353 43.2817 1.5
      vertex -21.5865 43.2817 1.5
      vertex -21.4297 43.0101 1.5
    endloop
  endfacet
  facet normal 0 0 1
    outer loop
      vertex -4.32959 43.3749 1.5
      vertex -21.6704 43.3749 1.5
      vertex -21.5865 43.2817 1.5
    endloop
  endfacet
  facet normal 0 0 1
    outer loop
      vertex -4.2037 43.5147 1.5
      vertex -21.7963 43.5147 1.5
      vertex -21.6704 43.3749 1.5
    endloop
  endfacet
  facet normal 0 0 1
    outer loop
      vertex -4.05148 43.6253 1.5
      vertex -21.9485 43.6253 1.5
      vertex -21.7963 43.5147 1.5
    endloop
  endfacet
  facet normal 0 0 1
    outer loop
      vertex -3.95 43.699 1.5
      vertex -22.05 43.699 1.5
      vertex -21.9485 43.6253 1.5
    endloop
  endfacet
  facet normal 0 0 1
    outer loop
      vertex -3.66352 43.8266 1.5
      vertex -22.2219 43.7756 1.5
      vertex -22.05 43.699 1.5
    endloop
  endfacet
  facet normal 0 0 1
    outer loop
      vertex -3.66352 43.8266 1.5
      vertex -22.3365 43.8266 1.5
      vertex -22.2219 43.7756 1.5
    endloop
  endfacet
  facet normal -0 0 1
    outer loop
      vertex -26 45 1.5
      vertex -22.3365 43.8266 1.5
      vertex 0 45 1.5
    endloop
  endfacet
  facet normal 0 0 1
    outer loop
      vertex -22.3365 43.8266 1.5
      vertex -26 45 1.5
      vertex -22.6432 43.8918 1.5
    endloop
  endfacet
  facet normal 0 0 1
    outer loop
      vertex -26 45 1.5
      vertex -23.9296 43.3749 1.5
      vertex -23.8037 43.5147 1.5
    endloop
  endfacet
  facet normal 0 0 1
    outer loop
      vertex -26 45 1.5
      vertex -24.1076 43.1187 1.5
      vertex -24.0135 43.2817 1.5
    endloop
  endfacet
  facet normal 0 0 1
    outer loop
      vertex -26 45 1.5
      vertex -24.2091 42.8908 1.5
      vertex -24.1703 43.0101 1.5
    endloop
  endfacet
  facet normal 0 0 1
    outer loop
      vertex -26 45 1.5
      vertex -24.2869 42.5247 1.5
      vertex -24.2672 42.7119 1.5
    endloop
  endfacet
  facet normal 0 0 1
    outer loop
      vertex -24.2869 42.5247 1.5
      vertex -26 45 1.5
      vertex -24.3 42.4 1.5
    endloop
  endfacet
  facet normal 0 0 1
    outer loop
      vertex -24.2091 42.8908 1.5
      vertex -26 45 1.5
      vertex -24.2672 42.7119 1.5
    endloop
  endfacet
  facet normal 0 0 1
    outer loop
      vertex -24.1076 43.1187 1.5
      vertex -26 45 1.5
      vertex -24.1703 43.0101 1.5
    endloop
  endfacet
  facet normal 0 0 1
    outer loop
      vertex -23.9296 43.3749 1.5
      vertex -26 45 1.5
      vertex -24.0135 43.2817 1.5
    endloop
  endfacet
  facet normal 0 0 1
    outer loop
      vertex -23.6515 43.6253 1.5
      vertex -26 45 1.5
      vertex -23.8037 43.5147 1.5
    endloop
  endfacet
  facet normal 0 0 1
    outer loop
      vertex -23.55 43.699 1.5
      vertex -26 45 1.5
      vertex -23.6515 43.6253 1.5
    endloop
  endfacet
  facet normal 0 0 1
    outer loop
      vertex -23.3781 43.7756 1.5
      vertex -26 45 1.5
      vertex -23.55 43.699 1.5
    endloop
  endfacet
  facet normal 0 0 1
    outer loop
      vertex -23.2635 43.8266 1.5
      vertex -26 45 1.5
      vertex -23.3781 43.7756 1.5
    endloop
  endfacet
  facet normal 0 0 1
    outer loop
      vertex -22.9568 43.8918 1.5
      vertex -26 45 1.5
      vertex -23.2635 43.8266 1.5
    endloop
  endfacet
  facet normal 0 0 1
    outer loop
      vertex -22.6432 43.8918 1.5
      vertex -26 45 1.5
      vertex -22.9568 43.8918 1.5
    endloop
  endfacet
  facet normal 0 0 1
    outer loop
      vertex -1.73278 42.0881 1.5
      vertex 0 45 1.5
      vertex -1.71967 42.2129 1.5
    endloop
  endfacet
  facet normal 0 0 1
    outer loop
      vertex -1.77154 41.9688 1.5
      vertex 0 45 1.5
      vertex -1.73278 42.0881 1.5
    endloop
  endfacet
  facet normal 0 0 1
    outer loop
      vertex -1.82968 41.7899 1.5
      vertex 0 45 1.5
      vertex -1.77154 41.9688 1.5
    endloop
  endfacet
  facet normal 0 0 1
    outer loop
      vertex 0 45 1.5
      vertex -1.82968 41.7899 1.5
      vertex -3.59999 33.6 1.5
    endloop
  endfacet
  facet normal 0 0 1
    outer loop
      vertex -3.59999 33.6 1.5
      vertex -1.82968 41.7899 1.5
      vertex -1.8924 41.6813 1.5
    endloop
  endfacet
  facet normal 0 0 1
    outer loop
      vertex -3.59999 33.6 1.5
      vertex -1.8924 41.6813 1.5
      vertex -1.98647 41.5183 1.5
    endloop
  endfacet
  facet normal 0 0 1
    outer loop
      vertex -3.59999 33.6 1.5
      vertex -1.98647 41.5183 1.5
      vertex -2.07041 41.4251 1.5
    endloop
  endfacet
  facet normal 0 0 1
    outer loop
      vertex -3.59999 33.6 1.5
      vertex -2.07041 41.4251 1.5
      vertex -2.1963 41.2853 1.5
    endloop
  endfacet
  facet normal 0 0 1
    outer loop
      vertex -3.59999 33.6 1.5
      vertex -2.1963 41.2853 1.5
      vertex -2.34852 41.1747 1.5
    endloop
  endfacet
  facet normal 0 0 1
    outer loop
      vertex -3.59999 33.6 1.5
      vertex -2.34852 41.1747 1.5
      vertex -2.45 41.101 1.5
    endloop
  endfacet
  facet normal 0 0 1
    outer loop
      vertex -3.59999 33.6 1.5
      vertex -2.45 41.101 1.5
      vertex -2.73647 40.9734 1.5
    endloop
  endfacet
  facet normal 0 0 1
    outer loop
      vertex -3.59999 33.6 1.5
      vertex -2.73647 40.9734 1.5
      vertex -3.04321 40.9082 1.5
    endloop
  endfacet
  facet normal 0 0 1
    outer loop
      vertex -3.59999 33.6 1.5
      vertex -3.04321 40.9082 1.5
      vertex -3.35679 40.9082 1.5
    endloop
  endfacet
  facet normal 0 0 1
    outer loop
      vertex 0 45 1.5
      vertex -3.59999 33.6 1.5
      vertex 0 0 1.5
    endloop
  endfacet
  facet normal -0 0 1
    outer loop
      vertex -3.59999 5.59999 1.5
      vertex 0 0 1.5
      vertex -3.59999 33.6 1.5
    endloop
  endfacet
  facet normal -0 0 1
    outer loop
      vertex -16.6 5.59999 1.5
      vertex 0 0 1.5
      vertex -3.59999 5.59999 1.5
    endloop
  endfacet
  facet normal 0 0 1
    outer loop
      vertex -4.66722 42.0881 1.5
      vertex -21.3328 42.0881 1.5
      vertex -16.6 33.6 1.5
    endloop
  endfacet
  facet normal -0 0 1
    outer loop
      vertex -21.3909 41.9092 1.5
      vertex -16.6 33.6 1.5
      vertex -21.3328 42.0881 1.5
    endloop
  endfacet
  facet normal -0 0 1
    outer loop
      vertex -21.4297 41.7899 1.5
      vertex -16.6 33.6 1.5
      vertex -21.3909 41.9092 1.5
    endloop
  endfacet
  facet normal -0 0 1
    outer loop
      vertex -21.5865 41.5183 1.5
      vertex -16.6 33.6 1.5
      vertex -21.4297 41.7899 1.5
    endloop
  endfacet
  facet normal -0 0 1
    outer loop
      vertex -21.7124 41.3785 1.5
      vertex -16.6 33.6 1.5
      vertex -21.5865 41.5183 1.5
    endloop
  endfacet
  facet normal -0 0 1
    outer loop
      vertex -21.7963 41.2853 1.5
      vertex -16.6 33.6 1.5
      vertex -21.7124 41.3785 1.5
    endloop
  endfacet
  facet normal -0 0 1
    outer loop
      vertex -21.8978 41.2116 1.5
      vertex -16.6 33.6 1.5
      vertex -21.7963 41.2853 1.5
    endloop
  endfacet
  facet normal -0 0 1
    outer loop
      vertex -22.05 41.101 1.5
      vertex -16.6 33.6 1.5
      vertex -21.8978 41.2116 1.5
    endloop
  endfacet
  facet normal -0 0 1
    outer loop
      vertex -22.2219 41.0244 1.5
      vertex -16.6 33.6 1.5
      vertex -22.05 41.101 1.5
    endloop
  endfacet
  facet normal -0 0 1
    outer loop
      vertex -22.3365 40.9734 1.5
      vertex -16.6 33.6 1.5
      vertex -22.2219 41.0244 1.5
    endloop
  endfacet
  facet normal -0 0 1
    outer loop
      vertex -22.6432 40.9082 1.5
      vertex -16.6 33.6 1.5
      vertex -22.3365 40.9734 1.5
    endloop
  endfacet
  facet normal -0 0 1
    outer loop
      vertex -22.9568 40.9082 1.5
      vertex -16.6 33.6 1.5
      vertex -22.6432 40.9082 1.5
    endloop
  endfacet
  facet normal 0 0 1
    outer loop
      vertex -23.2635 40.9734 1.5
      vertex -16.6 33.6 1.5
      vertex -22.9568 40.9082 1.5
    endloop
  endfacet
  facet normal 0 0 1
    outer loop
      vertex -23.3781 41.0244 1.5
      vertex -16.6 33.6 1.5
      vertex -23.2635 40.9734 1.5
    endloop
  endfacet
  facet normal 0 0 1
    outer loop
      vertex -23.55 41.101 1.5
      vertex -16.6 33.6 1.5
      vertex -23.3781 41.0244 1.5
    endloop
  endfacet
  facet normal 0 0 1
    outer loop
      vertex -16.6 33.6 1.5
      vertex -23.55 41.101 1.5
      vertex -26 0 1.5
    endloop
  endfacet
  facet normal 0 0 1
    outer loop
      vertex -26 0 1.5
      vertex -23.55 41.101 1.5
      vertex -23.7022 41.2116 1.5
    endloop
  endfacet
  facet normal 0 0 1
    outer loop
      vertex -26 0 1.5
      vertex -23.7022 41.2116 1.5
      vertex -23.8037 41.2853 1.5
    endloop
  endfacet
  facet normal 0 0 1
    outer loop
      vertex -26 0 1.5
      vertex -23.8037 41.2853 1.5
      vertex -23.9296 41.4251 1.5
    endloop
  endfacet
  facet normal 0 0 1
    outer loop
      vertex -26 0 1.5
      vertex -23.9296 41.4251 1.5
      vertex -24.0135 41.5183 1.5
    endloop
  endfacet
  facet normal 0 0 1
    outer loop
      vertex -26 0 1.5
      vertex -24.0135 41.5183 1.5
      vertex -24.1076 41.6813 1.5
    endloop
  endfacet
  facet normal 0 0 1
    outer loop
      vertex -26 0 1.5
      vertex -24.1076 41.6813 1.5
      vertex -24.1703 41.7899 1.5
    endloop
  endfacet
  facet normal 0 0 1
    outer loop
      vertex -26 45 1.5
      vertex -24.1703 41.7899 1.5
      vertex -24.2285 41.9688 1.5
    endloop
  endfacet
  facet normal 0 0 1
    outer loop
      vertex -26 45 1.5
      vertex -24.2285 41.9688 1.5
      vertex -24.2672 42.0881 1.5
    endloop
  endfacet
  facet normal 0 0 1
    outer loop
      vertex -26 45 1.5
      vertex -24.2803 42.2129 1.5
      vertex -24.3 42.4 1.5
    endloop
  endfacet
  facet normal 0 0 1
    outer loop
      vertex -24.2803 42.2129 1.5
      vertex -26 45 1.5
      vertex -24.2672 42.0881 1.5
    endloop
  endfacet
  facet normal 0 0 1
    outer loop
      vertex -24.1703 41.7899 1.5
      vertex -26 45 1.5
      vertex -26 0 1.5
    endloop
  endfacet
  facet normal 0 0 1
    outer loop
      vertex -16.6 5.59999 1.5
      vertex -26 0 1.5
      vertex 0 0 1.5
    endloop
  endfacet
  facet normal 0 0 1
    outer loop
      vertex -16.6 33.6 1.5
      vertex -26 0 1.5
      vertex -16.6 5.59999 1.5
    endloop
  endfacet
  facet normal 0 1 -0
    outer loop
      vertex 0 45 0
      vertex -26 45 1.5
      vertex 0 45 1.5
    endloop
  endfacet
  facet normal 0 1 0
    outer loop
      vertex -26 45 1.5
      vertex 0 45 0
      vertex -26 45 0
    endloop
  endfacet
  facet normal 1 -0 0
    outer loop
      vertex 0 0 1.5
      vertex 0 45 0
      vertex 0 45 1.5
    endloop
  endfacet
  facet normal 1 0 0
    outer loop
      vertex 0 45 0
      vertex 0 0 1.5
      vertex 0 0 0
    endloop
  endfacet
  facet normal 0 -1 0
    outer loop
      vertex -26 0 0
      vertex 0 0 1.5
      vertex -26 0 1.5
    endloop
  endfacet
  facet normal 0 -1 -0
    outer loop
      vertex 0 0 1.5
      vertex -26 0 0
      vertex 0 0 0
    endloop
  endfacet
  facet normal -1 0 0
    outer loop
      vertex -26 0 0
      vertex -26 45 1.5
      vertex -26 45 0
    endloop
  endfacet
  facet normal -1 -0 0
    outer loop
      vertex -26 45 1.5
      vertex -26 0 0
      vertex -26 0 1.5
    endloop
  endfacet
  facet normal -1 0 0
    outer loop
      vertex -3.59999 5.59999 0
      vertex -3.59999 33.6 1.5
      vertex -3.59999 33.6 0
    endloop
  endfacet
  facet normal -1 -0 0
    outer loop
      vertex -3.59999 33.6 1.5
      vertex -3.59999 5.59999 0
      vertex -3.59999 5.59999 1.5
    endloop
  endfacet
  facet normal 0 -1 0
    outer loop
      vertex -16.6 33.6 0
      vertex -3.59999 33.6 1.5
      vertex -16.6 33.6 1.5
    endloop
  endfacet
  facet normal 0 -1 -0
    outer loop
      vertex -3.59999 33.6 1.5
      vertex -16.6 33.6 0
      vertex -3.59999 33.6 0
    endloop
  endfacet
  facet normal 1 -0 0
    outer loop
      vertex -16.6 5.59999 1.5
      vertex -16.6 33.6 0
      vertex -16.6 33.6 1.5
    endloop
  endfacet
  facet normal 1 0 0
    outer loop
      vertex -16.6 33.6 0
      vertex -16.6 5.59999 1.5
      vertex -16.6 5.59999 0
    endloop
  endfacet
  facet normal 0 1 -0
    outer loop
      vertex -3.59999 5.59999 0
      vertex -16.6 5.59999 1.5
      vertex -3.59999 5.59999 1.5
    endloop
  endfacet
  facet normal 0 1 0
    outer loop
      vertex -16.6 5.59999 1.5
      vertex -3.59999 5.59999 0
      vertex -16.6 5.59999 0
    endloop
  endfacet
  facet normal 0.951052 -0.309032 0
    outer loop
      vertex -4.37378 42.6495 0.75
      vertex -4.29625 42.8881 0
      vertex -4.29625 42.8881 0.75
    endloop
  endfacet
  facet normal 0.951052 -0.309032 0
    outer loop
      vertex -4.29625 42.8881 0
      vertex -4.37378 42.6495 0.75
      vertex -4.37378 42.6495 0
    endloop
  endfacet
  facet normal 0.994523 -0.104515 0
    outer loop
      vertex -4.4 42.4 0.75
      vertex -4.37378 42.6495 0
      vertex -4.37378 42.6495 0.75
    endloop
  endfacet
  facet normal 0.994523 -0.104515 0
    outer loop
      vertex -4.37378 42.6495 0
      vertex -4.4 42.4 0.75
      vertex -4.4 42.4 0
    endloop
  endfacet
  facet normal 0.865974 -0.500088 0
    outer loop
      vertex -4.29625 42.8881 0.75
      vertex -4.17082 43.1053 0
      vertex -4.17082 43.1053 0.75
    endloop
  endfacet
  facet normal 0.865974 -0.500088 0
    outer loop
      vertex -4.17082 43.1053 0
      vertex -4.29625 42.8881 0.75
      vertex -4.29625 42.8881 0
    endloop
  endfacet
  facet normal -0.587631 0.809129 0
    outer loop
      vertex -2.39704 41.5082 0
      vertex -2.6 41.3608 0.75
      vertex -2.39704 41.5082 0.75
    endloop
  endfacet
  facet normal -0.587631 0.809129 0
    outer loop
      vertex -2.6 41.3608 0.75
      vertex -2.39704 41.5082 0
      vertex -2.6 41.3608 0
    endloop
  endfacet
  facet normal 0.865974 0.500088 0
    outer loop
      vertex -4.17082 41.6947 0.75
      vertex -4.29625 41.9119 0
      vertex -4.29625 41.9119 0.75
    endloop
  endfacet
  facet normal 0.865974 0.500088 0
    outer loop
      vertex -4.29625 41.9119 0
      vertex -4.17082 41.6947 0.75
      vertex -4.17082 41.6947 0
    endloop
  endfacet
  facet normal 0.994523 0.104515 0
    outer loop
      vertex -4.37378 42.1505 0.75
      vertex -4.4 42.4 0
      vertex -4.4 42.4 0.75
    endloop
  endfacet
  facet normal 0.994523 0.104515 0
    outer loop
      vertex -4.4 42.4 0
      vertex -4.37378 42.1505 0.75
      vertex -4.37378 42.1505 0
    endloop
  endfacet
  facet normal 0.743274 0.668987 0
    outer loop
      vertex -4.00296 41.5082 0.75
      vertex -4.17082 41.6947 0
      vertex -4.17082 41.6947 0.75
    endloop
  endfacet
  facet normal 0.743274 0.668987 0
    outer loop
      vertex -4.17082 41.6947 0
      vertex -4.00296 41.5082 0.75
      vertex -4.00296 41.5082 0
    endloop
  endfacet
  facet normal 0.743274 -0.668987 0
    outer loop
      vertex -4.17082 43.1053 0.75
      vertex -4.00296 43.2918 0
      vertex -4.00296 43.2918 0.75
    endloop
  endfacet
  facet normal 0.743274 -0.668987 0
    outer loop
      vertex -4.00296 43.2918 0
      vertex -4.17082 43.1053 0.75
      vertex -4.17082 43.1053 0
    endloop
  endfacet
  facet normal -0.587631 -0.809129 0
    outer loop
      vertex -2.6 43.4392 0
      vertex -2.39704 43.2918 0.75
      vertex -2.6 43.4392 0.75
    endloop
  endfacet
  facet normal -0.587631 -0.809129 -0
    outer loop
      vertex -2.39704 43.2918 0.75
      vertex -2.6 43.4392 0
      vertex -2.39704 43.2918 0
    endloop
  endfacet
  facet normal -0.207694 -0.978194 0
    outer loop
      vertex -3.07456 43.5934 0
      vertex -2.82918 43.5413 0.75
      vertex -3.07456 43.5934 0.75
    endloop
  endfacet
  facet normal -0.207694 -0.978194 -0
    outer loop
      vertex -2.82918 43.5413 0.75
      vertex -3.07456 43.5934 0
      vertex -2.82918 43.5413 0
    endloop
  endfacet
  facet normal -0.994523 -0.104515 0
    outer loop
      vertex -2 42.4 0
      vertex -2.02622 42.6495 0.75
      vertex -2.02622 42.6495 0
    endloop
  endfacet
  facet normal -0.994523 -0.104515 0
    outer loop
      vertex -2.02622 42.6495 0.75
      vertex -2 42.4 0
      vertex -2 42.4 0.75
    endloop
  endfacet
  facet normal -0.406944 -0.913453 0
    outer loop
      vertex -2.82918 43.5413 0
      vertex -2.6 43.4392 0.75
      vertex -2.82918 43.5413 0.75
    endloop
  endfacet
  facet normal -0.406944 -0.913453 -0
    outer loop
      vertex -2.6 43.4392 0.75
      vertex -2.82918 43.5413 0
      vertex -2.6 43.4392 0
    endloop
  endfacet
  facet normal 0.207686 -0.978196 0
    outer loop
      vertex -3.57082 43.5413 0
      vertex -3.32543 43.5934 0.75
      vertex -3.57082 43.5413 0.75
    endloop
  endfacet
  facet normal 0.207686 -0.978196 0
    outer loop
      vertex -3.32543 43.5934 0.75
      vertex -3.57082 43.5413 0
      vertex -3.32543 43.5934 0
    endloop
  endfacet
  facet normal -0.207694 0.978194 0
    outer loop
      vertex -2.82918 41.2587 0
      vertex -3.07456 41.2066 0.75
      vertex -2.82918 41.2587 0.75
    endloop
  endfacet
  facet normal -0.207694 0.978194 0
    outer loop
      vertex -3.07456 41.2066 0.75
      vertex -2.82918 41.2587 0
      vertex -3.07456 41.2066 0
    endloop
  endfacet
  facet normal 0 -1 0
    outer loop
      vertex -3.32543 43.5934 0
      vertex -3.07456 43.5934 0.75
      vertex -3.32543 43.5934 0.75
    endloop
  endfacet
  facet normal 0 -1 -0
    outer loop
      vertex -3.07456 43.5934 0.75
      vertex -3.32543 43.5934 0
      vertex -3.07456 43.5934 0
    endloop
  endfacet
  facet normal -0.951063 -0.308996 0
    outer loop
      vertex -2.02622 42.6495 0
      vertex -2.10374 42.8881 0.75
      vertex -2.10374 42.8881 0
    endloop
  endfacet
  facet normal -0.951063 -0.308996 0
    outer loop
      vertex -2.10374 42.8881 0.75
      vertex -2.02622 42.6495 0
      vertex -2.02622 42.6495 0.75
    endloop
  endfacet
  facet normal -0.743274 -0.668987 0
    outer loop
      vertex -2.22918 43.1053 0
      vertex -2.39704 43.2918 0.75
      vertex -2.39704 43.2918 0
    endloop
  endfacet
  facet normal -0.743274 -0.668987 0
    outer loop
      vertex -2.39704 43.2918 0.75
      vertex -2.22918 43.1053 0
      vertex -2.22918 43.1053 0.75
    endloop
  endfacet
  facet normal -0.743274 0.668987 0
    outer loop
      vertex -2.39704 41.5082 0
      vertex -2.22918 41.6947 0.75
      vertex -2.22918 41.6947 0
    endloop
  endfacet
  facet normal -0.743274 0.668987 0
    outer loop
      vertex -2.22918 41.6947 0.75
      vertex -2.39704 41.5082 0
      vertex -2.39704 41.5082 0.75
    endloop
  endfacet
  facet normal -0.994523 0.104515 0
    outer loop
      vertex -2.02622 42.1505 0
      vertex -2 42.4 0.75
      vertex -2 42.4 0
    endloop
  endfacet
  facet normal -0.994523 0.104515 0
    outer loop
      vertex -2 42.4 0.75
      vertex -2.02622 42.1505 0
      vertex -2.02622 42.1505 0.75
    endloop
  endfacet
  facet normal -0.951063 0.308996 0
    outer loop
      vertex -2.10374 41.9119 0
      vertex -2.02622 42.1505 0.75
      vertex -2.02622 42.1505 0
    endloop
  endfacet
  facet normal -0.951063 0.308996 0
    outer loop
      vertex -2.02622 42.1505 0.75
      vertex -2.10374 41.9119 0
      vertex -2.10374 41.9119 0.75
    endloop
  endfacet
  facet normal 0.587631 -0.809129 0
    outer loop
      vertex -4.00296 43.2918 0
      vertex -3.8 43.4392 0.75
      vertex -4.00296 43.2918 0.75
    endloop
  endfacet
  facet normal 0.587631 -0.809129 0
    outer loop
      vertex -3.8 43.4392 0.75
      vertex -4.00296 43.2918 0
      vertex -3.8 43.4392 0
    endloop
  endfacet
  facet normal -0.865957 0.500118 0
    outer loop
      vertex -2.22918 41.6947 0
      vertex -2.10374 41.9119 0.75
      vertex -2.10374 41.9119 0
    endloop
  endfacet
  facet normal -0.865957 0.500118 0
    outer loop
      vertex -2.10374 41.9119 0.75
      vertex -2.22918 41.6947 0
      vertex -2.22918 41.6947 0.75
    endloop
  endfacet
  facet normal 0.406944 -0.913453 0
    outer loop
      vertex -3.8 43.4392 0
      vertex -3.57082 43.5413 0.75
      vertex -3.8 43.4392 0.75
    endloop
  endfacet
  facet normal 0.406944 -0.913453 0
    outer loop
      vertex -3.57082 43.5413 0.75
      vertex -3.8 43.4392 0
      vertex -3.57082 43.5413 0
    endloop
  endfacet
  facet normal 0.951052 0.309032 0
    outer loop
      vertex -4.29625 41.9119 0.75
      vertex -4.37378 42.1505 0
      vertex -4.37378 42.1505 0.75
    endloop
  endfacet
  facet normal 0.951052 0.309032 0
    outer loop
      vertex -4.37378 42.1505 0
      vertex -4.29625 41.9119 0.75
      vertex -4.29625 41.9119 0
    endloop
  endfacet
  facet normal -0.865957 -0.500118 0
    outer loop
      vertex -2.10374 42.8881 0
      vertex -2.22918 43.1053 0.75
      vertex -2.22918 43.1053 0
    endloop
  endfacet
  facet normal -0.865957 -0.500118 0
    outer loop
      vertex -2.22918 43.1053 0.75
      vertex -2.10374 42.8881 0
      vertex -2.10374 42.8881 0.75
    endloop
  endfacet
  facet normal 0.207686 0.978196 -0
    outer loop
      vertex -3.32543 41.2066 0
      vertex -3.57082 41.2587 0.75
      vertex -3.32543 41.2066 0.75
    endloop
  endfacet
  facet normal 0.207686 0.978196 0
    outer loop
      vertex -3.57082 41.2587 0.75
      vertex -3.32543 41.2066 0
      vertex -3.57082 41.2587 0
    endloop
  endfacet
  facet normal 0 1 -0
    outer loop
      vertex -3.07456 41.2066 0
      vertex -3.32543 41.2066 0.75
      vertex -3.07456 41.2066 0.75
    endloop
  endfacet
  facet normal 0 1 0
    outer loop
      vertex -3.32543 41.2066 0.75
      vertex -3.07456 41.2066 0
      vertex -3.32543 41.2066 0
    endloop
  endfacet
  facet normal -0.406944 0.913453 0
    outer loop
      vertex -2.6 41.3608 0
      vertex -2.82918 41.2587 0.75
      vertex -2.6 41.3608 0.75
    endloop
  endfacet
  facet normal -0.406944 0.913453 0
    outer loop
      vertex -2.82918 41.2587 0.75
      vertex -2.6 41.3608 0
      vertex -2.82918 41.2587 0
    endloop
  endfacet
  facet normal 0.406944 0.913453 -0
    outer loop
      vertex -3.57082 41.2587 0
      vertex -3.8 41.3608 0.75
      vertex -3.57082 41.2587 0.75
    endloop
  endfacet
  facet normal 0.406944 0.913453 0
    outer loop
      vertex -3.8 41.3608 0.75
      vertex -3.57082 41.2587 0
      vertex -3.8 41.3608 0
    endloop
  endfacet
  facet normal 0.587631 0.809129 -0
    outer loop
      vertex -3.8 41.3608 0
      vertex -4.00296 41.5082 0.75
      vertex -3.8 41.3608 0.75
    endloop
  endfacet
  facet normal 0.587631 0.809129 0
    outer loop
      vertex -4.00296 41.5082 0.75
      vertex -3.8 41.3608 0
      vertex -4.00296 41.5082 0
    endloop
  endfacet
  facet normal 0.804702 -0.46454 0.369672
    outer loop
      vertex -4.57032 43.0101 1.5
      vertex -4.17082 43.1053 0.75
      vertex -4.41353 43.2817 1.5
    endloop
  endfacet
  facet normal 0.804647 -0.464672 0.369626
    outer loop
      vertex -4.17082 43.1053 0.75
      vertex -4.57032 43.0101 1.5
      vertex -4.29625 42.8881 0.75
    endloop
  endfacet
  facet normal -0.883704 0.287111 0.36964
    outer loop
      vertex -2.10374 41.9119 0.75
      vertex -1.77154 41.9688 1.5
      vertex -2.02622 42.1505 0.75
    endloop
  endfacet
  facet normal -0.883686 0.287186 0.369626
    outer loop
      vertex -1.77154 41.9688 1.5
      vertex -2.10374 41.9119 0.75
      vertex -1.82968 41.7899 1.5
    endloop
  endfacet
  facet normal 0.924085 -0.0971512 0.369634
    outer loop
      vertex -4.7 42.4 1.5
      vertex -4.4 42.4 0.75
      vertex -4.68689 42.5247 1.5
    endloop
  endfacet
  facet normal 0.924091 -0.0970986 0.369632
    outer loop
      vertex -4.68689 42.5247 1.5
      vertex -4.37378 42.6495 0.75
      vertex -4.66722 42.7119 1.5
    endloop
  endfacet
  facet normal 0.92409 -0.0971128 0.36963
    outer loop
      vertex -4.37378 42.6495 0.75
      vertex -4.68689 42.5247 1.5
      vertex -4.4 42.4 0.75
    endloop
  endfacet
  facet normal -0.546013 -0.751824 0.369635
    outer loop
      vertex -2.6 43.4392 0.75
      vertex -2.34852 43.6253 1.5
      vertex -2.45 43.699 1.5
    endloop
  endfacet
  facet normal -0.804634 0.464702 0.369616
    outer loop
      vertex -2.10374 41.9119 0.75
      vertex -1.8924 41.6813 1.5
      vertex -1.82968 41.7899 1.5
    endloop
  endfacet
  facet normal 0.690417 -0.62182 0.36968
    outer loop
      vertex -4.41353 43.2817 1.5
      vertex -4.17082 43.1053 0.75
      vertex -4.32959 43.3749 1.5
    endloop
  endfacet
  facet normal -0.883704 0.287111 0.36964
    outer loop
      vertex -2.02622 42.1505 0.75
      vertex -1.77154 41.9688 1.5
      vertex -1.73278 42.0881 1.5
    endloop
  endfacet
  facet normal 0.690617 0.621592 0.369691
    outer loop
      vertex -4.41353 41.5183 1.5
      vertex -4.00296 41.5082 0.75
      vertex -4.17082 41.6947 0.75
    endloop
  endfacet
  facet normal 0.690464 0.621813 0.369605
    outer loop
      vertex -4.00296 41.5082 0.75
      vertex -4.41353 41.5183 1.5
      vertex -4.28763 41.3785 1.5
    endloop
  endfacet
  facet normal -0.804634 0.464702 0.369616
    outer loop
      vertex -2.22918 41.6947 0.75
      vertex -1.8924 41.6813 1.5
      vertex -2.10374 41.9119 0.75
    endloop
  endfacet
  facet normal -0.804761 0.464441 0.369668
    outer loop
      vertex -1.8924 41.6813 1.5
      vertex -2.22918 41.6947 0.75
      vertex -1.98647 41.5183 1.5
    endloop
  endfacet
  facet normal 0.377817 0.848902 0.369621
    outer loop
      vertex -3.77811 41.0244 1.5
      vertex -3.66352 40.9734 1.5
      vertex -3.57082 41.2587 0.75
    endloop
  endfacet
  facet normal -0.804634 -0.464702 0.369616
    outer loop
      vertex -2.10374 42.8881 0.75
      vertex -1.82968 43.0101 1.5
      vertex -1.8924 43.1187 1.5
    endloop
  endfacet
  facet normal 0.690476 0.621799 0.369607
    outer loop
      vertex -4.28763 41.3785 1.5
      vertex -4.2037 41.2853 1.5
      vertex -4.00296 41.5082 0.75
    endloop
  endfacet
  facet normal -0.804761 -0.464441 0.369668
    outer loop
      vertex -2.22918 43.1053 0.75
      vertex -1.8924 43.1187 1.5
      vertex -1.98647 43.2817 1.5
    endloop
  endfacet
  facet normal -0.804634 -0.464702 0.369616
    outer loop
      vertex -1.8924 43.1187 1.5
      vertex -2.22918 43.1053 0.75
      vertex -2.10374 42.8881 0.75
    endloop
  endfacet
  facet normal 0.924085 0.0971512 0.369634
    outer loop
      vertex -4.7 42.4 1.5
      vertex -4.68689 42.2753 1.5
      vertex -4.4 42.4 0.75
    endloop
  endfacet
  facet normal -0.378068 0.848785 0.369633
    outer loop
      vertex -2.6 41.3608 0.75
      vertex -2.73647 40.9734 1.5
      vertex -2.45 41.101 1.5
    endloop
  endfacet
  facet normal -0.378127 0.848768 0.369613
    outer loop
      vertex -2.73647 40.9734 1.5
      vertex -2.6 41.3608 0.75
      vertex -2.82918 41.2587 0.75
    endloop
  endfacet
  facet normal 0.378217 -0.848716 0.369639
    outer loop
      vertex -3.8 43.4392 0.75
      vertex -3.77811 43.7756 1.5
      vertex -3.95 43.699 1.5
    endloop
  endfacet
  facet normal 0.37812 -0.848751 0.369657
    outer loop
      vertex -3.77811 43.7756 1.5
      vertex -3.8 43.4392 0.75
      vertex -3.57082 43.5413 0.75
    endloop
  endfacet
  facet normal -0.546013 0.751824 0.369635
    outer loop
      vertex -2.6 41.3608 0.75
      vertex -2.45 41.101 1.5
      vertex -2.34852 41.1747 1.5
    endloop
  endfacet
  facet normal -0.19298 -0.908896 0.369686
    outer loop
      vertex -2.82918 43.5413 0.75
      vertex -3.04321 43.8918 1.5
      vertex -3.07456 43.5934 0.75
    endloop
  endfacet
  facet normal -0.193189 -0.908879 0.369618
    outer loop
      vertex -3.04321 43.8918 1.5
      vertex -2.82918 43.5413 0.75
      vertex -2.73647 43.8266 1.5
    endloop
  endfacet
  facet normal 0.37812 0.848751 0.369657
    outer loop
      vertex -3.8 41.3608 0.75
      vertex -3.77811 41.0244 1.5
      vertex -3.57082 41.2587 0.75
    endloop
  endfacet
  facet normal 0.378217 0.848716 0.369639
    outer loop
      vertex -3.77811 41.0244 1.5
      vertex -3.8 41.3608 0.75
      vertex -3.95 41.101 1.5
    endloop
  endfacet
  facet normal 0.546024 0.751838 0.369591
    outer loop
      vertex -4.2037 41.2853 1.5
      vertex -4.10222 41.2116 1.5
      vertex -4.00296 41.5082 0.75
    endloop
  endfacet
  facet normal 0.546013 0.751824 0.369635
    outer loop
      vertex -4.00296 41.5082 0.75
      vertex -3.95 41.101 1.5
      vertex -3.8 41.3608 0.75
    endloop
  endfacet
  facet normal 0.54619 0.751728 0.36957
    outer loop
      vertex -3.95 41.101 1.5
      vertex -4.00296 41.5082 0.75
      vertex -4.10222 41.2116 1.5
    endloop
  endfacet
  facet normal 0.92409 0.0971128 0.36963
    outer loop
      vertex -4.68689 42.2753 1.5
      vertex -4.37378 42.1505 0.75
      vertex -4.4 42.4 0.75
    endloop
  endfacet
  facet normal 0.924091 0.0970986 0.369632
    outer loop
      vertex -4.37378 42.1505 0.75
      vertex -4.68689 42.2753 1.5
      vertex -4.66722 42.0881 1.5
    endloop
  endfacet
  facet normal -0.546183 0.751718 0.369599
    outer loop
      vertex -2.39704 41.5082 0.75
      vertex -2.34852 41.1747 1.5
      vertex -2.1963 41.2853 1.5
    endloop
  endfacet
  facet normal -0.546013 0.751824 0.369635
    outer loop
      vertex -2.34852 41.1747 1.5
      vertex -2.39704 41.5082 0.75
      vertex -2.6 41.3608 0.75
    endloop
  endfacet
  facet normal -0.193189 0.908879 0.369618
    outer loop
      vertex -2.82918 41.2587 0.75
      vertex -3.04321 40.9082 1.5
      vertex -2.73647 40.9734 1.5
    endloop
  endfacet
  facet normal -0.19298 0.908896 0.369686
    outer loop
      vertex -3.04321 40.9082 1.5
      vertex -2.82918 41.2587 0.75
      vertex -3.07456 41.2066 0.75
    endloop
  endfacet
  facet normal 0.193195 -0.908878 0.369616
    outer loop
      vertex -3.57082 43.5413 0.75
      vertex -3.35679 43.8918 1.5
      vertex -3.66352 43.8266 1.5
    endloop
  endfacet
  facet normal 0.192972 -0.908896 0.369688
    outer loop
      vertex -3.35679 43.8918 1.5
      vertex -3.57082 43.5413 0.75
      vertex -3.32543 43.5934 0.75
    endloop
  endfacet
  facet normal 0 0.929159 0.369681
    outer loop
      vertex -3.07456 41.2066 0.75
      vertex -3.35679 40.9082 1.5
      vertex -3.04321 40.9082 1.5
    endloop
  endfacet
  facet normal 0 0.929159 0.369681
    outer loop
      vertex -3.35679 40.9082 1.5
      vertex -3.07456 41.2066 0.75
      vertex -3.32543 41.2066 0.75
    endloop
  endfacet
  facet normal -0.690417 0.62182 0.36968
    outer loop
      vertex -2.22918 41.6947 0.75
      vertex -2.07041 41.4251 1.5
      vertex -1.98647 41.5183 1.5
    endloop
  endfacet
  facet normal -0.924094 0.0970743 0.369631
    outer loop
      vertex -2.02622 42.1505 0.75
      vertex -1.73278 42.0881 1.5
      vertex -1.71967 42.2129 1.5
    endloop
  endfacet
  facet normal 0.377817 -0.848902 0.369621
    outer loop
      vertex -3.77811 43.7756 1.5
      vertex -3.57082 43.5413 0.75
      vertex -3.66352 43.8266 1.5
    endloop
  endfacet
  facet normal -0.690417 -0.62182 0.36968
    outer loop
      vertex -2.22918 43.1053 0.75
      vertex -1.98647 43.2817 1.5
      vertex -2.07041 43.3749 1.5
    endloop
  endfacet
  facet normal 0.804647 0.464672 0.369626
    outer loop
      vertex -4.57032 41.7899 1.5
      vertex -4.17082 41.6947 0.75
      vertex -4.29625 41.9119 0.75
    endloop
  endfacet
  facet normal 0.804702 0.46454 0.369672
    outer loop
      vertex -4.17082 41.6947 0.75
      vertex -4.57032 41.7899 1.5
      vertex -4.41353 41.5183 1.5
    endloop
  endfacet
  facet normal 0.883694 0.287145 0.369639
    outer loop
      vertex -4.66722 42.0881 1.5
      vertex -4.29625 41.9119 0.75
      vertex -4.37378 42.1505 0.75
    endloop
  endfacet
  facet normal 0.883686 0.287186 0.369625
    outer loop
      vertex -4.29625 41.9119 0.75
      vertex -4.66722 42.0881 1.5
      vertex -4.60908 41.9092 1.5
    endloop
  endfacet
  facet normal 0.546013 -0.751824 0.369635
    outer loop
      vertex -4.05148 43.6253 1.5
      vertex -3.8 43.4392 0.75
      vertex -3.95 43.699 1.5
    endloop
  endfacet
  facet normal -0.690488 -0.621785 0.369606
    outer loop
      vertex -2.39704 43.2918 0.75
      vertex -2.07041 43.3749 1.5
      vertex -2.1963 43.5147 1.5
    endloop
  endfacet
  facet normal -0.69063 -0.621604 0.369648
    outer loop
      vertex -2.07041 43.3749 1.5
      vertex -2.39704 43.2918 0.75
      vertex -2.22918 43.1053 0.75
    endloop
  endfacet
  facet normal 0.192972 0.908896 0.369688
    outer loop
      vertex -3.57082 41.2587 0.75
      vertex -3.35679 40.9082 1.5
      vertex -3.32543 41.2066 0.75
    endloop
  endfacet
  facet normal 0.193195 0.908878 0.369616
    outer loop
      vertex -3.35679 40.9082 1.5
      vertex -3.57082 41.2587 0.75
      vertex -3.66352 40.9734 1.5
    endloop
  endfacet
  facet normal -0.924091 -0.0971129 0.369627
    outer loop
      vertex -2 42.4 0.75
      vertex -1.71967 42.5871 1.5
      vertex -2.02622 42.6495 0.75
    endloop
  endfacet
  facet normal -0.924085 -0.0971499 0.369634
    outer loop
      vertex -1.71967 42.5871 1.5
      vertex -2 42.4 0.75
      vertex -1.7 42.4 1.5
    endloop
  endfacet
  facet normal 0.883707 0.287112 0.369634
    outer loop
      vertex -4.60908 41.9092 1.5
      vertex -4.57032 41.7899 1.5
      vertex -4.29625 41.9119 0.75
    endloop
  endfacet
  facet normal -0.88369 -0.287187 0.369615
    outer loop
      vertex -2.10374 42.8881 0.75
      vertex -1.73278 42.7119 1.5
      vertex -1.79092 42.8908 1.5
    endloop
  endfacet
  facet normal -0.883704 -0.287111 0.36964
    outer loop
      vertex -1.73278 42.7119 1.5
      vertex -2.10374 42.8881 0.75
      vertex -2.02622 42.6495 0.75
    endloop
  endfacet
  facet normal -0.378127 -0.848768 0.369613
    outer loop
      vertex -2.6 43.4392 0.75
      vertex -2.73647 43.8266 1.5
      vertex -2.82918 43.5413 0.75
    endloop
  endfacet
  facet normal -0.378068 -0.848785 0.369633
    outer loop
      vertex -2.73647 43.8266 1.5
      vertex -2.6 43.4392 0.75
      vertex -2.45 43.699 1.5
    endloop
  endfacet
  facet normal 0.690488 -0.621785 0.369606
    outer loop
      vertex -4.32959 43.3749 1.5
      vertex -4.00296 43.2918 0.75
      vertex -4.2037 43.5147 1.5
    endloop
  endfacet
  facet normal 0.69063 -0.621604 0.369648
    outer loop
      vertex -4.00296 43.2918 0.75
      vertex -4.32959 43.3749 1.5
      vertex -4.17082 43.1053 0.75
    endloop
  endfacet
  facet normal -0.883711 -0.287113 0.369623
    outer loop
      vertex -2.10374 42.8881 0.75
      vertex -1.79092 42.8908 1.5
      vertex -1.82968 43.0101 1.5
    endloop
  endfacet
  facet normal -0.924085 0.0971499 0.369634
    outer loop
      vertex -2 42.4 0.75
      vertex -1.71967 42.2129 1.5
      vertex -1.7 42.4 1.5
    endloop
  endfacet
  facet normal -0.924091 0.0971129 0.369627
    outer loop
      vertex -1.71967 42.2129 1.5
      vertex -2 42.4 0.75
      vertex -2.02622 42.1505 0.75
    endloop
  endfacet
  facet normal -0.69063 0.621604 0.369648
    outer loop
      vertex -2.39704 41.5082 0.75
      vertex -2.07041 41.4251 1.5
      vertex -2.22918 41.6947 0.75
    endloop
  endfacet
  facet normal -0.690488 0.621785 0.369606
    outer loop
      vertex -2.07041 41.4251 1.5
      vertex -2.39704 41.5082 0.75
      vertex -2.1963 41.2853 1.5
    endloop
  endfacet
  facet normal -0.924094 -0.0970743 0.369631
    outer loop
      vertex -2.02622 42.6495 0.75
      vertex -1.71967 42.5871 1.5
      vertex -1.73278 42.7119 1.5
    endloop
  endfacet
  facet normal 0.546183 -0.751718 0.369599
    outer loop
      vertex -4.00296 43.2918 0.75
      vertex -4.05148 43.6253 1.5
      vertex -4.2037 43.5147 1.5
    endloop
  endfacet
  facet normal 0.546013 -0.751824 0.369635
    outer loop
      vertex -4.05148 43.6253 1.5
      vertex -4.00296 43.2918 0.75
      vertex -3.8 43.4392 0.75
    endloop
  endfacet
  facet normal -0.546013 -0.751824 0.369635
    outer loop
      vertex -2.39704 43.2918 0.75
      vertex -2.34852 43.6253 1.5
      vertex -2.6 43.4392 0.75
    endloop
  endfacet
  facet normal -0.546183 -0.751718 0.369599
    outer loop
      vertex -2.34852 43.6253 1.5
      vertex -2.39704 43.2918 0.75
      vertex -2.1963 43.5147 1.5
    endloop
  endfacet
  facet normal 0 -0.929159 0.369681
    outer loop
      vertex -3.32543 43.5934 0.75
      vertex -3.04321 43.8918 1.5
      vertex -3.35679 43.8918 1.5
    endloop
  endfacet
  facet normal 0 -0.929159 0.369681
    outer loop
      vertex -3.04321 43.8918 1.5
      vertex -3.32543 43.5934 0.75
      vertex -3.07456 43.5934 0.75
    endloop
  endfacet
  facet normal 0.883707 -0.287112 0.369634
    outer loop
      vertex -4.60908 42.8908 1.5
      vertex -4.29625 42.8881 0.75
      vertex -4.57032 43.0101 1.5
    endloop
  endfacet
  facet normal 0.883686 -0.287186 0.369625
    outer loop
      vertex -4.66722 42.7119 1.5
      vertex -4.29625 42.8881 0.75
      vertex -4.60908 42.8908 1.5
    endloop
  endfacet
  facet normal 0.883694 -0.287145 0.369639
    outer loop
      vertex -4.29625 42.8881 0.75
      vertex -4.66722 42.7119 1.5
      vertex -4.37378 42.6495 0.75
    endloop
  endfacet
  facet normal -0.207678 -0.978197 0
    outer loop
      vertex -22.6746 43.5934 0
      vertex -22.4292 43.5413 0.75
      vertex -22.6746 43.5934 0.75
    endloop
  endfacet
  facet normal -0.207678 -0.978197 -0
    outer loop
      vertex -22.4292 43.5413 0.75
      vertex -22.6746 43.5934 0
      vertex -22.4292 43.5413 0
    endloop
  endfacet
  facet normal 0.951087 -0.308924 0
    outer loop
      vertex -23.9738 42.6495 0.75
      vertex -23.8963 42.8881 0
      vertex -23.8963 42.8881 0.75
    endloop
  endfacet
  facet normal 0.951087 -0.308924 0
    outer loop
      vertex -23.8963 42.8881 0
      vertex -23.9738 42.6495 0.75
      vertex -23.9738 42.6495 0
    endloop
  endfacet
  facet normal 0.994532 -0.104436 0
    outer loop
      vertex -24 42.4 0.75
      vertex -23.9738 42.6495 0
      vertex -23.9738 42.6495 0.75
    endloop
  endfacet
  facet normal 0.994532 -0.104436 0
    outer loop
      vertex -23.9738 42.6495 0
      vertex -24 42.4 0.75
      vertex -24 42.4 0
    endloop
  endfacet
  facet normal 0.865854 -0.500298 0
    outer loop
      vertex -23.8963 42.8881 0.75
      vertex -23.7708 43.1053 0
      vertex -23.7708 43.1053 0.75
    endloop
  endfacet
  facet normal 0.865854 -0.500298 0
    outer loop
      vertex -23.7708 43.1053 0
      vertex -23.8963 42.8881 0.75
      vertex -23.8963 42.8881 0
    endloop
  endfacet
  facet normal -0.587555 0.809184 0
    outer loop
      vertex -21.997 41.5082 0
      vertex -22.2 41.3608 0.75
      vertex -21.997 41.5082 0.75
    endloop
  endfacet
  facet normal -0.587555 0.809184 0
    outer loop
      vertex -22.2 41.3608 0.75
      vertex -21.997 41.5082 0
      vertex -22.2 41.3608 0
    endloop
  endfacet
  facet normal -0.951087 0.308924 0
    outer loop
      vertex -21.7037 41.9119 0
      vertex -21.6262 42.1505 0.75
      vertex -21.6262 42.1505 0
    endloop
  endfacet
  facet normal -0.951087 0.308924 0
    outer loop
      vertex -21.6262 42.1505 0.75
      vertex -21.7037 41.9119 0
      vertex -21.7037 41.9119 0.75
    endloop
  endfacet
  facet normal 0.207678 -0.978197 0
    outer loop
      vertex -23.1708 43.5413 0
      vertex -22.9254 43.5934 0.75
      vertex -23.1708 43.5413 0.75
    endloop
  endfacet
  facet normal 0.207678 -0.978197 0
    outer loop
      vertex -22.9254 43.5934 0.75
      vertex -23.1708 43.5413 0
      vertex -22.9254 43.5934 0
    endloop
  endfacet
  facet normal 0.743393 -0.668855 0
    outer loop
      vertex -23.7708 43.1053 0.75
      vertex -23.603 43.2918 0
      vertex -23.603 43.2918 0.75
    endloop
  endfacet
  facet normal 0.743393 -0.668855 0
    outer loop
      vertex -23.603 43.2918 0
      vertex -23.7708 43.1053 0.75
      vertex -23.7708 43.1053 0
    endloop
  endfacet
  facet normal -0.865854 0.500298 0
    outer loop
      vertex -21.8292 41.6947 0
      vertex -21.7037 41.9119 0.75
      vertex -21.7037 41.9119 0
    endloop
  endfacet
  facet normal -0.865854 0.500298 0
    outer loop
      vertex -21.7037 41.9119 0.75
      vertex -21.8292 41.6947 0
      vertex -21.8292 41.6947 0.75
    endloop
  endfacet
  facet normal 0.951087 0.308924 0
    outer loop
      vertex -23.8963 41.9119 0.75
      vertex -23.9738 42.1505 0
      vertex -23.9738 42.1505 0.75
    endloop
  endfacet
  facet normal 0.951087 0.308924 0
    outer loop
      vertex -23.9738 42.1505 0
      vertex -23.8963 41.9119 0.75
      vertex -23.8963 41.9119 0
    endloop
  endfacet
  facet normal 0 1 -0
    outer loop
      vertex -22.6746 41.2066 0
      vertex -22.9254 41.2066 0.75
      vertex -22.6746 41.2066 0.75
    endloop
  endfacet
  facet normal 0 1 0
    outer loop
      vertex -22.9254 41.2066 0.75
      vertex -22.6746 41.2066 0
      vertex -22.9254 41.2066 0
    endloop
  endfacet
  facet normal -0.951087 -0.308924 0
    outer loop
      vertex -21.6262 42.6495 0
      vertex -21.7037 42.8881 0.75
      vertex -21.7037 42.8881 0
    endloop
  endfacet
  facet normal -0.951087 -0.308924 0
    outer loop
      vertex -21.7037 42.8881 0.75
      vertex -21.6262 42.6495 0
      vertex -21.6262 42.6495 0.75
    endloop
  endfacet
  facet normal 0.994532 0.104436 0
    outer loop
      vertex -23.9738 42.1505 0.75
      vertex -24 42.4 0
      vertex -24 42.4 0.75
    endloop
  endfacet
  facet normal 0.994532 0.104436 0
    outer loop
      vertex -24 42.4 0
      vertex -23.9738 42.1505 0.75
      vertex -23.9738 42.1505 0
    endloop
  endfacet
  facet normal -0.406915 -0.913466 0
    outer loop
      vertex -22.4292 43.5413 0
      vertex -22.2 43.4392 0.75
      vertex -22.4292 43.5413 0.75
    endloop
  endfacet
  facet normal -0.406915 -0.913466 -0
    outer loop
      vertex -22.2 43.4392 0.75
      vertex -22.4292 43.5413 0
      vertex -22.2 43.4392 0
    endloop
  endfacet
  facet normal -0.994532 -0.104436 0
    outer loop
      vertex -21.6 42.4 0
      vertex -21.6262 42.6495 0.75
      vertex -21.6262 42.6495 0
    endloop
  endfacet
  facet normal -0.994532 -0.104436 0
    outer loop
      vertex -21.6262 42.6495 0.75
      vertex -21.6 42.4 0
      vertex -21.6 42.4 0.75
    endloop
  endfacet
  facet normal -0.207678 0.978197 0
    outer loop
      vertex -22.4292 41.2587 0
      vertex -22.6746 41.2066 0.75
      vertex -22.4292 41.2587 0.75
    endloop
  endfacet
  facet normal -0.207678 0.978197 0
    outer loop
      vertex -22.6746 41.2066 0.75
      vertex -22.4292 41.2587 0
      vertex -22.6746 41.2066 0
    endloop
  endfacet
  facet normal 0.406915 0.913466 -0
    outer loop
      vertex -23.1708 41.2587 0
      vertex -23.4 41.3608 0.75
      vertex -23.1708 41.2587 0.75
    endloop
  endfacet
  facet normal 0.406915 0.913466 0
    outer loop
      vertex -23.4 41.3608 0.75
      vertex -23.1708 41.2587 0
      vertex -23.4 41.3608 0
    endloop
  endfacet
  facet normal -0.587555 -0.809184 0
    outer loop
      vertex -22.2 43.4392 0
      vertex -21.997 43.2918 0.75
      vertex -22.2 43.4392 0.75
    endloop
  endfacet
  facet normal -0.587555 -0.809184 -0
    outer loop
      vertex -21.997 43.2918 0.75
      vertex -22.2 43.4392 0
      vertex -21.997 43.2918 0
    endloop
  endfacet
  facet normal 0 -1 0
    outer loop
      vertex -22.9254 43.5934 0
      vertex -22.6746 43.5934 0.75
      vertex -22.9254 43.5934 0.75
    endloop
  endfacet
  facet normal 0 -1 -0
    outer loop
      vertex -22.6746 43.5934 0.75
      vertex -22.9254 43.5934 0
      vertex -22.6746 43.5934 0
    endloop
  endfacet
  facet normal 0.587555 -0.809184 0
    outer loop
      vertex -23.603 43.2918 0
      vertex -23.4 43.4392 0.75
      vertex -23.603 43.2918 0.75
    endloop
  endfacet
  facet normal 0.587555 -0.809184 0
    outer loop
      vertex -23.4 43.4392 0.75
      vertex -23.603 43.2918 0
      vertex -23.4 43.4392 0
    endloop
  endfacet
  facet normal 0.406915 -0.913466 0
    outer loop
      vertex -23.4 43.4392 0
      vertex -23.1708 43.5413 0.75
      vertex -23.4 43.4392 0.75
    endloop
  endfacet
  facet normal 0.406915 -0.913466 0
    outer loop
      vertex -23.1708 43.5413 0.75
      vertex -23.4 43.4392 0
      vertex -23.1708 43.5413 0
    endloop
  endfacet
  facet normal 0.587555 0.809184 -0
    outer loop
      vertex -23.4 41.3608 0
      vertex -23.603 41.5082 0.75
      vertex -23.4 41.3608 0.75
    endloop
  endfacet
  facet normal 0.587555 0.809184 0
    outer loop
      vertex -23.603 41.5082 0.75
      vertex -23.4 41.3608 0
      vertex -23.603 41.5082 0
    endloop
  endfacet
  facet normal -0.406915 0.913466 0
    outer loop
      vertex -22.2 41.3608 0
      vertex -22.4292 41.2587 0.75
      vertex -22.2 41.3608 0.75
    endloop
  endfacet
  facet normal -0.406915 0.913466 0
    outer loop
      vertex -22.4292 41.2587 0.75
      vertex -22.2 41.3608 0
      vertex -22.4292 41.2587 0
    endloop
  endfacet
  facet normal -0.743393 0.668855 0
    outer loop
      vertex -21.997 41.5082 0
      vertex -21.8292 41.6947 0.75
      vertex -21.8292 41.6947 0
    endloop
  endfacet
  facet normal -0.743393 0.668855 0
    outer loop
      vertex -21.8292 41.6947 0.75
      vertex -21.997 41.5082 0
      vertex -21.997 41.5082 0.75
    endloop
  endfacet
  facet normal 0.207678 0.978197 -0
    outer loop
      vertex -22.9254 41.2066 0
      vertex -23.1708 41.2587 0.75
      vertex -22.9254 41.2066 0.75
    endloop
  endfacet
  facet normal 0.207678 0.978197 0
    outer loop
      vertex -23.1708 41.2587 0.75
      vertex -22.9254 41.2066 0
      vertex -23.1708 41.2587 0
    endloop
  endfacet
  facet normal 0.865854 0.500298 0
    outer loop
      vertex -23.7708 41.6947 0.75
      vertex -23.8963 41.9119 0
      vertex -23.8963 41.9119 0.75
    endloop
  endfacet
  facet normal 0.865854 0.500298 0
    outer loop
      vertex -23.8963 41.9119 0
      vertex -23.7708 41.6947 0.75
      vertex -23.7708 41.6947 0
    endloop
  endfacet
  facet normal 0.743393 0.668855 0
    outer loop
      vertex -23.603 41.5082 0.75
      vertex -23.7708 41.6947 0
      vertex -23.7708 41.6947 0.75
    endloop
  endfacet
  facet normal 0.743393 0.668855 0
    outer loop
      vertex -23.7708 41.6947 0
      vertex -23.603 41.5082 0.75
      vertex -23.603 41.5082 0
    endloop
  endfacet
  facet normal -0.743393 -0.668855 0
    outer loop
      vertex -21.8292 43.1053 0
      vertex -21.997 43.2918 0.75
      vertex -21.997 43.2918 0
    endloop
  endfacet
  facet normal -0.743393 -0.668855 0
    outer loop
      vertex -21.997 43.2918 0.75
      vertex -21.8292 43.1053 0
      vertex -21.8292 43.1053 0.75
    endloop
  endfacet
  facet normal -0.994532 0.104436 0
    outer loop
      vertex -21.6262 42.1505 0
      vertex -21.6 42.4 0.75
      vertex -21.6 42.4 0
    endloop
  endfacet
  facet normal -0.994532 0.104436 0
    outer loop
      vertex -21.6 42.4 0.75
      vertex -21.6262 42.1505 0
      vertex -21.6262 42.1505 0.75
    endloop
  endfacet
  facet normal -0.865854 -0.500298 0
    outer loop
      vertex -21.7037 42.8881 0
      vertex -21.8292 43.1053 0.75
      vertex -21.8292 43.1053 0
    endloop
  endfacet
  facet normal -0.865854 -0.500298 0
    outer loop
      vertex -21.8292 43.1053 0.75
      vertex -21.7037 42.8881 0
      vertex -21.7037 42.8881 0.75
    endloop
  endfacet
  facet normal -0.377789 -0.848914 0.369622
    outer loop
      vertex -22.4292 43.5413 0.75
      vertex -22.2219 43.7756 1.5
      vertex -22.3365 43.8266 1.5
    endloop
  endfacet
  facet normal -0.54596 0.751898 0.369563
    outer loop
      vertex -21.997 41.5082 0.75
      vertex -21.8978 41.2116 1.5
      vertex -21.7963 41.2853 1.5
    endloop
  endfacet
  facet normal 0.924091 -0.0970778 0.369637
    outer loop
      vertex -24.3 42.4 1.5
      vertex -24 42.4 0.75
      vertex -24.2869 42.5247 1.5
    endloop
  endfacet
  facet normal 0.92409 -0.0972467 0.369595
    outer loop
      vertex -24.2869 42.5247 1.5
      vertex -23.9738 42.6495 0.75
      vertex -24.2672 42.7119 1.5
    endloop
  endfacet
  facet normal 0.924097 -0.0970394 0.369632
    outer loop
      vertex -23.9738 42.6495 0.75
      vertex -24.2869 42.5247 1.5
      vertex -24 42.4 0.75
    endloop
  endfacet
  facet normal 0.192964 0.908894 0.369697
    outer loop
      vertex -23.1708 41.2587 0.75
      vertex -22.9568 40.9082 1.5
      vertex -22.9254 41.2066 0.75
    endloop
  endfacet
  facet normal 0.193214 0.908874 0.369617
    outer loop
      vertex -22.9568 40.9082 1.5
      vertex -23.1708 41.2587 0.75
      vertex -23.2635 40.9734 1.5
    endloop
  endfacet
  facet normal -0.924091 -0.0970778 0.369637
    outer loop
      vertex -21.6 42.4 0.75
      vertex -21.3 42.4 1.5
      vertex -21.3131 42.5247 1.5
    endloop
  endfacet
  facet normal 0.804544 0.464872 0.369599
    outer loop
      vertex -24.1076 41.6813 1.5
      vertex -23.7708 41.6947 0.75
      vertex -23.8963 41.9119 0.75
    endloop
  endfacet
  facet normal 0.804698 0.464553 0.369663
    outer loop
      vertex -23.7708 41.6947 0.75
      vertex -24.1076 41.6813 1.5
      vertex -24.0135 41.5183 1.5
    endloop
  endfacet
  facet normal 0.804716 0.464601 0.369565
    outer loop
      vertex -24.1703 41.7899 1.5
      vertex -24.1076 41.6813 1.5
      vertex -23.8963 41.9119 0.75
    endloop
  endfacet
  facet normal 0.924119 0.0970029 0.369586
    outer loop
      vertex -24.2803 42.2129 1.5
      vertex -24.2672 42.0881 1.5
      vertex -23.9738 42.1505 0.75
    endloop
  endfacet
  facet normal 0.545942 0.751874 0.369638
    outer loop
      vertex -23.603 41.5082 0.75
      vertex -23.55 41.101 1.5
      vertex -23.4 41.3608 0.75
    endloop
  endfacet
  facet normal 0.546248 0.751708 0.369526
    outer loop
      vertex -23.55 41.101 1.5
      vertex -23.603 41.5082 0.75
      vertex -23.7022 41.2116 1.5
    endloop
  endfacet
  facet normal -0.545942 -0.751874 0.369638
    outer loop
      vertex -21.997 43.2918 0.75
      vertex -21.9485 43.6253 1.5
      vertex -22.2 43.4392 0.75
    endloop
  endfacet
  facet normal -0.546236 -0.751692 0.369575
    outer loop
      vertex -21.9485 43.6253 1.5
      vertex -21.997 43.2918 0.75
      vertex -21.7963 43.5147 1.5
    endloop
  endfacet
  facet normal 0.377789 -0.848914 0.369622
    outer loop
      vertex -23.3781 43.7756 1.5
      vertex -23.1708 43.5413 0.75
      vertex -23.2635 43.8266 1.5
    endloop
  endfacet
  facet normal -0.883643 -0.287388 0.369573
    outer loop
      vertex -21.7037 42.8881 0.75
      vertex -21.3909 42.8908 1.5
      vertex -21.4297 43.0101 1.5
    endloop
  endfacet
  facet normal -0.377789 0.848914 0.369622
    outer loop
      vertex -22.4292 41.2587 0.75
      vertex -22.3365 40.9734 1.5
      vertex -22.2219 41.0244 1.5
    endloop
  endfacet
  facet normal 0.690565 -0.621656 0.36968
    outer loop
      vertex -24.0135 43.2817 1.5
      vertex -23.7708 43.1053 0.75
      vertex -23.9296 43.3749 1.5
    endloop
  endfacet
  facet normal 0.54596 0.751898 0.369563
    outer loop
      vertex -23.8037 41.2853 1.5
      vertex -23.7022 41.2116 1.5
      vertex -23.603 41.5082 0.75
    endloop
  endfacet
  facet normal 0.883721 0.287043 0.369653
    outer loop
      vertex -24.2285 41.9688 1.5
      vertex -23.8963 41.9119 0.75
      vertex -23.9738 42.1505 0.75
    endloop
  endfacet
  facet normal 0.883618 0.28746 0.369575
    outer loop
      vertex -23.8963 41.9119 0.75
      vertex -24.2285 41.9688 1.5
      vertex -24.1703 41.7899 1.5
    endloop
  endfacet
  facet normal -0.690598 0.621686 0.369569
    outer loop
      vertex -21.997 41.5082 0.75
      vertex -21.7963 41.2853 1.5
      vertex -21.7124 41.3785 1.5
    endloop
  endfacet
  facet normal 0.545942 -0.751874 0.369638
    outer loop
      vertex -23.6515 43.6253 1.5
      vertex -23.4 43.4392 0.75
      vertex -23.55 43.699 1.5
    endloop
  endfacet
  facet normal -0.883643 0.287388 0.369573
    outer loop
      vertex -21.7037 41.9119 0.75
      vertex -21.4297 41.7899 1.5
      vertex -21.3909 41.9092 1.5
    endloop
  endfacet
  facet normal 0.377789 0.848914 0.369622
    outer loop
      vertex -23.3781 41.0244 1.5
      vertex -23.2635 40.9734 1.5
      vertex -23.1708 41.2587 0.75
    endloop
  endfacet
  facet normal -0.378092 -0.848763 0.369658
    outer loop
      vertex -22.2 43.4392 0.75
      vertex -22.2219 43.7756 1.5
      vertex -22.4292 43.5413 0.75
    endloop
  endfacet
  facet normal -0.378198 -0.848725 0.369638
    outer loop
      vertex -22.2219 43.7756 1.5
      vertex -22.2 43.4392 0.75
      vertex -22.05 43.699 1.5
    endloop
  endfacet
  facet normal -0.804692 -0.464564 0.369664
    outer loop
      vertex -21.8292 43.1053 0.75
      vertex -21.4297 43.0101 1.5
      vertex -21.5865 43.2817 1.5
    endloop
  endfacet
  facet normal -0.804559 -0.464881 0.369553
    outer loop
      vertex -21.4297 43.0101 1.5
      vertex -21.8292 43.1053 0.75
      vertex -21.7037 42.8881 0.75
    endloop
  endfacet
  facet normal 0.924071 0.0972967 0.369629
    outer loop
      vertex -24.2803 42.2129 1.5
      vertex -24 42.4 0.75
      vertex -24.3 42.4 1.5
    endloop
  endfacet
  facet normal 0.924117 0.0970415 0.369582
    outer loop
      vertex -24 42.4 0.75
      vertex -24.2803 42.2129 1.5
      vertex -23.9738 42.1505 0.75
    endloop
  endfacet
  facet normal 0.883845 0.286712 0.369614
    outer loop
      vertex -24.2672 42.0881 1.5
      vertex -24.2285 41.9688 1.5
      vertex -23.9738 42.1505 0.75
    endloop
  endfacet
  facet normal -0.690728 0.62147 0.369689
    outer loop
      vertex -21.997 41.5082 0.75
      vertex -21.5865 41.5183 1.5
      vertex -21.8292 41.6947 0.75
    endloop
  endfacet
  facet normal -0.690481 0.621828 0.369549
    outer loop
      vertex -21.5865 41.5183 1.5
      vertex -21.997 41.5082 0.75
      vertex -21.7124 41.3785 1.5
    endloop
  endfacet
  facet normal 0 0.929159 0.369681
    outer loop
      vertex -22.6746 41.2066 0.75
      vertex -22.9568 40.9082 1.5
      vertex -22.6432 40.9082 1.5
    endloop
  endfacet
  facet normal 0 0.929159 0.369681
    outer loop
      vertex -22.9568 40.9082 1.5
      vertex -22.6746 41.2066 0.75
      vertex -22.9254 41.2066 0.75
    endloop
  endfacet
  facet normal -0.690565 -0.621656 0.36968
    outer loop
      vertex -21.8292 43.1053 0.75
      vertex -21.5865 43.2817 1.5
      vertex -21.6704 43.3749 1.5
    endloop
  endfacet
  facet normal -0.193214 0.908874 0.369617
    outer loop
      vertex -22.4292 41.2587 0.75
      vertex -22.6432 40.9082 1.5
      vertex -22.3365 40.9734 1.5
    endloop
  endfacet
  facet normal -0.192964 0.908894 0.369697
    outer loop
      vertex -22.6432 40.9082 1.5
      vertex -22.4292 41.2587 0.75
      vertex -22.6746 41.2066 0.75
    endloop
  endfacet
  facet normal 0.690565 0.621656 0.36968
    outer loop
      vertex -24.0135 41.5183 1.5
      vertex -23.9296 41.4251 1.5
      vertex -23.7708 41.6947 0.75
    endloop
  endfacet
  facet normal 0.690738 0.621479 0.369653
    outer loop
      vertex -23.9296 41.4251 1.5
      vertex -23.603 41.5082 0.75
      vertex -23.7708 41.6947 0.75
    endloop
  endfacet
  facet normal 0.690473 0.621821 0.369576
    outer loop
      vertex -23.603 41.5082 0.75
      vertex -23.9296 41.4251 1.5
      vertex -23.8037 41.2853 1.5
    endloop
  endfacet
  facet normal -0.883748 -0.287008 0.369615
    outer loop
      vertex -21.7037 42.8881 0.75
      vertex -21.3328 42.7119 1.5
      vertex -21.3909 42.8908 1.5
    endloop
  endfacet
  facet normal -0.883741 -0.287049 0.369602
    outer loop
      vertex -21.3328 42.7119 1.5
      vertex -21.7037 42.8881 0.75
      vertex -21.6262 42.6495 0.75
    endloop
  endfacet
  facet normal 0.690473 -0.621821 0.369576
    outer loop
      vertex -23.9296 43.3749 1.5
      vertex -23.603 43.2918 0.75
      vertex -23.8037 43.5147 1.5
    endloop
  endfacet
  facet normal 0.690738 -0.621479 0.369653
    outer loop
      vertex -23.603 43.2918 0.75
      vertex -23.9296 43.3749 1.5
      vertex -23.7708 43.1053 0.75
    endloop
  endfacet
  facet normal -0.690473 -0.621821 0.369576
    outer loop
      vertex -21.997 43.2918 0.75
      vertex -21.6704 43.3749 1.5
      vertex -21.7963 43.5147 1.5
    endloop
  endfacet
  facet normal -0.690738 -0.621479 0.369653
    outer loop
      vertex -21.6704 43.3749 1.5
      vertex -21.997 43.2918 0.75
      vertex -21.8292 43.1053 0.75
    endloop
  endfacet
  facet normal 0.378198 -0.848725 0.369638
    outer loop
      vertex -23.4 43.4392 0.75
      vertex -23.3781 43.7756 1.5
      vertex -23.55 43.699 1.5
    endloop
  endfacet
  facet normal 0.378092 -0.848763 0.369658
    outer loop
      vertex -23.3781 43.7756 1.5
      vertex -23.4 43.4392 0.75
      vertex -23.1708 43.5413 0.75
    endloop
  endfacet
  facet normal 0.193214 -0.908874 0.369617
    outer loop
      vertex -23.1708 43.5413 0.75
      vertex -22.9568 43.8918 1.5
      vertex -23.2635 43.8266 1.5
    endloop
  endfacet
  facet normal 0.192964 -0.908894 0.369697
    outer loop
      vertex -22.9568 43.8918 1.5
      vertex -23.1708 43.5413 0.75
      vertex -22.9254 43.5934 0.75
    endloop
  endfacet
  facet normal -0.92409 -0.0972467 0.369595
    outer loop
      vertex -21.6262 42.6495 0.75
      vertex -21.3131 42.5247 1.5
      vertex -21.3328 42.7119 1.5
    endloop
  endfacet
  facet normal -0.924097 -0.0970394 0.369632
    outer loop
      vertex -21.3131 42.5247 1.5
      vertex -21.6262 42.6495 0.75
      vertex -21.6 42.4 0.75
    endloop
  endfacet
  facet normal -0.378198 0.848725 0.369638
    outer loop
      vertex -22.2 41.3608 0.75
      vertex -22.2219 41.0244 1.5
      vertex -22.05 41.101 1.5
    endloop
  endfacet
  facet normal -0.378092 0.848763 0.369658
    outer loop
      vertex -22.2219 41.0244 1.5
      vertex -22.2 41.3608 0.75
      vertex -22.4292 41.2587 0.75
    endloop
  endfacet
  facet normal -0.546248 0.751708 0.369526
    outer loop
      vertex -21.997 41.5082 0.75
      vertex -22.05 41.101 1.5
      vertex -21.8978 41.2116 1.5
    endloop
  endfacet
  facet normal -0.545942 0.751874 0.369638
    outer loop
      vertex -22.05 41.101 1.5
      vertex -21.997 41.5082 0.75
      vertex -22.2 41.3608 0.75
    endloop
  endfacet
  facet normal -0.545942 -0.751874 0.369638
    outer loop
      vertex -22.2 43.4392 0.75
      vertex -21.9485 43.6253 1.5
      vertex -22.05 43.699 1.5
    endloop
  endfacet
  facet normal -0.192964 -0.908894 0.369697
    outer loop
      vertex -22.4292 43.5413 0.75
      vertex -22.6432 43.8918 1.5
      vertex -22.6746 43.5934 0.75
    endloop
  endfacet
  facet normal -0.193214 -0.908874 0.369617
    outer loop
      vertex -22.6432 43.8918 1.5
      vertex -22.4292 43.5413 0.75
      vertex -22.3365 43.8266 1.5
    endloop
  endfacet
  facet normal -0.924091 0.0970778 0.369637
    outer loop
      vertex -21.6 42.4 0.75
      vertex -21.3131 42.2753 1.5
      vertex -21.3 42.4 1.5
    endloop
  endfacet
  facet normal 0.378092 0.848763 0.369658
    outer loop
      vertex -23.4 41.3608 0.75
      vertex -23.3781 41.0244 1.5
      vertex -23.1708 41.2587 0.75
    endloop
  endfacet
  facet normal 0.378198 0.848725 0.369638
    outer loop
      vertex -23.3781 41.0244 1.5
      vertex -23.4 41.3608 0.75
      vertex -23.55 41.101 1.5
    endloop
  endfacet
  facet normal -0.924097 0.0970394 0.369632
    outer loop
      vertex -21.6262 42.1505 0.75
      vertex -21.3131 42.2753 1.5
      vertex -21.6 42.4 0.75
    endloop
  endfacet
  facet normal -0.92409 0.0972467 0.369595
    outer loop
      vertex -21.3131 42.2753 1.5
      vertex -21.6262 42.1505 0.75
      vertex -21.3328 42.0881 1.5
    endloop
  endfacet
  facet normal -0.883741 0.287049 0.369602
    outer loop
      vertex -21.7037 41.9119 0.75
      vertex -21.3328 42.0881 1.5
      vertex -21.6262 42.1505 0.75
    endloop
  endfacet
  facet normal -0.883748 0.287008 0.369615
    outer loop
      vertex -21.3328 42.0881 1.5
      vertex -21.7037 41.9119 0.75
      vertex -21.3909 41.9092 1.5
    endloop
  endfacet
  facet normal -0.804559 0.464881 0.369553
    outer loop
      vertex -21.8292 41.6947 0.75
      vertex -21.4297 41.7899 1.5
      vertex -21.7037 41.9119 0.75
    endloop
  endfacet
  facet normal -0.804692 0.464564 0.369664
    outer loop
      vertex -21.4297 41.7899 1.5
      vertex -21.8292 41.6947 0.75
      vertex -21.5865 41.5183 1.5
    endloop
  endfacet
  facet normal 0.546236 -0.751692 0.369575
    outer loop
      vertex -23.603 43.2918 0.75
      vertex -23.6515 43.6253 1.5
      vertex -23.8037 43.5147 1.5
    endloop
  endfacet
  facet normal 0.545942 -0.751874 0.369638
    outer loop
      vertex -23.6515 43.6253 1.5
      vertex -23.603 43.2918 0.75
      vertex -23.4 43.4392 0.75
    endloop
  endfacet
  facet normal 0 -0.929159 0.369681
    outer loop
      vertex -22.9254 43.5934 0.75
      vertex -22.6432 43.8918 1.5
      vertex -22.9568 43.8918 1.5
    endloop
  endfacet
  facet normal 0 -0.929159 0.369681
    outer loop
      vertex -22.6432 43.8918 1.5
      vertex -22.9254 43.5934 0.75
      vertex -22.6746 43.5934 0.75
    endloop
  endfacet
  facet normal 0.804698 -0.464553 0.369663
    outer loop
      vertex -24.1076 43.1187 1.5
      vertex -23.7708 43.1053 0.75
      vertex -24.0135 43.2817 1.5
    endloop
  endfacet
  facet normal 0.804544 -0.464872 0.369599
    outer loop
      vertex -23.7708 43.1053 0.75
      vertex -24.1076 43.1187 1.5
      vertex -23.8963 42.8881 0.75
    endloop
  endfacet
  facet normal 0.804716 -0.464601 0.369565
    outer loop
      vertex -24.1703 43.0101 1.5
      vertex -23.8963 42.8881 0.75
      vertex -24.1076 43.1187 1.5
    endloop
  endfacet
  facet normal 0.883643 -0.287388 0.369573
    outer loop
      vertex -24.2091 42.8908 1.5
      vertex -23.8963 42.8881 0.75
      vertex -24.1703 43.0101 1.5
    endloop
  endfacet
  facet normal 0.883748 -0.287008 0.369615
    outer loop
      vertex -24.2672 42.7119 1.5
      vertex -23.8963 42.8881 0.75
      vertex -24.2091 42.8908 1.5
    endloop
  endfacet
  facet normal 0.883741 -0.287049 0.369602
    outer loop
      vertex -23.8963 42.8881 0.75
      vertex -24.2672 42.7119 1.5
      vertex -23.9738 42.6495 0.75
    endloop
  endfacet
endsolid OpenSCAD_Model
